<?xml version="1.0" encoding="UTF-8"?>
<!DOCTYPE svg PUBLIC "-//W3C//DTD SVG 1.1//EN" "http://www.w3.org/Graphics/SVG/1.1/DTD/svg11.dtd">
<!-- Creator: CorelDRAW 2021 (64 Bit) -->
<svg xmlns="http://www.w3.org/2000/svg" xml:space="preserve" width="88.0503mm" height="86.9995mm" version="1.1" style="shape-rendering:geometricPrecision; text-rendering:geometricPrecision; image-rendering:optimizeQuality; fill-rule:evenodd; clip-rule:evenodd"
viewBox="0 0 2183.98 2157.92"
 xmlns:xlink="http://www.w3.org/1999/xlink"
 xmlns:xodm="http://www.corel.com/coreldraw/odm/2003">
 <defs>
  <style type="text/css">
   <![CDATA[
    .fil30 {fill:#011434}
    .fil24 {fill:#012C53}
    .fil5 {fill:#031A46}
    .fil27 {fill:#03375B}
    .fil11 {fill:#033A64}
    .fil41 {fill:#042756}
    .fil31 {fill:#051638}
    .fil50 {fill:#055877}
    .fil0 {fill:#05C2C2}
    .fil4 {fill:#0D2339}
    .fil29 {fill:#12164E}
    .fil16 {fill:#142C52}
    .fil51 {fill:#160910}
    .fil28 {fill:#180936}
    .fil6 {fill:#25B3BD}
    .fil34 {fill:#2889A4}
    .fil43 {fill:#290834}
    .fil49 {fill:#2C97B1}
    .fil45 {fill:#2D2C66}
    .fil26 {fill:#301150}
    .fil38 {fill:#311562}
    .fil20 {fill:#32251A}
    .fil25 {fill:#34052B}
    .fil14 {fill:#36A7BB}
    .fil15 {fill:#370A36}
    .fil18 {fill:#38153A}
    .fil8 {fill:#38ABC4}
    .fil19 {fill:#46143B}
    .fil22 {fill:#461846}
    .fil44 {fill:#46A4BC}
    .fil58 {fill:#47264A}
    .fil42 {fill:#473732}
    .fil23 {fill:#4798B7}
    .fil37 {fill:#4B1660}
    .fil17 {fill:#4C9BAA}
    .fil13 {fill:#508AB0}
    .fil12 {fill:#529BAC}
    .fil48 {fill:#561A45}
    .fil39 {fill:#6795B7}
    .fil47 {fill:#67A7CE}
    .fil46 {fill:#68588F}
    .fil53 {fill:#6B99C8}
    .fil61 {fill:#877571}
    .fil62 {fill:#906F8E}
    .fil59 {fill:#915787}
    .fil60 {fill:#928B93}
    .fil56 {fill:#938874}
    .fil40 {fill:#D351A1}
    .fil33 {fill:#D53C95}
    .fil54 {fill:#E9A7C7}
    .fil57 {fill:#EAD5EF}
    .fil10 {fill:#EBA3B4}
    .fil35 {fill:#EBA4BB}
    .fil32 {fill:#EBAFD2}
    .fil3 {fill:#EFA0AF}
    .fil2 {fill:#F3A5B2}
    .fil36 {fill:#F3E8CB}
    .fil52 {fill:#F7F5F6}
    .fil55 {fill:#F8EBFB}
    .fil21 {fill:#FAF0BD}
    .fil9 {fill:#FCF7E7}
    .fil7 {fill:#FCF8D7}
    .fil1 {fill:#FCFBFC}
   ]]>
  </style>
 </defs>
 <g id="Camada_x0020_1">
  <metadata id="CorelCorpID_0Corel-Layer"/>
  <g id="_2077069747616">
   <path class="fil0" d="M1017.61 1144.98l6.71 -8.64c19.03,-31.18 61.96,-21.94 114.64,-19.92 78.87,3.02 276.4,-0.82 275.41,62.75 -0.7,45.17 -67.4,19.68 -129.13,23.31l-20.37 29.33c-64.39,1.53 -57.28,8.25 -117.97,-9.19l-16.05 -40.42 -106.85 -10.66c-13.69,-18.67 -4.16,-1.53 -6.38,-26.56zm117.49 -90.2c-32.25,-8.86 -33.24,-36.92 -38.96,-75.92 -37.39,7.41 -41.92,20.87 -100.31,11.7 -234.22,-36.74 -233.65,-427.31 53.81,-413.43 -39.92,-16.78 -90.81,-0.97 -134.05,-26.17 -21.47,-116.07 289.53,-101.95 218.98,6.16 -13.76,21.08 -18.08,14.12 -30.58,32.81 33.3,29.03 74.28,61.71 88.94,113.37 23.7,83.52 -0.24,113.45 -7.46,176.66 59.81,0.26 60.13,9 107.7,23.19 1.72,-82.98 -17.18,-113.13 23.96,-186.32 40.03,-71.21 98.2,-82.56 124.74,-105.22 -26.75,-28.45 -39.08,-9.07 -39.49,-64.97 18.44,-76.81 255,-39.82 239.33,46.08 -6.91,37.91 -41.4,35.06 -70.22,43.5 54.24,42.12 72.91,47.57 94.04,132.53 17.97,72.26 7.47,129.04 -28.62,178.36 -119.07,162.69 -257.93,50.54 -304.85,29.6 -12.72,46.39 -25.4,97.31 -69.94,117.53 -43.52,19.75 -121.7,9.21 -127.01,-39.47zm662.08 -418.76l14.65 -211.94c-41.29,-13.73 -213.42,-42.62 -254,-30.33 -62.17,15.87 -310.95,-30.75 -402.94,-34.67 -77.44,-3.3 -356.51,-55.85 -375.15,-32.73 -8.4,20.19 -107.88,1227.19 -98.7,1292.27 26.15,15 174.29,39.8 205.32,33.2 53.23,-11.31 61.06,-60.93 180.42,14.91 60.68,38.56 324.81,74.6 406.41,73.94 6.19,-96.23 -6.86,-151.4 13.02,-252.04 17.95,-90.85 -27.29,-148.95 35.36,-218.53 33.45,-37.15 60.98,-34.77 83.43,-55.01 25.53,-23.02 14.35,-69.14 19.94,-107.34 11.31,-77.22 77.15,-68.55 128.95,-122.79l29.92 -396.73c12.6,13.94 12.76,25.03 13.39,47.77z"/>
   <path class="fil1" d="M586.86 817.55c7.92,-18.75 -12.46,-8.79 13.86,-17.31l-7.04 60.68 -10.29 136.09c-5.44,-21.89 -14.03,-71.79 -12.8,-92.9 1.4,-24.01 13.6,-48.78 16.27,-86.56zm1270.57 915.58c-41.93,14.49 -7.23,12.09 -65.79,91.03 -45.74,61.66 -133.5,106.88 -209.4,58.18 -44.77,-28.72 -41.52,-51.22 -71.58,-88.31 -64.68,-2.3 -103.47,-17.81 -146.2,28.93 -24.92,9.51 -24.64,8.65 -46.05,24.2 -161.29,99.25 -171.51,175.41 -244.85,210.25 -125.87,59.8 -224.31,-133 -209.03,-217.86l-4.84 -12.3c-0.69,-1.92 -3.14,-11.23 -4.3,-13.83 -11.7,-26.23 2.08,-9.42 -17.07,-25.78l-91.03 64.95c-31.77,25.66 -51.51,46.69 -90.64,72.16 -93.27,60.73 -166.89,0.87 -203.48,-67.67 -33.41,-62.6 -68.07,-192.2 -30.16,-263.48 43.2,-81.22 163.52,-72.67 206.04,-9.29l22.17 -251.91c0.27,-4.37 2.93,-29.68 2.84,-30.97 -3.13,-41.01 6.9,-16.22 -12.57,-32.3 -78.17,38.71 -188.21,5.04 -246.52,-68.59 -55.12,-69.61 -66.76,-168.41 -76.56,-272.21l-117.77 -76.93c-65.78,-25.08 -101.83,-22.65 -111.98,-93.57 16.54,-49.96 50.19,-41.34 104.13,-20.44 -14.01,-13.21 -27.8,-28.89 -44.67,-45.06 -74.4,-71.3 -17.05,-148.89 67.88,-82.69 2,1.56 10.82,9.02 12.87,9.52 23.4,5.76 0.43,19.92 16.07,-7.52 -57.08,-53.34 19.08,-160.89 97.02,-39.56 25.61,39.88 58.36,87.54 78.09,123.29 27.63,-19.01 36.28,-42.45 58.98,-54.12 35.04,-18.02 72.48,-5.53 83.12,21.95 17.14,44.32 -15.15,57.37 -32.12,78.81 -13.34,16.85 -50.19,139.07 -48.01,169.29 13.31,184 45.69,192.73 146.59,198.75l29.21 -20.93c1.3,-0.84 3.95,-2.57 5,-3.24 1.06,-0.68 3.48,-2 5.03,-3.26 1.77,-24.55 0.7,-61.07 11.24,-76.74 -13.92,-101.63 28.43,-448.99 39.28,-572.99 7.18,-82 3.27,-206.38 50.31,-256.27 36.24,-38.42 140.17,-93.59 224.22,-86.15 121.21,10.73 1058.9,117.35 1096.83,139.16 15.44,17.96 -88.75,1194.12 -110.32,1418.4 -9.48,98.51 -5.49,103.43 -121.99,85.06zm-1240.24 -1152.72c-96.96,-36.53 -51.69,-50.29 -180.25,-18.19 -26.79,-52.01 -61.55,-105.25 -123.92,-124.02 -108.18,-32.56 -129.9,43.24 -187.92,61.6 -83.25,26.34 -97.37,63.31 -99.16,160.62 -1.17,63.67 -65.05,113.8 12.08,198.6 42.89,47.15 109.33,55.14 158.57,93.43 72,56 18.58,35.31 70.94,189.05 25.24,74.09 60.29,117.16 103.05,156.82 68.84,63.84 95.75,48.35 184.07,73.86 39.21,91.58 -66.64,75.38 -86.35,80.15 -312.21,75.58 -83.68,801.27 265.83,525.35 27.08,-21.38 34.84,-33.47 59.63,-44.57 26.68,128.62 174.52,295.22 333.1,193.25 65.6,-42.18 97.32,-93.34 151.28,-141.18 28.97,-25.68 131.71,-107.73 185.87,-106.4l76.1 77.93c116.01,74.14 244.81,19.1 315.63,-76.6 45.15,-61.02 17.88,-41.45 102.09,-53.37 133.72,-18.93 114.73,-201.51 126.68,-345.81 31.61,-381.48 60.49,-763.07 96.61,-1144.29 22.57,-238.23 -87.7,-201.53 -368.75,-235.54 -185.68,-22.47 -374.47,-41.56 -558.9,-67.4 -229.54,-32.16 -324.8,-73.36 -507.37,47.36 -54.74,36.2 -98.88,104.57 -106.82,204.62 -7.59,95.58 -19.83,198.88 -22.09,294.74z"/>
   <path class="fil2" d="M1521.27 1731.13c35.91,61.35 26.25,106.88 91.71,136.88 115.77,53.05 205.83,-122.87 233.58,-216.11 11.92,-40.03 33.55,-164.58 48.54,-186.58 -7.02,-16.85 3.02,-11.8 -14.05,-21.14l-76.7 -17.66c-0.58,-1.94 -2.97,-1.7 -4.3,-2.77 -0.22,43.05 -6.17,56.52 -25.97,87.72 -10.25,26.8 -21.08,48.83 -37.05,71.65 -15.81,22.6 -21.54,40.58 -34.15,61.58 -1.75,39.19 9.24,56.26 -3.19,79.96 -24.99,-23.75 -26.63,-77.13 -27.75,-114.14 -1.33,-44.26 4.37,-88.65 1.35,-131.9 0.93,-52.81 10.43,-19.72 -14.32,-35.35l13.37 -8.44c18.78,-15.84 34.3,-18.34 56.63,-30.14 10.55,-5.57 16.75,-10.05 25.8,-15.26 22.41,-12.89 8.57,-6.99 25.46,-11.39l31.93 -39.32c4.17,-61.74 22.6,-10.74 7.44,-73.62 -19.63,-18.28 -8.98,2.63 -11.6,-26.03 -0.86,-9.47 27.05,-91.07 -3.47,-149.17 -25,-2.41 -26.09,-6.44 -40.61,-8.66l-10.81 16.53c13.2,56.38 16.18,122.33 -20.88,161.26 -5.77,-80.84 22.12,-89.72 -14.87,-177.73l-23.71 -2.97c-60.64,30.6 6.12,113.65 -50.43,167.13 -44.34,41.93 -99.3,29.44 -114.3,98.47 -10.52,48.4 11.67,58.93 8.46,103.72 -1.89,26.45 -13.82,59.16 -18.12,88.09 -11.57,77.92 2.28,126.3 1.99,195.36z"/>
   <path class="fil3" d="M266.06 620.27c30.54,23.08 13.07,25.26 50.73,57.32l20.3 16.87c-48.08,14.77 -69.72,61.04 -92.02,87.98 -41.35,-12.94 -72.66,-36.02 -124.91,-31.73l-4.71 31.4c36.43,23.25 87.84,36.81 120.43,57.85 38.5,24.84 42.18,54.01 113.48,66.82 -9.59,93.96 6.89,185.45 51.14,255.73 62.45,99.19 188.58,126.45 212.42,68.88l5.84 -67.45 1.83 -29.28c-31.36,5.1 -26.67,7.92 -53.32,-2.36 -54.19,-7.44 -68.95,-36.01 -84.62,-83.88 -11.45,-34.98 -20.53,-99.16 -24.41,-138.03 -5.31,-53.08 0.58,-36.6 14.12,-71.84 10.11,-26.32 5.19,-40.44 13.47,-67.65 14.37,-47.21 43.29,-49.02 50.66,-72.93l-3.53 -33.1c-52.24,-24.5 -70.69,24.53 -91.17,56.43l-6.97 21.69c-59.92,11.25 -34.05,22.2 -59.71,69.84 -4.03,-4.5 -13.27,14.52 -9.32,-29.87 3.62,-40.54 42.35,-58.74 44.61,-67.61 0.91,-3.56 3.09,-4.11 4.54,-6.24 -18.11,-6.67 -51.14,-59.85 -70.8,-90.98 -27.32,-43.26 -34.26,-79.05 -92.84,-72.85 -0.19,41.82 11.3,41.74 14.79,74.99z"/>
   <path class="fil4" d="M1855.47 376.14c23.02,33.04 10.64,149.73 1.49,186.48l-44.78 472.66 -20.18 -12.05 -8.7 -16.92c-2.18,9.23 -11.96,12.87 -16.01,16.83 -6.04,0.63 -82.49,31.92 -90.87,36.46 -34.36,18.62 -34.07,54.99 -33.92,96.27 0.55,152.22 -165.76,60.92 -132.08,247.07 14.81,81.86 -50.3,214.06 -4.18,345.67 17.2,11.57 17.79,-20.67 12.12,27.65l2.91 -45.13c0.3,-69.07 -13.55,-117.45 -1.99,-195.36 4.3,-28.93 16.23,-61.64 18.12,-88.09 3.2,-44.8 -18.98,-55.32 -8.46,-103.72 15,-69.03 69.96,-56.54 114.3,-98.47 56.55,-53.48 -10.2,-136.54 50.43,-167.13l45.42 -22.25c21.66,-8.88 39.97,-5.51 55.48,0.67 27.62,3.5 22.42,7.35 45.28,-1.68 -12.75,-37.93 37.43,-594.8 48.62,-672.57 -18.04,-14.08 -21.28,-11.39 -41.66,-22.18 -163.14,-21.85 -326.34,-43.04 -490.28,-61.8 -113.84,-13.03 -409.19,-68.48 -503.46,-56.98l-32.54 -8.54c-1.02,-37.93 -5.66,-26.96 26.13,-44.39 48.61,-26.65 63.98,-39 132.71,-42.62 -32.2,22.61 -69.36,16.46 -108.63,56.32l-2.36 6.95c30.29,-3.8 24.3,-13.41 59.13,-15.34 19.63,-1.09 49,5.45 69.6,8.25 83.16,11.35 345.88,44.05 402.76,42.64 -93.53,-35.17 -372.05,-31.14 -456.28,-70.49 57.99,-8.6 920.29,103.7 1039.72,122.6l-8.97 12.56 8.78 8.22 20.99 -7.2c7.47,37.95 -105.78,1351.11 -117.96,1380.21 1.17,18.17 -6.53,10.64 4.93,15.97l18.45 -6.38 73.61 -836.81c1.28,-55.31 -5.03,-182.81 21.1,-223.78 -11.38,-101.64 27.79,-246.59 23.52,-352.97 -22.46,-13.29 -775.32,-108.13 -920.78,-122.86 -73.45,-7.44 -91.36,0.88 -116.81,-27.72 -83.78,-5.32 -185.45,37.47 -186.55,110.77l1051.84 129.18z"/>
   <path class="fil5" d="M679.1 1005.9c9.56,33.1 4.35,41.56 -3.76,76.32l17.52 -5.52c6.29,-101.54 44.44,-766.96 72.32,-795.02l-0.75 -21.53c-19.87,-40.94 49.19,-93.39 77.11,-108.36 51.24,-27.48 96.57,-46.99 161.81,-38.23l1069.26 133.29c-1.72,95.67 -57.4,535.28 -41.9,580.31l-18.12 152.49 -61.16 733.88 -58.47 1.71 -35.54 17.88c116.5,18.37 112.52,13.45 121.99,-85.06 21.57,-224.27 125.76,-1400.44 110.32,-1418.4 -37.93,-21.81 -975.62,-128.43 -1096.83,-139.16 -84.05,-7.44 -187.98,47.72 -224.22,86.15 -47.04,49.88 -43.13,174.26 -50.31,256.27 -10.86,124 -53.21,471.36 -39.28,572.99z"/>
   <path class="fil6" d="M692.86 1076.71c-7.03,83.81 -49.66,516.17 -28.46,560.12l215.25 41.77c65.07,-4.97 63.85,-77.68 188.67,18.99 41.83,32.4 303.08,55.4 388.11,68.4 45.32,6.93 41.83,13.25 49.82,-17.38 -46.13,-131.6 18.98,-263.8 4.18,-345.67 -33.68,-186.16 132.63,-94.85 132.08,-247.07 -0.15,-41.28 -0.44,-77.65 33.92,-96.27 8.38,-4.54 84.84,-35.83 90.87,-36.46l29.89 -387.12c-0.62,-22.74 -0.79,-33.83 -13.39,-47.77l-29.92 396.73c-51.8,54.23 -117.64,45.57 -128.95,122.79 -5.59,38.2 5.59,84.32 -19.94,107.34 -22.45,20.24 -49.98,17.86 -83.43,55.01 -62.64,69.58 -17.41,127.68 -35.36,218.53 -19.88,100.64 -6.84,155.81 -13.02,252.04 -81.6,0.66 -345.73,-35.39 -406.41,-73.94 -119.36,-75.84 -127.19,-26.23 -180.42,-14.91 -31.04,6.6 -179.18,-18.2 -205.32,-33.2 -9.18,-65.08 90.3,-1272.09 98.7,-1292.27 18.65,-23.12 297.71,29.43 375.15,32.73 91.99,3.92 340.77,50.54 402.94,34.67 -61.24,-32.26 -717.13,-77.2 -792.64,-112.07 -27.88,28.06 -66.03,693.48 -72.32,795.02z"/>
   <path class="fil6" d="M1631.23 895.48c-2.82,60.45 -74.26,114.93 -150.85,117.06 -77.58,2.15 -138.4,-58.08 -155.42,-114.85 -24.23,-44.49 -18.41,-146.01 18.28,-174.79 14.22,-37.86 48.59,-64.6 89.06,-77.39 44.62,-14.09 99.1,-4.36 135.75,16.5 54.18,30.84 80.82,96.76 83.38,160.75 1.1,27.45 -1.82,52.53 -20.2,72.71zm-460.67 -61.15l-5.87 37.81 1.1 23.94c28.33,-1.44 50.31,-9.09 69.06,8.23 52.11,24.55 92.63,61.49 55.2,134.69 -23.2,45.37 -78.21,52.31 -117.27,34.55l-37.68 -18.76c-1.93,-26.88 3.5,-10.18 -11.5,-39.93 -2.8,-5.06 -5.88,-7.86 -8.8,-20.95 -1.24,-5.56 -3.7,-29.94 -4.9,-37.7 -31.96,2.9 -32.95,13.61 -61.46,19.66 -13.01,2.76 -25.55,4.85 -39.39,2.79 -40.58,-6.04 -18.15,-0.68 -32.58,-18.42 -48.35,-20.82 -93.46,-38.98 -101.07,-92.42 -107.91,-103.44 85.78,-407.1 267.43,-211.3 35.24,37.98 46.79,103.44 37.88,150.18l-10.16 27.64zm367.98 -294.91l31.16 7.17 34.72 8.5c47.86,57.35 -9.36,63.37 -56.29,31.43l-13.57 -1.53c-48.33,-4.62 -83.38,10.44 -114.29,-18.26 -0.95,-26.66 6.21,-32.51 35.2,-37.98 30.53,-5.76 59.88,-3.38 83.07,10.67zm-560.81 -35.62l14.06 -5.18c74.62,-9.34 142.21,-14.41 127.32,52.97 -32.52,6.48 -56.07,-8.38 -93.77,-10.32 -36.04,-1.86 -59.76,8.43 -93.3,0.77 -3.92,-35.69 11.03,-33 45.7,-38.23zm157.37 550.98c5.31,48.68 83.49,59.22 127.01,39.47 44.54,-20.22 57.22,-71.14 69.94,-117.53 46.91,20.94 185.78,133.09 304.85,-29.6 36.09,-49.32 46.59,-106.1 28.62,-178.36 -21.13,-84.97 -39.8,-90.41 -94.04,-132.53 28.82,-8.45 63.31,-5.6 70.22,-43.5 15.67,-85.89 -220.89,-122.89 -239.33,-46.08 0.41,55.9 12.74,36.52 39.49,64.97 -26.54,22.66 -84.71,34.01 -124.74,105.22 -41.14,73.19 -22.24,103.33 -23.96,186.32 -47.56,-14.19 -47.89,-22.93 -107.7,-23.19 7.23,-63.21 31.16,-93.14 7.46,-176.66 -14.65,-51.66 -55.63,-84.34 -88.94,-113.37 12.5,-18.69 16.82,-11.73 30.58,-32.81 70.55,-108.11 -240.44,-122.23 -218.98,-6.16 43.24,25.2 94.14,9.39 134.05,26.17 -287.46,-13.88 -288.03,376.69 -53.81,413.43 58.39,9.16 62.91,-4.3 100.31,-11.7 5.72,39 6.71,67.06 38.96,75.92z"/>
   <path class="fil7" d="M1571.55 294.05l38.52 10.96 -56.02 -3.16c-38.52,2.67 -303.88,-33.13 -339.96,-45.5 101.27,-11.15 251.62,36.61 357.47,37.71zm-703.16 -84.76l-15.31 32.27c94.26,-11.51 389.62,43.95 503.46,56.98 163.94,18.76 327.13,39.95 490.28,61.8 46.84,5.73 47.06,-10.16 84.16,-23.41 -15.81,-14.77 12.47,0.29 -24.01,-18.71 -51.68,-0.14 -274.83,-29.42 -303.17,-47.42l370.56 38.72 8.97 -12.56c-119.42,-18.89 -981.72,-131.19 -1039.72,-122.6 84.23,39.36 362.75,35.32 456.28,70.49 -56.89,1.41 -319.6,-31.29 -402.76,-42.64 -20.6,-2.81 -49.97,-9.34 -69.6,-8.25 -34.83,1.93 -28.84,11.53 -59.13,15.34z"/>
   <path class="fil8" d="M990.19 136.19c25.44,28.61 43.36,20.29 116.81,27.72 145.46,14.73 898.32,109.56 920.78,122.86 4.27,106.37 -34.91,251.33 -23.52,352.97l7.1 175.16c3.33,1.75 8.1,6.55 9.18,7.2 1.08,0.64 7.74,3.9 10.19,5.06 -15.51,-45.03 40.18,-484.63 41.9,-580.31l-1069.26 -133.29 -13.17 22.63z"/>
   <path class="fil9" d="M1983.14 317.73l-36.81 465.91c-0.8,27.71 -9.47,33.29 -9.29,79.38 0.14,36.71 -4.44,187.18 -26.07,219.8 -2.09,-1.47 -33.15,-26.91 -35.36,-29.42 -35,-40 -12.95,-110.09 -5.66,-150.7l33.68 -482.91c-0,-0.22 -0,-26.41 -0.01,-26.48 -2.36,-20.28 6.86,-7.27 -6.33,-15.2l-8.81 4.41c-11.19,77.77 -61.37,634.65 -48.62,672.57 51.6,15.67 57.84,33.77 65.08,88.99 7.77,59.29 -4.32,76.89 -7.3,127.03l-5.23 140.06 -11.35 33.02c17.07,9.34 7.02,4.3 14.05,21.14 0.77,44.05 -0.31,79.36 -7.43,121.59 -5.61,33.26 -21.06,84.45 -22.57,109.58l21.08 -5.75c12.17,-29.1 125.42,-1342.27 117.96,-1380.21l-20.99 7.2z"/>
   <path class="fil10" d="M924.66 1679.51c0,20.62 -4.42,13.48 19.23,15.74 32.61,41.43 125.07,97.67 132.95,272.61 1.77,39.38 -4.46,39.48 9.33,60.28l100.73 -109.98c34.15,-31.04 71.69,-67.59 121.45,-92.61 -2.92,-19.54 4.16,-8.84 -15.9,-27.17 -0.32,-0.3 -20.83,-14.51 -24.36,-16.47 -23.98,-13.38 -41.48,-18.48 -72.41,-16.2 -87.18,39.69 -63.63,66.26 -66.46,95.74 -3.39,35.35 1.77,2.87 -6.51,18.4l-57.26 -154.58c-18.94,-8.41 -28.55,-30.16 -56.13,-42.04 -29.53,-12.71 -53.95,-5.79 -84.66,-3.71z"/>
   <path class="fil10" d="M832.35 1776.73l12.55 -20.04c-24.69,-56.12 -32.63,-38.36 -48.96,-63.55 -38.99,-10.51 -47.72,-9.64 -83.35,10.58 -41.03,23.28 -21.92,16.53 -36.83,58.88 -11.67,-9.68 -5.37,12.65 -14.41,-24.22l-20.35 -89.99 -4.65 -14.64c-33.53,-34.37 -65.7,-106.7 -146.84,-71.97l32.92 23.3c33.38,26.97 55.4,75.72 68.53,117.95 23.97,77.11 39.14,135.69 20.35,217.36 82.45,-27.9 144.74,-137.45 221.03,-143.66z"/>
   <path class="fil3" d="M881.08 1822.31c4.14,55.72 19.32,102.6 45.21,146.66 24.81,42.22 47.07,80.35 118.92,73.94 39.67,-101.89 -30.76,-308.32 -133.52,-333.89 -20.87,9.65 -25.86,16.06 -31.15,48.63 -3.92,24.16 -3.3,41.86 0.53,64.65z"/>
   <path class="fil11" d="M765.19 281.68c75.51,34.86 731.4,79.81 792.64,112.07 40.59,-12.29 212.71,16.6 254,30.33l-14.65 211.94 -29.89 387.12c4.05,-3.96 13.83,-7.59 16.01,-16.83l8.7 16.92c3.99,-102.07 16.41,-210.26 24.58,-313.52 5.41,-68.35 5.74,-278.52 35.83,-310.31 16.28,16.6 14.11,-9.25 9.72,72.49 -1.63,30.34 -3.48,60.4 -5.17,90.72 9.15,-36.75 21.53,-153.44 -1.49,-186.48 -8.3,27.4 17.27,13.41 -25.74,23.81l-789.46 -102.28c-75.15,-11.48 -214.2,-15.11 -275.83,-37.52l0.75 21.53z"/>
   <path class="fil2" d="M586.37 1919.64c36.07,-49.65 7.89,-150.74 -10.31,-200.72 -23.02,-63.23 -47.94,-137.93 -121.15,-133.9 -51.38,111.36 6.41,355.14 131.45,334.62z"/>
   <path class="fil12" d="M1353.54 721.58l-15.94 71.71 284.84 38.57c14.24,-7.88 8.76,-26.6 4.43,-48.48 -18.91,-95.48 -114.48,-141.64 -195.16,-114.86 -49.51,16.43 -48.64,31.97 -78.17,53.06z"/>
   <path class="fil13" d="M764.44 260.15c61.63,22.41 200.68,26.04 275.83,37.52l789.46 102.28c43.01,-10.4 17.44,3.59 25.74,-23.81l-1051.84 -129.18c1.1,-73.3 102.77,-116.09 186.55,-110.77l13.17 -22.63c-65.24,-8.76 -110.56,10.75 -161.81,38.23 -27.92,14.97 -96.98,67.42 -77.11,108.36z"/>
   <path class="fil14" d="M1891.1 1706.72l1.87 8.53 58.47 -1.71 61.16 -733.88c-13.43,11.32 -6.17,-5.51 -16.7,27.16 -8.12,-45.29 4.63,-107.28 -12.75,-143.29l-73.61 836.81 -18.45 6.38z"/>
   <path class="fil15" d="M586.37 1919.64c-125.04,20.52 -182.84,-223.26 -131.45,-334.62 73.2,-4.04 98.12,70.66 121.15,133.9 18.2,49.98 46.38,151.08 10.31,200.72zm251.95 -132c14.86,-18.72 -18.79,-15.28 13.84,-14.1l-19.82 3.18c-76.29,6.21 -138.59,115.76 -221.03,143.66 18.78,-81.67 3.62,-140.25 -20.35,-217.36 -13.13,-42.24 -35.15,-90.99 -68.53,-117.95l-32.92 -23.3c81.14,-34.73 113.3,37.6 146.84,71.97l-7.29 -49.44c-42.52,-63.37 -162.84,-71.93 -206.04,9.29 -37.92,71.28 -3.25,200.88 30.16,263.48 36.59,68.55 110.21,128.4 203.48,67.67 39.13,-25.48 58.87,-46.51 90.64,-72.16l91.03 -64.95z"/>
   <path class="fil16" d="M651.23 1332.41l-22.17 251.91 7.29 49.44 4.65 14.64c17.5,7.85 5.92,2.33 18.91,9.4 7.3,3.98 -0.21,0.94 12.54,7.32l39.05 14.85c-3.48,-11.3 68.09,-1.92 80.82,-0.59 34.37,4.41 62.1,20.26 102,12.33l30.34 -12.2c30.71,-2.08 55.13,-9 84.66,3.71 27.58,11.88 37.2,33.63 56.13,42.04 19.46,7.29 15.94,6.02 31.13,13.17l17.39 2.76 34.4 1.42c47.09,-2.16 98.04,5.56 143.04,14.66 14.62,2.96 56.11,10.3 66.49,16.14 52.76,29.7 23.8,18.31 6.54,49.56 42.73,-46.74 81.52,-31.23 146.2,-28.93l7.7 -17.77c5.68,-48.32 5.08,-16.09 -12.12,-27.65 -7.99,30.63 -4.51,24.31 -49.82,17.38 -85.03,-13 -346.28,-36.01 -388.11,-68.4 -124.81,-96.67 -123.59,-23.96 -188.67,-18.99l-215.25 -41.77c-21.19,-43.94 21.43,-476.31 28.46,-560.12l-17.52 5.52c-13.08,76.88 -1.7,172.11 -24.11,250.18z"/>
   <path class="fil17" d="M873.44 758.33c16.1,-20.89 0.49,-8.74 29.39,-13.03l240.35 7.99c-1.06,-32.41 -6.8,-34.21 1.9,-44.26 -52.07,-148.49 -263.17,-106.21 -271.65,49.31z"/>
   <path class="fil7" d="M879.64 834.63c43.18,152.14 244.7,141.55 277.07,-28.11 -9.71,-5.77 7.76,-0.8 -17.45,-8.1 -0.84,-0.25 -16.58,-2.71 -16.58,-2.71 -52.18,7.29 -14.34,2.81 -54.35,38.41 -39.17,34.85 -96.12,26.87 -132.47,-50.92l-55.39 -2.75c-13.89,15.06 -10.91,-10.25 -7.87,32.09 0.07,0.99 6.37,20.09 7.04,22.11z"/>
   <path class="fil18" d="M244.95 611.65c2.63,3.1 8.78,1.94 9.57,7.55 4.22,30.07 6.8,11.37 6.8,14.07l4.74 -13c-3.49,-33.25 -14.97,-33.17 -14.79,-74.99 58.58,-6.2 65.52,29.59 92.84,72.85 19.66,31.13 52.69,84.31 70.8,90.98 16.44,5.25 16.57,5.04 26.86,12.19 20.48,-31.9 38.93,-80.92 91.17,-56.43l3.53 33.1c-7.37,23.91 -36.3,25.71 -50.66,72.93 -8.28,27.21 -3.36,41.32 -13.47,67.65 -13.53,35.23 -19.43,18.76 -14.12,71.84 3.89,38.88 12.96,103.05 24.41,138.03 15.67,47.87 30.43,76.44 84.62,83.88l60.46 -0.9c8.39,-20.07 9.4,-7.34 0.89,-21.32 -100.9,-6.02 -133.28,-14.75 -146.59,-198.75 -2.19,-30.22 34.67,-152.45 48.01,-169.29 16.97,-21.44 49.26,-34.49 32.12,-78.81 -10.63,-27.48 -48.07,-39.97 -83.12,-21.95 -22.7,11.67 -31.35,35.11 -58.98,54.12 -19.73,-35.75 -52.47,-83.42 -78.09,-123.29 -77.94,-121.34 -154.1,-13.78 -97.02,39.56z"/>
   <path class="fil19" d="M911.69 1709.03c102.75,25.57 173.19,232 133.52,333.89 -71.86,6.41 -94.11,-31.72 -118.92,-73.94 -25.89,-44.07 -41.08,-90.94 -45.21,-146.66 -7.13,-8.05 6.21,7.51 -7.37,-11.13 -1.13,-1.55 -8.16,-7.66 -8.99,-11.46 -0.87,-3.97 -3.46,-4.49 -5.72,-6.52l5.53 46.35c-15.28,84.86 83.16,277.66 209.03,217.86 73.34,-34.84 83.55,-111 244.85,-210.25l-10.06 -21.62c-49.76,25.02 -87.3,61.57 -121.45,92.61l-100.73 109.98c-13.79,-20.81 -7.56,-20.9 -9.33,-60.28 -7.88,-174.93 -100.34,-231.18 -132.95,-272.61 -2.5,0.75 -5.74,1.64 -7.5,2.3 -1.68,0.63 -5.26,1.78 -7.08,2.5l-17.63 8.98z"/>
   <path class="fil18" d="M641.49 1269.13c-15.94,-23.59 -13.44,-19.91 -7.6,-59.08 3.81,-25.58 9.28,-57.32 -6.16,-78.66l-8.97 32.55 -5.84 67.45c-23.84,57.57 -149.97,30.31 -212.42,-68.88 -44.25,-70.28 -60.72,-161.77 -51.14,-255.73 -71.31,-12.81 -74.99,-41.97 -113.48,-66.82 -32.6,-21.04 -84.01,-34.6 -120.43,-57.85l-20.16 -19.09c-1.44,-4.13 -4.43,-3.43 -6.61,-5.19 10.15,70.92 46.2,68.49 111.98,93.57l117.77 76.93c9.79,103.8 21.44,202.6 76.56,272.21 58.31,73.63 168.34,107.3 246.52,68.59z"/>
   <path class="fil7" d="M1350.07 895.89c18.68,51.19 52.65,93.39 122.72,95.46 74.55,2.2 103.07,-41.03 133.61,-79.38 -11.29,-52.06 -7.76,-43.5 -68.16,-40.49 -39.27,41.96 -87.78,39.13 -127.93,-2.66 -1.45,1.05 -3.83,2.53 -4.68,2.64l-17.65 -4.02c-16.76,-9.57 7.45,-1.2 -21.48,-13.63 -12.74,22.65 -7.72,23.79 -5.15,42.07l-11.28 0.02z"/>
   <path class="fil20" d="M1906.97 318.21l34.93 5.27 -10.93 13.44c-37.1,13.25 -37.31,29.14 -84.16,23.41 20.38,10.8 23.62,8.11 41.66,22.18l8.81 -4.41 13.44 -8.78 -7.1 50.45 -33.68 482.91c-0.96,28.17 -3.13,23.15 5.9,43.37 6.21,-65.28 5.69,-181.43 28.48,-232.28 -14.27,-47.74 15.06,-294.74 22.22,-362.88 17.17,-7.59 20.19,-11.69 37,-18.74l-26.51 432.92 9.28 18.55 36.81 -465.91 -8.78 -8.22 -370.56 -38.72c28.34,18 251.49,47.28 303.17,47.42z"/>
   <path class="fil15" d="M1521.27 1731.13l-2.91 45.13 -7.7 17.77c30.06,37.09 26.82,59.58 71.58,88.31 75.9,48.69 163.66,3.48 209.4,-58.18 58.57,-78.94 23.86,-76.54 65.79,-91.03l35.54 -17.88 -1.87 -8.53c-11.45,-5.33 -3.75,2.2 -4.93,-15.97l-21.08 5.75c1.52,-25.13 16.96,-76.32 22.57,-109.58 7.12,-42.23 8.2,-77.54 7.43,-121.59 -14.99,22 -36.62,146.55 -48.54,186.58 -27.76,93.24 -117.81,269.16 -233.58,216.11 -65.46,-30 -55.8,-75.53 -91.71,-136.88z"/>
   <path class="fil6" d="M1017.61 1144.98c2.22,25.03 -7.3,7.89 6.38,26.56l106.85 10.66 16.05 40.42c-1.41,-25.11 22.35,-15.48 48.89,-12.61 10.75,1.16 28.35,1.88 38.24,4.4 53.98,13.77 10.2,-0.58 30.84,17.4l20.37 -29.33c61.72,-3.63 128.42,21.86 129.13,-23.31 0.99,-63.57 -196.54,-59.73 -275.41,-62.75 -52.68,-2.02 -95.62,-11.25 -114.64,19.92 74.08,-8.56 340.5,-1.86 379.75,43.76 -31.34,26.02 -137.53,-10.93 -184.97,-14.94 -56.75,-4.8 -160.36,-0.91 -201.49,-20.17z"/>
   <path class="fil21" d="M1869.95 902.7c-7.29,40.61 -29.35,110.7 5.66,150.7 2.2,2.52 33.27,27.96 35.36,29.42 21.63,-32.62 26.21,-183.08 26.07,-219.8 -0.18,-46.1 8.5,-51.68 9.29,-79.38l-9.28 -18.55c-6.32,6.02 -5.95,-1.2 -17.94,18.07l-1.27 -41.61c-23.02,-12 14.11,-0.53 -6.5,0.02 -16.41,0.43 11.86,10.28 -3.51,-0.11l-3.48 -27.68c-22.8,50.85 -22.28,167 -28.48,232.28 -9.03,-20.22 -6.86,-15.19 -5.9,-43.37z"/>
   <path class="fil22" d="M281.13 700.95c-12.23,22.37 -21.41,30.94 -47.43,43.23 -54.84,-68.99 -100.64,-76.1 -91.28,-129.61 39.48,-11 58.59,9.45 78.19,29.73 33.1,34.25 42.56,25.92 60.51,56.66zm-192.46 56.89c2.18,1.76 5.17,1.06 6.61,5.19l20.16 19.09 4.71 -31.4c52.25,-4.29 83.57,18.79 124.91,31.73 22.3,-26.94 43.94,-73.21 92.02,-87.98l-20.3 -16.87c-37.66,-32.06 -20.19,-34.24 -50.73,-57.32l-4.74 13c-0.01,-2.7 -2.58,16 -6.8,-14.07 -0.79,-5.61 -6.94,-4.45 -9.57,-7.55 -15.64,27.45 7.32,13.28 -16.07,7.52 -2.05,-0.51 -10.87,-7.97 -12.87,-9.52 -84.93,-66.21 -142.28,11.38 -67.88,82.69 16.87,16.17 30.66,31.84 44.67,45.06 -53.93,-20.9 -87.59,-29.52 -104.13,20.44z"/>
   <path class="fil23" d="M1792 1023.23l20.18 12.05 44.78 -472.66c1.69,-30.32 3.54,-60.38 5.17,-90.72 4.39,-81.74 6.57,-55.89 -9.72,-72.49 -30.09,31.79 -30.42,241.96 -35.83,310.31 -8.18,103.26 -20.59,211.45 -24.58,313.52z"/>
   <path class="fil7" d="M1904.34 713.79l3.48 27.68c15.37,10.39 -12.9,0.54 3.51,0.11 20.61,-0.55 -16.52,-12.01 6.5,-0.02l1.27 41.61c11.99,-19.27 11.62,-12.05 17.94,-18.07l26.51 -432.92c-16.81,7.05 -19.83,11.15 -37,18.74 -7.16,68.14 -36.49,315.13 -22.22,362.88z"/>
   <path class="fil24" d="M875.4 867.81c-16.3,-59.59 -7.56,-12.19 4.23,-33.18 -0.67,-2.01 -6.97,-21.11 -7.04,-22.11 -3.05,-42.34 -6.02,-17.03 7.87,-32.09 -18.27,-23.09 -6.01,-6.15 -1.54,-13.49l41.56 -1.4 -47.04 -7.22c8.48,-155.51 219.58,-197.79 271.65,-49.31l9.22 7.16 4.29 69.98c15.28,-18.44 8.94,31.1 12.86,-27.77 1.38,-20.76 -4.27,-18.39 -7.07,-23.66l6.16 99.59 10.16 -27.64c8.91,-46.74 -2.64,-112.2 -37.88,-150.18 -181.65,-195.8 -375.34,107.86 -267.43,211.3z"/>
   <path class="fil25" d="M1804.54 1089.92c30.51,58.1 2.6,139.7 3.47,149.17 2.61,28.67 -8.04,7.76 11.6,26.03 19.03,-57.86 25.04,-108.88 11.63,-183.81 50.66,12.26 58.04,82.02 49.09,139.32 -7.99,51.11 -30.07,92.25 -68.16,118.11l-31.93 39.32c19.15,4.38 10.28,-3.99 14.11,12.62 31.56,-18.89 64.28,-53.14 85.62,-94.28l17.67 -25.28c2.98,-50.13 15.07,-67.73 7.3,-127.03 -7.23,-55.22 -13.47,-73.32 -65.08,-88.99 -22.87,9.03 -17.66,5.18 -45.28,1.68l9.97 33.15z"/>
   <path class="fil26" d="M880.46 780.44l55.39 2.75c36.35,77.79 93.3,85.78 132.47,50.92 40,-35.6 2.17,-31.12 54.35,-38.41 -2.63,-1.34 -6.03,-6.89 -7.46,-4.74 -1.37,2.07 -5.62,-3.45 -7.29,-4.36 -1.6,-0.87 -11.27,-6.18 -13.81,-7.1l34.89 0.52 -208.52 -14.48 -41.56 1.4c-4.46,7.34 -16.73,-9.6 1.54,13.49z"/>
   <path class="fil27" d="M1017.61 1144.98c41.13,19.26 144.74,15.37 201.49,20.17 47.44,4.02 153.63,40.96 184.97,14.94 -39.25,-45.62 -305.68,-52.32 -379.75,-43.76l-6.71 8.64z"/>
   <path class="fil28" d="M1672.34 1434.84c14.5,22.51 13.45,23.88 0.94,43.79 3.02,43.25 -2.67,87.63 -1.35,131.9 1.11,37.01 2.76,90.39 27.75,114.14 12.43,-23.7 1.44,-40.77 3.19,-79.96 -30.78,-6.62 -23.49,-74.35 -19.3,-115.64 3.1,-30.53 6.53,-30.61 15.76,-45.89 4.96,-33.06 3.5,-36.09 24.24,-52.86l32.6 -17.03 18.51 -6.03c-5.33,55.16 -0.39,47.81 -20.97,93.83 8.85,19.02 -13.58,21.73 20.37,10.4 19.81,-31.21 25.75,-44.67 25.97,-87.72l-5.71 -33.09c-3.83,-16.62 5.04,-8.24 -14.11,-12.62 -16.89,4.4 -3.05,-1.5 -25.46,11.39 -9.06,5.21 -15.25,9.69 -25.8,15.26 -22.33,11.8 -37.85,14.3 -56.63,30.14z"/>
   <path class="fil29" d="M1324.96 897.69c-10.03,-57.03 -9.1,-26.24 10.84,-37.99l-4.35 -43.46 57.32 8.99 9.92 19.95 8.43 -13.19c23.61,-9.92 58.02,-5.19 85.45,2.02l29.76 12.64 21.06 0.55 85.37 4.74c-1.62,-22.63 17.18,-23.06 -6.3,-20.08l-284.84 -38.57 15.94 -71.71 -10.31 1.32c-36.69,28.78 -42.51,130.3 -18.28,174.79z"/>
   <path class="fil30" d="M1324.96 897.69c17.02,56.77 77.84,117 155.42,114.85 76.59,-2.13 148.03,-56.6 150.85,-117.06 7.67,-25.01 24.63,-40.19 -6.33,-40.19l-18.5 56.68c-30.54,38.36 -59.06,81.59 -133.61,79.38 -70.06,-2.07 -104.04,-44.27 -122.72,-95.46l-14.28 -36.19c-19.94,11.75 -20.86,-19.04 -10.84,37.99z"/>
   <path class="fil31" d="M1158.61 786.16l-29.61 -6.14 -34.89 -0.52c2.54,0.92 12.22,6.23 13.81,7.1 1.67,0.91 5.92,6.43 7.29,4.36 1.43,-2.15 4.83,3.4 7.46,4.74 0,0 15.74,2.46 16.58,2.71 25.22,7.3 7.74,2.33 17.45,8.1 -32.36,169.66 -233.89,180.25 -277.07,28.11 -11.8,20.98 -20.54,-26.42 -4.23,33.18 7.62,53.44 52.73,71.6 101.07,92.42 68.32,5.4 78.57,-5.83 129.53,-24.19 35.29,-27.87 30.77,-41.79 58.68,-63.9l5.87 -37.81 -6.16 -99.59c2.81,5.27 8.46,2.9 7.07,23.66 -3.93,58.87 2.42,9.33 -12.86,27.77z"/>
   <path class="fil32" d="M1819.6 1265.12c15.16,62.87 -3.27,11.87 -7.44,73.62 38.08,-25.86 60.17,-67 68.16,-118.11 8.95,-57.3 1.57,-127.05 -49.09,-139.32 13.41,74.93 7.4,125.94 -11.63,183.81z"/>
   <path class="fil29" d="M1163.88 945.77c26.01,-40.39 88.48,-26.26 108.99,3.19 14.09,20.22 16.49,40.31 9.95,66.2 -8.38,33.16 -20.47,34.71 -44.64,41.5 -32.23,23.4 -100.33,-6.61 -96.34,-71.25 2.54,-41.13 21.94,-39.57 22.04,-39.64zm-40.27 69.07c15,29.75 9.57,13.05 11.5,39.93l37.68 18.76c39.06,17.76 94.08,10.81 117.27,-34.55 37.43,-73.2 -3.1,-110.14 -55.2,-134.69 -81.94,-2.78 -118.15,24.51 -111.25,110.54z"/>
   <path class="fil24" d="M1343.23 722.9l10.31 -1.32c29.53,-21.09 28.66,-36.63 78.17,-53.06 80.68,-26.78 176.26,19.38 195.16,114.86 4.33,21.88 9.81,40.6 -4.43,48.48 23.48,-2.99 4.68,-2.55 6.3,20.08l-3.84 3.35c30.96,0 14,15.18 6.33,40.19 18.38,-20.18 21.29,-45.26 20.2,-72.71 -2.56,-63.99 -29.2,-129.91 -83.38,-160.75 -36.66,-20.86 -91.13,-30.59 -135.75,-16.5 -40.47,12.79 -74.84,39.53 -89.06,77.39z"/>
   <path class="fil33" d="M1238.18 1056.67c14.15,-45.56 31.92,-45.1 6.47,-95.89 -8.62,18.3 -19.94,16.03 -40.33,11.87l-39.32 -5.6 -1.12 -21.27c-0.1,0.07 -19.5,-1.49 -22.04,39.64 -3.99,64.64 64.11,94.66 96.34,71.25z"/>
   <path class="fil34" d="M1983.16 863.52c17.38,36 4.63,98 12.75,143.29 10.53,-32.66 3.27,-15.84 16.7,-27.16l18.12 -152.49c-2.45,-1.16 -9.11,-4.42 -10.19,-5.06 -1.08,-0.65 -5.85,-5.45 -9.18,-7.2l-7.1 -175.16c-26.12,40.97 -19.82,168.47 -21.1,223.78z"/>
   <path class="fil35" d="M233.7 744.17c26.02,-12.28 35.2,-20.86 47.43,-43.23 -17.95,-30.74 -27.41,-22.42 -60.51,-56.66 -19.6,-20.28 -38.72,-40.73 -78.19,-29.73 -9.36,53.52 36.43,60.62 91.28,129.61z"/>
   <path class="fil26" d="M1172.32 1756.14l23.36 9.56c30.93,-2.27 48.42,2.83 72.41,16.2 3.53,1.97 24.03,16.18 24.36,16.47 20.06,18.33 12.98,7.63 15.9,27.17l10.06 21.62c21.41,-15.55 21.13,-14.7 46.05,-24.2 17.26,-31.25 46.21,-19.87 -6.54,-49.56 -10.39,-5.84 -51.87,-13.18 -66.49,-16.14 -45,-9.1 -95.95,-16.82 -143.04,-14.66l23.95 13.54z"/>
   <path class="fil36" d="M1794.34 1390.68l5.71 33.09c1.32,1.07 3.71,0.83 4.3,2.77l76.7 17.66 11.35 -33.02c-16.44,-15.8 -13.23,22.5 -13.52,-36.03 -0.02,-2.86 3.66,-23.86 4.27,-29.74 2.1,-20 4.21,-34.95 -3.19,-49.01 -21.33,41.14 -54.05,75.39 -85.62,94.28z"/>
   <path class="fil37" d="M795.94 1693.14c16.32,25.19 24.27,7.43 48.96,63.55l-12.55 20.04 19.82 -3.18c-32.64,-1.18 1.01,-4.62 -13.84,14.1 19.14,16.36 5.36,-0.45 17.07,25.78 1.16,2.6 3.61,11.91 4.3,13.83l4.84 12.3 -5.53 -46.35c2.25,2.03 4.85,2.55 5.72,6.52 0.83,3.79 7.86,9.91 8.99,11.46 13.58,18.64 0.25,3.08 7.37,11.13 -3.83,-22.79 -4.45,-40.5 -0.53,-64.65 5.29,-32.57 10.28,-38.98 31.15,-48.63l17.63 -8.98c1.82,-0.71 5.4,-1.87 7.08,-2.5 1.76,-0.65 5,-1.55 7.5,-2.3 -23.65,-2.26 -19.23,4.88 -19.23,-15.74l-30.34 12.2c-39.9,7.93 -67.64,-7.92 -102,-12.33l3.62 13.77z"/>
   <path class="fil38" d="M628.62 1110.07c8.51,13.98 7.5,1.25 -0.89,21.32 15.44,21.34 9.97,53.08 6.16,78.66 -5.83,39.17 -8.33,35.49 7.6,59.08 19.47,16.08 9.45,-8.71 12.57,32.3 0.1,1.29 -2.56,26.61 -2.84,30.97 22.41,-78.07 11.03,-173.3 24.11,-250.18 8.11,-34.77 13.32,-43.22 3.76,-76.32 -10.54,15.67 -9.48,52.18 -11.24,76.74 -1.56,1.25 -3.97,2.58 -5.03,3.26 -1.05,0.67 -3.7,2.41 -5,3.24l-29.21 20.93z"/>
   <path class="fil39" d="M873.44 758.33l47.04 7.22 208.52 14.48 29.61 6.14 -4.29 -69.98 -9.22 -7.16c-8.7,10.05 -2.97,11.85 -1.9,44.26l-240.35 -7.99c-28.91,4.29 -13.29,-7.86 -29.39,13.03z"/>
   <path class="fil40" d="M1163.88 945.77c0.58,-0.27 25.11,-10.52 25.21,-10.53 30.93,-2.89 21.89,6.39 25.73,8.95 1.25,13.11 -2.67,15.7 -10.5,28.46 20.39,4.16 31.71,6.43 40.33,-11.87 25.45,50.79 7.68,50.32 -6.47,95.89 24.17,-6.79 36.26,-8.34 44.64,-41.5 6.54,-25.89 4.14,-45.98 -9.95,-66.2 -20.51,-29.45 -82.97,-43.58 -108.99,-3.19z"/>
   <path class="fil41" d="M977.73 503.8c-34.67,5.23 -49.62,2.54 -45.7,38.23 33.54,7.66 57.25,-2.62 93.3,-0.77 37.71,1.94 61.25,16.8 93.77,10.32 14.89,-67.37 -52.7,-62.31 -127.32,-52.97l58.16 6.45c11.17,0.36 19.37,0.02 29.94,3.45 33.08,10.74 8.12,2.89 18.98,13.77 -17.97,13.3 -18.72,10.17 -32.47,10.32l-108.56 -7.59 19.9 -21.22z"/>
   <path class="fil26" d="M1702.87 1644.71c12.62,-20.99 18.34,-38.98 34.15,-61.58 15.98,-22.82 26.8,-44.85 37.05,-71.65 -33.95,11.34 -11.53,8.63 -20.37,-10.4l-6.61 14.36 -25.81 45.92c-0.67,-1.37 -3.18,3.56 -4.79,5.32 -11.98,32.46 -0.5,10.38 -23.41,26.26l6.24 -109.77c-9.23,15.29 -12.66,15.36 -15.76,45.89 -4.19,41.29 -11.47,109.02 19.3,115.64z"/>
   <path class="fil19" d="M1195.68 1765.7l-23.36 -9.56c-28.33,10.02 -29.96,16.29 -52.22,31.94l-16.02 -31.82c-15.37,0 -9,2.66 -7.5,-17.84 -15.18,-7.15 -11.67,-5.87 -31.13,-13.17l57.26 154.58c8.28,-15.53 3.12,16.95 6.51,-18.4 2.83,-29.48 -20.72,-56.05 66.46,-95.74z"/>
   <path class="fil25" d="M1693.67 1078.35l23.71 2.97c36.99,88.01 9.1,96.89 14.87,177.73 37.06,-38.93 34.07,-104.88 20.88,-161.26l-14.03 -41.69 -45.42 22.25z"/>
   <path class="fil22" d="M795.94 1693.14l-3.62 -13.77c-12.73,-1.33 -84.3,-10.72 -80.82,0.59l-34.09 17.49 -4.96 -32.34c-12.75,-6.38 -5.24,-3.34 -12.54,-7.32 -12.99,-7.07 -1.41,-1.55 -18.91,-9.4l20.35 89.99c9.04,36.87 2.74,14.54 14.41,24.22 14.91,-42.35 -4.2,-35.59 36.83,-58.88 35.63,-20.22 44.36,-21.1 83.35,-10.58z"/>
   <path class="fil38" d="M1534.55 584.98l13.57 1.53 53.54 0.24c-11.28,-21.17 -1.41,-3.66 -13.81,-17.63 -16.64,-18.75 -1.33,5.16 -18.15,-22.53l-31.16 -7.17c-45.67,6.64 -73.08,-12.71 -90.7,23.19 19.87,6.85 15,4.52 40.6,6.21 33.02,2.18 31.51,-6.39 46.11,16.16z"/>
   <path class="fil42" d="M1554.05 301.85l17.5 -7.8c-105.85,-1.09 -256.2,-48.86 -357.47,-37.71 36.08,12.37 301.44,48.17 339.96,45.5z"/>
   <path class="fil38" d="M1522.31 846.65l-29.76 -12.64c-27.43,-7.21 -61.84,-11.95 -85.45,-2.02 31.01,36.39 73.01,78.49 115.21,14.66z"/>
   <path class="fil43" d="M1398.68 845.18l11.63 23.64c40.14,41.79 88.66,44.62 127.93,2.66l5.14 -24.28 -21.06 -0.55c-42.2,63.83 -84.2,21.74 -115.21,-14.66l-8.43 13.19z"/>
   <path class="fil41" d="M1534.55 584.98c-14.59,-22.55 -13.09,-13.98 -46.11,-16.16 -25.61,-1.69 -20.74,0.64 -40.6,-6.21 17.62,-35.91 45.03,-16.55 90.7,-23.19 -23.19,-14.05 -52.54,-16.43 -83.07,-10.67 -28.99,5.47 -36.16,11.32 -35.2,37.98 30.91,28.7 65.95,13.63 114.29,18.26z"/>
   <path class="fil44" d="M1106.01 936.04c4.55,13.31 3.27,5.27 3.9,20.16 1.2,7.76 3.66,32.14 4.9,37.7 2.92,13.09 6,15.89 8.8,20.95 -6.91,-86.03 29.3,-113.32 111.25,-110.54 -18.75,-17.33 -40.73,-9.67 -69.06,-8.23l-1.1 -23.94c-27.91,22.11 -23.39,36.03 -58.68,63.9z"/>
   <path class="fil45" d="M991.79 498.62l-14.06 5.18 -19.9 21.22 108.56 7.59c13.75,-0.15 14.5,2.98 32.47,-10.32 -10.86,-10.87 14.1,-3.02 -18.98,-13.77 -10.57,-3.43 -18.77,-3.09 -29.94,-3.45l-58.16 -6.45z"/>
   <path class="fil9" d="M1335.79 859.7l14.28 36.19 11.28 -0.02c-2.56,-18.29 -7.59,-19.43 5.15,-42.07 28.92,12.44 4.71,4.07 21.48,13.63l17.65 4.02c0.85,-0.11 3.23,-1.58 4.68,-2.64l-11.63 -23.64 -9.92 -19.95 -57.32 -8.99 4.35 43.46z"/>
   <path class="fil46" d="M820.54 233.02c38.48,-14.13 6.02,-9.71 50.21,-30.69 39.26,-39.86 76.43,-33.71 108.63,-56.32 -68.72,3.62 -84.1,15.97 -132.71,42.62 -31.79,17.43 -27.16,6.46 -26.13,44.39z"/>
   <path class="fil47" d="M1699.33 1483.18l-6.24 109.77c22.91,-15.88 11.43,6.2 23.41,-26.26l7.07 -136.37c-20.74,16.77 -19.28,19.8 -24.24,52.86z"/>
   <path class="fil41" d="M1723.57 1430.32l-7.07 136.37c1.61,-1.76 4.12,-6.69 4.79,-5.32l25.81 -45.92c-4.01,-11.07 -4.32,-6.81 -4.54,-24.59 -0.01,-0.76 2.48,-26.35 2.58,-27.34 3.08,-28.8 2.47,-30.01 11.02,-50.24l-32.6 17.03z"/>
   <path class="fil48" d="M441.77 721.3c-10.28,-7.15 -10.42,-6.94 -26.86,-12.19 -1.45,2.13 -3.63,2.68 -4.54,6.24 -2.26,8.87 -40.99,27.07 -44.61,67.61 -3.96,44.39 5.29,25.36 9.32,29.87 25.66,-47.64 -0.21,-58.59 59.71,-69.84l6.97 -21.69z"/>
   <path class="fil49" d="M976.48 960.23c14.43,17.74 -8,12.37 32.58,18.42 13.84,2.06 26.38,-0.02 39.39,-2.79 28.51,-6.05 29.5,-16.76 61.46,-19.66 -0.63,-14.89 0.64,-6.85 -3.9,-20.16 -50.96,18.36 -61.21,29.6 -129.53,24.19z"/>
   <path class="fil50" d="M1146.89 1222.61c60.69,17.44 53.59,10.71 117.97,9.19 -20.64,-17.98 23.13,-3.63 -30.84,-17.4 -9.88,-2.52 -27.48,-3.24 -38.24,-4.4 -26.55,-2.87 -50.3,-12.5 -48.89,12.61z"/>
   <path class="fil51" d="M593.68 860.91c-1.06,-25.87 4.15,-24.86 -6.82,-43.37 -2.67,37.77 -14.87,62.55 -16.27,86.56 -1.23,21.11 7.36,71.01 12.8,92.9l10.29 -136.09z"/>
   <path class="fil52" d="M1538.23 871.48c60.4,-3.01 56.87,-11.57 68.16,40.49l18.5 -56.68 3.84 -3.35 -85.37 -4.74 -5.14 24.28z"/>
   <path class="fil53" d="M1756.17 1413.29c-8.55,20.23 -7.93,21.44 -11.02,50.24 -0.11,0.99 -2.59,26.58 -2.58,27.34 0.21,17.77 0.53,13.52 4.54,24.59l6.61 -14.36c20.57,-46.02 15.64,-38.68 20.97,-93.83l-18.51 6.03z"/>
   <path class="fil41" d="M1548.12 586.51c46.93,31.94 104.16,25.92 56.29,-31.43l-34.72 -8.5c16.82,27.69 1.52,3.79 18.15,22.53 12.4,13.97 2.53,-3.54 13.81,17.63l-53.54 -0.24z"/>
   <path class="fil54" d="M1739.09 1056.1l14.03 41.69 10.81 -16.53c14.52,2.22 15.61,6.25 40.61,8.66l-9.97 -33.15c-15.51,-6.18 -33.82,-9.55 -55.48,-0.67z"/>
   <path class="fil55" d="M1172.32 1756.14l-23.95 -13.54 -34.4 -1.42c-15.63,1.79 -11.09,-2.25 -9.89,15.08l16.02 31.82c22.26,-15.66 23.89,-21.93 52.22,-31.94z"/>
   <path class="fil56" d="M1879.96 1296.39c7.41,14.06 5.29,29.01 3.19,49.01 -0.62,5.88 -4.29,26.87 -4.27,29.74 0.3,58.54 -2.91,20.23 13.52,36.03l5.23 -140.06 -17.67 25.28z"/>
   <path class="fil57" d="M1163.88 945.77l1.12 21.27 39.32 5.6c7.83,-12.76 11.74,-15.35 10.5,-28.46 -3.84,-2.55 5.2,-11.84 -25.73,-8.95 -0.09,0.01 -24.63,10.26 -25.21,10.53z"/>
   <path class="fil58" d="M820.54 233.02l32.54 8.54 15.31 -32.27 2.36 -6.95c-44.19,20.98 -11.74,16.56 -50.21,30.69z"/>
   <polygon class="fil55" points="711.5,1679.96 672.46,1665.11 677.41,1697.45 "/>
   <path class="fil59" d="M618.75 1163.94l8.97 -32.55 -60.46 0.9c26.65,10.28 21.96,7.47 53.32,2.36l-1.83 29.28z"/>
   <path class="fil59" d="M1673.28 1478.63c12.51,-19.91 13.56,-21.28 -0.94,-43.79l-13.37 8.44c24.74,15.63 15.24,-17.46 14.32,35.35z"/>
   <path class="fil60" d="M586.86 817.55c10.97,18.5 5.76,17.5 6.82,43.37l7.04 -60.68c-26.32,8.53 -5.94,-1.43 -13.86,17.31z"/>
   <polygon class="fil56" points="1554.05,301.85 1610.07,305.01 1571.55,294.05 "/>
   <path class="fil60" d="M1930.97 336.92l10.93 -13.44 -34.93 -5.27c36.48,19 8.19,3.94 24.01,18.71z"/>
   <path class="fil61" d="M1903.63 419.79l7.1 -50.45 -13.44 8.78c13.19,7.93 3.97,-5.09 6.33,15.2 0,0.07 0,26.26 0.01,26.48z"/>
   <path class="fil62" d="M1104.08 1756.27c-1.2,-17.33 -5.73,-13.29 9.89,-15.08l-17.39 -2.76c-1.5,20.5 -7.87,17.84 7.5,17.84z"/>
  </g>
 </g>
</svg>
