<?xml version="1.0" encoding="UTF-8"?>
<!DOCTYPE svg PUBLIC "-//W3C//DTD SVG 1.1//EN" "http://www.w3.org/Graphics/SVG/1.1/DTD/svg11.dtd">
<!-- Creator: CorelDRAW 2021 (64 Bit) -->
<svg xmlns="http://www.w3.org/2000/svg" xml:space="preserve" width="98.4677mm" height="96.4064mm" version="1.1" style="shape-rendering:geometricPrecision; text-rendering:geometricPrecision; image-rendering:optimizeQuality; fill-rule:evenodd; clip-rule:evenodd"
viewBox="0 0 16303.94 15962.64"
 xmlns:xlink="http://www.w3.org/1999/xlink"
 xmlns:xodm="http://www.corel.com/coreldraw/odm/2003">
 <defs>
  <style type="text/css">
   <![CDATA[
    .fil30 {fill:#020313}
    .fil13 {fill:#023559}
    .fil48 {fill:#042855}
    .fil25 {fill:#070308}
    .fil21 {fill:#071A48}
    .fil0 {fill:#09BABF}
    .fil41 {fill:#111B52}
    .fil19 {fill:#172657}
    .fil15 {fill:#191B45}
    .fil2 {fill:#192448}
    .fil18 {fill:#25162B}
    .fil43 {fill:#26072A}
    .fil40 {fill:#280A35}
    .fil38 {fill:#29120D}
    .fil32 {fill:#291B56}
    .fil5 {fill:#2BAEC0}
    .fil36 {fill:#2EC3C6}
    .fil17 {fill:#340C4B}
    .fil47 {fill:#351829}
    .fil9 {fill:#37153B}
    .fil8 {fill:#37A8BA}
    .fil16 {fill:#391759}
    .fil12 {fill:#431662}
    .fil28 {fill:#46B3C7}
    .fil14 {fill:#4795BB}
    .fil11 {fill:#4A8CBA}
    .fil10 {fill:#5594BC}
    .fil39 {fill:#5997A0}
    .fil35 {fill:#858697}
    .fil29 {fill:#92548A}
    .fil51 {fill:#9998A6}
    .fil42 {fill:#B24F94}
    .fil24 {fill:#CA3E95}
    .fil20 {fill:#D24E91}
    .fil22 {fill:#D2586B}
    .fil33 {fill:#DB5196}
    .fil46 {fill:#DEA295}
    .fil23 {fill:#E2AA53}
    .fil49 {fill:#E4D79F}
    .fil31 {fill:#E8A6B9}
    .fil7 {fill:#ECA4B3}
    .fil4 {fill:#EDA2AB}
    .fil37 {fill:#EDD88E}
    .fil34 {fill:#F0E05D}
    .fil27 {fill:#F2D76F}
    .fil50 {fill:#F3EACC}
    .fil26 {fill:#F6EBD8}
    .fil44 {fill:#F7EBFB}
    .fil6 {fill:#FBF6D7}
    .fil3 {fill:#FBF8C8}
    .fil45 {fill:#FCF6E8}
    .fil1 {fill:#FCFCFA}
   ]]>
  </style>
 </defs>
 <g id="Camada_x0020_1">
  <metadata id="CorelCorpID_0Corel-Layer"/>
  <g id="_2076702030672">
   <path class="fil0" d="M6488.05 10544.96c457.32,205.43 592.85,274.06 1103.67,90.55 -121.3,255.96 -561.52,323.75 -886.83,152.41 -186.41,-98.17 -132.91,-98.25 -216.84,-242.97zm3566.39 -2152.05c185.84,40.86 144.85,313.45 114.35,391.34 -182.9,466.99 -1248.46,169.88 -1249.11,170.01 -54.06,10.43 -63.25,62.62 -188.39,119.99 -36.82,16.87 -87.47,31.21 -105.75,41.46 -57.72,32.34 -38,10.45 -86.46,72.62 -37.34,47.9 -397.28,1541.95 -1639.54,1308.72 -652.9,-122.56 -957.98,-847.55 -958.06,-1447.9 -0.15,-1089.51 465.88,-287.59 1546.65,-328.85 129.1,-4.92 380.76,-36.61 504.25,-89.35 256.59,-109.58 61.2,-171.36 240.86,-371.54 174.88,82.16 136.47,211.72 243.66,315.27 130.9,126.47 3.54,40.98 168.84,93.12 -0.65,-229.08 4.6,-219.95 70.07,-390.1l-144.98 -72.08c-119.05,-59.67 -331.82,-188.43 -413.51,-298.3 -157.91,-212.35 -257.62,-417.85 -267.82,-767.28 -41.73,-1428.08 1458.55,-2070.52 1872.75,-661.26 258.93,880.95 -352.38,1377.61 -440.68,1541.75l83.22 31.39c198.08,52.64 612.42,81.31 649.66,340.97zm-5179.43 32.27c-331.63,13.46 -668.88,-477.82 -217.05,-745.49 49.19,-49.33 0.6,-19.44 81.36,-56.63 171.09,-78.76 412.77,-13.18 595.89,-28.6 -69.64,-157.61 -218.18,-331.87 -266.28,-537.05 -100.74,-429.82 34.44,-1104.84 258.07,-1381.89 60,-74.34 307.89,-261.96 430.17,-297.76 508.29,-148.85 919.91,120.13 1068.25,507.54 252.26,658.8 -36.56,1212.78 -64.97,1390.64 436.71,8.01 624.19,-80.01 868.71,241.2 412.52,541.87 -263.12,1300.52 -846.1,960.24 -341.29,-199.21 -345.72,-376.04 -395.99,-563.18 -21.21,-78.88 -8.11,-52.19 -39.23,-99.43 -208.39,3.26 -296.25,65.06 -529.84,75.87 62.17,324.89 97.09,511.33 -226,625.1 -167.75,59.08 -486.08,88.53 -646.08,-20.75 -83.09,-56.76 2.5,23.86 -70.92,-69.84zm4816.24 -2620.23c-648.48,-638 -828.45,-358.06 -975.26,-563.95 -163.18,-228.78 125.16,-684.92 896.58,-155.63 195.71,134.3 348.52,418.06 274.71,708.52l-196.03 11.06zm-4225 -685.02l-82.36 50.47c-123.45,-21.61 -19.59,41.41 -99.93,-52.37 6.16,-204.01 41.06,-225.56 154.28,-322.91 58.33,-50.14 164.1,-132.18 228.89,-176.47 21.21,-14.5 963.8,-376.6 911.25,292.44 -364.37,287.19 -708.78,-36.26 -965.54,280.24 -265.67,0 -71.58,16.09 -146.6,-71.4zm-577.48 7192.56c203.97,-72.37 2254.26,267.82 2548.74,349.65 165.03,45.85 2297.59,408.03 2552.41,397.42 37.77,-199.92 72.84,-574.04 87.37,-774.57 18.89,-260.85 98.98,-467.04 124.17,-736.53l106.63 -1203.96c19.21,-128.7 63.66,-177.05 79.71,-339.51 26.26,-265.7 71.55,-481.3 85.74,-772 36.36,-745.67 18.38,-285.77 97.09,-774.75l93.55 -803.84c25.86,-280.8 84.56,-457.64 84.87,-782.81l4.29 189.85c42.82,-401.52 86.53,-716.88 132.69,-1084.31l82.14 -797.27c34.21,-138.52 53.78,-68.17 39.36,-281.22 -86.83,-44.66 -601.77,-148.94 -727.84,-164.1 -229.03,-27.55 -610.65,-41.41 -808.61,-99.06 -350.97,-102.18 -1204.52,-190.15 -1571.4,-265.95 -127.15,-26.26 -259.89,-17.09 -394.04,-46.68 -128.98,-28.46 -197.91,-63.85 -351.63,-81.6 -448.03,-51.78 -918.75,-178.66 -1576.24,-251.08 -149.13,-16.44 -278.9,-7.78 -416.54,-40.48 -149.13,-35.45 -234.27,-77.66 -393.24,-51.99l-917.61 7108.65c-18.3,161.64 -168.29,905.39 -80.87,982.38 78.98,131.83 -183.91,29.52 518.78,163.26l479.33 71.94c210.7,79.59 55.24,3.71 121.15,88.57z"/>
   <path class="fil1" d="M12375.57 8126.33c18.73,95.54 -28.26,34.95 34.47,70.52l996.08 -752.41c-2.65,-223.33 78.04,-440.75 56.99,-587.9 -22.45,-157.17 -131.24,-306.17 -59.74,-484.1 88.88,-221.18 568.74,-338.5 643.68,344.98 320.95,-157.26 419.17,-496.32 765.86,-668.86 189.44,-94.28 406.34,-34.85 448.32,149.86 53.8,236.74 -146.19,336.8 -211.49,462.55 236.49,-69.43 697.19,-241.91 735.81,115.84 33.03,306.35 -354.15,383.81 -510.97,514.58 670.04,64.14 558.69,548.22 -72.03,593.28 -361.5,25.81 -315.26,31.89 -602.83,159.98 -199.04,88.67 -534.55,55.2 -645.68,124.27l-425.37 346.97c-161.11,126.43 -281,213.84 -442.45,328.47 -199.57,141.68 -794.12,497.72 -892.84,667.64 44.49,178.62 -246.94,2170 -301.02,2619.6 -36.49,303.45 -2.77,594.97 -219.77,766.74l-567.28 -97.96c-200.94,-26.94 -403.99,64.64 -507.64,181.9 -166.35,141.9 -6.44,127.1 -198.96,265.1 -69.29,49.67 -187.81,103.24 -303.53,106.18 -156.7,3.99 -523.52,-86.68 -708.67,-112.71l6.31 70.15c126.19,206.08 172.41,399.16 519.1,404.74 344.85,5.55 496.99,-181.22 674.23,-319.13 935.49,-727.87 1760.97,1632.68 962.3,1994.29 -678.12,307.05 -1003.64,-727.99 -1048.89,-812.53 -609.97,231.69 -1013.06,320.09 -1528.11,-107.16 -185.48,-153.89 -316.09,-369.2 -423.38,-605.65 -125.41,-276.3 -142.11,-556.49 -230.93,-796.41l-2410.36 -430.23c-222.72,0.65 -552.93,286.56 -734.45,378.82 -26.13,62.62 -2.32,18.06 -69.34,76.98 -354.14,311.32 -485.32,391.99 -833.88,819.49 -322.92,396.08 -517.34,881.2 -898.87,909.18 -347.91,25.5 -654.09,-290.6 -776.07,-441.61 -1189.49,-1472.55 -199.62,-2263.08 481,-1841.41 368.99,228.59 285.7,363.67 556.7,618.21 117.08,-137.78 170.03,-245.07 326.37,-362.51 179.32,-134.71 255.77,-255.88 417.85,-273.83 33.23,-53.75 46.08,-78.5 75.87,-147.55 -170.81,16.24 -317.48,-27.57 -491.23,-58.78 -297.36,-53.4 -327.71,-26.29 -412.55,-141.32 -196.06,-277.79 420.98,-2929.1 287.95,-3258.02 -118.8,-102.54 -210.38,-127.1 -271.43,-252.9 -178.43,-32.06 -1153.84,-985.28 -1301.15,-1152.2 -165.99,-188.08 -180.71,-55.8 -477.18,-147.05 -160.66,-49.46 -251.43,-137.84 -389.97,-197 -336.17,-143.57 -700.37,-6.62 -861.08,-359.33 0.84,-287.82 208.71,-314.02 485.62,-303.45 -291.85,-199.39 -608.21,-240.35 -462.89,-708.63 361.93,-96.35 355.69,-46.18 679.84,99.63 -59.41,-144.28 -239.31,-287.89 -165.69,-501.38 64.46,-186.92 285.74,-187.57 453.88,-86 274.71,165.94 416.84,497.71 670.07,698.98 95.6,-152.84 109.07,-332 263.78,-407.04 179.25,-86.93 365.78,-25.93 418.76,124.56 78.91,224.09 -64.31,329.17 -90.17,502.84 -16.72,112.34 39.57,402.04 34.77,582.76 418.63,294.4 387.83,412.93 843.25,768.92 107.43,83.96 165.73,161.54 250.43,260.8 60.57,28.6 28.05,24.85 105.9,16.43 -7.96,-365.78 343.94,-2817.98 417.85,-3392 77.03,-598.15 82.31,-1171.27 460.12,-1455.27 320.16,-240.67 781.57,-589.65 1374.19,-503.9 1100.32,159.19 2218.26,329.23 3314.08,507.67 1054.84,171.75 2274.38,289.94 3276.18,516.32 110.34,387.08 -132.76,1764.09 -200.26,2284.84 -100.09,772.13 -184.8,1542.86 -289.44,2312.16zm-8783.29 -1307.04c-572.07,-370.73 -14.79,-709.58 -264.38,-1326.05 -239.61,-591.84 -770.43,-468.81 -1168.51,-319.3 -258.86,-221.06 -834.01,-784.72 -1390.98,-234.19 -77.9,77.01 -122,182.35 -186.19,254.09 -126.9,141.78 -748.65,258.53 -539.65,1089.06 54.39,216.09 -236.38,798.69 384.01,1156.97 247.83,143.14 419.7,117.48 696.46,182.42l890.17 360.79 643.15 642.09c771.64,611.51 682.87,471.84 618.46,983.16 -55.57,441.11 -244.21,2098.17 -307.16,2310.55 -387.38,31.51 -816.28,-81.94 -1229.16,456.36 -731.22,953.32 538.54,3183.29 1776.75,2956.6 659.76,-120.77 889.43,-836.69 1290.09,-1248.63 354.33,-364.33 498.44,-499.84 929.36,-798.36 255,-176.64 347.78,-85.06 672.42,-33.2 2519.89,402.48 832.7,112.48 2202.7,1581.32 491.43,526.86 1165.23,426.38 1595.76,417.47 190.79,212.07 313.32,523.69 809.4,669.54 208.53,61.31 435.65,58 640.15,-19.59 1169.85,-443.89 686.17,-2085.82 316.75,-2538.26 121.05,-238.36 289.25,-175.44 360.05,-570l304.79 -2448.43c112.13,-893.63 -100.27,-415.5 1283.5,-1474.11 401.31,-307.01 172.4,-132.18 674.13,-280.39 326.4,-96.42 326.6,-161.88 718.02,-193.18 513.95,-41.06 977.02,-339.22 909.86,-919.76 -26.82,-231.86 -68.09,-124.7 23.08,-358.89 143.72,-369.2 15.95,-772.93 -306.04,-973.51 -187.93,-117.05 -123.11,-21.72 -229.14,-210.45 -69.38,-123.45 -105.59,-205.33 -196.14,-281.68 -167.03,-140.84 -450.67,-220.47 -735.49,-147.08 -256.89,66.18 -409.29,256.73 -574.72,372.4 -104.03,-43.83 -180.35,-162.66 -480.22,-192.2 -243.35,-23.98 -365.21,51.94 -540.26,127.18 110.36,-1250.96 622.09,-2499.73 -230.1,-2779.73 -260.07,-85.45 -712.29,-138.27 -994.98,-179.68 -725.01,-106.22 -5648.03,-952.26 -6128.34,-864.59 -673.96,123.01 -1186.19,507.38 -1483.37,872.37 -370.56,455.12 -374.15,1202.33 -457.5,1891.88l-253.83 1946.09c-28.83,118.6 8.83,27.19 -42.93,120.9z"/>
   <path class="fil2" d="M4022.86 7856.51l-21.19 65.44c-7.82,116.62 51.58,260.62 -56.61,701.81 -2.28,9.31 -31.03,136.93 -31.14,137.3 -69.1,219.72 92.36,-193.67 -21.46,62.16 -35.52,79.86 -1.84,33.99 -56.35,93.37 133.02,328.92 -484.01,2980.23 -287.95,3258.02 84.84,115.03 115.19,87.92 412.55,141.32 173.76,31.21 320.42,75.02 491.23,58.78 105.34,95.6 -43.6,30.4 86.15,37.55l131.78 14.04c174.52,22.65 289.58,-0.25 453.75,40.47l746.25 157.38c10.91,3.44 25.55,7.96 36.89,14.79l2410.36 430.23 89.06 -15.2c189.42,-28.91 856.76,75.12 980.31,186.9 185.15,26.03 551.97,116.7 708.67,112.71 115.72,-2.95 234.24,-56.51 303.53,-106.18 192.52,-138.01 32.6,-123.21 198.96,-265.1 -55.42,-37.12 -97.06,-76.12 -35.2,-134.75l991.04 -8074.69 13.13 -106.53 -114.46 -18.08 -19.27 124.03c-114.79,686.38 -179.63,1459.81 -261.59,2156.5l-665.83 5392.21c-27.63,249.81 -31.08,911.37 -284.28,840.58l-131.78 20.8c-146.15,74.79 -2252.7,-327.99 -2594.93,-390.83 -112.11,-20.58 -2509.08,-379.95 -2605.71,-479.05 -101.35,18.48 -1111.95,-66.28 -1218.48,-257.95 -38.55,-56.31 -12.2,24.27 -26.33,-76.66l753.19 -6127.29c87.39,-683.22 158.26,-1416.97 271.69,-2088.7 57.64,-75.9 55.05,-22.77 34.49,-132.81 43.3,-376.34 292.94,-554.38 586.41,-745.36 260.67,-169.63 583.84,-287.59 960.18,-240.91 737.84,91.53 1452.97,222.1 2174.65,322.01l3826.44 589.77c138.49,21.38 400.43,23.46 505.04,136.1 -459.61,63.9 -1580.1,-176.54 -2080.83,-254.24 -693.02,-107.54 -1389.62,-204.95 -2070.44,-312.38 -689.82,-108.87 -1396.41,-221.13 -2091.38,-311.05 -417.52,-54.03 -630.48,-55.57 -991.77,121.76 -234.72,115.21 -538.16,285.6 -556.59,607.93l6350.79 1012.95c115.8,3.36 117.59,25.35 175.51,-89.35 -1035.88,-152.1 -2075.29,-325.26 -3115.52,-491 -454.69,-72.46 -2802.04,-497.69 -3045.61,-462.32l-157.89 25c-22.82,-107.38 46.38,-69.53 -62.04,-94.88 3.15,-141.75 39.03,-146.09 135.13,-235.96 602.1,-563.03 1201.95,-293.65 1883.98,-213.48l4267.74 637.9c412.98,57.9 1054.44,258.51 1384.35,94.66 28.08,555.53 -198.96,1699.83 -268.76,2308.82 -88.45,771.75 -206.44,1545.39 -275.07,2315.97 93.1,-54.23 89.05,-95.41 118.67,-169.04l19.27 -55.65c104.64,-769.3 189.35,-1540.03 289.44,-2312.16 67.51,-520.75 310.61,-1897.76 200.26,-2284.84 -1001.8,-226.38 -2221.34,-344.56 -3276.18,-516.32 -1095.82,-178.44 -2213.76,-348.49 -3314.08,-507.67 -592.61,-85.75 -1054.03,263.23 -1374.19,503.9 -377.81,284 -383.09,857.12 -460.12,1455.27 -73.91,574.02 -425.81,3026.23 -417.85,3392z"/>
   <path class="fil3" d="M11553.5 4772.84l-991.04 8074.69 148.67 -94.97c52.42,-333.16 160.16,-1394.8 254.51,-1611.71 26.21,401.82 -98.92,1114.4 -142.79,1550.38 410.22,-107.94 307.03,-263.37 425.43,-1235.73 34.06,-279.64 132.13,-1235.58 234.46,-1400.74 70.34,-175.26 33.2,-257.06 -91.18,-317.71 27.19,-54.56 -52.26,-34.95 74,-42.92l0 -11.62c-201.06,-45.82 -230.3,-185.31 -200.25,-412.34 30.22,-228.33 112.49,-314.35 221.92,-346.3 13.92,-157.86 209.72,-223.33 324.3,-327.26 18.4,-230.42 541.53,-4326.56 514.33,-4429.77 -73.8,-279.92 171.64,37.95 -53.63,-94.84 -271.18,773.46 -215.12,2605.71 -487.32,3108.32 -20.38,-402.45 114.53,-1068.63 166.77,-1500.19 57.12,-472.16 122.81,-965.26 158.26,-1438.93 -97.71,37.49 -276,169.62 -305.57,264.43 -82.37,264.11 -345.76,3281.2 -492.11,3628.59 -2.28,-526.37 438.28,-3483.48 366.44,-3628.68 -115.16,60.24 -160.96,96.43 -125.18,267.31z"/>
   <path class="fil4" d="M11487.22 8923.86c-109.43,31.96 -191.7,117.97 -221.92,346.3 -30.05,227.02 -0.81,366.52 200.25,412.34 805.23,-451.11 1187.76,-680.11 1921.95,-1235.91l565.68 -458.03c198.49,-23.63 269.72,42.12 481.68,-35.76 564.17,-207.33 -1.57,-111.3 803.77,-220.5 176.9,-23.98 277.18,-37.45 340.69,-152.65 -87.57,-272.37 -526.86,-93.35 -752.71,-96.86 -52.31,-284.91 -155.13,-529.23 -315.7,-637.95 58.63,-44.51 -19.89,5.89 78.76,-23.81 198.23,-59.71 96.12,-26.01 314.98,-237.39 77.42,-74.77 210.17,-175.16 215.9,-294.64 15.43,-321.96 -359.8,-75.82 -568.59,162.26 -121.91,139.02 -305.72,336.85 -472.77,404.95 151.39,349.45 206.44,199.72 112.38,637.6 -123.27,-143.89 7.86,-233.53 -96.27,-422.82 -101.3,-184.15 -121.83,-29.37 -165.28,-267.47 -48.15,-263.85 -96.22,-534.22 -371.9,-429.17 -68.73,262.6 68.96,320.01 55.05,575.96 -4.29,79.1 -70.93,507.87 -85.09,567.4l-977.66 753.52c-191.62,127.15 -864.19,628.08 -1063.18,652.64z"/>
   <path class="fil5" d="M4888.76 12312.49c-65.92,-84.86 89.54,-8.97 -121.15,-88.57l-479.33 -71.94c-702.69,-133.74 -439.8,-31.43 -518.78,-163.26 -87.42,-76.99 62.57,-820.75 80.87,-982.38l917.61 -7108.65c158.97,-25.66 244.11,16.54 393.24,51.99 137.64,32.7 267.41,24.04 416.54,40.48 657.49,72.42 1128.21,199.3 1576.24,251.08 153.72,17.75 222.65,53.13 351.63,81.6 134.15,29.59 266.89,20.42 394.04,46.68 366.88,75.8 1220.43,163.77 1571.4,265.95 197.96,57.65 579.58,71.51 808.61,99.06 126.07,15.17 641.01,119.45 727.84,164.1 14.42,213.05 -5.15,142.69 -39.36,281.22l-82.14 797.27c-46.16,367.43 -89.87,682.79 -132.69,1084.31l-4.29 -189.85c-0.31,325.18 -59.01,502.01 -84.87,782.81l-93.55 803.84c-78.72,488.98 -60.73,29.08 -97.09,774.75 -14.19,290.7 -59.48,506.3 -85.74,772 -16.04,162.46 -60.5,210.81 -79.71,339.51l-106.63 1203.96c-25.18,269.49 -105.27,475.68 -124.17,736.53 -14.54,200.53 -49.61,574.65 -87.37,774.57 -254.82,10.61 -2387.38,-351.57 -2552.41,-397.42 -294.48,-81.83 -2344.76,-422.02 -2548.74,-349.65zm0 0c96.63,99.1 2493.6,458.46 2605.71,479.05 342.23,62.84 2448.78,465.62 2594.93,390.83l1059.66 -8409.35c-444.72,-33.35 -1151.02,-175.61 -1627.78,-254.82 -541.95,-90.06 -1074.64,-188.36 -1619.82,-264.56 -659.62,-92.18 -2753.8,-484.66 -3232.62,-491.75 -113.44,671.73 -184.3,1405.48 -271.69,2088.7l-753.19 6127.29c14.12,100.94 -12.22,20.35 26.33,76.66 106.53,191.67 1117.13,276.43 1218.48,257.95z"/>
   <path class="fil6" d="M7442.63 3615.91c281.7,-2.12 2475.1,372.98 2648.61,463.88 -229.69,16.29 -1878.73,-281.81 -2335.39,-367.4 -148.89,-27.92 -208.44,-22.07 -313.22,-96.48zm-2112.43 -102.92c243.58,-35.37 2590.92,389.87 3045.61,462.32 1040.23,165.74 2079.64,338.9 3115.52,491 133.16,-37.78 354.42,-194.04 486.1,-258.95 -8.63,-5.7 -22.68,-22.47 -27.63,-14.11 -4.92,8.33 -20.98,-10.7 -27.88,-13.25l-1940.37 -348.16c-127.79,-47.37 -35.27,-9.77 -84.91,-40.04l1797.98 241.87c268.6,45.6 390.21,117.36 549.38,-37.35 -1002.19,-212.47 -2121.71,-318.01 -3141.86,-492.81 -442.88,-75.88 -2930.51,-519.96 -3153.54,-371.09 578.76,153.17 2264.56,264.96 2652.29,479.16 -396.66,-11.84 -2033.81,-285.79 -2615.12,-380.15 -325.99,-52.92 -585.5,113.7 -655.57,281.53z"/>
   <path class="fil4" d="M8647.04 13501.54l-70.12 -8.96c106.76,309.71 140.71,423.59 317.29,652.5 738.7,957.63 1586.27,220.02 1939.03,75.9 -49.26,141.85 -109.46,174.37 -193.13,265.92 59.18,375.68 464.31,1015.8 911.27,720.7 326.72,-215.7 152.51,-958.61 -60.34,-1343.87 -465.6,-842.72 -804.04,-328.4 -971.52,-202.12 -429.77,324.1 -960.79,262.42 -1193.44,-127.53 -259.62,27.57 -430.07,-0.17 -679.05,-32.55z"/>
   <path class="fil7" d="M3595.83 8495.48c57.97,-56.36 71.89,-152.25 116.93,-220.03 -66.03,-487.31 176.84,-314.33 -233.35,-656.03l-739.75 -693.14c-65.44,-90.01 -105.24,-683.04 -64.57,-813.11 46.2,-147.73 150.54,-234.92 24.17,-358.49 -255.78,-253.88 -358.82,425.07 -358.9,425.32 -78.5,229.49 -171.87,18.78 -222.04,443.75 -5.83,49.39 -6.36,54.16 -14.79,99.26 -1.42,7.6 -7.25,34.31 -8.38,29.46 -1.11,-4.75 -4.59,19.69 -9.24,28.55 -70.45,-99.43 -93.22,-155.28 -56.66,-323.5 33.2,-152.78 84.11,-151.77 128.34,-274 -86.17,-84.56 -143.29,-162.5 -221.91,-254.61 -87.52,-102.56 -109.08,-114.53 -216.13,-223.2 -114.46,-116.2 -245.37,-386.6 -503.12,-280.64 -36.84,188.41 124.53,347.11 213.01,459.52 198.74,252.5 214.69,193.33 270.85,207.45 111.38,28 16.87,-37.7 108.6,37.21 -200.03,103.07 -331.47,289.16 -388.81,600.25 -233.1,-89.97 -563.09,-174.32 -744.6,5.13 188.72,304.56 504.08,146.2 787.68,290.36 401.04,203.87 239.11,201.41 787.23,238.88 180.61,220.3 1029.32,1085.9 1345.41,1231.62z"/>
   <path class="fil8" d="M8474.12 8760.03c58.9,33.83 95.64,57.54 156.8,100.74 128.29,90.6 46.06,-7.09 110.12,115.04 -71.61,32.29 -98.95,75.47 -205.05,-46.84 -180.88,34.27 -49.08,492.34 -487.09,1048.99 -176.79,224.67 -570.23,502.54 -1034.75,458.08 -702.39,-67.24 -1246.74,-1141.8 -895.92,-1899.89 306.33,-14.12 1183.67,588.03 2117.76,72.24 -11.79,-127.79 -47.31,-173.89 22.35,-274.46 40.72,73.48 58.68,154.32 90.6,219.22 68.3,138.92 76.28,75.24 125.18,206.87zm1580.31 -367.12zm-1282.64 -2591.04l1282.64 2591.04zm-1282.64 -2591.04c1158.21,-273.58 1262.11,2035.45 179.67,2292.39 -1188.34,282.08 -1309.08,-2025.6 -179.67,-2292.39zm1282.64 2591.04c-37.24,-259.66 -451.58,-288.33 -649.66,-340.97l-83.22 -31.39c88.3,-164.14 699.61,-660.8 440.68,-1541.75 -414.21,-1409.25 -1914.48,-766.82 -1872.75,661.26 10.2,349.43 109.91,554.93 267.82,767.28 81.7,109.88 294.46,238.63 413.51,298.3l144.98 72.08c-65.47,170.15 -70.72,161.02 -70.07,390.1 -165.3,-52.14 -37.93,33.35 -168.84,-93.12 -107.19,-103.55 -68.78,-233.12 -243.66,-315.27 -179.67,200.18 15.73,261.96 -240.86,371.54 -123.49,52.74 -375.15,84.43 -504.25,89.35 -1080.77,41.26 -1546.8,-760.66 -1546.65,328.85 0.08,600.35 305.16,1325.34 958.06,1447.9 1242.25,233.23 1602.2,-1260.82 1639.54,-1308.72 48.46,-62.17 28.74,-40.28 86.46,-72.62 18.28,-10.25 68.93,-24.59 105.75,-41.46 125.14,-57.37 134.33,-109.56 188.39,-119.99 0.65,-0.13 1066.21,296.98 1249.11,-170.01 30.5,-77.89 71.5,-350.48 -114.35,-391.34z"/>
   <path class="fil1" d="M14344.99 2792.3c38.02,212.27 31.69,327.3 -92.51,444.92 -141.65,123.97 -192.12,111.35 -388.48,81.02 -43.91,-54.44 -95.64,-88.29 -117.76,-163.9 -40.24,-137.53 3.46,-178.04 85.31,-226.33 25.5,-167.55 274.72,-108.83 401.14,-98.65l21 -430.32 29.27 -512.86 948.41 -63.37c217.34,34.22 105.89,414.8 87.81,759.91 -10.86,207.24 31.41,537.56 -152.28,662.57 -592.63,403.28 -720.18,-671.38 -4.93,-416.36l30.48 -630.28 -783.82 60.67c-27.17,169.38 5.41,418.56 -63.63,532.97zm-395.02 -274.61c-811.44,241.25 -605.27,1089.36 46.73,1116.55 228.64,9.54 389.04,-126.83 507.56,-193.53 322.06,282.76 800.26,182.03 999.88,-152.58 98.52,-165.16 162,-1161.42 140.23,-1404.09 -46.91,-522.79 -628.56,-346.95 -1098.95,-317.71 -657.89,40.93 -530.28,139.75 -595.45,951.35z"/>
   <path class="fil9" d="M14788.12 6991.8c882.01,-625.32 1323.5,-143.79 120.29,265.5 -32.4,-41.77 4.44,23.3 -43.66,-74.76l-76.63 -190.74zm-2412.55 1134.53l-19.27 55.65c-29.62,73.63 -25.57,114.81 -118.67,169.04l-290.8 171.27 -9.77 -61.05c-100.09,139.83 62.97,45.1 -125.54,135.36 -114.58,103.93 -310.37,169.4 -324.3,327.26 198.99,-24.55 871.56,-525.49 1063.18,-652.64l977.66 -753.52c14.16,-59.52 80.8,-488.3 85.09,-567.4 13.91,-255.95 -123.79,-313.35 -55.05,-575.96 275.68,-105.04 323.75,165.33 371.9,429.17 43.45,238.1 63.98,83.32 165.28,267.47 104.13,189.29 -27.01,278.93 96.27,422.82 94.06,-437.88 39.01,-288.15 -112.38,-637.6 167.05,-68.1 350.86,-265.93 472.77,-404.95 208.79,-238.08 584.02,-484.23 568.59,-162.26 -5.73,119.48 -138.47,219.87 -215.9,294.64 -218.86,211.37 -116.75,177.68 -314.98,237.39 -98.65,29.7 -20.13,-20.7 -78.76,23.81 160.58,108.72 263.4,353.04 315.7,637.95 225.85,3.51 665.14,-175.51 752.71,96.86 -63.52,115.19 -163.79,128.67 -340.69,152.65 -805.35,109.2 -239.61,13.16 -803.77,220.5 -211.95,77.89 -283.19,12.14 -481.68,35.76l-565.68 458.03c-734.18,555.81 -1116.71,784.8 -1921.95,1235.91l0 11.62c165.76,145.26 131.85,-60.29 212.55,85.45 133.42,-347.31 264.49,-189.01 474.77,-345.92l40.5 78.33c98.72,-169.91 693.27,-525.95 892.84,-667.64 161.45,-114.63 281.35,-202.04 442.45,-328.47l425.37 -346.97c111.13,-69.06 446.64,-35.6 645.68,-124.27 287.57,-128.09 241.33,-134.17 602.83,-159.98 630.71,-45.05 742.06,-529.13 72.03,-593.28 156.82,-130.77 544,-208.23 510.97,-514.58 -38.61,-357.74 -499.31,-185.26 -735.81,-115.84 65.3,-125.76 265.29,-225.81 211.49,-462.55 -41.97,-184.72 -258.88,-244.14 -448.32,-149.86 -346.68,172.55 -444.9,511.6 -765.86,668.86 -74.94,-683.48 -554.8,-566.16 -643.68,-344.98 -71.5,177.93 37.29,326.93 59.74,484.1 21.04,147.15 -59.64,364.57 -56.99,587.9l-996.08 752.41c-62.74,-35.57 -15.75,25.02 -34.47,-70.52z"/>
   <path class="fil10" d="M4703.33 3629.07c1571.49,236.81 3512.89,595.61 5052.9,795.48l1229.04 208.16c286.81,48.96 183.87,49.41 402.86,-40.28l-72.31 -36.77 -6350.79 -1012.95c18.43,-322.33 321.86,-492.72 556.59,-607.93 361.29,-177.33 574.25,-175.79 991.77,-121.76 694.97,89.92 1401.56,202.19 2091.38,311.05 680.82,107.43 1377.41,204.83 2070.44,312.38 500.74,77.71 1621.23,318.14 2080.83,254.24 -104.61,-112.64 -366.55,-114.73 -505.04,-136.1l-3826.44 -589.77c-721.68,-99.91 -1436.81,-230.48 -2174.65,-322.01 -376.34,-46.68 -699.51,71.28 -960.18,240.91 -293.47,190.98 -543.11,369.02 -586.41,745.36z"/>
   <path class="fil9" d="M658.98 5970.39c81.36,-274.33 719.12,192.4 849.64,245.25l-157.51 288.35c-190.11,-62.37 -746.52,-350.19 -692.13,-533.6zm2905.7 2693.28l31.14 -168.19c-316.09,-145.72 -1164.8,-1011.32 -1345.41,-1231.62 -548.12,-37.47 -386.19,-35 -787.23,-238.88 -283.6,-144.15 -598.96,14.21 -787.68,-290.36 181.5,-179.45 511.5,-95.11 744.6,-5.13 57.34,-311.09 188.77,-497.18 388.81,-600.25 -91.73,-74.91 2.78,-9.21 -108.6,-37.21 -56.16,-14.12 -72.11,45.05 -270.85,-207.45 -88.48,-112.41 -249.85,-271.12 -213.01,-459.52 257.75,-105.97 388.66,164.43 503.12,280.64 107.05,108.67 128.6,120.64 216.13,223.2 78.62,92.11 135.74,170.05 221.91,254.61 -44.23,122.23 -95.14,121.22 -128.34,274 -36.56,168.23 -13.79,224.07 56.66,323.5 4.65,-8.86 8.13,-33.3 9.24,-28.55 1.13,4.85 6.95,-21.86 8.38,-29.46 8.43,-45.1 8.96,-49.87 14.79,-99.26 50.17,-424.97 143.54,-214.26 222.04,-443.75 0.08,-0.25 103.12,-679.19 358.9,-425.32 126.37,123.57 22.02,210.76 -24.17,358.49 -40.67,130.08 -0.86,723.11 64.57,813.11l739.75 693.14c410.18,341.7 167.32,168.72 233.35,656.03l10.93 112.36 89.33 -493.85c48.61,-39.11 5.07,-17.12 103.95,-53.88 -84.71,-99.26 -143.01,-176.84 -250.43,-260.8 -455.42,-355.99 -424.62,-474.53 -843.25,-768.92 4.8,-180.73 -51.49,-470.42 -34.77,-582.76 25.86,-173.67 169.09,-278.75 90.17,-502.84 -52.98,-150.49 -239.51,-211.49 -418.76,-124.56 -154.71,75.04 -168.18,254.19 -263.78,407.04 -253.23,-201.27 -395.36,-533.04 -670.07,-698.98 -168.14,-101.56 -389.42,-100.92 -453.88,86 -73.62,213.49 106.28,357.1 165.69,501.38 -324.15,-145.81 -317.91,-195.98 -679.84,-99.63 -145.33,468.28 171.04,509.25 462.89,708.63 -276.91,-10.56 -484.77,15.63 -485.62,303.45 160.71,352.71 524.91,215.76 861.08,359.33 138.54,59.16 229.31,147.55 389.97,197 296.46,91.25 311.18,-41.03 477.18,147.05 147.31,166.92 1122.72,1120.14 1301.15,1152.2z"/>
   <path class="fil11" d="M7123.73 3098l5365.21 825.32 -551.88 4537.92 9.77 61.05 290.8 -171.27c68.63,-770.58 186.62,-1544.22 275.07,-2315.97 69.81,-608.99 296.85,-1753.29 268.76,-2308.82 -329.91,163.85 -971.37,-36.76 -1384.35,-94.66l-4267.74 -637.9 -5.65 104.33z"/>
   <path class="fil12" d="M6588.11 10103.94c-0.68,-1.08 -42.52,-89.41 -52.44,-106.18 244.19,-236.23 295.45,-385.3 792.18,-379.48 -66.51,156.65 -66.63,87.92 -134.37,197.71 146.2,-79.97 728.39,-441.53 870.09,-94.31 200.6,-101.88 269.18,-660.27 360.91,-856.1 -43.73,-53.15 -81.99,-92.66 -129.4,-139.99 -387.2,63.71 -812.98,331.95 -1599.45,89.63 -210.83,-64.96 -264.92,-135.26 -351.6,-142.06 -246.44,-19.36 -102.19,-0.35 -167.93,45.47 -129.56,144.48 -1.69,666.93 37.16,881.78l50.62 0c7.35,134.38 49.33,214.64 119.6,337.69 20.93,36.64 58.81,99.93 90.19,129.36 129.08,121.07 83.19,53.68 114.45,36.49z"/>
   <path class="fil7" d="M5040.46 12997.79l35.5 -107.92c-214.97,-200.13 -353.72,-155.49 -614.06,-268.18 -238.26,62.54 -393.96,302.26 -493.7,404.09 -323.74,330.54 -264.41,134.86 -285.9,466.99 -6.18,95.26 19.87,13.69 -16.54,69.05 -9.47,-9.82 -695.12,-1506.61 -1344.55,-826.38 401.19,81.13 613.58,198.34 847.07,668.65 192.48,387.71 363.26,701.78 317.08,1211.59 268.07,-128.17 330.46,-375.79 574.55,-690.12 59.04,-76 107.44,-150.48 157.35,-210.65 63.8,-76.94 134.85,-126.07 202.12,-200.38 70.92,-78.37 102.14,-116.25 181.21,-187.65 127.13,-114.78 269.11,-292.31 439.87,-329.08z"/>
   <path class="fil13" d="M4668.84 3761.88c478.81,7.09 2572.99,399.57 3232.62,491.75 545.18,76.2 1077.87,174.5 1619.82,264.56 476.76,79.21 1183.06,221.48 1627.78,254.82l-1059.66 8409.35 131.78 -20.8c37.57,-683.7 184.32,-1446.08 260.45,-2146.63 77.61,-714.07 196.47,-1434.46 275.32,-2149.63l469.64 -3788.62c36.26,-286.99 13.21,-318.4 99.08,-343.01 148.97,-42.7 20.37,-43 107.21,38.6l19.27 -124.03 -64.03 -55.8c-218.99,89.69 -116.05,89.25 -402.86,40.28l-1229.04 -208.16c-1540.01,-199.87 -3481.41,-558.67 -5052.9,-795.48 20.56,110.04 23.15,56.91 -34.49,132.81z"/>
   <path class="fil9" d="M2212.76 13311.21c-188.99,-960.51 853.2,-374.45 1148.42,896 194.34,836.26 -505.87,287.19 -653.05,98.63 -191.95,-245.91 -415.33,-587.81 -495.37,-994.63zm2959.55 -293.47c-10.58,-37.42 48.8,-142.79 -131.85,-19.95 -170.76,36.77 -312.74,214.31 -439.87,329.08 -79.06,71.4 -110.29,109.28 -181.21,187.65 -67.27,74.31 -138.32,123.44 -202.12,200.38 -49.9,60.17 -98.3,134.65 -157.35,210.65 -244.09,314.33 -306.48,561.95 -574.55,690.12 46.18,-509.81 -124.6,-823.88 -317.08,-1211.59 -233.5,-470.3 -445.88,-587.52 -847.07,-668.65 649.42,-680.24 1335.08,816.56 1344.55,826.38 36.41,-55.35 10.37,26.21 16.54,-69.05 21.49,-332.13 -37.83,-136.45 285.9,-466.99 99.74,-101.83 255.43,-341.55 493.7,-404.09 108.02,-129.86 74.48,35.33 -10.88,-63.35 -41.56,-48.07 5.08,14.42 -74.96,-36.1 -162.08,17.95 -238.53,139.12 -417.85,273.83 -156.34,117.44 -209.29,224.74 -326.37,362.51 -271,-254.54 -187.71,-389.62 -556.7,-618.21 -680.62,-421.67 -1670.49,368.85 -481,1841.41 121.98,151.01 428.16,467.11 776.07,441.61 381.52,-27.98 575.94,-513.11 898.87,-909.18 348.56,-427.5 479.74,-508.17 833.88,-819.49 67.03,-58.91 43.22,-14.36 69.34,-76.98z"/>
   <path class="fil14" d="M10221.19 13161.56c253.2,70.78 256.64,-590.78 284.28,-840.58l665.83 -5392.21c81.96,-696.7 146.8,-1470.12 261.59,-2156.5 -86.84,-81.6 41.76,-81.3 -107.21,-38.6 -85.87,24.6 -62.82,56.01 -99.08,343.01l-469.64 3788.62c-78.85,715.17 -197.71,1435.57 -275.32,2149.63 -76.13,700.55 -222.88,1462.93 -260.45,2146.63z"/>
   <path class="fil15" d="M5110.27 3443.11c108.42,25.35 39.23,-12.5 62.04,94.88l157.89 -25c70.07,-167.83 329.58,-334.45 655.57,-281.53 581.31,94.36 2218.46,368.31 2615.12,380.15 -387.73,-214.21 -2073.53,-325.99 -2652.29,-479.16 223.03,-148.87 2710.65,295.21 3153.54,371.09 1020.15,174.8 2139.68,280.34 3141.86,492.81l28.21 75.65c225.27,132.79 -20.17,-185.08 53.63,94.84 27.2,103.2 -495.93,4199.35 -514.33,4429.77 188.51,-90.26 25.45,4.47 125.54,-135.36l551.88 -4537.92 -5365.21 -825.32c-349.2,-41.61 -815.61,-184.29 -1155.69,-79.46 -137.97,42.52 -330.67,136.34 -453.13,205.71 -133.37,75.54 -230.53,197.93 -404.64,218.86z"/>
   <path class="fil9" d="M9392.81 13311.01c-73.43,45.9 -122.91,177.83 -126.65,169.09 -2.62,-6.08 -9.98,18.35 -15.81,27.01 -197.48,19.22 -434.67,-42.04 -482.13,-40.02l-121.19 34.46c248.98,32.39 419.42,60.12 679.05,32.55 232.65,389.95 763.67,451.63 1193.44,127.53 167.48,-126.29 505.92,-640.6 971.52,202.12 212.85,385.26 387.05,1128.17 60.34,1343.87 -446.96,295.09 -852.09,-345.03 -911.27,-720.7 83.67,-91.55 143.87,-124.07 193.13,-265.92 -352.76,144.12 -1200.33,881.73 -1939.03,-75.9 -176.59,-228.91 -210.53,-342.79 -317.29,-652.5 43.83,-60.27 -54.91,-20.32 55.53,-75.59 -137.23,-6.52 -101.2,-19.5 -130.36,-24.69 -2.63,-0.45 -11.77,-1.85 -13.86,-2.22l-82.04 -336.14 -89.06 15.2c88.82,239.92 105.52,520.11 230.93,796.41 107.29,236.44 237.9,451.76 423.38,605.65 515.04,427.25 918.14,338.85 1528.11,107.16 45.25,84.54 370.78,1119.58 1048.89,812.53 798.67,-361.6 -26.81,-2722.16 -962.3,-1994.29 -177.23,137.91 -329.38,324.68 -674.23,319.13 -346.68,-5.58 -392.91,-198.66 -519.1,-404.74z"/>
   <path class="fil4" d="M2212.76 13311.21c80.04,406.82 303.42,748.72 495.37,994.63 147.18,188.56 847.39,737.63 653.05,-98.63 -295.22,-1270.45 -1337.41,-1856.51 -1148.42,-896z"/>
   <path class="fil16" d="M5802.35 6114.08c59.82,-106.86 4.54,-63.66 88.35,-116.83l20.25 235.09c54.57,114.68 108.87,208.01 141.32,270.19l224.11 117.38c-43.81,38.76 26.69,11.61 -92.49,60.93 -22.05,9.12 -105.87,28.28 -132.21,35.83 -154.47,141.19 -209.62,169.77 -289.83,467.49 -5.78,-8.73 -11.26,-20.93 -14.07,-28.05 -2.81,-7.1 -9.75,-19.64 -12.9,-28.56l-34.37 -154.53c-12.82,-69.19 -26.05,-136 -55.7,-196.26 -57.95,-117.79 -158.11,-185.68 -293.55,-241.84l93.17 -73.83 -69.18 -32.24c65.12,-27.22 208.54,-103.14 257.02,-151.14 82.34,-81.53 34.13,-78.04 77.09,-140.86 102.54,-150 45.2,-79.89 92.99,-22.77zm-442.72 -19.67c-32.29,18.05 -99.54,-16.51 -144.22,243.55 -17.58,102.31 -31.56,258.13 -29.41,361.65 2.83,135.14 41.81,234.97 59.92,315.9 66.89,298.78 30.85,231.19 143.01,252.7 145.97,39.04 27.37,15.85 154.15,85.39 210.07,115.21 447.42,55.8 595.81,-92.95 638.81,-640.35 72.04,-1928.55 -674.56,-1260.6 -15.83,14.16 -44.11,42.22 -53.75,51.03 -56.94,51.91 -27.7,28 -50.96,43.33z"/>
   <path class="fil8" d="M7301.18 7364.07c0.07,0.08 690.85,415.46 205.65,933.97 -104.06,111.2 -336.35,208.84 -560.69,153.19 -227.6,-56.48 -304.16,-259.46 -411.49,-320.66 -71.51,-298.2 -75.16,-456.81 124.94,-642.78 201.61,-187.35 351.27,-176.98 641.59,-123.72zm-1395.3 -1930.29c854.21,-185.71 1181.06,1107.49 717.51,1870.19 -61.51,101.22 -170.23,204.21 -240.72,273.98 -89.31,88.38 -177.7,139.1 -310.67,164.8 -1159.15,223.88 -1315.77,-2059.01 -166.12,-2308.96zm-1247.93 2245.91c203.92,-36.21 453.89,-98.95 638.79,18.3 503.19,30.68 707.04,668.9 237.75,738.97 -101.96,168.51 -494.63,22.65 -659.49,-11.77 73.42,93.7 -12.17,13.08 70.92,69.84 160,109.28 478.33,79.82 646.08,20.75 323.09,-113.77 288.17,-300.21 226,-625.1 233.6,-10.81 321.45,-72.61 529.84,-75.87 31.11,47.24 18.01,20.55 39.23,99.43 50.27,187.13 54.71,363.97 395.99,563.18 582.98,340.28 1258.61,-418.38 846.1,-960.24 -244.52,-321.2 -432.01,-233.18 -868.71,-241.2 28.41,-177.86 317.23,-731.85 64.97,-1390.64 -148.34,-387.42 -559.96,-656.4 -1068.25,-507.54 -122.28,35.8 -370.16,223.41 -430.17,297.76 -223.63,277.04 -358.8,952.07 -258.07,1381.89 48.1,205.18 196.64,379.44 266.28,537.05 -183.13,15.42 -424.8,-50.17 -595.89,28.6 -80.77,37.19 -32.17,7.3 -81.36,56.63z"/>
   <path class="fil16" d="M8278.88 6353.75l-49.71 28.89c-228.23,198.21 -174.68,1005.3 -102.71,1174.04 63.86,149.75 -33.91,94.05 121.72,111.3 169.43,33.03 203.03,142.91 438.28,116.43 181.39,-20.42 258.03,-121.52 350.23,-220.55l-27.88 -128.34c77.03,-73 130.44,-162.78 137.28,-306.5 -164.07,35.22 -198.31,101.81 -370.96,119.78 -108.55,57.32 -53.58,164.29 -192.88,289.28 -57.21,-336.92 -82.16,-532.54 -373.56,-610.46 8.66,-6.9 19.85,-15.43 26.86,-19.62 196.31,-117.79 228.89,-34.77 333.21,-194.01 80.69,-123.16 101.13,-267.64 179.25,-329.76l-9.75 56.46c188.49,89.99 112.92,131.22 190.07,286.63 41.2,82.97 134.13,168.61 216.08,170.11 6.11,-8.86 11.82,-21.01 14.34,-28.94 2.5,-7.96 9.06,-20.07 11.79,-30.2l11.76 -68.09c2.78,-13.41 9.37,-63.33 11.47,-73.62l25.32 -72.01c-331.32,-658.02 -576.97,-428.84 -883.15,-289.49l-57.04 18.66z"/>
   <path class="fil6" d="M8278.88 6353.75l57.04 -18.66c306.18,-139.35 551.83,-368.52 883.15,289.49 47.45,341.7 40.91,725.67 -182.38,939.28 -92.19,99.03 -168.84,200.13 -350.23,220.55 -235.25,26.48 -268.85,-83.4 -438.28,-116.43 577.76,757.6 1323.85,34.79 1358.11,-751.54 44.18,-1013.41 -905.21,-1376.07 -1327.41,-562.7z"/>
   <path class="fil6" d="M5359.63 6094.41c23.26,-15.33 -5.98,8.58 50.96,-43.33 9.64,-8.81 37.92,-36.87 53.75,-51.03 746.6,-667.95 1313.37,620.25 674.56,1260.6 -148.39,148.75 -385.74,208.16 -595.81,92.95 -126.78,-69.54 -8.18,-46.34 -154.15,-85.39 576.75,866.06 1344.33,1.64 1339.56,-790.99 -6.19,-1028.74 -983.46,-1287.06 -1368.87,-382.81z"/>
   <path class="fil14" d="M11341.13 12639.17l-131.43 20.3c142.26,68.17 318.3,132.79 465.62,63.88 88.5,-166.9 369.78,-2789.95 418.93,-3210.5l-297.87 164.32c-80.01,870.75 -235.67,1769.32 -320.16,2627.75 -18.3,185.88 12.83,266.53 -135.08,334.25z"/>
   <path class="fil15" d="M11678.1 9779.58l-344.95 2687.47c-41.63,74.06 35.48,36.69 -113.12,85.11 5.6,7.45 12.77,10.61 16.43,22.63 3.69,12.2 13.97,17.5 19.12,20.93 82.54,55.2 -41.68,-7.07 85.55,43.45 147.91,-67.72 116.78,-148.37 135.08,-334.25 84.49,-858.43 240.15,-1757 320.16,-2627.75l297.87 -164.32c-49.14,420.55 -330.42,3043.59 -418.93,3210.5 -147.31,68.91 -323.35,4.29 -465.62,-63.88l-157.99 25.17c39.9,48.27 28,37.3 53.6,115.74l567.28 97.96c217,-171.77 183.28,-463.28 219.77,-766.74 54.08,-449.61 345.51,-2440.98 301.02,-2619.6l-40.5 -78.33c-210.28,156.92 -341.35,-1.39 -474.77,345.92z"/>
   <path class="fil17" d="M14253.69 2399.04l91.18 0.18c-4.8,173.46 -52.27,212.48 0.12,393.08 69.05,-114.41 36.46,-363.59 63.63,-532.97l783.82 -60.67 -30.48 630.28c-715.24,-255.02 -587.7,819.64 4.93,416.36 183.69,-125.01 141.42,-455.34 152.28,-662.57 18.08,-345.11 129.53,-725.69 -87.81,-759.91l-948.41 63.37 -29.27 512.86z"/>
   <path class="fil18" d="M11491.34 4466.31c-57.92,114.69 -59.71,92.71 -175.51,89.35l72.31 36.77 64.03 55.8 114.46 18.08 -13.13 106.53c-35.78,-170.87 10.02,-207.07 125.18,-267.31 71.84,145.19 -368.72,3102.31 -366.44,3628.68 146.35,-347.4 409.74,-3364.48 492.11,-3628.59 29.57,-94.81 207.86,-226.94 305.57,-264.43 -35.45,473.66 -101.13,966.77 -158.26,1438.93 -52.24,431.56 -187.15,1097.74 -166.77,1500.19 272.21,-502.61 216.14,-2334.86 487.32,-3108.32l-28.21 -75.65c-159.17,154.71 -280.78,82.95 -549.38,37.35l-1797.98 -241.87c49.64,30.27 -42.88,-7.34 84.91,40.04l1940.37 348.16c6.9,2.55 22.97,21.57 27.88,13.25 4.95,-8.36 19.01,8.41 27.63,14.11 -131.68,64.91 -352.94,221.16 -486.1,258.95z"/>
   <path class="fil19" d="M8063.58 9721.68c-161.52,226.87 -290.92,414.84 -589.7,529.05 -382.63,146.29 -639.42,52.67 -885.77,-146.78 -31.26,17.19 14.64,84.58 -114.45,-36.49 -31.38,-29.44 -69.26,-92.72 -90.19,-129.36 -70.27,-123.06 -112.24,-203.31 -119.6,-337.69l-50.62 0c-38.84,-214.85 -166.72,-737.3 -37.16,-881.78 65.73,-45.82 -78.52,-64.82 167.93,-45.47 86.68,6.81 140.77,77.11 351.6,142.06 786.47,242.32 1212.25,-25.91 1599.45,-89.63 47.4,47.34 85.67,86.84 129.4,139.99 -91.73,195.83 -160.31,754.22 -360.91,856.1zm472.42 -792.71c-12.72,-18.26 -44.37,-76.25 -45.32,-78.57 -16.33,-40.76 -12.07,-55.15 -16.56,-90.37 -48.89,-131.63 -56.88,-67.95 -125.18,-206.87 -31.92,-64.91 -49.89,-145.74 -90.6,-219.22 -69.66,100.57 -34.14,146.67 -22.35,274.46 -934.08,515.79 -1811.42,-86.36 -2117.76,-72.24 -350.82,758.09 193.53,1832.65 895.92,1899.89 464.52,44.46 857.97,-233.41 1034.75,-458.08 438.02,-556.65 306.22,-1014.72 487.09,-1048.99z"/>
   <path class="fil20" d="M6588.11 10103.94c246.34,199.45 503.14,293.07 885.77,146.78 298.78,-114.21 428.18,-302.18 589.7,-529.05 -141.7,-347.21 -723.88,14.34 -870.09,94.31 67.74,-109.79 67.85,-41.06 134.37,-197.71 -496.73,-5.81 -547.99,143.26 -792.18,379.48 9.92,16.77 51.76,105.11 52.44,106.18z"/>
   <path class="fil2" d="M5388.94 7268.21c-112.16,-21.51 -76.12,46.08 -143.01,-252.7 -18.11,-80.93 -57.09,-180.76 -59.92,-315.9 -2.15,-103.52 11.82,-259.34 29.41,-361.65 44.67,-260.05 111.93,-225.5 144.22,-243.55 385.41,-904.25 1362.68,-645.93 1368.87,382.81 4.77,792.63 -762.81,1657.06 -1339.56,790.99zm516.95 -1834.44c-1149.65,249.95 -993.03,2532.84 166.12,2308.96 132.97,-25.7 221.36,-76.41 310.67,-164.8 70.49,-69.77 179.2,-172.76 240.72,-273.98 463.55,-762.7 136.7,-2055.9 -717.51,-1870.19z"/>
   <path class="fil21" d="M8248.18 7667.98c-155.63,-17.25 -57.85,38.45 -121.72,-111.3 -71.98,-168.74 -125.52,-975.83 102.71,-1174.04l49.71 -28.89c422.2,-813.38 1371.59,-450.72 1327.41,562.7 -34.26,786.32 -780.35,1509.13 -1358.11,751.54zm523.62 -1866.11c-1129.41,266.79 -1008.68,2574.47 179.67,2292.39 1082.44,-256.94 978.54,-2565.97 -179.67,-2292.39z"/>
   <path class="fil22" d="M8838.08 8608.39c95.45,288.4 1322.71,477.84 1162.63,-54.77 -121.02,-402.67 -1326.43,-440.14 -1162.63,54.77z"/>
   <path class="fil22" d="M4791.75 7744.81l-52.32 -18.01c-75.82,125.57 -204.5,155.54 -140.96,350.23 107,327.78 974.04,403.43 1101.37,163.95 35.83,-247.17 -101.56,-333.04 -254.92,-416.79 -176.75,-96.51 -418.15,-78.3 -653.17,-79.38z"/>
   <path class="fil23" d="M12231.59 897.19c-57.12,389.72 -110.97,510.6 -397.4,593.03 -37.6,10.83 -78.78,18.23 -114.76,31.23l-130.51 69.48c149.23,123.79 309.15,63.56 459.92,214.52l99.66 156.45c99.63,43.96 41.31,24.22 151.34,56.06 9.01,-6.81 22.53,-28.28 26.46,-21.18 18.03,32.57 35.75,-114.53 153.24,-119.74 157.26,-213.71 279.15,-167.12 514.36,-254.26 -87.49,-146.98 -322.66,-99.23 -477.57,-243.15 -156.87,-145.74 -112.26,-354.71 -216.49,-537.4l-68.25 54.95z"/>
   <path class="fil3" d="M4294.09 772.81c-28.63,17.83 -258.9,201.13 -300.06,241.84 46.01,82.27 -4.16,3.49 -35.6,131.19l150 40.85 -21.64 113.85c377.38,237.69 191.69,466.02 387.27,691.12 141.8,-163.85 49.09,-385.83 295.74,-667.55l-25.66 -125.34c139.5,-34.32 76.88,1.57 147.41,-85.45l-288.24 -249.54c-39.67,-242.32 -18.76,-23.2 59.23,-96.7l-8.21 -36.34 -131.05 35.91 -81 -107.48c-42.17,127.41 62.06,81.56 -148.17,113.65z"/>
   <path class="fil24" d="M7042.22 7763.17c-187.17,24.03 -144.93,54.51 -270.22,-22.65 -126.3,190.69 -50.88,6.31 -115.22,275.52 28.91,435 908.2,449.67 890.29,-140.09 -2.2,-72.37 -18.41,-132.44 -50.34,-196.22 -20.98,-41.89 -25.2,-57.46 -59.57,-86 -60.15,-49.97 -22.22,-26.26 -91.7,-36.81l-196.47 -14.45 -8.2 147.41c-60.63,81.02 79.99,48.2 -98.57,73.3z"/>
   <path class="fil25" d="M14442.35 9912.8c158.09,-149.05 144.12,-158.92 250.02,-472.57l82.64 -168.84 33.58 87.66c50.24,146.14 68.27,298 143.75,417.37 100.46,158.84 228.59,141.73 352.55,215.78l192.04 60.49c-13.38,77.79 28.69,33.55 -63.47,76.41 -24.21,11.26 -130.51,22.88 -146.92,25.8 -558.72,220.22 -273.2,373.11 -525.09,710.11 -33.76,-40.17 -22.98,-13.44 -61.58,-100.65 -90.8,-205.03 -11.26,-417.04 -381.46,-580.21l-307.72 -106.12c43.93,-44.89 -31.56,-13.3 94.31,-71.88 0.89,-0.41 100.8,-28.55 113.68,-31.92 82.94,-21.77 140.08,-38.05 223.66,-61.41zm1054.57 139.88c-73.1,-277.99 -328.77,-147.63 -467.59,-350.01 -136.53,-199.09 -59.62,-481.43 -348.72,-512.91 -218,434.11 -33.12,519.84 -523.85,690.04 -115.7,40.14 -195.4,86.51 -229.14,198.21 88.55,233.73 345.39,143.06 515.77,279.05 182.86,145.92 36.36,400.28 281.31,564.9 279.36,-43.31 181.92,-312.41 312.01,-490.92 79.84,-109.53 388.33,-210.76 518.16,-254.99l-57.95 -123.37z"/>
   <path class="fil16" d="M4376.07 12522.24c80.04,50.52 33.4,-11.97 74.96,36.1 85.35,98.68 118.9,-66.51 10.88,63.35 260.34,112.69 399.09,68.05 614.06,268.18l-35.5 107.92c180.64,-122.84 121.27,-17.47 131.85,19.95 181.52,-92.26 511.73,-378.18 734.45,-378.82 -11.34,-6.82 -25.98,-11.34 -36.89,-14.79l-746.25 -157.38c-164.17,-40.72 -279.23,-17.82 -453.75,-40.47l-131.78 -14.04c-129.75,-7.15 19.19,58.05 -86.15,-37.55 -29.79,69.05 -42.64,93.8 -75.87,147.55z"/>
   <path class="fil18" d="M10562.46 12847.53c-61.86,58.63 -20.22,97.62 35.2,134.75 103.65,-117.26 306.7,-208.84 507.64,-181.9 -25.6,-78.43 -13.69,-67.47 -53.6,-115.74l157.99 -25.17 131.43 -20.3c-127.23,-50.52 -3.01,11.76 -85.55,-43.45 -5.15,-3.43 -15.43,-8.73 -19.12,-20.93 -3.66,-12.02 -10.83,-15.18 -16.43,-22.63 -10.78,-21.84 -19.7,-14.94 -18.86,-86.18 0.7,-60.24 25.45,-84.41 28.69,-90.93l252.87 -2320.29c-102.33,165.16 -200.4,1121.1 -234.46,1400.74 -118.4,972.36 -15.22,1127.79 -425.43,1235.73 43.88,-435.98 169,-1148.55 142.79,-1550.38 -94.35,216.91 -202.09,1278.55 -254.51,1611.71l-148.67 94.97z"/>
   <path class="fil26" d="M11482.73 10054.75l-252.87 2320.29 -6.72 136.9 110.01 -44.89 344.95 -2687.47c-80.7,-145.74 -46.79,59.81 -212.55,-85.45 -126.25,7.96 -46.81,-11.64 -74,42.92 124.38,60.65 161.52,142.45 91.18,317.71z"/>
   <path class="fil27" d="M2571.77 2769.35c67.64,70.15 164.19,150.21 255.02,175.97 148.51,13.48 143.94,72.65 298.75,123.04l-58.02 -224.7c-34.41,-132.25 16.43,15.81 -31.23,-72.34l-304.5 -446.76c-6.42,6.26 78.88,182.68 -100.27,-23.46 -46.92,-53.99 -44.87,-100.55 -69.91,-158.36 -180.98,0.66 -170.59,-28.2 -290.34,73.75 -267.17,227.42 121.81,360.69 122.03,360.86l178.46 192z"/>
   <path class="fil27" d="M14749.11 10459.92c-282.8,-430.28 -107.41,-111.95 -271.66,-325.23 16.59,-97.64 37.85,-36.36 131.29,-210.51 57.87,-107.84 99.25,-179.82 130.9,-289.36 108.49,150.69 246.3,376.98 449.92,433.81 -472.7,275.34 -258.5,186.7 -440.45,391.29zm-56.74 -1019.69c-105.9,313.65 -91.93,323.52 -250.02,472.57 37.72,138.12 -28.31,111.96 -168.41,121.4 30.81,62.55 37.07,74.51 44.47,149.93 370.2,163.18 290.65,375.18 381.46,580.21 38.6,87.21 27.82,60.49 61.58,100.65 251.89,-337 -33.63,-489.89 525.09,-710.11l18.35 -162.7c-123.95,-74.05 -252.09,-56.94 -352.55,-215.78 -75.49,-119.36 -93.52,-271.23 -143.75,-417.37l20.42 96.43 -136.63 -15.25z"/>
   <path class="fil25" d="M2731.8 2324.56l304.5 446.76c47.65,88.15 -3.18,-59.91 31.23,72.34 43.5,33.61 97.06,66.07 138.92,126.8 8.59,12.48 36.18,59.99 39.36,72.14 4.8,18.31 66.94,122.38 -65.1,126.86 -49.66,1.69 -213.92,-18.13 -353.9,-224.14 -90.84,-25.76 -187.38,-105.82 -255.02,-175.97 -191.79,-107.44 -299.33,-223.88 -505.07,-310.31 44.16,-168.31 292.47,-429.89 441.74,-475.04 68.38,112.36 137.05,207.83 223.36,340.56zm-737.11 169.12l778.89 541.67c78.3,77.18 20.18,27.2 66.02,82.46 69.46,83.73 185.11,134.12 279.94,140.31 167.07,10.91 317.36,-90.09 182.35,-303.85 -11.72,-18.56 -99.66,-124.99 -116.43,-148.41l-194.67 -320.46c-77.44,-109.5 -63.8,-8.83 -162.4,-202.55l-289.34 -372.07c-285.79,28.35 -517.81,278.78 -544.35,582.9z"/>
   <path class="fil16" d="M8576.91 13492.58l70.12 8.96 121.19 -34.46c47.45,-2.02 284.64,59.24 482.13,40.02 5.83,-8.66 13.2,-33.08 15.81,-27.01 3.74,8.74 53.22,-123.19 126.65,-169.09l-6.31 -70.15c-123.55,-111.78 -790.89,-215.81 -980.31,-186.9l82.04 336.14c2.09,0.36 11.23,1.77 13.86,2.22 29.16,5.18 -6.87,18.16 130.36,24.69 -110.44,55.27 -11.71,15.32 -55.53,75.59z"/>
   <path class="fil28" d="M13120.14 11078.81c22.68,197.2 195.58,518.29 266.11,664.57 216.89,9.64 377.86,-76.7 466.38,-195.74 -88.58,-209.87 -321.32,-247.65 -432.32,-636.21 -133.01,41.1 -210.46,96.27 -300.17,167.38z"/>
   <path class="fil5" d="M9289.7 5337.59c-128.11,-59.86 -768.76,-139.96 -466.86,-351.88 323.54,-227.09 1139.83,398.51 979.12,745.72 -180.28,-70.24 -252.04,-272.27 -512.26,-393.84zm401.54 467.36l196.03 -11.06c73.81,-290.45 -79,-574.22 -274.71,-708.52 -771.42,-529.3 -1059.76,-73.15 -896.58,155.63 146.82,205.89 326.78,-74.05 975.26,563.95z"/>
   <path class="fil19" d="M9801.96 5731.43c160.71,-347.21 -655.58,-972.81 -979.12,-745.72 -301.9,211.92 338.75,292.03 466.86,351.88 260.22,121.57 331.98,323.6 512.26,393.84z"/>
   <path class="fil19" d="M5383.89 5170.39l82.36 -50.47c166.07,-65.95 273.55,-159.38 468.25,-195.03 200.88,-36.76 306.75,16.29 476.63,-30.22l55.4 -28.6c151.01,-309.46 -420.05,-299.79 -645.28,-201.34 -187.25,81.84 -488.29,280.16 -437.35,505.65z"/>
   <path class="fil29" d="M5110.27 3443.11c174.1,-20.93 271.26,-143.32 404.64,-218.86 122.46,-69.38 315.16,-163.19 453.13,-205.71 340.08,-104.83 806.49,37.85 1155.69,79.46l5.65 -104.33c-682.03,-80.17 -1281.88,-349.55 -1883.98,213.48 -96.1,89.87 -131.98,94.21 -135.13,235.96z"/>
   <path class="fil5" d="M5383.89 5170.39c-50.93,-225.5 250.1,-423.81 437.35,-505.65 225.23,-98.45 796.29,-108.12 645.28,201.34l-55.4 28.6c-169.88,46.51 -275.75,-6.54 -476.63,30.22 -194.7,35.65 -302.18,129.08 -468.25,195.03 75.02,87.49 -119.07,71.4 146.6,71.4 256.76,-316.5 601.18,6.95 965.54,-280.24 52.55,-669.05 -890.04,-306.95 -911.25,-292.44 -64.79,44.29 -170.56,126.33 -228.89,176.47 -113.22,97.34 -148.12,118.9 -154.28,322.91 80.34,93.78 -23.53,30.76 99.93,52.37z"/>
   <path class="fil30" d="M1664.44 10450.06c600.63,-97.06 298.62,-244.36 534.41,-513.52 105.27,292.16 29.04,308.01 291.38,473.85 104.83,17.7 42.88,-1.79 119.79,23.63 61.16,20.2 52.77,30.3 76.45,48.15 -28.33,20.15 -27.92,27.24 -78.25,47.27 -60.97,24.27 -29.97,8.56 -113.75,22.67 -286.36,176.98 -163.49,172.18 -289.05,462.74 6.51,6.71 17.25,8.92 20.2,19.47 2.62,9.36 17.48,12.72 20.68,13.84l41.92 6.82c81.93,-121.9 21.44,-53.07 70.8,-189.73 97.49,-269.97 359.6,-157.99 472.51,-428.69 -160.59,-163.64 -273.05,-68.48 -411.01,-251.91 -88.1,-117.13 -90.88,-373.57 -267.17,-337.38 -166.65,84 -98.98,211.69 -185.08,341 -119.76,179.87 -282.79,-19.06 -303.83,261.79z"/>
   <path class="fil16" d="M3712.76 8275.45c-45.04,67.79 -58.96,163.67 -116.93,220.03l-31.14 168.19c61.05,125.81 152.63,150.36 271.43,252.9 54.51,-59.38 20.83,-13.51 56.35,-93.37 113.82,-255.83 -47.64,157.56 21.46,-62.16 0.12,-0.36 28.86,-127.99 31.14,-137.3 108.19,-441.2 48.8,-585.2 56.61,-701.81l21.19 -65.44c-77.85,8.43 -45.33,12.17 -105.9,-16.43 -98.88,36.76 -55.34,14.77 -103.95,53.88l-89.33 493.85 -10.93 -112.36z"/>
   <path class="fil31" d="M1351.1 6504l157.51 -288.35c-130.52,-52.85 -768.28,-519.58 -849.64,-245.25 -54.39,183.41 502.01,471.23 692.13,533.6z"/>
   <path class="fil32" d="M7178.31 7444.5c63.7,19.57 43.63,0.26 105.07,41.91 54.41,36.87 26.09,23.73 62.07,70.5 69.48,10.55 31.54,-13.16 91.7,36.81 34.37,28.55 38.6,44.11 59.57,86 31.92,63.78 48.13,123.85 50.34,196.22 17.92,589.77 -861.38,575.1 -890.29,140.09 -42.5,-45.63 -23.93,66.88 -48.93,-103.32 -7.62,-51.73 3.97,-118.45 8.16,-171.93 -37.39,33.36 -41.26,0.07 -68.55,93.58 -36.94,126.6 -0.91,40.52 2.78,112.53 4.11,80.06 157.1,183.67 -15.6,183.67 107.33,61.2 183.89,264.18 411.49,320.66 224.34,55.65 456.63,-41.99 560.69,-153.19 485.21,-518.5 -205.58,-933.88 -205.65,-933.97 -11.57,7.25 -24.17,16.33 -34.06,22.82l-88.82 57.62z"/>
   <path class="fil31" d="M14788.12 6991.8l76.63 190.74c48.1,98.05 11.26,32.98 43.66,74.76 1203.21,-409.29 761.72,-890.82 -120.29,-265.5z"/>
   <path class="fil33" d="M15001.42 4687.12c6.95,-9.93 16.11,-37.49 19.29,-30.86l51 -89.35c-45.85,-126.24 -80.37,-146.8 -143.51,-237.04l-188.44 17.48c-104.69,-1.67 -241.51,49.42 -325.21,131.7 -147.98,145.43 -38.76,192.66 2.73,365.61 233.61,-40.88 302.82,-139.13 584.14,-157.55z"/>
   <path class="fil34" d="M14749.11 10459.92c181.95,-204.59 -32.25,-115.95 440.45,-391.29 -203.63,-56.83 -341.44,-283.12 -449.92,-433.81 -31.66,109.55 -73.04,181.52 -130.9,289.36 -93.43,174.15 -114.69,112.87 -131.29,210.51 164.25,213.28 -11.14,-105.06 271.66,325.23z"/>
   <path class="fil35" d="M4739.43 7726.79c-235.42,53.71 -243.1,184.68 -210.93,433.84 444.94,263.35 337.33,295.6 1005.99,276.31 469.29,-70.07 265.44,-708.29 -237.75,-738.97 -88.86,-6.85 -184.68,-22.15 -273.55,-22.27 -25.4,-0.05 -86.93,1.31 -109.76,6.61 -158.69,36.86 -79,24.67 -121.68,62.49 235.02,1.08 476.41,-17.14 653.17,79.38 153.36,83.75 290.75,169.62 254.92,416.79 -127.33,239.47 -994.37,163.82 -1101.37,-163.95 -63.55,-194.68 65.14,-224.65 140.96,-350.23z"/>
   <path class="fil36" d="M9198.02 1232.22c-0.46,230.15 -211.46,250.95 -21.16,429.59 190.78,-46.05 211.09,-270.67 482.72,-401.56l13.2 -146.19c-28.31,-77.85 -47.84,-94.64 -165.25,-165.31 -134.96,44.79 -269.76,157.73 -309.51,283.47z"/>
   <path class="fil37" d="M2393.23 10482.17c-52.27,109.11 -89.28,133.67 -197.09,193.74 -108.34,-47.77 -172.3,-102.28 -210.96,-230.48 145.16,-163.49 293.85,-204.57 408.05,36.74zm-728.79 -32.11c164.19,197.67 338.69,-26.96 448.58,371.98 10.35,37.54 15.99,79.08 31.77,113.6 41.43,90.64 8.23,41.25 60.63,79.2 125.56,-290.55 2.68,-285.75 289.05,-462.74l-4.24 -141.72c-262.34,-165.84 -186.11,-181.69 -291.38,-473.85 -235.8,269.16 66.21,416.46 -534.41,513.52z"/>
   <path class="fil25" d="M12260.69 2303.05l-112.19 -341.15 -99.66 -156.45c-150.77,-150.96 -310.69,-90.74 -459.92,-214.52l130.51 -69.48c35.98,-13 77.16,-20.4 114.76,-31.23 286.43,-82.42 340.28,-203.31 397.4,-593.03 -274.66,35.95 81.26,344.27 -479.94,511.55 -104.93,31.28 -146.8,64.13 -214.52,113.5l8.53 179.29c252.5,106.47 412.68,32.45 512.03,353.99 92.62,299.78 78.14,267.85 203.01,247.54z"/>
   <path class="fil30" d="M2980.49 3685.14c-63.42,41.97 4.24,44.94 -269.43,49.94 -115.44,2.1 -219.09,8.06 -334.98,3.11 18.43,-314.51 -38.66,-329.85 407.75,-164.22 43.3,16.06 57.84,17.15 104.21,42.67l92.44 68.5zm-714.08 84.63c181.75,71.66 134.66,87.04 483.53,80.45 184.17,-3.49 309.53,-38.17 352.43,-201.82 -72.62,-139.32 -155.91,-122.26 -311.17,-194.8 -144.02,-67.29 -266.45,-77.44 -442.32,-99.68 -62.67,118.9 -94.4,242.06 -82.47,415.85z"/>
   <path class="fil37" d="M8699.24 6739.44c88.27,65.47 8.79,-45.02 106.17,108.07 28.68,45.1 39.8,79.48 59.94,144.28 -77.06,136.9 -138.52,196.47 -274.38,249.95 -63.65,-149.63 -119.51,-152.21 -165.15,-343.16 176.72,-90.72 64.99,-112.49 273.42,-159.15zm75.88 509.36c167.96,-251.74 135.86,-100.36 349.81,-220.27 -100.42,-104.45 -168.49,-62.49 -274.06,-226.14 -72.74,-112.77 -81.53,-274.58 -102.87,-418.16 -78.12,62.12 -98.57,206.61 -179.25,329.76 -104.31,159.23 -136.9,76.21 -333.21,194.01 -7,4.19 -18.2,12.72 -26.86,19.62 291.4,77.92 316.35,273.55 373.56,610.46 139.3,-124.99 84.33,-231.96 192.88,-289.28z"/>
   <path class="fil38" d="M7442.63 3615.91c104.78,74.41 164.33,68.57 313.22,96.48 456.66,85.59 2105.7,383.69 2335.39,367.4 -173.51,-90.9 -2366.92,-466 -2648.61,-463.88z"/>
   <path class="fil20" d="M7065.08 335.41l-19.17 -140.81c127.56,-56.46 125.19,-56.38 257.17,-36.76l162.43 314.26c20.93,60.42 76.56,194.98 -15.46,265.65 -183.66,141 -185.3,-92.95 -252.26,-194.73 -54.11,-82.23 69.39,17.37 -85.6,-90.88l105.07 430.75c690.79,-76.21 301.73,-482.08 162.4,-882.89 -178.62,24.17 -392.04,94.59 -453.48,247.12l138.9 88.29z"/>
   <path class="fil33" d="M1170.1 8882.24c-85.5,18.84 -2.77,-10.41 -76.58,22.72 -9.29,4.19 -36.77,20.27 -45.78,25.52 -34.62,20.2 -72.34,49.97 -98.93,70.49l-20.58 195.69c48.51,50.3 8.01,51.96 135.34,97.59 9.39,3.36 24.27,4.5 32.27,6.82 19.65,5.71 -50.45,132 248.33,-192.53l216.71 -301.32 -244.41 -93.1c-22.4,73.81 -25.18,84.64 -38.84,178.18l-107.53 -10.05z"/>
   <path class="fil28" d="M9198.02 1232.22c-128.45,62.92 -202.28,171.24 -256.23,321.96 49.28,91.37 60.95,98.34 138.62,170.11 44.66,41.26 112.21,107.77 169.93,143.12 106.17,-116.43 111.78,-202.38 237.42,-332.83 96.1,-99.78 273.63,-181.57 339.68,-274.34 -68.3,-111.13 -43.83,-89.05 -154.67,-146.19l-13.2 146.19c-271.63,130.89 -291.94,355.51 -482.72,401.56 -190.3,-178.64 20.7,-199.44 21.16,-429.59z"/>
   <path class="fil16" d="M14252.48 3237.22l36.66 -292.23c-421.38,30.62 -219.5,89.81 -380.54,15.05l-77.04 -32.04c-81.84,48.28 -125.54,88.8 -85.31,226.33 22.12,75.62 73.85,109.46 117.76,163.9 196.36,30.33 246.82,42.95 388.48,-81.02z"/>
   <path class="fil33" d="M7065.08 335.41c9.19,91.55 -70.65,25.55 47.11,116.73 155,108.25 31.49,8.66 85.6,90.88 66.96,101.78 68.6,335.74 252.26,194.73 92.03,-70.67 36.39,-205.23 15.46,-265.65l-162.43 -314.26c-131.98,-19.62 -129.61,-19.7 -257.17,36.76l19.17 140.81z"/>
   <path class="fil20" d="M1347.56 8608.57c-72.27,139.42 -116.38,154.22 -177.46,273.66l107.53 10.05c13.66,-93.53 16.44,-104.36 38.84,-178.18l244.41 93.1 -216.71 301.32c-298.78,324.53 -228.68,198.24 -248.33,192.53 -8,-2.32 -22.88,-3.46 -32.27,-6.82 -127.33,-45.63 -86.83,-47.29 -135.34,-97.59l20.58 -195.69c-94.05,44.66 -157.53,45.96 -125.62,157.68 57.36,91.98 67.65,84.49 153.59,155.43 79.28,65.4 96.56,97.01 190.63,141.7 135.76,-104.18 385.98,-423.2 474.86,-590.18 -28.61,-86.98 -63.78,-142.05 -123.6,-207.83 -96.83,-106.43 -59.51,-80.7 -171.09,-49.18z"/>
   <path class="fil27" d="M5943.5 6734.43c-142.61,53.53 -150.94,53.53 -293.55,0l-45.58 -255.45c166.37,-70.57 144.28,-169.42 320.97,-60.97 50.83,31.21 41.11,32.14 91.65,59.61 0,245.25 -73.48,198.51 -73.48,256.81zm-158.47 -517.82c-111.5,125.92 -92.77,235.65 -340.61,244.47l-93.17 73.83c135.44,56.16 235.6,124.05 293.55,241.84 29.65,60.25 42.88,127.06 55.7,196.26l34.37 154.53c3.15,8.92 10.08,21.46 12.9,28.56 2.81,7.12 8.3,19.32 14.07,28.05 80.21,-297.72 135.36,-326.3 289.83,-467.49l0.6 -214.14c-32.45,-62.17 -86.75,-155.51 -141.32,-270.19 -88.37,-36.68 -29.72,-28.88 -125.92,-15.73z"/>
   <path class="fil9" d="M8775.13 7248.81c172.65,-17.97 206.89,-84.56 370.96,-119.78 -6.84,143.72 -60.25,233.5 -137.28,306.5l27.88 128.34c223.3,-213.61 229.84,-597.58 182.38,-939.28l-25.32 72.01c-2.1,10.28 -8.69,60.2 -11.47,73.62l-11.76 68.09c-2.73,10.13 -9.29,22.24 -11.79,30.2 -2.52,7.93 -8.23,20.08 -14.34,28.94 -81.94,-1.51 -174.88,-87.14 -216.08,-170.11 -77.14,-155.41 -1.57,-196.64 -190.07,-286.63l9.75 -56.46c21.34,143.59 30.13,305.39 102.87,418.16 105.57,163.66 173.64,121.7 274.06,226.14 -213.96,119.91 -181.85,-31.48 -349.81,220.27z"/>
   <path class="fil25" d="M3446.84 2636.99c-62.65,-192.58 -222.82,-344.63 -253.9,-563.74l255.63 -11.64c27.49,70.78 9.72,9.54 28.15,87.01l60.47 488.86 78.1 -54.56c7.73,-116.19 -10.99,-242.49 -28.74,-350.99 -33.71,-205.94 -98.85,-370.69 -312.53,-306.4 -29.89,8.99 -136.09,93.15 -152.79,106.27 -8.39,198.28 51.96,300.31 161.01,488.63 74.05,127.87 37.39,92.84 164.6,116.55z"/>
   <path class="fil34" d="M8425.83 6898.6c45.63,190.94 101.5,193.53 165.15,343.16 135.86,-53.48 197.32,-113.06 274.38,-249.95 -20.13,-64.81 -31.26,-99.18 -59.94,-144.28 -97.38,-153.09 -17.9,-42.6 -106.17,-108.07 -208.43,46.66 -96.7,68.43 -273.42,159.15z"/>
   <path class="fil13" d="M6488.05 10544.96c83.93,144.71 30.43,144.8 216.84,242.97 325.31,171.34 765.53,103.55 886.83,-152.41 -510.82,183.51 -646.34,114.88 -1103.67,-90.55z"/>
   <path class="fil39" d="M4657.95 7679.69c-451.83,267.67 -114.58,758.95 217.05,745.49 164.86,34.42 557.53,180.28 659.49,11.77 -668.66,19.29 -561.06,-12.96 -1005.99,-276.31 -32.17,-249.16 -24.49,-380.13 210.93,-433.84l52.32 18.01c42.69,-37.82 -37.01,-25.63 121.68,-62.49 22.83,-5.3 84.36,-6.66 109.76,-6.61 88.86,0.12 184.68,15.42 273.55,22.27 -184.9,-117.24 -434.87,-54.51 -638.79,-18.3z"/>
   <path class="fil40" d="M13831.55 2928.01l77.04 32.04c161.04,74.76 -40.83,15.56 380.54,-15.05l-36.66 292.23c124.2,-117.63 130.52,-232.65 92.51,-444.92 -52.39,-180.59 -4.92,-219.62 -0.12,-393.08l-91.18 -0.18 -21 430.32c-126.42,-10.18 -375.64,-68.9 -401.14,98.65z"/>
   <path class="fil6" d="M4769.8 1324.1c247.59,-111.2 430.12,-114.3 519.38,-210.8 -40.09,-35.71 5.46,-15.95 -66.11,-47.84 -243.22,-108.39 -366.67,-32.49 -560.53,-298.4 -77.99,73.5 -98.9,-145.62 -59.23,96.7l288.24 249.54c-70.54,87.03 -7.91,51.13 -147.41,85.45l25.66 125.34z"/>
   <path class="fil34" d="M5943.5 6734.43c0,-58.3 73.48,-11.56 73.48,-256.81 -50.53,-27.47 -40.81,-28.4 -91.65,-59.61 -176.69,-108.45 -154.6,-9.6 -320.97,60.97l45.58 255.45c142.61,53.53 150.94,53.53 293.55,0z"/>
   <path class="fil41" d="M6534.64 8130.57c172.7,0 19.7,-103.62 15.6,-183.67 -3.69,-72.01 -39.72,14.07 -2.78,-112.53 27.29,-93.52 31.16,-60.22 68.55,-93.58 135.24,-212.07 198.82,-305.36 562.3,-296.28l88.82 -57.62c9.88,-6.49 22.49,-15.56 34.06,-22.82 -290.32,-53.27 -439.99,-63.63 -641.59,123.72 -200.1,185.98 -196.46,344.58 -124.94,642.78z"/>
   <path class="fil37" d="M2376.09 3738.19c115.89,4.95 219.54,-1.01 334.98,-3.11 273.66,-5 206.01,-7.96 269.43,-49.94l-92.44 -68.5c-46.38,-25.52 -60.92,-26.61 -104.21,-42.67 -446.41,-165.63 -389.32,-150.29 -407.75,164.22z"/>
   <path class="fil37" d="M3446.84 2636.99l90.36 0.5 -60.47 -488.86c-18.43,-77.47 -0.66,-16.23 -28.15,-87.01l-255.63 11.64c31.08,219.11 191.24,371.16 253.9,563.74z"/>
   <path class="fil25" d="M12479.54 1877.04c-56.96,29.8 -5.75,-58.22 -67.17,81.31 -10.18,23.13 -34.75,112.91 -42.92,146.14 -23.41,95.26 -28.46,162.63 -67.64,233.84 90.12,13.4 50.75,17.7 115.47,-3.48 82.89,-290.54 5.81,-391.46 417.67,-549.1 131.34,-50.25 123.67,-10.05 158.95,-162.98 -235.22,87.14 -357.1,40.55 -514.36,254.26z"/>
   <path class="fil42" d="M6616.01 7740.79c-4.19,53.48 -15.78,120.21 -8.16,171.93 25,170.2 6.42,57.69 48.93,103.32 64.34,-269.21 -11.08,-84.82 115.22,-275.52 2.37,-189.54 108.62,-274.63 284.23,-160.49l-14.01 183.14c178.56,-25.1 37.93,7.72 98.57,-73.3l8.2 -147.41 196.47 14.45c-35.98,-46.78 -7.67,-33.63 -62.07,-70.5 -61.45,-41.64 -41.38,-22.34 -105.07,-41.91 -363.47,-9.07 -427.05,84.21 -562.3,296.28z"/>
   <path class="fil6" d="M4294.09 772.81c210.23,-32.09 106,13.76 148.17,-113.65l81 107.48 131.05 -35.91c-45.96,-74.41 -57.84,-129.45 -81.31,-229.67 -30.12,-128.62 -21.76,-184.15 -98.95,-278.93 -80.83,97.77 -48.46,84.26 -91.81,248.96 -33.51,127.33 -63.2,183.19 -88.15,301.73z"/>
   <path class="fil34" d="M1985.18 10445.43c38.66,128.21 102.62,182.71 210.96,230.48 107.81,-60.07 144.81,-84.63 197.09,-193.74 -114.2,-241.31 -262.89,-200.23 -408.05,-36.74z"/>
   <path class="fil37" d="M2571.77 2769.35l-178.46 -192c-0.22,-0.17 -389.2,-133.44 -122.03,-360.86 119.74,-101.95 109.36,-73.09 290.34,-73.75 25.04,57.8 22.98,104.36 69.91,158.36 179.15,206.14 93.85,29.72 100.27,23.46 -86.32,-132.73 -154.98,-228.2 -223.36,-340.56 -149.27,45.15 -397.58,306.73 -441.74,475.04 205.75,86.43 313.29,202.86 505.07,310.31z"/>
   <path class="fil43" d="M823.18 9158.63c-31.91,-111.71 31.58,-113.02 125.62,-157.68 26.59,-20.51 64.31,-50.29 98.93,-70.49 9.01,-5.25 36.49,-21.33 45.78,-25.52 73.81,-33.13 -8.92,-3.87 76.58,-22.72 61.08,-119.45 105.19,-134.25 177.46,-273.66 -274.72,49.77 -188.79,141.37 -330.94,248.89 -148.64,112.46 -252.24,44.82 -263.2,302.04 89.05,53.12 28.26,16.74 69.76,-0.88z"/>
   <path class="fil44" d="M6772 7740.52c125.29,77.16 83.05,46.68 270.22,22.65l14.01 -183.14c-175.61,-114.13 -281.86,-29.04 -284.23,160.49z"/>
   <path class="fil45" d="M4086.79 1300.54l21.64 -113.85 -150 -40.85c31.44,-127.69 81.61,-48.91 35.6,-131.19l-268.23 47.21c-55.02,27.97 -33,20.03 -67.52,51.44 132.69,134.61 268.61,64.38 428.51,187.23z"/>
   <path class="fil37" d="M2826.79 2945.32c139.98,206.01 304.25,225.83 353.9,224.14 132.05,-4.49 69.91,-108.55 65.1,-126.86 -3.18,-12.15 -30.76,-59.66 -39.36,-72.14 -41.86,-60.73 -95.42,-93.19 -138.92,-126.8l58.02 224.7c-154.81,-50.38 -150.24,-109.56 -298.75,-123.04z"/>
   <path class="fil37" d="M14318.41 10184.13c-7.4,-75.42 -13.66,-87.37 -44.47,-149.93 140.09,-9.44 206.13,16.72 168.41,-121.4 -83.58,23.36 -140.72,39.64 -223.66,61.41 -12.88,3.38 -112.79,31.51 -113.68,31.92 -125.87,58.58 -50.38,26.99 -94.31,71.88l307.72 106.12z"/>
   <path class="fil46" d="M12148.5 1961.9l112.19 341.15 41.11 35.28c39.18,-71.21 44.23,-138.59 67.64,-233.84 8.16,-33.23 32.73,-123.01 42.92,-146.14 61.43,-139.53 10.22,-51.51 67.17,-81.31 -117.49,5.22 -135.21,152.31 -153.24,119.74 -3.92,-7.1 -17.45,14.37 -26.46,21.18 -110.03,-31.84 -51.71,-12.1 -151.34,-56.06z"/>
   <path class="fil47" d="M5444.42 6461.08c247.83,-8.83 229.11,-118.55 340.61,-244.47l17.32 -102.52c-47.79,-57.12 9.55,-127.23 -92.99,22.77 -42.97,62.82 5.25,59.33 -77.09,140.86 -48.48,48 -191.9,123.92 -257.02,151.14l69.18 32.24z"/>
   <path class="fil42" d="M14739.76 4347.36l188.44 -17.48c63.13,90.24 97.66,110.8 143.51,237.04l-51 89.35c-3.18,-6.62 -12.34,20.93 -19.29,30.86l161.45 -16.46c6.62,-159.32 -116.2,-307.46 -184.1,-388.21 -270.57,7.17 -209.06,44.81 -239.01,64.91z"/>
   <path class="fil48" d="M8536 8928.96c106.1,122.31 133.44,79.13 205.05,46.84 -64.06,-122.13 18.16,-24.44 -110.12,-115.04 -61.16,-43.2 -97.91,-66.91 -156.8,-100.74 4.49,35.22 0.23,49.61 16.56,90.37 0.94,2.32 32.6,60.3 45.32,78.57z"/>
   <path class="fil49" d="M6051.67 6716.66c26.34,-7.55 110.16,-26.71 132.21,-35.83 119.18,-49.33 48.68,-22.17 92.49,-60.93l-224.11 -117.38 -0.6 214.14z"/>
   <path class="fil49" d="M15286.54 10154.89c16.41,-2.91 122.71,-14.54 146.92,-25.8 92.16,-42.87 50.09,1.37 63.47,-76.41l-192.04 -60.49 -18.35 162.7z"/>
   <path class="fil49" d="M2494.48 10552.11c83.78,-14.11 52.79,1.61 113.75,-22.67 50.34,-20.03 49.92,-27.12 78.25,-47.27 -23.68,-17.85 -15.28,-27.95 -76.45,-48.15 -76.91,-25.42 -14.97,-5.93 -119.79,-23.63l4.24 141.72z"/>
   <path class="fil50" d="M5802.35 6114.08l-17.32 102.52c96.2,-13.15 37.55,-20.95 125.92,15.73l-20.25 -235.09c-83.81,53.17 -28.53,9.97 -88.35,116.83z"/>
   <polygon class="fil49" points="14692.37,9440.23 14829,9455.48 14808.59,9359.05 14775.01,9271.39 "/>
   <path class="fil51" d="M11220.03 12552.16c148.6,-48.41 71.5,-11.04 113.12,-85.11l-110.01 44.89 6.72 -136.9c-3.25,6.52 -28,30.7 -28.69,90.93 -0.84,71.25 8.08,64.34 18.86,86.18z"/>
  </g>
 </g>
</svg>
