<?xml version="1.0" encoding="UTF-8"?>
<!DOCTYPE svg PUBLIC "-//W3C//DTD SVG 1.1//EN" "http://www.w3.org/Graphics/SVG/1.1/DTD/svg11.dtd">
<!-- Creator: CorelDRAW 2021 (64 Bit) -->
<svg xmlns="http://www.w3.org/2000/svg" xml:space="preserve" width="89.9814mm" height="96.6663mm" version="1.1" style="shape-rendering:geometricPrecision; text-rendering:geometricPrecision; image-rendering:optimizeQuality; fill-rule:evenodd; clip-rule:evenodd"
viewBox="0 0 2264.95 2433.22"
 xmlns:xlink="http://www.w3.org/1999/xlink"
 xmlns:xodm="http://www.corel.com/coreldraw/odm/2003">
 <defs>
  <style type="text/css">
   <![CDATA[
    .fil3 {fill:#022959}
    .fil22 {fill:#023766}
    .fil12 {fill:#051955}
    .fil0 {fill:#06C2C4}
    .fil2 {fill:#161838}
    .fil13 {fill:#161A63}
    .fil14 {fill:#171758}
    .fil4 {fill:#24B3C2}
    .fil10 {fill:#270528}
    .fil15 {fill:#2BB2C5}
    .fil20 {fill:#310C4E}
    .fil24 {fill:#312618}
    .fil11 {fill:#360835}
    .fil8 {fill:#380E68}
    .fil7 {fill:#4696BA}
    .fil9 {fill:#5789B7}
    .fil19 {fill:#B14DAD}
    .fil18 {fill:#CC46AC}
    .fil17 {fill:#D63D9D}
    .fil21 {fill:#F4ABC4}
    .fil6 {fill:#F5A3B4}
    .fil23 {fill:#F7EBFA}
    .fil5 {fill:#FBF4D3}
    .fil1 {fill:#FBFCFC}
    .fil16 {fill:#FDF8D8}
   ]]>
  </style>
 </defs>
 <g id="Camada_x0020_1">
  <metadata id="CorelCorpID_0Corel-Layer"/>
  <g id="_2077069708064">
   <path class="fil0" d="M1505.72 1014.48c-72.72,5.28 -107.61,-3.38 -97.24,-82.59 8.6,-65.64 28.6,-146.86 -19.88,-182 -89.64,26.76 -56.33,205.99 -103.28,228.34 -112.59,53.58 -40.12,-290.78 75.56,-316.14 183.72,-40.28 136.31,228.93 135.31,269.68 -1.1,45.56 12.57,28.22 9.53,82.7zm-774.9 -141.04l-0.99 -3.49 21.93 -40.52c5.57,-16.08 5.36,-32.18 7.61,-49.58 10.42,-80.29 40.4,-182.74 135.24,-191.07 71.66,-6.29 110.42,31.27 125.91,91.51 26.99,104.99 -35.03,207 30.49,218.92 25.94,4.72 118.03,-15.75 155.48,78.21 44.29,111.13 -68.59,160.86 -81.07,178.74 37.93,12.95 79.37,10.45 124.55,-1.33 97.07,-25.3 28.81,-41.06 83.59,-58.21l9.28 1.68c25.96,15.97 19.31,34.31 44.51,65.17 21.57,26.43 44.33,30.56 46.52,65.07 -50.63,38.79 -50.67,-18.71 -80.66,53.59 -91.85,221.38 -186.6,162.87 -195.68,238.14 -19.12,32.26 -69.5,41.12 -113.62,35.68 -70.05,-8.63 -63.68,-31.87 -96.54,-51.47l-3.31 -11.26c-7.63,-57.49 18.83,3.3 -44.27,-63.79 -43.5,-46.26 -87.95,-132.69 -99.26,-201.58 -1.99,-12.14 -7.04,-53.12 -10.68,-60.74 -16.71,-35.03 -29.74,-9.42 -43.78,-38.55l0.25 -10.89c26.47,-39.18 28.44,-15.16 57.06,-46.78 21.4,-23.64 14.53,-39.43 58.19,-39.55 15.23,20.22 5.77,103.91 142.89,101.29 -10.24,-45.03 -39.22,-49.32 -39.64,-102.01 -0.58,-72.71 33.83,-41.04 -9.73,-98.66 -1.15,-1.53 -3.66,-3.73 -4.59,-6.1l-2.18 -0.98c-24.69,-14.7 -12.73,28 -19.86,-33.76 -0.02,-0.16 3.45,-30.77 3.79,-33.59 27.8,-226.99 -57.79,-214.08 -83.91,-74.29 -7.9,42.27 16.57,171.03 -125.16,113.36 -5,-42.21 -2.34,-11.23 7.67,-23.19zm633.32 -362.39c70.97,-67.6 255.5,103.92 189.52,165.56 -22.18,20.72 -48.2,-7.79 -62.97,-20.55 -77.11,-66.61 -194.21,-80.56 -126.55,-145.01zm-578.61 60.34c-20.67,-21.62 -9.17,-12.7 -9.67,-42.95 0.28,-11.55 -5.07,-27.35 24.63,-54.07 39.52,-35.56 123.83,-38.33 172.92,-33.05 17.11,27.39 34.42,30.17 11.67,72.14 -18.53,23.15 -70.24,14.32 -108.2,23.46 -42.58,10.26 -43.37,35.16 -91.35,34.47zm-276.21 1201.51c40.23,21.28 440.67,79.09 519.72,91.09 102.67,15.58 478.1,85.73 547.39,71.96l83.32 -703.76c10.12,-118.82 24.84,-241.48 35.8,-364.08 6.03,-67.53 37.08,-324.88 27.41,-370.06 -76.96,-22.31 -196.87,3.16 -230.98,-16.2l52.78 -5.48c-65.57,-9.73 -140.7,-32.3 -215.62,-43.53 -116.97,-17.54 -636.61,-96.74 -683.35,-86.95 -22.28,60.89 -89.11,868.35 -110.72,1055.51 -9.36,81.11 -39.45,288.19 -25.74,371.51z"/>
   <path class="fil1" d="M1928.92 1485.17c10.63,38.33 78.45,132.1 103.09,187.91 24.39,55.24 51.41,170.88 84.44,203.96 54.82,54.92 88.56,137.91 34.09,196.95 -55.89,60.58 -166.51,79.89 -208.57,53.11 -9.74,-47.01 8.54,-49.9 11.52,-87.5 -36.61,17.64 -53.02,12.11 -76.94,-11.96 -16.57,-74.02 27.55,-91.49 47.39,-135.84 -3.59,-30.98 -15.38,-67.37 -31.31,-87.51l-7.8 75.55c-87.14,30.81 -109.06,-27.5 -165.67,0.93 -84.93,42.65 -28.44,91.94 -87.51,111.2 -42.23,13.77 -287.14,-38.36 -353.86,-43.52l-4.87 65.55c69.63,-18.43 128.7,-19.75 145.6,59.09 23.27,108.6 -41.02,316.83 -172.4,263.15 -59.65,-24.37 -38.21,-102.2 -44.03,-170.3 -49.1,-25.17 -65.37,-25.16 -81.58,-83.26 -16.36,-58.65 -0.86,-104.43 4.44,-159.99l-230.65 -37.46c-6.14,25.55 -7.45,47.32 4.9,75.72 106.95,-74.71 193.14,79.99 126.09,239.65 -60.11,143.15 -208.66,103.8 -186.63,-83.69 -100.69,-19.15 -138.13,-135.08 -104.05,-247.77 -16.6,-16.99 -35.57,-15.23 -65.61,-19 -58.62,-7.36 -184.28,-17.16 -205.71,-50.68 -24.86,-49.64 17.89,-278.04 17.54,-355.46l-17.59 19.27c-0.76,0.82 -2.62,2.79 -3.31,3.52l-6.47 6.64c-27.63,69.56 -110.46,157.61 -110.54,249.99 46.85,43.14 69.25,57.2 45.05,139.29l-65.34 2.1c23.86,67.18 10.19,104.88 -68.14,98.19 -102.29,-8.74 -36.02,20.78 -124.67,-42.49 -112.23,-80.09 23.5,-199.09 48.93,-245.79 15.06,-27.67 35.38,-96.76 50.14,-131.46 32.86,-77.21 168.49,-277.01 246.45,-294.39 15.59,-23.38 6.96,-17.23 33.91,-29.78 4.16,-194.29 40.94,-451.5 62.22,-651.64 25.46,-239.51 -18.3,-404.05 238.98,-470.91 83.72,-21.76 940.18,121.41 1173.72,149.05 74.11,8.77 53.12,9.76 62.15,21.26 24.58,33.67 -44.5,523.27 -52.73,605.83 -20.36,204.17 -44.58,409.25 -64.67,612.47zm-153.27 483.5c14.97,21.71 8.86,32.71 13.94,62.58 9.97,58.57 43.05,66.05 59,89.31 9.4,13.7 13.71,35.01 23.27,50.83 71.38,118.12 322.22,43.34 377.55,-88.94 34.65,-82.81 6.32,-170.08 -35.7,-228.67 -23.38,-32.62 -185.42,-375.9 -185.35,-402.18l53.71 -534.95c20.44,-174.02 36.25,-355.68 52.46,-530.22 9.91,-106.7 20.21,-184.15 -74.39,-217.92 -47.81,-17.07 -677.47,-98.34 -762.73,-110.59 -312.61,-44.91 -501.33,-129.5 -703.25,61.61 -62.1,58.78 -79.43,87.98 -88.55,201.92 -14.08,175.86 -34.17,353.45 -51.41,531.49 -46,475.03 -7.01,236.91 -155.42,430.56 -42.91,55.99 -83.12,101.66 -122.76,173.88 -30.55,55.65 -60.04,155.9 -92.85,195.69 -38.76,47 -95.82,120.38 -80.68,218.92 26.75,174.1 266.4,231.41 373.72,148.78 41.6,-32.03 23.55,-50.75 60.47,-88.1 35.96,-36.39 44.53,-23.24 98.2,-14.37 50.4,8.32 94.95,-0.72 102.42,44.36 44.24,266.89 88.5,126.63 114.89,256.42 38.7,190.36 286.54,206.63 353.55,19.79 35.8,77.98 4.07,105.17 84.25,161.93 55.78,39.49 124.31,42.72 185.67,10.79 128.16,-66.68 131.67,-228.94 132.7,-337.51 69.4,1.34 92.26,25.67 164.53,-7.93 98.12,-45.63 49.99,-82.89 102.74,-97.47z"/>
   <path class="fil2" d="M1842.71 1693.73c45.04,40.26 35.8,101.65 24.7,172.47l-82.6 -4.69c9.28,-21.03 7.67,-16.53 38.79,-23.31l19.11 -144.47zm-42.36 132.57c-21.41,-26.4 -9.09,-45.2 -5.3,-104.61 2.18,-34.07 3.89,-68.35 7.86,-102.2 25.09,38.23 19.61,46.21 14.96,96.2 -3.05,32.77 -2.95,82.33 -17.52,110.62zm-123.53 51.36c-6.77,-20.61 30.7,-357.78 41.18,-373.04 21.16,16.61 40.51,48 54.31,65.93 27.42,35.58 19.37,47.94 13.73,96.05 -20.63,175.93 4.29,166.89 -66.77,184.93l13.14 -233.56c-14.76,51.53 -17.99,154.97 -25.96,215.56 -5.52,41.92 1.42,30.36 -29.63,44.13zm-939.66 -1615.6c8.78,-19.54 -0.78,-6.94 17.78,-22.67 0.57,-0.48 25.09,-15.07 25.96,-15.42 24.22,-9.82 41.48,-7.96 69.4,-5.51 43.21,3.79 92.24,13.87 135.68,20.28 93.31,13.76 188.72,31.72 282.41,34.37l-13.4 -5.81c-65.44,-23.86 -325.19,-40.36 -416.25,-68.19 45.07,-23.21 694.87,79.59 827.5,101.41 36.33,5.98 238.61,23.43 266.18,45.6 -43.46,27.63 -295.61,-42.22 -411.87,-38.69 85.29,32.63 267.98,45.02 371.76,62.76 -81.02,81.45 -149.05,41.11 -272.33,24.96l-882.84 -133.08zm-19.82 -5.68l19.82 5.68c-11.57,9.64 -2.15,1.87 -10.24,23.89l1059.44 150.01 2.19 12.12c21.7,-0.42 19.44,-6.75 14.48,12.35l-120.71 1145.46c-7.13,80.15 -12.33,319.06 -55.86,356.31 -12.39,13.53 -3.44,2.97 -11.65,11 -14,13.68 -4.15,3.06 -6.25,6.88 -48.78,-4.47 -9.47,-2.16 -26.65,-10 -169.87,-30.56 -379.97,-63.13 -551.31,-84.33 -80.85,-10.01 -498.05,-74.33 -549.1,-93.86 -21.03,-88.65 40.66,-250.22 17.54,-335.06l10.21 -237.77c-26.95,12.55 -18.32,6.4 -33.91,29.78 13.14,25.35 12.58,64.27 13.3,95.18 2.57,109.22 -7.27,80.14 -20.74,90.05 18.93,-49.22 3.87,-114.98 10.91,-169.23 -50.71,-5.64 -12.18,-4.95 -27.3,12.35 13.2,8.04 17.06,-4.85 20.13,49.69 2.45,43.58 5.9,118.63 -38.44,132.64 24.88,7.52 11.15,-12.21 20.28,13.89l6.47 -6.64c0.68,-0.73 2.55,-2.7 3.31,-3.52l17.59 -19.27c0.34,77.41 -42.41,305.82 -17.54,355.46 21.44,33.52 147.1,43.32 205.71,50.68 30.03,3.77 49,2.02 65.61,19 32.82,3.96 18.17,-1.92 34.84,16.67 4.6,-19.51 -3.24,-6.27 9.74,-18.52 39.31,-0.56 83.09,-1.35 115.11,17.94l230.65 37.46 9.89 -0.17c38.5,-0.25 110.98,5.25 142.94,25.92 66.72,5.16 311.63,57.28 353.86,43.52 59.07,-19.26 2.58,-68.54 87.51,-111.2 56.61,-28.43 78.54,29.88 165.67,-0.93l7.8 -75.55c15.92,20.14 27.72,56.53 31.31,87.51 15.06,-21.16 -0.51,-7.64 24.8,-13.49 -38.8,-134.1 -149.88,-353.87 -230.88,-406.99 1.55,-40.01 3.14,-147.02 20.27,-172.04 -5.42,-55.42 50.58,-531.41 63.59,-656.35 4.25,-40.87 10.64,-185.24 31.57,-207.05 13.21,14.57 14.35,-2.92 6.06,73.38 -12.41,114.29 -49.82,464.09 -48.05,532.06 20.73,-36.8 57.11,-458.7 66.63,-563.07 0.83,-9.09 1.76,-28.87 3.27,-36.69l12.41 -31.85c12.16,0.71 7.55,-14.59 12.91,13.83 19.73,-25.6 1.1,-19.05 25.53,-33.25 1.71,151.95 -53.95,359.14 -41.28,505.63l48.29 -412.9c8.28,-77.09 0.56,-95.09 29.26,-128.39 17.58,25.54 0.1,99.71 -3.21,131.31 -19.28,184.35 -91.34,821.09 -90.32,906.09 1.68,21.82 -4.93,17.95 13.6,17.95l110.52 -1085.8c-165.31,-11.8 -477.52,-69.98 -662.81,-94.21 -110.79,-14.48 -220.46,-30.81 -330.31,-49.75 -66.8,-11.52 -94.01,-21.34 -156.15,2.31 -49.75,18.94 -90.51,31.59 -112.32,73.86z"/>
   <path class="fil3" d="M509.25 1219.09l-10.21 237.77 6.1 -14.6c12.97,-39.91 -3.8,18.7 4.68,-14.44 2.78,-10.87 4.09,-24.52 5.14,-35.76l19.87 -217.13c7.47,-96.35 21.28,-188.21 29.82,-284.46 8.56,-96.48 18.88,-190 28.26,-286.47 8.8,-90.44 12.64,-199.32 28.17,-285.69 76.26,-10.15 457.4,58.98 562.99,73.42 191.27,26.16 379.02,61.2 570.21,85.07 0.19,49.29 -143.93,1445.79 -156.24,1472.87 -9.65,21.21 0.24,7.58 -16.12,20.43 17.18,7.83 -22.13,5.53 26.65,10 2.1,-3.82 -7.75,6.8 6.25,-6.88 8.21,-8.03 -0.74,2.53 11.65,-11 -5.28,-66.82 61.58,-647.36 74.86,-758.38l69.15 -664.89c2.63,-49.12 -5.98,-60.74 32.56,-78.5 4.96,-19.11 7.22,-12.78 -14.48,-12.35 -44.12,20.26 -82.11,-1.41 -138.94,-9.85 -293.4,-43.55 -670.73,-104.15 -954.54,-138.62 -4.66,-0.57 -34.32,-4.5 -35.87,-4.89l-32.08 -14.6c5.82,-96.57 170,-181.6 275.29,-166.19l1033.26 146.11c34.88,3.77 66.11,1.28 92.06,24.11 -69.28,13.39 -613.86,-76.3 -731.23,-93.11 -121.04,-17.34 -239.91,-32.45 -358.88,-51.59 -98.5,-15.84 -152.81,6.34 -232.05,67.14 -21.94,16.83 -32.97,27.1 -32.28,64.91l53.63 14.45c8.09,-22.02 -1.33,-14.25 10.24,-23.89l-19.82 -5.68c-25.57,-2.12 0.42,1.35 -22.21,-1 7.67,-31.53 70.59,-70.2 111.41,-88.09 57.9,-25.38 99.08,-13.64 162.49,-4.08 181.12,27.32 982.33,150.97 1060.13,133.4 -1.09,94.11 -20.4,193.61 -30.55,289.37 -10.45,98.55 -19.42,192.82 -31.16,291.91l-53.65 589.88 15.11 17.38c20.08,-203.22 44.3,-408.3 64.67,-612.47 8.24,-82.56 77.31,-572.16 52.73,-605.83 -9.03,-11.51 11.96,-12.49 -62.15,-21.26 -233.54,-27.65 -1090.01,-170.81 -1173.72,-149.05 -257.28,66.86 -213.52,231.4 -238.98,470.91 -21.28,200.14 -58.06,457.35 -62.22,651.64z"/>
   <path class="fil4" d="M509.31 1772.9c-13.71,-83.32 16.38,-290.39 25.74,-371.51 21.61,-187.16 88.44,-994.61 110.72,-1055.51 46.74,-9.79 566.38,69.4 683.35,86.95 74.92,11.24 150.06,33.81 215.62,43.53l-52.78 5.48c34.11,19.36 154.02,-6.11 230.98,16.2 9.67,45.18 -21.38,302.53 -27.41,370.06 -10.96,122.59 -25.67,245.25 -35.8,364.08l-83.32 703.76c-69.29,13.77 -444.72,-56.38 -547.39,-71.96 -79.05,-12 -479.49,-69.81 -519.72,-91.09zm-10.27 -316.04c23.11,84.84 -38.58,246.41 -17.54,335.06 51.05,19.53 468.26,83.85 549.1,93.86 171.34,21.2 381.45,53.77 551.31,84.33 16.36,-12.86 6.47,0.78 16.12,-20.43 12.32,-27.08 156.43,-1423.58 156.24,-1472.87 -191.18,-23.87 -378.94,-58.91 -570.21,-85.07 -105.59,-14.44 -486.73,-83.57 -562.99,-73.42 -15.53,86.37 -19.37,195.25 -28.17,285.69 -9.38,96.48 -19.7,190 -28.26,286.47 -8.54,96.25 -22.35,188.1 -29.82,284.46l-19.87 217.13c-1.06,11.24 -2.36,24.89 -5.14,35.76 -8.48,33.15 8.28,-25.47 -4.68,14.44l-6.1 14.6z"/>
   <path class="fil5" d="M1738.14 1299.28c1.41,6.08 2.88,27.13 3.22,28.13 8.65,25.64 -13.24,13.34 12.3,17.54 34.46,-5.91 8.03,-3.18 33.98,3.73l29.45 7.54c1.18,0.16 3.91,0.49 5.83,0.16l6.03 32.67c14.34,5.28 7.56,3.74 25.86,2.97 -1.02,-85 71.03,-721.74 90.32,-906.09 3.3,-31.6 20.79,-105.77 3.21,-131.31 -28.7,33.3 -20.98,51.3 -29.26,128.39l-48.29 412.9c-12.67,-146.49 42.99,-353.68 41.28,-505.63 -24.43,14.2 -5.8,7.65 -25.53,33.25 -5.36,-28.42 -0.76,-13.11 -12.91,-13.83l-12.41 31.85c-1.51,7.82 -2.44,27.6 -3.27,36.69 -9.52,104.37 -45.9,526.27 -66.63,563.07 -1.77,-67.97 35.64,-417.77 48.05,-532.06 8.29,-76.3 7.15,-58.81 -6.06,-73.38 -20.92,21.81 -27.31,166.18 -31.57,207.05 -13.01,124.94 -69.01,600.93 -63.59,656.35z"/>
   <path class="fil6" d="M1948.75 1878.31c16.5,65.12 -84.03,73.92 -41.34,143.68 49.71,-1.5 24.08,-15.02 56.48,-34.92 7.31,14.52 12.32,22.83 18.32,41.46 20.01,-18.66 10.95,25 15.74,-16.49 -8.03,9.53 -13.04,-15.13 -2.73,10.15 5.35,13.11 5.58,8.98 11,15.03l17.57 -23.48c4.97,47.48 -2.39,3.12 14.74,23.04 4.67,-10.18 5.22,-49.06 17.78,6.56 5.07,22.44 -0.33,42.62 -4.43,64.53 67.36,-18.52 42.23,-48.69 54.18,-112.07 19.58,25.08 8.76,31.97 23.69,56.54 28.16,-28.5 25,-62.09 9.56,-98.5 -19.99,-47.12 -40.41,-49.61 -60.16,-81.16 -15.6,-24.93 -54.91,-217.15 -185.01,-383.24 -24.79,-31.65 -36.39,-49.49 -63.54,-76.95 -49.45,-50 -64.38,-41.85 -76.94,-67.55 -25.54,-4.2 -3.65,8.1 -12.3,-17.54 -0.34,-1 -1.81,-22.05 -3.22,-28.13 -17.14,25.03 -18.72,132.03 -20.27,172.04 81,53.12 192.08,272.89 230.88,406.99z"/>
   <path class="fil5" d="M1121.77 288.56c71.31,1.35 258.59,32.4 341.76,48.07 18.54,3.49 37.58,6.81 55.7,10.36 2.93,0.57 25.03,5.88 26.95,6.61 27.37,10.46 5.59,2.13 17.28,10.53l-441.69 -75.57zm-384.6 -26.5l882.84 133.08c123.27,16.15 191.3,56.48 272.33,-24.96 -103.78,-17.74 -286.47,-30.13 -371.76,-62.76 116.26,-3.53 368.41,66.31 411.87,38.69 -27.57,-22.17 -229.85,-39.62 -266.18,-45.6 -132.63,-21.82 -782.43,-124.62 -827.5,-101.41 91.07,27.83 350.82,44.33 416.25,68.19l13.4 5.81c-93.69,-2.65 -189.1,-20.61 -282.41,-34.37 -43.44,-6.41 -92.47,-16.49 -135.68,-20.28 -27.92,-2.45 -45.19,-4.31 -69.4,5.51 -0.88,0.35 -25.39,14.94 -25.96,15.42 -18.56,15.73 -9,3.14 -17.78,22.67z"/>
   <path class="fil6" d="M240.13 1899.25l-0.64 -67.86c7.58,-0.31 22.24,-3.36 23.63,-4.12 27.56,-14.91 -15.15,-8.14 33.29,-14.41 46.85,18.34 7.72,42.07 67.76,30.89 23.07,-55.83 -18.67,-85.1 -45.24,-112.09 -5.63,-92.34 85.14,-209.7 114.24,-272.12 44.34,-14 40.89,-89.06 38.44,-132.64 -3.07,-54.53 -6.93,-41.65 -20.13,-49.69 -4.87,23.06 -56.5,56.61 -111.42,129.93 -29.48,39.35 -70.87,105.26 -92.03,155.75 -48,114.5 -25.7,109.5 -80.19,166.72 -51.45,54.01 -62.95,98.8 -35.02,172.41l8.43 -14.91c15.04,-33.79 3.45,-32.67 20.29,-54.39 18.47,48.57 -16.75,96.07 53.35,107.76l2.05 -95.94c25.05,27.85 11.2,22.91 15.34,34.2 6.98,19.04 -11.44,0.45 7.83,20.51z"/>
   <path class="fil7" d="M717.34 256.38c21.82,-42.26 62.58,-54.92 112.32,-73.86 62.14,-23.65 89.34,-13.83 156.15,-2.31 109.86,18.93 219.52,35.27 330.31,49.75 185.28,24.22 497.5,82.41 662.81,94.21l-110.52 1085.8c4.4,18.7 30.94,47.91 45.4,57.81l53.65 -589.88c11.74,-99.09 20.71,-193.36 31.16,-291.91 10.16,-95.76 29.46,-195.26 30.55,-289.37 -77.8,17.57 -879.01,-106.08 -1060.13,-133.4 -63.41,-9.57 -104.59,-21.3 -162.49,4.08 -40.82,17.89 -103.74,56.56 -111.41,88.09 22.63,2.35 -3.37,-1.13 22.21,1z"/>
   <path class="fil8" d="M984.59 1447.23c-6.61,-10.4 -9.67,-15.77 -14.81,-28.97 18.98,-35.77 49.07,-52.01 105.88,-53.59l8.24 26.91c31.28,-22.65 81.94,-35.92 120.75,-20.65 30.08,11.83 23.12,15.31 25.69,34.07l11.89 -7.86c71.1,-55.45 72.53,-156.99 114.83,-184.87l-4.87 -30.56 -23.56 -2.1c-14.66,102.93 -232.21,120.43 -385.84,50.13 -25.18,-11.52 -43.31,-17.01 -55.42,-35.75 -2.26,-3.5 -10.37,-24.84 -10.88,-30.87 -2.8,-33.32 -5.81,-16.43 7.54,-24.3 -37.86,-24.44 -34.45,-34.8 -59,-29.87l-2.89 13.97c-4.93,61.44 -3.34,-47.79 -0.57,14.15 0.21,4.71 4.04,22.31 5.24,28.51 20.06,103.96 46.02,231.3 157.8,281.68z"/>
   <path class="fil9" d="M1788.55 448.09l-2.19 -12.12 -1059.44 -150.01 -53.63 -14.45c-0.69,-37.82 10.34,-48.08 32.28,-64.91 79.24,-60.79 133.55,-82.98 232.05,-67.14 118.97,19.14 237.84,34.26 358.88,51.59 117.37,16.81 661.95,106.49 731.23,93.11 -25.95,-22.83 -57.18,-20.34 -92.06,-24.11l-1033.26 -146.11c-105.29,-15.4 -269.47,69.62 -275.29,166.19l32.08 14.6c1.56,0.39 31.21,4.32 35.87,4.89 283.81,34.48 661.14,95.07 954.54,138.62 56.83,8.43 94.83,30.11 138.94,9.85z"/>
   <path class="fil6" d="M890.94 1985.57c-37.03,-24.03 -8.8,-31.01 -52.62,-50.27l-57.34 -16.97c-22.78,-9.57 -1.2,3.24 -15.29,-9.37 -21.81,15.23 -18.83,5.79 -19.08,44.91 -0.22,32.65 19.4,86.99 39.71,108.81 48.67,52.3 91.51,19.86 150.49,6.1 -13.95,32.58 -35.83,39.73 -75.04,49.63 1.46,60.02 -5.03,126.93 52.13,138.44 120.03,24.17 151.1,-282.92 45.79,-288.25 -47.8,-2.42 -34.39,23.24 -56.97,31.96 -21.69,-13.02 -6.43,-4.72 -11.78,-14.99z"/>
   <path class="fil6" d="M1252.64 2009.86c-25.86,-15.89 -79.91,-35.05 -117.59,-35.28 14.72,114.35 1.2,187.8 139.26,160.57 47.86,-9.44 15.4,-10.19 32.27,3.11 -27.4,24.18 -33.7,22.07 -73.17,31.31 -48.51,216.2 151.52,183.69 163.45,-17.42 3.9,-65.69 -11.79,-155.83 -84.51,-124.83 -37.1,15.82 -13.83,0.37 -14.56,22.98 -1.46,45.16 20.28,-23.1 0.21,10.12 -37.91,-5.38 -43.15,-16.49 -45.37,-50.57z"/>
   <path class="fil4" d="M987.98 1055.38c-42.24,-134.83 169.22,-191.75 203.69,-57.1 35.74,139.61 -165.65,178.53 -203.69,57.1zm-258.15 -185.42l37.69 -6.03c18.59,-103.69 32.49,-299.3 172.11,-249.88 82.26,29.12 65.94,175.6 55.01,253.18 -5.6,39.73 -2.64,62.77 -44.17,58.66 0.93,2.37 3.44,4.57 4.59,6.1 43.56,57.62 9.15,25.95 9.73,98.66 0.43,52.69 29.4,56.99 39.64,102.01 -137.12,2.62 -127.66,-81.08 -142.89,-101.29 -43.65,0.12 -36.79,15.91 -58.19,39.55 -28.62,31.61 -30.59,7.59 -57.06,46.78 34.41,-4.41 51.37,-4.59 71.84,-23.52 10.84,-10.03 9.57,-11.31 17.77,-23.23 1.04,-1.52 2.24,-3.62 3.29,-5.13l14.61 34.91c155.55,98.77 280.31,99.06 469.76,59.76l9.99 -63.83c-54.78,17.15 13.48,32.91 -83.59,58.21 -45.19,11.78 -86.62,14.27 -124.55,1.33 12.48,-17.88 125.37,-67.62 81.07,-178.74 -37.45,-93.96 -129.54,-73.49 -155.48,-78.21 -65.52,-11.93 -3.51,-113.93 -30.49,-218.92 -15.49,-60.24 -54.25,-97.8 -125.91,-91.51 -94.84,8.32 -124.82,110.78 -135.24,191.07 -2.26,17.4 -2.05,33.5 -7.61,49.58l-21.93 40.52z"/>
   <path class="fil10" d="M453.47 1473.43c-9.13,-26.1 4.6,-6.37 -20.28,-13.89 -29.1,62.42 -119.87,179.78 -114.24,272.12 26.57,26.99 68.31,56.27 45.24,112.09 -60.04,11.18 -20.91,-12.55 -67.76,-30.89 -24.62,95.83 4.04,79.14 8.56,104.31 3.17,17.66 -13.07,24 -34.71,20.58 -26.6,-4.2 -28.74,-16.87 -30.14,-38.5 -19.28,-20.06 -0.86,-1.47 -7.83,-20.51 -4.14,-11.29 9.71,-6.35 -15.34,-34.2l-2.05 95.94c-70.1,-11.69 -34.88,-59.19 -53.35,-107.76 -16.84,21.73 -5.25,20.6 -20.29,54.39l-8.43 14.91c-27.93,-73.61 -16.43,-118.4 35.02,-172.41 54.49,-57.21 32.19,-52.21 80.19,-166.72 21.16,-50.49 62.56,-116.4 92.03,-155.75 54.91,-73.31 106.54,-106.86 111.42,-129.93 15.13,-17.31 -23.41,-17.99 27.3,-12.35 -7.04,54.25 8.02,120.01 -10.91,169.23 13.48,-9.92 23.32,19.17 20.74,-90.05 -0.72,-30.9 -0.16,-69.82 -13.3,-95.18 -77.95,17.38 -213.59,217.18 -246.45,294.39 -14.77,34.7 -35.08,103.79 -50.14,131.46 -25.43,46.7 -161.16,165.7 -48.93,245.79 88.65,63.27 22.38,33.74 124.67,42.49 78.33,6.7 92.01,-31.01 68.14,-98.19l65.34 -2.1c24.2,-82.1 1.8,-96.15 -45.05,-139.29 0.08,-92.38 82.92,-180.43 110.54,-249.99z"/>
   <path class="fil11" d="M1753.67 1344.95c12.56,25.7 27.48,17.55 76.94,67.55 27.15,27.45 38.76,45.3 63.54,76.95 130.1,166.09 169.41,358.31 185.01,383.24 19.75,31.55 40.17,34.04 60.16,81.16 15.44,36.41 18.6,69.99 -9.56,98.5 -14.92,-24.57 -4.11,-31.47 -23.69,-56.54 -11.95,63.38 13.18,93.55 -54.18,112.07 4.1,-21.92 9.5,-42.1 4.43,-64.53 -12.56,-55.61 -13.11,-16.74 -17.78,-6.56 3.32,67.13 -15.36,85.46 -74.99,76.39 5.78,-44.72 30.14,-43.48 18.66,-84.64 -6,-18.64 -11.01,-26.94 -18.32,-41.46 -32.4,19.9 -6.78,33.42 -56.48,34.92 -42.69,-69.76 57.84,-78.55 41.34,-143.68 -25.31,5.84 -9.74,-7.68 -24.8,13.49 -19.84,44.35 -63.96,61.82 -47.39,135.84 23.92,24.07 40.32,29.61 76.94,11.96 -2.98,37.61 -21.26,40.5 -11.52,87.5 42.06,26.78 152.68,7.47 208.57,-53.11 54.46,-59.04 20.73,-142.03 -34.09,-196.95 -33.03,-33.09 -60.05,-148.73 -84.44,-203.96 -24.64,-55.8 -92.46,-149.57 -103.09,-187.91l-15.11 -17.38c-14.46,-9.9 -41,-39.11 -45.4,-57.81 -18.53,0 -11.92,3.87 -13.6,-17.95 -18.3,0.78 -11.52,2.32 -25.86,-2.97l-6.03 -32.67c-1.92,0.32 -4.65,0 -5.83,-0.16l-29.45 -7.54c-25.94,-6.91 0.49,-9.64 -33.98,-3.73z"/>
   <path class="fil9" d="M1626.47 1962.22c43.52,-37.25 48.72,-276.16 55.86,-356.31l120.71 -1145.46c-38.53,17.76 -29.93,29.38 -32.56,78.5l-69.15 664.89c-13.28,111.02 -80.14,691.56 -74.86,758.38z"/>
   <path class="fil12" d="M884.02 1138.81c37.81,35.11 138.63,60.38 203.65,68.77 92.44,11.94 160.47,-2 240.96,-27.98l23.56 2.1 4.87 30.56c-42.31,27.88 -43.73,129.42 -114.83,184.87l-11.89 7.86c-30.73,12.06 -46.14,41.63 -103.54,54.86 -68.71,15.83 -93.72,-8.78 -142.21,-12.62 -111.78,-50.37 -137.73,-177.72 -157.8,-281.68 -1.2,-6.2 -5.03,-23.8 -5.24,-28.51 -2.76,-61.94 -4.36,47.29 0.57,-14.15l2.89 -13.97c24.54,-4.92 21.13,5.43 59,29.87zm-137.72 -21.12l-0.25 10.89 60.59 -2.5c14,174.17 74,321.83 229.38,356.84 175.28,39.49 286.1,-136.47 321.04,-270.66l49.87 0.48 -39.74 -36.88c-23.81,-25.79 -19.35,-37.59 -24.37,-77.53l-9.28 -1.68 -9.99 63.83c-189.44,39.3 -314.21,39.01 -469.76,-59.76l-14.61 -34.91c-1.05,1.51 -2.25,3.62 -3.29,5.13 -8.2,11.92 -6.92,13.19 -17.77,23.23 -20.47,18.93 -37.43,19.11 -71.84,23.52z"/>
   <path class="fil13" d="M1247.28 963.99c59.53,1.23 29.92,-1.22 60.64,-137.94 28.7,-127.71 148.87,-176.08 125.27,60.4 -9.57,95.93 -38.47,103.86 65.6,113.35l-14.06 -14.35c-32.52,-42.79 3.17,-74.94 1.67,-169.39 -3.71,-232.38 -248.1,-173.86 -239.12,147.93z"/>
   <path class="fil14" d="M729.82 869.96l0.99 3.49c7.13,23.7 32.21,21.99 81.01,17.23 14.33,-68.74 11.5,-244.29 98.92,-234.48 86.95,9.76 31.13,201.42 37.54,268.71l2.18 0.98c41.53,4.11 38.57,-18.92 44.17,-58.66 10.93,-77.59 27.25,-224.06 -55.01,-253.18 -139.63,-49.42 -153.52,146.19 -172.11,249.88l-37.69 6.03z"/>
   <path class="fil15" d="M1357.06 1212.26c-34.95,134.19 -145.77,310.15 -321.04,270.66 -155.38,-35.01 -215.38,-182.67 -229.38,-356.84l-60.59 2.5c14.04,29.13 27.07,3.53 43.78,38.55 3.64,7.63 8.69,48.61 10.68,60.74 11.31,68.89 55.76,155.32 99.26,201.58 63.1,67.09 36.64,6.3 44.27,63.79l3.31 11.26c7.02,-18.23 8.75,-6.07 36.01,6.1 15.95,7.12 35.26,12.31 56.86,15.88 52.69,8.71 73.07,-2.96 117.3,-6.19 9.08,-75.27 103.83,-16.76 195.68,-238.14 29.99,-72.29 30.03,-14.8 80.66,-53.59 -2.2,-34.51 -24.95,-38.64 -46.52,-65.07 -25.19,-30.87 -18.54,-49.21 -44.51,-65.17 5.02,39.94 0.56,51.74 24.37,77.53l39.74 36.88 -49.87 -0.48z"/>
   <path class="fil15" d="M1247.28 963.99c-8.98,-321.79 235.41,-380.31 239.12,-147.93 1.51,94.45 -34.19,126.6 -1.67,169.39l14.06 14.35c-104.07,-9.48 -75.17,-17.42 -65.6,-113.35 23.6,-236.48 -96.57,-188.11 -125.27,-60.4 -30.72,136.72 -1.12,139.18 -60.64,137.94zm258.44 50.49c3.04,-54.48 -10.63,-37.14 -9.53,-82.7 0.99,-40.75 48.41,-309.96 -135.31,-269.68 -115.67,25.36 -188.15,369.72 -75.56,316.14 46.95,-22.34 13.64,-201.58 103.28,-228.34 48.48,35.14 28.48,116.35 19.88,182 -10.37,79.2 24.52,87.87 97.24,82.59z"/>
   <path class="fil11" d="M1272.92 2013.99c-16.86,-16.95 -2.33,22.77 -17.1,-23.14l-3.18 19c2.22,34.07 7.46,45.19 45.37,50.57 20.07,-33.22 -1.67,35.05 -0.21,-10.12 0.73,-22.61 -22.54,-7.16 14.56,-22.98 72.72,-31 88.41,59.13 84.51,124.83 -11.94,201.11 -211.96,233.62 -163.45,17.42 39.47,-9.25 45.77,-7.14 73.17,-31.31 -16.87,-13.3 15.59,-12.55 -32.27,-3.11 -138.06,27.23 -124.54,-46.22 -139.26,-160.57 0.67,-34.34 6.34,-21.04 -0.21,-52.05l-9.89 0.17c-5.3,55.55 -20.79,101.33 -4.44,159.99 16.21,58.1 32.48,58.1 81.58,83.26 5.82,68.1 -15.62,145.93 44.03,170.3 131.38,53.68 195.67,-154.55 172.4,-263.15 -16.9,-78.84 -75.98,-77.52 -145.6,-59.09z"/>
   <path class="fil10" d="M899.21 1960.95l-8.27 24.63c5.36,10.27 -9.9,1.97 11.78,14.99 22.59,-8.71 9.17,-34.37 56.97,-31.96 105.31,5.33 74.24,312.42 -45.79,288.25 -57.16,-11.51 -50.67,-78.42 -52.13,-138.44 39.21,-9.89 61.08,-17.04 75.04,-49.63 -58.99,13.75 -101.82,46.19 -150.49,-6.1 -20.31,-21.82 -39.92,-76.16 -39.71,-108.81 0.26,-39.12 -2.73,-29.68 19.08,-44.91l7.35 -1.45 -3.58 -21.7c-16.68,-18.59 -2.03,-12.71 -34.84,-16.67 -34.08,112.69 3.36,228.62 104.05,247.77 -22.03,187.49 126.52,226.84 186.63,83.69 67.05,-159.66 -19.14,-314.36 -126.09,-239.65z"/>
   <path class="fil5" d="M1676.83 1877.66c31.05,-13.78 24.11,-2.21 29.63,-44.13 7.97,-60.59 11.2,-164.04 25.96,-215.56l-13.14 233.56c71.07,-18.04 46.14,-9 66.77,-184.93 5.64,-48.11 13.69,-60.47 -13.73,-96.05 -13.8,-17.92 -33.15,-49.32 -54.31,-65.93 -10.48,15.27 -47.94,352.44 -41.18,373.04z"/>
   <path class="fil16" d="M1328.63 1179.6c-80.5,25.98 -148.52,39.91 -240.96,27.98 -65.02,-8.39 -165.84,-33.66 -203.65,-68.77 -13.34,7.87 -10.33,-9.02 -7.54,24.3 0.51,6.03 8.62,27.37 10.88,30.87 12.11,18.74 30.25,24.23 55.42,35.75 153.64,70.3 371.18,52.8 385.84,-50.13z"/>
   <path class="fil17" d="M984.59 1447.23c48.5,3.84 73.5,28.45 142.21,12.62 57.4,-13.23 72.81,-42.8 103.54,-54.86 -2.58,-18.76 4.38,-22.23 -25.69,-34.07 -38.81,-15.27 -89.47,-2 -120.75,20.65l-8.24 -26.91c-56.81,1.58 -86.9,17.83 -105.88,53.59 5.14,13.2 8.2,18.57 14.81,28.97z"/>
   <path class="fil15" d="M730.81 873.44c-10.01,11.95 -12.67,-19.03 -7.67,23.19 141.73,57.67 117.27,-71.09 125.16,-113.36 26.12,-139.79 111.71,-152.7 83.91,74.29 -0.34,2.82 -3.81,33.42 -3.79,33.59 7.12,61.76 -4.84,19.06 19.86,33.76 -6.41,-67.29 49.4,-258.95 -37.54,-268.71 -87.42,-9.81 -84.59,165.74 -98.92,234.48 -48.79,4.76 -73.88,6.47 -81.01,-17.23z"/>
   <path class="fil4" d="M1543.77 668.29c-32.51,-18.47 -38.86,-44.05 -86.84,-69.09 -23.97,-12.5 -120.37,-33.34 -78.86,-72.59 36.28,-34.3 174.65,44.71 165.7,141.67zm-179.64 -157.23c-67.67,64.45 49.44,78.4 126.55,145.01 14.77,12.76 40.79,41.27 62.97,20.55 65.98,-61.64 -118.54,-233.16 -189.52,-165.56z"/>
   <path class="fil14" d="M1121.39 952.81l11.96 3.55c101.93,58.78 3.6,199.62 -93.8,135.35 -114.17,-75.34 54.99,-197.75 81.84,-138.9zm-133.41 102.57c38.04,121.42 239.42,82.5 203.69,-57.1 -34.47,-134.65 -245.93,-77.73 -203.69,57.1z"/>
   <path class="fil18" d="M1083.39 995.52c5.2,10.18 15.54,-17.37 3.05,13.27 -28.71,13.5 -27.71,12.97 -59.46,6.74 -3.08,56.11 46.94,94.42 99.49,64.16 48.16,-27.73 14.48,-77.7 6.88,-123.32l-11.96 -3.55 -53.98 3.56 -0.02 4.29 24.59 4.58 -8.58 30.27z"/>
   <path class="fil14" d="M1378.07 526.61c-41.51,39.25 54.89,60.09 78.86,72.59 47.98,25.03 54.33,50.62 86.84,69.09 8.95,-96.97 -129.42,-175.98 -165.7,-141.67z"/>
   <path class="fil14" d="M775.86 528.44c0.49,30.25 -11,21.33 9.67,42.95 21.25,-30.58 51.83,-46.87 89.81,-54.72 55.16,-11.41 103.73,13.68 97.84,-44.27 -88.13,-56.65 -179.38,43.13 -197.32,56.04z"/>
   <path class="fil4" d="M775.86 528.44c17.94,-12.91 109.19,-112.69 197.32,-56.04 5.89,57.94 -42.68,32.86 -97.84,44.27 -37.99,7.86 -68.56,24.14 -89.81,54.72 47.98,0.69 48.77,-24.21 91.35,-34.47 37.96,-9.14 89.67,-0.31 108.2,-23.46 22.75,-41.97 5.44,-44.75 -11.67,-72.14 -49.09,-5.29 -133.4,-2.52 -172.92,33.05 -29.69,26.72 -24.35,42.52 -24.63,54.07z"/>
   <path class="fil19" d="M1133.35 956.36c7.6,45.62 41.28,95.59 -6.88,123.32 -52.55,30.26 -102.57,-8.05 -99.49,-64.16 31.76,6.23 30.76,6.76 59.46,-6.74 12.49,-30.63 2.15,-3.09 -3.05,-13.27 -24.39,12.03 -48.64,19.79 -48.05,-24.71l32.05 -10.15 0.02 -4.29 53.98 -3.56c-26.86,-58.85 -196.01,63.57 -81.84,138.9 97.41,64.27 195.73,-76.57 93.8,-135.35z"/>
   <path class="fil20" d="M769.46 1885.81l3.58 21.7 -7.35 1.45c14.09,12.6 -7.49,-0.2 15.29,9.37l57.34 16.97c43.82,19.26 15.59,26.24 52.62,50.27l8.27 -24.63c-12.35,-28.4 -11.05,-50.16 -4.9,-75.72 -32.02,-19.29 -75.8,-18.5 -115.11,-17.94 -12.98,12.25 -5.13,-0.99 -9.74,18.52z"/>
   <path class="fil20" d="M1135.06 1974.58c37.67,0.23 91.72,19.39 117.59,35.28l3.18 -19c14.77,45.91 0.24,6.18 17.1,23.14l4.87 -65.55c-31.96,-20.67 -104.44,-26.16 -142.94,-25.92 6.55,31.01 0.88,17.71 0.21,52.05z"/>
   <path class="fil7" d="M1823.6 1838.2c-31.12,6.78 -29.52,2.28 -38.79,23.31l82.6 4.69c11.1,-70.82 20.34,-132.22 -24.7,-172.47l-19.11 144.47z"/>
   <path class="fil21" d="M240.13 1899.25c1.4,21.62 3.54,34.3 30.14,38.5 21.63,3.42 37.87,-2.91 34.71,-20.58 -4.52,-25.17 -33.18,-8.48 -8.56,-104.31 -48.44,6.27 -5.73,-0.51 -33.29,14.41 -1.39,0.75 -16.05,3.8 -23.63,4.12l0.64 67.86z"/>
   <path class="fil22" d="M1157.51 1520.3c-44.23,3.23 -64.61,14.89 -117.3,6.19 -21.6,-3.57 -40.91,-8.75 -56.86,-15.88 -27.26,-12.18 -28.99,-24.34 -36.01,-6.1 32.86,19.6 26.49,42.84 96.54,51.47 44.12,5.44 94.51,-3.42 113.62,-35.68z"/>
   <path class="fil21" d="M1982.21 2028.53c11.48,41.16 -12.88,39.92 -18.66,84.64 59.63,9.06 78.31,-9.27 74.99,-76.39 -17.13,-19.92 -9.77,24.44 -14.74,-23.04l-17.57 23.48c-5.43,-6.05 -5.65,-1.92 -11,-15.03 -10.31,-25.28 -5.31,-0.62 2.73,-10.15 -4.8,41.49 4.27,-2.17 -15.74,16.49z"/>
   <path class="fil23" d="M1800.36 1826.3c14.57,-28.29 14.47,-77.85 17.52,-110.62 4.65,-49.98 10.14,-57.97 -14.96,-96.2 -3.96,33.86 -5.68,68.13 -7.86,102.2 -3.79,59.41 -16.11,78.21 5.3,104.61z"/>
   <path class="fil24" d="M1563.46 364.14c-11.69,-8.39 10.09,-0.07 -17.28,-10.53 -1.92,-0.73 -24.01,-6.03 -26.95,-6.61 -18.12,-3.55 -37.16,-6.87 -55.7,-10.36 -83.17,-15.68 -270.46,-46.72 -341.76,-48.07l441.69 75.57z"/>
   <path class="fil23" d="M1083.39 995.52l8.58 -30.27 -24.59 -4.58 -32.05 10.15c-0.59,44.49 23.66,36.74 48.05,24.71z"/>
  </g>
 </g>
</svg>
