<?xml version="1.0" encoding="UTF-8"?>
<!DOCTYPE svg PUBLIC "-//W3C//DTD SVG 1.1//EN" "http://www.w3.org/Graphics/SVG/1.1/DTD/svg11.dtd">
<!-- Creator: CorelDRAW 2021 (64 Bit) -->
<svg xmlns="http://www.w3.org/2000/svg" xml:space="preserve" width="71.9437mm" height="85.8026mm" version="1.1" style="shape-rendering:geometricPrecision; text-rendering:geometricPrecision; image-rendering:optimizeQuality; fill-rule:evenodd; clip-rule:evenodd"
viewBox="0 0 2996.5 3573.73"
 xmlns:xlink="http://www.w3.org/1999/xlink"
 xmlns:xodm="http://www.corel.com/coreldraw/odm/2003">
 <defs>
  <style type="text/css">
   <![CDATA[
    .fil17 {fill:#0A1843}
    .fil7 {fill:#171529}
    .fil4 {fill:#171638}
    .fil2 {fill:#280636}
    .fil11 {fill:#310F57}
    .fil18 {fill:#342617}
    .fil16 {fill:#350947}
    .fil13 {fill:#381267}
    .fil0 {fill:#63929C}
    .fil10 {fill:#6492A1}
    .fil3 {fill:#6C84A3}
    .fil12 {fill:#737CA6}
    .fil22 {fill:#738CAA}
    .fil23 {fill:#7A89B3}
    .fil21 {fill:#AFD5F2}
    .fil19 {fill:#B6E5FB}
    .fil15 {fill:#CA3AAB}
    .fil24 {fill:#F2B9E6}
    .fil8 {fill:#F3A4B3}
    .fil14 {fill:#F4ABBB}
    .fil5 {fill:#F5A3AB}
    .fil9 {fill:#FBF5CC}
    .fil6 {fill:#FCF4D3}
    .fil1 {fill:#FCFBFB}
    .fil20 {fill:#FDFAFD}
   ]]>
  </style>
 </defs>
 <g id="Camada_x0020_1">
  <metadata id="CorelCorpID_0Corel-Layer"/>
  <g id="_2118675346528">
   <path class="fil0" d="M1998.94 2044.18c-152.72,114.3 -197.63,-68.64 -103.38,-269.92 28.29,14.99 10.62,-1.72 31.3,25.52 45.89,60.43 85.33,170.92 72.07,244.4zm-1274.35 -73.68c-25.62,-124.61 75.03,-241.74 120.24,-263.48 28.84,62.08 73.6,407.52 -120.24,263.48zm354.78 98.77c-33.17,-71.61 90.59,-203.03 296.72,-169.54 87.49,14.21 272.64,106.17 250.34,231.02l-51.52 -62.12c-19.41,-30.16 -20.27,-36.82 -48.31,-60.97 -30.85,-26.57 -99.27,-58.75 -151.29,-67.78 -218.14,-37.85 -258.96,97.25 -295.94,129.38zm235.99 -567.48c219.4,-46.53 286.57,263.44 83.89,309.95 -239.68,55 -288,-266.66 -83.89,-309.95zm501.78 233.22c-98.97,-11.28 -89.72,-7.68 -167.21,14.2 -17.08,-60.11 8.19,-22.4 -38.51,-83.35 -26.36,-34.41 -39.14,-53.15 -57.56,-92.88 -38.16,-98.56 -35.04,-204.42 2.04,-299.11 29.89,-76.32 36.26,-55.59 72.31,-105.95 45.59,-63.7 15.34,-46.53 -0.17,-110.76 77.21,9.31 125.92,217.07 462.27,235.27 -23.22,43.15 -12.82,22.02 -51.67,48.31 42.07,148.23 -31.68,228.41 -33.18,286.86 -1.6,62.18 13.63,17.93 17.73,71.62 -61.06,27.87 -133.43,43.15 -206.07,35.8zm-646.04 -165.09c-19.23,53.73 -7.76,24.7 -48.88,61.91 -41.7,37.74 -16.12,8.49 -46.14,60.49l-92.38 -23.81c-86.57,-19.17 -138.44,5.11 -202.54,-33.74 -107.43,-65.12 -20.96,-101.02 -17.59,-103.86l18.8 -13.28c-23.17,-97.78 -44.06,-161.01 -9.68,-268.6l-13.96 -15.41c-1.57,-2.05 -4.67,-5.68 -6.23,-7.89l-17.15 -34.69c134.79,-27.42 131.77,-6.16 257.23,-57.18 136.19,-55.38 145.3,-99.44 190.79,-113.79 1.3,27.61 -1.28,19.11 -8.13,38.26l-13.59 28.24c-0.74,-2.07 -3.98,6.12 -5.21,9.52 133.41,78.15 121.77,346.82 14.64,473.83zm-698.36 206.2c-15.1,112.49 -9.93,250.8 -22.55,371.04 -16.61,158.27 -32.76,216.11 94.42,281.02 28.55,-11.43 60.39,-25.98 93.21,-42.27 67.94,-33.74 29.08,-6.27 63.97,-85.23 67.39,-152.55 237.91,-183.56 366.5,-53.25 74.52,75.53 63.42,71.39 101.12,184.8 28.79,-28.45 28.9,-49.05 53.5,-88.23 94.81,-151 397.63,-206.07 533.74,236.35 356.75,-46.13 379.55,-172.68 521.34,-308.73l91.48 -1552.53 -1826.48 -210.96 -70.26 1267.98z"/>
   <path class="fil1" d="M2482.96 2917.27c-142.08,-14.04 -150.8,139.08 -176.79,166.47 -57,60.11 -347.47,-24.37 -439.56,-29.79 -68.33,-4.02 -72.99,24.35 -124.54,52.63 -99.2,54.44 -202.12,23.18 -309.87,15.06 0.52,160.69 2.99,221.52 -272.02,289.39 -144.25,35.6 -426.05,37.61 -370.24,-154.11 -119.48,33.85 -378.88,113.14 -482.26,7.47 -61.36,-62.72 -2.36,-160.79 36.24,-204.76 50.86,-57.95 94.83,-80.48 195.75,-105.41 31.71,-117.06 18.17,-87.34 -80.23,-114.03 -96.74,-26.24 -62.29,-65.49 -76.62,-152.28 -410.35,-249.75 -209.17,-695.65 45.28,-831.88 22.09,-341.64 43.03,-691.05 59.05,-1032.07 6.14,-130.77 -2.59,-390.6 65.76,-481.9 61.38,-82 207.8,-170.89 338.21,-191.87 119.53,-19.23 1896.28,188.34 1927.28,212.9 16.61,14.34 11.89,-1.37 23.85,31.38 12.35,33.8 -22.44,555.07 -24.7,600.28 -15.11,301.81 -106.18,1842 -139.94,1926.96 -61.11,15 -124.16,3.06 -194.66,-4.45zm-0.21 152.21c439.35,-0.16 349.79,-61.5 403.89,-805.71 27.83,-382.79 48.63,-770.24 70.47,-1155.39 10.95,-193.18 21.49,-387.08 35.77,-580.28 17.7,-239.52 -23.63,-312.63 -256.43,-334.98 -371.29,-35.64 -740.06,-82.8 -1110.79,-123.92 -456.49,-50.64 -911.73,-200 -1197.14,203.3 -53.69,75.87 -63.6,118.85 -68.52,224.68l-72.59 1157.94c-9.26,144.74 -32.3,137.27 -99.84,214.29 -152.41,173.8 -253.16,435.26 -137.39,671.64 42.42,86.62 77.97,127.32 136.18,177.22 43.88,37.61 95.07,184.22 99.6,203.8 -96.83,82.22 -215.52,250.49 -98.81,421.85 104.05,152.77 290.88,111.62 497.88,104.38 144.23,225.61 802.76,131.62 882.23,-160.38 122.82,-8.28 157.09,-8.93 253.9,-62.23 137.3,-75.59 531.1,183.15 661.59,-156.21z"/>
   <path class="fil2" d="M1240.55 3341.42c-499.19,150.41 -468.04,-109.96 -309.95,-200.42 99.17,-56.74 138.89,-37.02 251.59,-34.43l-62.93 -42.45c-2.82,-1.21 -9.66,0.61 -11.77,-4.43 -2.15,-5.15 -8.18,-2.59 -10.3,-4.22l11.85 -188.18c71.09,76.43 138.65,106.53 290.63,96.93 -9.61,249.03 17.08,324.1 -159.12,377.19zm-319.2 -394.9l144.67 22.71 -8.69 72.51c-32.82,27.2 -94.24,40.69 -139.05,38.74l3.07 -133.95zm575.78 -13.65c74.89,-54.13 210.88,-33.45 311.08,-44.83 -17.81,99.04 -36.17,182.85 -144.24,186.53 -107.85,3.68 -170.58,-40.65 -166.83,-141.7zm-898.54 -93.16c137.88,42.73 172.97,35.14 291.89,-16.59 -23.97,214.11 36.54,319.95 -136.52,400.56 -126.48,58.91 -313.26,60.9 -426.33,8.9 -5.41,-141.37 97.52,-215.74 217.94,-231.53 44.75,-5.87 105.99,6.63 136.03,-13.76 -40.83,-42.17 -30.16,-20.02 -87.74,-40.92l4.73 -106.68zm346.78 -81.37c48.17,31.75 37.49,31.4 63.95,79.03 20.33,36.61 33.25,45.57 49.64,94.69l-133.95 -32.08 20.36 -141.64zm1332.27 309.08c-13.62,-16.84 -14.04,14.07 -17.1,-52.01 -0.43,-9.31 2.92,-44.11 3.84,-55.56 2.99,-36.87 6,-70.37 9.2,-108.09 14.3,-168.47 -7.16,-157.52 51.34,-189.95 2.88,61.34 -13.59,376.97 -47.29,405.61zm-440.81 -51.9c16.36,-229.89 5.42,-64.91 413.37,-291.53l-21.17 344.78 -392.2 -53.24zm-1414.7 -313.92c45.5,25.62 94.17,72.86 132.7,108.8 -2.36,1.27 -5.71,3.41 -7.09,3.77l-125.61 -20.37 -0 -92.2zm1289.49 -116.94c-28.25,2.47 -81.01,6.81 -107.61,-0.95 -58.89,-17.19 -22.81,-21.99 -63.16,-59.57 -26.77,-24.94 -171.46,-100.85 -249.82,-31.23 -58.49,51.97 -3.63,46.38 -65,46.17 -66.94,-0.23 -2.94,-108.32 13.31,-138.18 53.37,-98.04 169.71,-179.17 300.67,-93.47 72.36,47.36 166.31,162.86 171.6,277.23zm-992.5 -223.33c167.26,-330.35 407.88,-73.31 425.66,136.08 -146.84,94.11 -11.2,280.28 -77.08,376.88 -168.61,-289.62 -47.15,-276.55 -61.01,-433.76l-25.42 67.86c-30.65,-16.4 -73.6,-25.67 -131.25,-30.34 -22.27,-101.1 -57.43,-76.64 -130.9,-116.72zm152.36 421.85c-68.94,71.56 -245.69,53.62 -333.68,-47.58 -68.08,-78.29 -185.91,-93.32 -267.94,-195.81 -173.66,-216.98 -1.4,-554.76 151.45,-624.15 32.83,314.15 -110.41,316.84 10.85,475.98 121.62,159.61 142.16,14.55 289.83,21.31 64.14,2.94 71.88,12.84 88.67,57.26 -45.05,29.12 -80.71,2.85 -133.55,7.04 16.64,31.75 -14.03,19.21 48.68,44.13 84.84,33.72 163.43,-29.42 201.14,20.9 62.9,108.52 -145.53,69.78 -202.28,91.22 42.79,47.29 120.38,23.91 192.66,13.64 -9.08,123 -106.63,91.4 -215.2,84.57 24.27,27.07 20.61,31.7 88.8,37.86l80.57 13.62zm1445.64 -598.82c3.14,37.83 -17.56,68.51 -39.13,87.26 -141.8,136.04 -164.6,262.59 -521.34,308.73 -136.11,-442.41 -438.94,-387.35 -533.74,-236.35 -24.6,39.18 -24.71,59.78 -53.5,88.23 -37.71,-113.41 -26.6,-109.27 -101.12,-184.8 -128.59,-130.31 -299.11,-99.29 -366.5,53.25 -34.89,78.96 3.98,51.48 -63.97,85.23 -32.82,16.29 -64.66,30.84 -93.21,42.27 -127.18,-64.91 -111.03,-122.75 -94.42,-281.02 12.62,-120.24 7.45,-258.55 22.55,-371.04l3.57 105.24c-32.24,-17.25 -29.17,1.99 -48.23,-25.31 -254.46,136.23 -455.64,582.13 -45.28,831.88 14.33,86.79 -20.12,126.04 76.62,152.28 98.4,26.69 111.94,-3.03 80.23,114.03 -100.92,24.93 -144.88,47.46 -195.75,105.41 -38.59,43.97 -97.59,142.04 -36.24,204.76 103.38,105.67 362.78,26.38 482.26,-7.47 -55.81,191.72 225.99,189.71 370.24,154.11 275.01,-67.87 272.54,-128.7 272.02,-289.39 107.75,8.12 210.66,39.38 309.87,-15.06 51.55,-28.28 56.21,-56.65 124.54,-52.63 92.09,5.41 382.56,89.89 439.56,29.79 25.99,-27.39 34.71,-180.51 176.79,-166.47l-13.52 -9.31c-24.14,-21.42 -16.23,-27.19 -23.6,-44.02l-38.07 0.89c6.26,-82.18 34.68,-220.26 6.48,-284.62 -35.81,96.52 -12.11,240.85 -48.39,346.1 -16.33,-16.95 -27.85,-8.73 -23.88,-88.28 20.36,-407.31 88.89,-158.12 157.71,-476.88 -19.3,16.45 -14.49,8.72 -33.8,38.37 -47.98,73.66 -69.56,152.02 -187.66,247.98 -316.08,256.85 -653.29,167.34 -761.55,220.97 -75.25,37.27 -162.33,85.03 -293.87,29.08 -54.9,-23.35 -50.55,-24.72 -66.61,-67.97 107.78,16.76 102.45,24.01 138.14,-5.04 -100.55,-38.98 -174.13,-1.13 -184.55,-133.33 65.43,20.98 107.61,52.33 181.01,34.69 -47.47,-64.63 -209.4,-30.49 -167.49,-153.54 46.29,-19.73 79.18,12.47 126.35,24.47 46.79,11.9 101.7,18.42 140.3,-4.15 -24.5,-34.12 6.84,-2.73 -76.36,-30.53l-22.61 -10.3c85.59,-138.37 236.61,50.55 281.12,65.07 137.44,44.84 493.84,-35.54 640.04,-198.29l176.16 -236.55 26.95 -514.83c-28.36,-31.92 -10.82,10.52 -22.73,-53.22 -2.18,-11.65 2.29,-37.59 3.83,-51.35 -19.21,101.72 -21.04,253.94 -27.39,363.5 -3.44,59.31 -1.85,114.95 -6.18,177.38 -6.84,98.63 -43.46,156.61 -45.64,80.79z"/>
   <path class="fil3" d="M2371.05 643.45l-1721.51 -184.71c14.36,-33.89 133.4,-123.14 168.34,-138.18 118.48,-50.98 101.64,-61.73 246.27,-42.73 180.3,23.7 364.55,41.74 547.96,64.77 371.05,46.59 753.9,84 1117.81,125.74 5.65,173.2 -23.4,421.69 -35.11,600.04l-105.4 1660.41c-5.01,75.34 9.46,103.76 -45.91,114.01l-39.9 30.7c-2.04,1.36 -6.53,3.6 -9.51,5.81l150.71 17.7c23.32,-62.86 172.28,-2379.87 152.18,-2495.25 -32.53,-18.33 -1614.9,-206.91 -1829.3,-220.49 -140.18,-8.88 -399.99,113.92 -419.12,298.79 179.72,18.99 1720.59,209.44 1860.51,201.08 -34.01,-37.01 20.23,-0.25 -38.04,-37.69z"/>
   <path class="fil4" d="M428.1 1856.04c19.06,27.3 15.99,8.06 48.23,25.31l-3.57 -105.24 70.26 -1267.98 1826.48 210.96 -91.48 1552.53c21.57,-18.76 42.27,-49.43 39.13,-87.26l88.81 -1477.22c3.02,-2.24 39.83,-22.01 44.4,-24.78 -21.68,-70.53 13.15,26.48 -9.02,-42.72l-70.29 3.81c58.26,37.44 4.03,0.67 38.04,37.69 -139.91,8.35 -1680.78,-182.1 -1860.51,-201.08 19.13,-184.87 278.94,-307.67 419.12,-298.79 214.4,13.59 1796.77,202.16 1829.3,220.49 20.1,115.38 -128.86,2432.39 -152.18,2495.25l-150.71 -17.7c2.99,-2.21 7.47,-4.45 9.51,-5.81l39.9 -30.7 -33.92 -5.49 -9.55 -50.53c-38.21,68.44 29.65,31.1 -54.2,77.16 7.37,16.83 -0.55,22.6 23.6,44.02l13.52 9.31c70.5,7.51 133.55,19.45 194.66,4.45 33.76,-84.96 124.83,-1625.15 139.94,-1926.96 2.26,-45.21 37.04,-566.48 24.7,-600.28 -11.96,-32.75 -7.24,-17.04 -23.85,-31.38 -31.01,-24.57 -1807.75,-232.13 -1927.28,-212.9 -130.41,20.98 -276.83,109.87 -338.21,191.87 -68.35,91.3 -59.61,351.13 -65.76,481.9 -16.03,341.03 -36.96,690.43 -59.05,1032.07z"/>
   <path class="fil5" d="M2499.7 2361.15c-12.62,-171.23 -20.79,-105.74 -111.39,-179.07l-176.16 236.55c-146.2,162.74 -502.6,243.13 -640.04,198.29 -44.51,-14.52 -195.53,-203.44 -281.12,-65.07l22.61 10.3c83.2,27.79 51.86,-3.59 76.36,30.53 -38.6,22.57 -93.52,16.05 -140.3,4.15 -47.17,-11.99 -80.06,-44.2 -126.35,-24.47 -41.9,123.05 120.02,88.91 167.49,153.54 -73.4,17.64 -115.58,-13.71 -181.01,-34.69 10.43,132.2 84.01,94.35 184.55,133.33 -35.69,29.05 -30.35,21.79 -138.14,5.04 16.06,43.25 11.71,44.62 66.61,67.97 131.54,55.95 218.63,8.2 293.87,-29.08 108.27,-53.63 445.47,35.88 761.55,-220.97 118.1,-95.96 139.68,-174.32 187.66,-247.98 19.31,-29.66 14.5,-21.92 33.8,-38.37z"/>
   <path class="fil6" d="M2415.26 1667.25l-26.95 514.83c90.6,73.33 98.77,7.84 111.39,179.07 -68.82,318.76 -137.35,69.57 -157.71,476.88 -3.97,79.55 7.55,71.33 23.88,88.28 36.27,-105.25 12.58,-249.58 48.39,-346.1 28.2,64.36 -0.22,202.44 -6.48,284.62l38.07 -0.89c83.85,-46.06 15.99,-8.72 54.2,-77.16 -17.18,-87.03 35.84,-837.91 61.68,-901.62 13.97,261.73 -25.74,678.03 -49.68,947.77 35.97,-18.63 42.86,15.37 49.6,-117.05 17.39,-341.54 49.96,-668.29 62.95,-1021.11 7.23,-196.54 23.16,-390.44 36.18,-585.82l27.18 -554.97c-10.1,-39.84 8.36,-3.63 -14.86,-30.38 -47.68,111.09 -47.02,677.11 -76.39,855.54 -14.24,-274.01 40.91,-549.89 27.18,-812.12 -56.79,32.36 -7.63,22.07 -75.97,52.47 -15.91,171.42 -34.68,893.15 -80.57,982.27 -3.83,-156.49 10.18,-333.95 21.7,-490.9l27.87 -410.48c-6.51,-77.39 3.65,-30.42 -20.92,-55.6 -44.81,63.43 -73.1,879.41 -80.73,1022.48z"/>
   <path class="fil7" d="M1647.09 424.22c-163.86,-43.47 -666.17,-67.99 -744.47,-94.42l-22.97 -10.94c136.91,-28.64 1341.96,132.38 1685.54,162.38 54.75,4.79 69.69,4.07 100.79,30.8 -144.18,32.15 -593.99,-89.27 -685.02,-55.85 124.18,65.53 488.45,45.19 592.87,95.26 -142.2,118.87 -140.85,77.56 -408.43,47.14 -421.19,-47.87 -1050.25,-135.52 -1426.33,-161.14 26.96,-68.48 88.4,-86.82 187.19,-73.98 150.48,19.58 617.4,71.78 720.82,60.75zm723.96 219.23l70.29 -3.81c22.17,69.2 -12.66,-27.81 9.02,42.72l-54 880.32c-1.54,13.75 -6.01,39.7 -3.83,51.35 11.91,63.74 -5.64,21.3 22.73,53.22 7.63,-143.07 35.92,-959.05 80.73,-1022.48 24.57,25.19 14.41,-21.79 20.92,55.6l-27.87 410.48c-11.52,156.95 -25.53,334.41 -21.7,490.9 45.89,-89.12 64.67,-810.85 80.57,-982.27 68.34,-30.4 19.18,-20.11 75.97,-52.47 13.72,262.23 -41.42,538.12 -27.18,812.12 29.37,-178.44 28.71,-744.46 76.39,-855.54 23.22,26.76 4.76,-9.46 14.86,30.38l-27.18 554.97c-13.02,195.37 -28.95,389.27 -36.18,585.82 -12.99,352.82 -45.56,679.56 -62.95,1021.11 -6.74,132.42 -13.63,98.42 -49.6,117.05 23.94,-269.74 63.66,-686.04 49.68,-947.77 -25.84,63.72 -78.85,814.59 -61.68,901.62l9.55 50.53 33.92 5.49c55.37,-10.24 40.89,-38.67 45.91,-114.01l105.4 -1660.41c11.7,-178.35 40.76,-426.84 35.11,-600.04 -363.91,-41.74 -746.77,-79.14 -1117.81,-125.74 -183.42,-23.03 -367.67,-41.08 -547.96,-64.77 -144.63,-19.01 -127.79,-8.25 -246.27,42.73 -34.94,15.04 -153.98,104.28 -168.34,138.18l1721.51 184.71z"/>
   <path class="fil8" d="M871.5 2783.18l-80.57 -13.62c-68.19,-6.16 -64.53,-10.79 -88.8,-37.86 108.57,6.83 206.12,38.43 215.2,-84.57 -72.28,10.28 -149.87,33.65 -192.66,-13.64 56.75,-21.44 265.18,17.3 202.28,-91.22 -37.71,-50.33 -116.3,12.82 -201.14,-20.9 -62.71,-24.92 -32.03,-12.39 -48.68,-44.13 52.83,-4.19 88.5,22.07 133.55,-7.04 -16.78,-44.42 -24.52,-54.32 -88.67,-57.26 -147.67,-6.76 -168.21,138.3 -289.83,-21.31 -121.26,-159.14 21.97,-161.83 -10.85,-475.98 -152.85,69.39 -325.12,407.17 -151.45,624.15 82.03,102.49 199.86,117.52 267.94,195.81 87.99,101.19 264.74,119.14 333.68,47.58z"/>
   <path class="fil6" d="M1343.93 455.71c119.08,-2.81 638.52,50.5 717.33,93.05 -70.54,0.57 -640.49,-53.28 -717.33,-93.05zm-464.27 -136.84l22.97 10.94c78.3,26.43 580.6,50.95 744.47,94.42 -103.41,11.04 -570.34,-41.16 -720.82,-60.75 -98.78,-12.85 -160.23,5.49 -187.19,73.98 376.08,25.62 1005.14,113.27 1426.33,161.14 267.58,30.42 266.22,71.73 408.43,-47.14 -104.41,-50.07 -468.69,-29.73 -592.87,-95.26 91.03,-33.41 540.84,88 685.02,55.85 -31.1,-26.73 -46.04,-26.01 -100.79,-30.8 -343.58,-30.01 -1548.63,-191.03 -1685.54,-162.38z"/>
   <path class="fil5" d="M1097.2 3055.47c2.12,1.62 8.15,-0.94 10.3,4.22 2.1,5.04 8.94,3.22 11.77,4.43l62.93 42.45c-112.7,-2.59 -152.43,-22.31 -251.59,34.43 -158.08,90.46 -189.24,350.83 309.95,200.42 176.2,-53.09 149.51,-128.16 159.12,-377.19 -151.98,9.6 -219.54,-20.5 -290.63,-96.93l-11.85 188.18z"/>
   <path class="fil8" d="M598.6 2839.71l-4.73 106.68c57.58,20.9 46.91,-1.25 87.74,40.92 -30.03,20.38 -91.28,7.89 -136.03,13.76 -120.42,15.79 -223.36,90.16 -217.94,231.53 113.07,52 299.85,50.01 426.33,-8.9 173.06,-80.61 112.56,-186.45 136.52,-400.56 -118.92,51.73 -154.01,59.31 -291.89,16.59z"/>
   <path class="fil8" d="M719.14 2361.33c73.47,40.08 108.63,15.62 130.9,116.72 57.64,4.67 100.59,13.94 131.25,30.34l25.42 -67.86c13.86,157.21 -107.6,144.14 61.01,433.76 65.88,-96.6 -69.76,-282.77 77.08,-376.88 -17.78,-209.39 -258.4,-466.43 -425.66,-136.08z"/>
   <path class="fil9" d="M1574.61 1534.46l12 11.71c10.61,-183.8 134.72,-244.15 251.72,-137.29l-88.85 95.96 62.46 -0.91 51.42 0.95 10.6 87.92 89.83 13.8c37.49,-114.51 57.22,-135.4 33.22,-272.64 -66.27,-23.67 -113.84,-37.08 -177.06,-67.06 -66.16,-31.37 -90.16,-69.42 -141.08,-98.49 -110.3,99.19 -117.74,175.11 -104.26,366.03z"/>
   <path class="fil8" d="M1711.64 2584.66c-5.29,-114.37 -99.24,-229.87 -171.6,-277.23 -130.96,-85.7 -247.3,-4.56 -300.67,93.47 -16.26,29.86 -80.25,137.95 -13.31,138.18 61.36,0.21 6.51,5.8 65,-46.17 78.36,-69.62 223.04,6.29 249.82,31.23 40.35,37.58 4.27,42.38 63.16,59.57 26.6,7.76 79.36,3.42 107.61,0.95z"/>
   <path class="fil10" d="M1836.84 3015.52l392.2 53.24 21.17 -344.78c-407.95,226.62 -397.01,61.64 -413.37,291.53z"/>
   <path class="fil6" d="M1054.33 1397.96c-31.09,59.27 58.57,38.81 110.09,45.5l5.36 83.45c56.93,-192.63 82.48,-247.1 -40.12,-413.57 -134.67,81.44 -128.21,82.88 -320.21,123.54 -11.42,50.49 -54.02,312.88 49.02,273.38 38.62,-35.04 22.07,-129.02 67.43,-170.42 53.52,-48.86 133.54,-42.48 181.48,-7.15 -7.83,56.95 10.87,45.45 -53.06,65.29z"/>
   <path class="fil4" d="M983.71 1668.51c57.96,13.43 16.68,9.81 32.18,-18.07 -77.14,-29.29 -54,-23.68 -144.35,-24.1 -51.21,-0.24 -88.49,-10.11 -108.13,-54.27 54.54,-46.17 70.44,-29.73 138.84,-32.77l10.13 -2.49c-4.41,-120.66 -2.94,-180.42 113.76,-196.15l28.19 57.3c63.93,-19.83 45.23,-8.34 53.06,-65.29 -47.94,-35.33 -127.97,-41.7 -181.48,7.15 -45.36,41.4 -28.81,135.39 -67.43,170.42 -103.04,39.5 -60.45,-222.89 -49.02,-273.38 192,-40.65 185.54,-42.1 320.21,-123.54 122.6,166.47 97.05,220.94 40.12,413.57 -1.81,4.16 -8.28,20.12 -8.05,22.3 4.13,38.9 -14.55,-4.55 9.37,20.7 107.13,-127.01 118.77,-395.68 -14.64,-473.83 1.23,-3.4 4.47,-11.6 5.21,-9.52l13.59 -28.24c6.85,-19.16 9.43,-10.65 8.13,-38.26 -45.49,14.36 -54.6,58.41 -190.79,113.79 -125.47,51.02 -122.45,29.76 -257.23,57.18l17.15 34.69c1.56,2.22 4.66,5.84 6.23,7.89l13.96 15.41c-34.38,107.59 -13.49,170.81 9.68,268.6l-18.8 13.28c-3.37,2.84 -89.84,38.74 17.59,103.86 64.1,38.86 115.97,14.57 202.54,33.74z"/>
   <path class="fil11" d="M1574.61 1534.46c-2.19,81.89 6.26,30.96 -20.74,38.52 18.42,39.72 31.2,58.47 57.56,92.88 46.7,60.96 21.43,23.24 38.51,83.35 77.49,-21.88 68.24,-25.48 167.21,-14.2l-122.73 -27.44c3.69,3.73 9.65,0.96 12.19,5.74l52.1 6.96c23.51,0.35 32.6,-4.61 62.18,-4.63 -11.78,-30.63 -70.58,-14.37 -112.08,-12.92 37.68,-58.19 22.6,-35.23 88.9,-50.95 49.82,-11.81 36.21,-23.21 95.4,-24.51l-55.61 -5.82 0.04 -89.9 -72.43 -9.74c42.08,20.98 25.4,6.64 46.84,-17.85l-62.46 0.91 88.85 -95.96c-117,-106.86 -241.12,-46.52 -251.72,137.29l-12 -11.71z"/>
   <path class="fil4" d="M1553.87 1572.98c26.99,-7.56 18.55,43.37 20.74,-38.52 -13.48,-190.92 -6.05,-266.84 104.26,-366.03 50.92,29.06 74.92,67.12 141.08,98.49 63.23,29.98 110.79,43.39 177.06,67.06 23.99,137.25 4.27,158.13 -33.22,272.64l-89.83 -13.8 -10.6 -87.92 -51.42 -0.95c-21.44,24.49 -4.77,38.83 -46.84,17.85l72.43 9.74 -0.04 89.9 55.61 5.82c46.78,7.55 65.35,30.21 95.61,53.68 -42.21,29.66 -105.96,30.45 -167.84,34.71 -29.58,0.02 -38.67,4.98 -62.18,4.63l-52.1 -6.96c-2.54,-4.78 -8.5,-2.01 -12.19,-5.74l122.73 27.44c72.64,7.35 145.01,-7.93 206.07,-35.8 -4.1,-53.69 -19.33,-9.43 -17.73,-71.62 1.5,-58.45 75.25,-138.63 33.18,-286.86 38.85,-26.29 28.45,-5.16 51.67,-48.31 -336.35,-18.2 -385.06,-225.96 -462.27,-235.27 15.51,64.23 45.77,47.06 0.17,110.76 -36.06,50.37 -42.42,29.64 -72.31,105.95 -37.09,94.7 -40.21,200.55 -2.04,299.11z"/>
   <path class="fil12" d="M2317.14 2184.36c2.18,75.81 38.8,17.83 45.64,-80.79 4.33,-62.43 2.74,-118.07 6.18,-177.38 6.36,-109.57 8.18,-261.78 27.39,-363.5l54 -880.32c-4.56,2.77 -41.38,22.55 -44.4,24.78l-88.81 1477.22z"/>
   <path class="fil13" d="M902.26 1539.3c42.17,44.03 92.07,52.76 134.04,95.92 -23.29,40.02 11.87,7.53 -20.41,15.22 -15.51,27.89 25.78,31.5 -32.18,18.07l92.38 23.81c30.02,-52 4.44,-22.76 46.14,-60.49 41.12,-37.21 29.65,-8.18 48.88,-61.91 -23.92,-25.25 -5.24,18.19 -9.37,-20.7 -0.24,-2.18 6.24,-18.14 8.05,-22.3l-5.36 -83.45c-51.52,-6.68 -141.19,13.77 -110.09,-45.5l-28.19 -57.3c-116.69,15.73 -118.17,75.48 -113.76,196.15l-10.13 2.49z"/>
   <path class="fil14" d="M1497.14 2932.87c-3.75,101.05 58.98,145.38 166.83,141.7 108.08,-3.68 126.44,-87.49 144.24,-186.53 -100.19,11.39 -236.19,-9.3 -311.08,44.83z"/>
   <path class="fil15" d="M1285.57 1561.18c43.58,-9.61 39.16,-10 69.96,7.28 9.32,60.14 -34.81,69.22 -100.52,65.38l-1.6 -48.35c-102.34,120.77 87.62,260.92 195.1,153.01 103.77,-104.19 -48.47,-280.93 -162.94,-177.31z"/>
   <path class="fil16" d="M1253.42 1585.49l32.15 -24.3c114.47,-103.62 266.71,73.12 162.94,177.31 -107.48,107.92 -297.44,-32.24 -195.1,-153.01zm61.95 -83.71c-204.11,43.29 -155.79,364.94 83.89,309.95 202.68,-46.5 135.51,-356.48 -83.89,-309.95z"/>
   <path class="fil17" d="M1079.37 2069.26c36.98,-32.13 77.8,-167.24 295.94,-129.38 52.02,9.03 120.44,41.2 151.29,67.78 28.04,24.14 28.91,30.8 48.31,60.97l51.52 62.12c22.3,-124.85 -162.85,-216.81 -250.34,-231.02 -206.13,-33.49 -329.89,97.93 -296.72,169.54z"/>
   <path class="fil17" d="M776.6 1968.37c-55.91,-71.46 0.16,-146.61 49.55,-200.37 7.93,37.69 13.24,77.92 14.09,117.15 1.32,60.85 -7.35,76.74 -63.65,83.22zm-52.01 2.12c193.85,144.04 149.08,-201.41 120.24,-263.48 -45.21,21.74 -145.86,138.87 -120.24,263.48z"/>
   <path class="fil17" d="M1909.22 1835.79c32.67,43.9 107.74,197.78 25.62,215.19 -97.81,20.74 -51.46,-170.11 -25.62,-215.19zm89.73 208.39c13.25,-73.48 -26.18,-183.97 -72.07,-244.4 -20.68,-27.24 -3.02,-10.54 -31.3,-25.52 -94.26,201.28 -49.34,384.22 103.38,269.92z"/>
   <path class="fil18" d="M1343.93 455.71c76.84,39.78 646.79,93.62 717.33,93.05 -78.82,-42.55 -598.25,-95.86 -717.33,-93.05z"/>
   <path class="fil19" d="M1015.89 1650.43c32.28,-7.68 -2.88,24.8 20.41,-15.22 -41.97,-43.16 -91.87,-51.88 -134.04,-95.92 -68.4,3.04 -84.3,-13.4 -138.84,32.77 19.63,44.15 56.92,54.03 108.13,54.27 90.34,0.42 67.21,-5.19 144.35,24.1z"/>
   <path class="fil12" d="M2277.65 3067.43c33.71,-28.64 50.18,-344.27 47.29,-405.61 -58.51,32.43 -37.04,21.48 -51.34,189.95 -3.2,37.72 -6.22,71.22 -9.2,108.09 -0.92,11.45 -4.28,46.24 -3.84,55.56 3.05,66.08 3.48,35.18 17.1,52.01z"/>
   <path class="fil20" d="M918.28 3080.47c44.82,1.96 106.24,-11.53 139.05,-38.74l8.69 -72.51 -144.67 -22.71 -3.07 133.95z"/>
   <path class="fil19" d="M1820.88 1715.63c61.87,-4.26 125.62,-5.04 167.84,-34.71 -30.26,-23.47 -48.84,-46.13 -95.61,-53.68 -59.19,1.3 -45.58,12.7 -95.4,24.51 -66.3,15.72 -51.22,-7.24 -88.9,50.95 41.5,-1.44 100.3,-17.71 112.08,12.92z"/>
   <path class="fil21" d="M1909.22 1835.79c-25.83,45.09 -72.18,235.93 25.62,215.19 82.11,-17.41 7.04,-171.29 -25.62,-215.19z"/>
   <path class="fil21" d="M776.6 1968.37c56.3,-6.48 64.97,-22.37 63.65,-83.22 -0.86,-39.23 -6.16,-79.46 -14.09,-117.15 -49.39,53.76 -105.46,128.91 -49.55,200.37z"/>
   <path class="fil22" d="M925.02 2899.98l133.95 32.08c-16.4,-49.12 -29.31,-58.08 -49.64,-94.69 -26.45,-47.62 -15.78,-47.28 -63.95,-79.03l-20.36 141.64z"/>
   <path class="fil23" d="M422.15 2793.8l125.61 20.37c1.38,-0.37 4.73,-2.5 7.09,-3.77 -38.53,-35.93 -87.2,-83.18 -132.7,-108.8l0 92.2z"/>
   <path class="fil24" d="M1253.42 1585.49l1.6 48.35c65.71,3.84 109.83,-5.24 100.52,-65.38 -30.8,-17.28 -26.38,-16.89 -69.96,-7.28l-32.15 24.3z"/>
  </g>
 </g>
</svg>
