<?xml version="1.0" encoding="UTF-8"?>
<!DOCTYPE svg PUBLIC "-//W3C//DTD SVG 1.1//EN" "http://www.w3.org/Graphics/SVG/1.1/DTD/svg11.dtd">
<!-- Creator: CorelDRAW 2021 (64 Bit) -->
<svg xmlns="http://www.w3.org/2000/svg" xml:space="preserve" width="95.0056mm" height="98.2829mm" version="1.1" style="shape-rendering:geometricPrecision; text-rendering:geometricPrecision; image-rendering:optimizeQuality; fill-rule:evenodd; clip-rule:evenodd"
viewBox="0 0 5566.2 5758.21"
 xmlns:xlink="http://www.w3.org/1999/xlink"
 xmlns:xodm="http://www.corel.com/coreldraw/odm/2003">
 <defs>
  <style type="text/css">
   <![CDATA[
    .fil6 {fill:#010522}
    .fil38 {fill:#020313}
    .fil41 {fill:#023559}
    .fil32 {fill:#032549}
    .fil9 {fill:#042855}
    .fil42 {fill:#064668}
    .fil1 {fill:#09BABF}
    .fil29 {fill:#14C2C5}
    .fil43 {fill:#171629}
    .fil18 {fill:#172657}
    .fil46 {fill:#181312}
    .fil3 {fill:#191B45}
    .fil15 {fill:#192448}
    .fil26 {fill:#25162B}
    .fil19 {fill:#271946}
    .fil23 {fill:#272557}
    .fil24 {fill:#27AAB9}
    .fil35 {fill:#281738}
    .fil17 {fill:#291B56}
    .fil2 {fill:#2BAEC0}
    .fil31 {fill:#302711}
    .fil22 {fill:#351829}
    .fil14 {fill:#37153B}
    .fil36 {fill:#37A8BA}
    .fil12 {fill:#381846}
    .fil27 {fill:#391759}
    .fil10 {fill:#431662}
    .fil39 {fill:#440B37}
    .fil37 {fill:#46153B}
    .fil20 {fill:#4A8CBA}
    .fil5 {fill:#4A8EC1}
    .fil8 {fill:#578AB9}
    .fil40 {fill:#6C8EAD}
    .fil52 {fill:#797887}
    .fil53 {fill:#918A93}
    .fil33 {fill:#B24F94}
    .fil34 {fill:#B4DEF1}
    .fil51 {fill:#C9C8D6}
    .fil28 {fill:#CA3E95}
    .fil21 {fill:#DB5196}
    .fil44 {fill:#E7D8D3}
    .fil49 {fill:#E9AAC6}
    .fil4 {fill:#EDA2AB}
    .fil16 {fill:#F0E05D}
    .fil47 {fill:#F4F4FD}
    .fil11 {fill:#F7EBE7}
    .fil50 {fill:#F7EBFB}
    .fil45 {fill:#F8F6F8}
    .fil48 {fill:#FAFAFA}
    .fil13 {fill:#FAFAFE}
    .fil7 {fill:#FBF6C3}
    .fil25 {fill:#FBF6D7}
    .fil30 {fill:#FCF6E8}
    .fil0 {fill:#FCFCFA}
   ]]>
  </style>
 </defs>
 <g id="Camada_x0020_1">
  <metadata id="CorelCorpID_0Corel-Layer"/>
  <g id="_2115249792448">
   <path class="fil0" d="M3119.73 4683.85l95.94 -3.32c29.59,65.78 35.81,77.35 -10.87,142.91 -25.47,35.77 -63.11,93.25 -95.41,111.05l10.34 -250.64zm-1681.5 109.45c-59.94,24 -190.93,-30.75 -238.31,-54.82 -53.82,-27.34 -48.29,-30.75 -82.05,-87.15 -65.14,-108.85 -38.35,-78.53 -26.86,-94.4 22.59,22.71 15.43,21.47 34.55,44.7 88.4,107.36 137.21,120.66 268.79,167.08l36.72 18.06c1.24,-2.53 4.79,4.34 7.15,6.54zm78.1 -108.84c-213.48,-19.26 -379.43,-135.11 -397.17,-345.47 56.56,35.07 57.41,97.49 118.35,165.18 69.74,77.46 123.6,88.91 224.16,140.57l54.65 39.72zm-881.56 -670.85c-43.83,-21.61 -77.39,-94.05 -101.45,-159.11 -33.23,-89.86 -28.2,-137.37 -12.32,-225.56 27.46,33.09 14.78,-48.04 31,109.07 16.14,156.31 80.15,188.07 82.76,275.6zm244.36 107.34c-160.23,-52.92 -317.57,-554.49 -241.31,-664.6 28.62,46.37 66.66,279.27 91.53,357.9 80.22,253.67 97.98,193.34 149.79,306.7zm4419.73 -526.09c11.89,-108.11 22.83,-278.12 -4.68,-387.38 -26.38,-104.83 -20.92,-66.29 -0.28,-90.92 68.85,120.16 91.11,231.11 58.44,388.66 -16.27,78.48 -27.21,72.99 -53.49,89.65zm-177.93 140.91c22.74,-150.68 61.83,-196.32 43.2,-380.28 -13.15,-129.92 -43.7,-231.52 -84.03,-335.32 93.59,29.9 132.09,225.4 137.75,335.25 4.28,83.1 -3.22,338.58 -96.92,380.35zm-4329.7 -1397.98c-55.9,-52.82 -77.52,-182.53 -77.77,-277.98 -0.26,-96.62 -63.05,-235.73 23.46,-298.95 -2.68,142.58 50.43,489.72 54.31,576.92zm187.85 208.78c-63.63,-71.98 -91.33,-304.97 -93.38,-402.62 -1.26,-60.34 15.74,-92.59 19.42,-142.6 7.12,-96.62 -64.93,-110.4 -60.07,-266.11 2.06,-65.73 16,-212.33 46.41,-263.07 28.78,65.61 -3.02,205.28 1.99,291.51 7.21,123.93 78.48,133.91 65.56,250.32 -24.1,217.24 -23.3,27.27 -2.06,272.11 4.76,54.86 34.09,228.97 22.12,260.46zm3552.02 -1169c92.24,338.25 5.69,203.94 46.34,378.83 18.28,78.64 14.73,332.94 -7.75,402.1 -1.72,-2.96 -3.87,-6.99 -4.57,-9.2l-40.24 -369.54c-21.33,-83.64 -2.8,-265.55 -13.01,-379.12l-12.95 -35.25c60.84,-4.84 13.97,-4.46 32.18,12.17zm-123.45 961.63c132.94,1.83 184.53,-0.69 270.39,76.43 181.97,163.48 88.69,353.57 180.5,525.07 136.36,254.74 216.16,568.7 76.09,836.38 -116.33,222.32 -277.91,239.72 -399.72,297.59l2.99 61.28c28.48,274.24 -36.25,230.97 -278.62,249.67 -125.2,9.66 -400.27,45.9 -507.47,23.55l-40.49 24.78c64.63,85.83 98.31,160.81 106.47,289.66 10.29,162.71 -32.84,201.99 -84.36,323.25 117.77,0.54 238.65,28.09 289.88,95.31 194.41,255.12 -216.08,486.2 -658.66,264.8 -81.77,-40.91 -199.68,-92.99 -146.9,-216.51 42.42,-99.27 94.44,-161.8 149.5,-246.24 52.74,-80.89 115.79,-167.79 73.37,-291.02 -38.57,-112.04 -86.15,-197.14 -223.89,-187.37l-285.21 19.22 -117.28 14.68c181.07,242.36 92.72,413.44 -16.35,586.21 118.05,9.56 200.07,15.38 268.47,83.12 61.82,61.22 87.33,164.2 25.52,259.73 -154.05,238.04 -737.62,39.13 -820.4,-42.37 -93.93,-92.46 56.64,-297.73 119.81,-375.43 140.27,-172.57 137.7,-176.13 72.6,-387.86l-11.04 -13.13c-78.48,-96.11 -74.3,-80.06 -208.46,-72.91 -341.59,22.77 -598.83,90.79 -830.98,-118.42 -40.58,-23.92 -85.19,-75.78 -111.55,-134.39 -30.63,-68.11 -19.22,-140.98 -34.32,-191.83 -119.23,28.28 -22.79,-32.07 -254.87,-70.7 -46.88,-193.82 -276.67,-789.93 -264.69,-961.75 107.33,-97.29 305.76,-119.97 417.86,-211.39 -4.45,-387.29 -97.07,-1267.91 -127.63,-1719.3 -12.88,-190.14 47.81,-236.51 219.01,-250.07 142.78,-11.3 278.81,-23.67 420.98,-34.88 277.74,-21.89 557.31,-43.4 834.01,-67.17 130.89,-11.24 1193.47,-125.55 1270.21,-87.19 41.84,20.91 83.36,71.84 101.23,125.74 31.59,95.23 8.38,71.01 114.19,109.97 30.54,11.25 61.2,26.66 90.44,35.89 35.45,11.18 186.67,19.64 219.24,121.71 18.09,56.71 88.82,1130.86 100.13,1255.91zm-3575.78 1975.36l79.66 7.51c12.48,34.58 20.54,97.43 -7.8,117.25 -139.55,394.68 355,615.27 592.4,549.4 103.53,-28.73 168.2,-138 219.55,-201.95 134.86,-0.93 468.22,-61.04 562.96,-26.68 17.56,52.89 -2.53,69.89 -32.31,105.53 -25.64,30.68 -49.09,60.6 -73.92,95.03 -166.47,230.75 -242.57,490.52 46.61,646.77 135.2,73.05 340.8,130.9 517.94,146.43 342.52,30.03 409.23,-103.59 507.89,-167.16 278.42,118.68 631.27,200.44 880.2,1.91 204.41,-163.02 237.79,-511.22 -117.53,-705.46 13.93,-122.28 3.13,-160.49 0.68,-270.09 437.76,-12.88 742.29,1.39 746.56,-394.84 99.41,-56.74 127.59,-65.61 207.09,-131.68 170.25,-141.48 35.47,-117.8 204.25,-149.52 123.53,-23.21 110.2,-95.33 196.87,-140.12 91.91,-47.49 131.7,-73.79 168.36,-183.74 59.51,-178.44 41.32,-412.51 -43.27,-569.58 -67.07,-124.55 -89.55,-84.4 -205.83,-146.65 -28.53,-15.27 -55.19,-49.31 -99.36,-69.75 -51.39,-23.79 -102.79,-15.34 -149.49,-34.98 -36.4,-113.5 -32.19,-218.98 -81.07,-340.54 -60.12,-149.53 -102.45,-162.45 -182.77,-232.72 69.27,-386.86 -4.35,-440.78 1,-551.41 7.69,-159.14 -6.91,-366.68 -135.93,-462.46 -103.78,-77.05 -81.26,0.3 -106.67,-91.87 -51.18,-185.65 -35.71,-244.7 -282.78,-335.89 -213.51,-78.8 -117.29,-3.3 -234.61,-174.23 -134.8,-196.4 -395.9,-134.52 -674,-113.27 -210.76,16.11 -2126.87,161.93 -2250.75,200.1 -342.91,105.68 -226.77,452.19 -264.91,573.81 -1.61,5.1 -7.09,5.72 -9.3,7.29 -101.77,72.09 -106.38,78.72 -145.02,239.95 -16.45,68.62 -1.73,40.87 -59.64,80.71 -117.54,80.85 -132.24,264.49 -102.99,446.53 41.43,257.75 20.22,402.46 199.89,490.04 65.53,31.94 30.93,-5.17 67.58,74.1 37.17,80.39 81.44,92.65 132.43,146.12 -382.05,147.41 -383.73,153.35 -344.04,508.79 -54.29,38.95 -86.26,51.98 -122.03,110.32 -39.34,64.17 0.47,31.61 -77.56,147.27 -141.85,210.21 15.02,573.05 149.85,659.71 79.08,50.83 113.92,28.08 168.02,57.5 49.75,27.06 25.91,56.87 153.81,82.5z"/>
   <path class="fil1" d="M1783.51 1588.77c54.91,18.33 63.16,68.58 85.42,131.51 29.1,82.26 173.31,406.41 -89.97,410.66 -220.66,3.57 -189.19,-359.5 -51.43,-556.94 37.65,-2.31 31.66,-5.78 55.98,14.76zm1847.44 -155c49.36,41.55 111.39,46.51 190.07,67.47l40.43 22.7c-5.84,36.32 3.54,15.67 -16.96,43.6 -27.18,49.79 -114.71,43.65 -191.87,35.16 -206.7,-22.73 -409.24,-264.5 -234.41,-317.73 85.98,-26.18 214.51,97.13 207.06,117.93 24.26,-11.77 2.1,-8.06 5.67,30.88zm-1585.6 837.12l-0.98 -6.98c32.24,-37.54 2.86,16.77 43.17,-35.83 34.09,-44.48 62.24,-242.55 100.78,-324.79 29.02,-61.93 47.4,-51.38 64.12,-111.6 -32.99,-21.84 -97.14,-11.14 -126.46,-38.65 -99.78,-93.62 126.5,-166.88 126.59,-166.93 148.22,-101.87 155.55,-226.92 275.87,-228.4 49.26,-0.62 78.57,29.09 89.39,73.19 11.68,47.6 -3.33,33.12 10.7,121.23 -88.76,35.64 -6.22,10.78 -92.02,67.82l-73.57 79.1c111.84,-4.98 155.3,17.31 223.78,72.91 254.68,206.81 219.68,395.55 229.27,687.57 109.64,-44.44 145.03,-56.05 299.6,-62.5 2.44,-178.64 -100,-321.22 95.97,-652.64 112.52,-190.31 542.13,-249.73 656.97,272.77 37.97,22.5 17.97,0.57 53.8,16.68 48.77,21.92 44.47,33.63 49.74,43.55 14.81,27.88 28.57,128.6 29.19,166.63 1.15,69.53 -12.94,141.67 -41.77,193.48l-59.74 95.23c-72.43,-0.69 -1.95,-4.34 -35.6,-9.86 -26.74,-4.39 -34.67,-7.91 -87.33,54.82 -152.94,182.19 -264.66,186.89 -465.68,89.21 -74.78,135.75 9.97,45.59 -142.74,218.36 48.15,37.44 24.36,-13.93 121.47,46.63 36.38,22.69 53.59,18.48 137.03,71.19 50.19,31.7 78.29,48.42 112.13,104.06 69.98,115.03 8.41,47.59 125.17,67.28 38.79,94.17 85.08,161.6 30.92,276.18 -27.13,57.39 -78.61,117.6 -142.73,115.19 -68.18,-2.55 -36.03,5.5 -51.77,-33.47 -64.17,-48.56 15.2,-37.33 -184.37,-44.47 -1.73,-0.06 -30.48,-0.88 -33.7,-0.61 -22.25,1.89 -16.35,0.32 -29.09,6.54 -2.06,28.26 8.93,18.94 33.36,59.42l-28.65 11.4c-72.95,-5.71 -134.72,-20.52 -210.28,-8.31 -66.02,10.67 -114.72,55.11 -159.73,41.63l-6.8 -52.61c31.6,-15.58 43.03,-4.4 37.74,-31.13 -37.93,-23.76 -52.26,29.83 -255.94,70.25 -112.2,22.27 39.74,-1.92 -70.11,31.81l5.89 13.33c-15.38,32.82 39.93,27.5 -67.19,35.69 -47.35,3.62 -87.75,-29.93 -115.72,-59.05 -35.63,-37.07 0.64,-28.46 -60.31,-42.83l-138.36 217.99c-27.64,81.29 -75.51,195.51 -113.29,252.81 -149.84,227.22 -337.39,226.74 -433.06,282.84 -7.17,70.66 -4.62,95.25 22.39,146.58 98.87,22.84 410.02,-30.13 535.34,-31.5 84.58,-0.93 188.61,-14.22 280,-22.37 85.88,-7.66 188.47,-10.7 283.84,-18.26l-15.46 -11.13c143.12,-6.63 1446.02,-67.29 1565.65,-135.7 0,-72.61 -69.67,-1176.21 -99.62,-1211.92 -30.65,-36.55 -96.76,-24.67 -132.08,-94.42 -34.77,-68.68 3.19,-116.06 -7.05,-197.13 -14.1,-111.46 0.37,-109.27 13.79,-205.49 15.85,-113.61 -4.93,-90.96 54.93,-167.4 49.75,-63.54 7.2,-244.82 2.78,-393.55 -3.92,-132.04 -35.45,-263.1 -38.57,-407.96 -2.68,-124.69 19.59,-327.92 -33.81,-423.66 -125.88,-12.05 -1130.11,81.69 -1342.43,101.01l-998.06 88.89c-97.9,16.6 -221.63,29.6 -314.01,35.91 -22.35,101.92 11.34,329.32 21.99,437.9 14.81,151.02 20.27,275.73 31.5,434.7 9.09,128.76 31.81,284.37 35.14,394.47 3.8,126.03 2.98,329.51 43.8,423.61 240.81,-127.79 120.51,-315.54 352.03,-363.6 21.26,-4.42 29.42,-3.5 47.06,-9.37 57.38,-19.1 18.02,-3.18 42,-21.22 -13.36,-39.14 -154.22,-200.44 -116.64,-339.72 12.76,-47.3 -3.96,-34.67 39.83,-54.79z"/>
   <path class="fil2" d="M1704.58 3379.79c62.44,23.56 61.52,15.56 92.96,69.92 37.54,64.92 122,128.11 25.69,260.26 -14.81,20.33 -61.66,61.39 -83,55.53 -42.7,-11.75 -37.08,-344.28 -35.66,-385.71zm1430.29 -424.07c234.78,-29.11 499.03,91.17 520.48,301.92 36.42,357.82 -354.53,81.96 -575.77,159.11 -102.1,35.6 -174.22,115.84 -291.15,131.31 -218.73,28.92 -247.87,-276.78 29.33,-478.38 88.32,-64.24 191.69,-98.41 317.11,-113.95zm465.75 576.59c178.39,-75.06 127.73,-253.94 127.89,-294.84 0.15,-40.2 -2.22,-17.21 11.84,-39.38 25.2,63.9 64.29,139.42 25.09,227.85 -25.71,57.98 -82.05,103.85 -164.81,106.36zm-536.59 -1081.57c129.64,-40.79 246.22,28.42 277.18,134.67 40.6,139.34 -43.34,253.03 -150.92,279.57 -280.58,69.24 -412.99,-324.03 -126.26,-414.24zm-633.81 -689.97c141.95,-41.13 237.22,35.72 302.98,105.72 234.51,249.67 181.36,819.47 -117.91,902.2 -223.37,61.75 -413.29,-149.79 -448.45,-406.47 -36.81,-268.69 43.41,-537.72 263.38,-601.45zm1543.75 726.06c43.54,-172.65 54.21,-240.95 46.6,-430.71 41.15,57.26 52.39,154.84 40.42,241.72 -9.17,66.6 -37.74,145.8 -87.02,188.99zm-464.05 -828.7c479.84,-140.28 603.88,925.23 156.89,1023.92 -474.5,104.77 -614.39,-890.18 -156.89,-1023.92zm-1372.83 59.57c15.07,-63.28 44.54,-56.14 104.63,-83.73 144.18,-66.19 138.12,-98.88 205.79,-188.51 19.87,-26.31 76.58,-84.52 115.78,-27.52 85.98,125.05 -276.1,368.94 -426.2,299.76zm-92.72 546.2c34.76,14.07 19.07,-19.76 33.96,47.91 2.61,11.89 2.26,49.78 3.94,64.9 16.38,147.11 94.44,224.98 114.01,280.98 -44.59,-18.52 -89.59,-74.44 -118.31,-135.98 -35.52,-76.13 -42.53,-160.15 -32.63,-250.83 -43.79,20.12 -27.07,7.49 -39.83,54.79 -37.58,139.28 103.28,300.57 116.64,339.72 -23.99,18.04 15.37,2.12 -42,21.22 -17.64,5.87 -25.81,4.96 -47.06,9.37 -231.52,48.06 -111.22,235.81 -352.03,363.6 -40.82,-94.1 -40,-297.57 -43.8,-423.61 -3.33,-110.09 -26.05,-265.7 -35.14,-394.47 -11.23,-158.97 -16.69,-283.68 -31.5,-434.7 -10.65,-108.58 -44.35,-335.98 -21.99,-437.9 92.38,-6.32 216.11,-19.32 314.01,-35.91l998.06 -88.89c212.32,-19.32 1216.55,-113.06 1342.43,-101.01 53.39,95.74 31.12,298.96 33.81,423.66 3.13,144.86 34.65,275.92 38.57,407.96 4.42,148.74 46.98,330.01 -2.78,393.55 -59.86,76.44 -39.08,53.78 -54.93,167.4 -13.42,96.21 -27.88,94.03 -13.79,205.49 10.25,81.07 -27.72,128.45 7.05,197.13 35.31,69.75 101.43,57.87 132.08,94.42 29.94,35.7 99.62,1139.31 99.62,1211.92 -119.63,68.4 -1422.53,129.07 -1565.65,135.7l15.46 11.13c-95.36,7.56 -197.96,10.6 -283.84,18.26 -91.39,8.16 -195.42,21.45 -280,22.37 -125.32,1.37 -436.48,54.33 -535.34,31.5 -27,-51.32 -29.56,-75.92 -22.39,-146.58 95.67,-56.1 283.22,-55.62 433.06,-282.84 37.78,-57.29 85.65,-171.52 113.29,-252.81l138.36 -217.99c60.96,14.37 24.68,5.76 60.31,42.83 27.98,29.12 68.37,62.67 115.72,59.05 107.12,-8.18 51.81,-2.87 67.19,-35.69 -85.95,5.41 -136.87,-31.38 -171.53,-77.85 -48.14,-64.51 -32.35,-136.22 -15.57,-209.84 -77.76,23.63 -81.72,20.39 -70.94,-95.9 5.93,-64.1 35.39,-100.89 60.08,-157.53 104.68,-240.13 -92.73,-271.13 -109.94,-302.32 40.34,58.54 238.97,21.06 265.5,9.4 19.57,-8.61 91.46,-56.24 102.69,-66.29 39.85,-35.66 35.95,-52.62 91.08,-64.46 61.39,116.89 7.57,159.75 221.59,240.18 -41.52,38.88 -239.16,89.77 -307.87,138.7 -57.08,40.64 -165.61,196.35 -183.29,294.82l-43.47 -3.89c6.76,153.88 27.88,235.2 155.78,281.64 109.85,-33.74 -42.08,-9.54 70.11,-31.81 203.68,-40.42 218.01,-94.02 255.94,-70.25 5.29,26.73 -6.15,15.56 -37.74,31.13l6.8 52.61c36.55,-26.25 101.42,-87.42 176.19,-97.27 73.87,-9.73 157.5,10.96 193.83,63.96l28.65 -11.4c-24.43,-40.48 -35.42,-31.16 -33.36,-59.42 12.75,-6.22 6.84,-4.66 29.09,-6.54 3.22,-0.27 31.97,0.54 33.7,0.61 199.57,7.14 120.2,-4.1 184.37,44.47 15.74,38.97 -16.41,30.92 51.77,33.47 64.11,2.41 115.6,-57.8 142.73,-115.19 54.16,-114.57 7.87,-182 -30.92,-276.18 -116.75,-19.69 -55.19,47.75 -125.17,-67.28 -33.85,-55.64 -61.95,-72.36 -112.13,-104.06 -83.44,-52.71 -100.65,-48.51 -137.03,-71.19 -97.12,-60.56 -73.32,-9.19 -121.47,-46.63 152.71,-172.77 67.96,-82.62 142.74,-218.36 201.02,97.68 312.73,92.98 465.68,-89.21 52.66,-62.73 60.59,-59.21 87.33,-54.82 33.65,5.52 -36.83,9.17 35.6,9.86l59.74 -95.23c28.83,-51.8 42.92,-123.94 41.77,-193.48 -0.63,-38.03 -14.38,-138.75 -29.19,-166.63 -5.27,-9.92 -0.97,-21.62 -49.74,-43.55 -35.82,-16.11 -15.82,5.82 -53.8,-16.68 -114.84,-522.5 -544.45,-463.08 -656.97,-272.77 -195.97,331.42 -93.53,474 -95.97,652.64 -154.57,6.45 -189.96,18.06 -299.6,62.5 -9.59,-292.01 25.41,-480.76 -229.27,-687.57 -68.48,-55.61 -111.94,-77.89 -223.78,-72.91l73.57 -79.1c85.8,-57.04 3.27,-32.18 92.02,-67.82 -14.04,-88.11 0.97,-73.63 -10.7,-121.23 -10.82,-44.1 -40.13,-73.81 -89.39,-73.19 -120.32,1.48 -127.65,126.53 -275.87,228.4 -0.08,0.05 -226.37,73.32 -126.59,166.93 29.32,27.51 93.48,16.81 126.46,38.65 -16.73,60.22 -35.11,49.67 -64.12,111.6 -38.54,82.24 -66.7,280.31 -100.78,324.79 -40.31,52.6 -10.94,-1.7 -43.17,35.83zm-358.38 1538.7l22.85 25.71c102.83,-10.82 154.89,-84.45 188.45,-172.87 56.27,-148.24 -38.47,-127.26 -53.84,-234.14 -51.04,-31.66 -121.46,-131.52 -131.88,-210.37 -17.24,-130.6 37.31,-167.49 126.89,-203.85 48.17,-99.71 69.42,-244.4 197.78,-270.18 94.29,-18.95 68.28,26.17 134.17,22.63 3.53,-0.19 7.31,-1.27 11,-1.75 11.37,-1.49 23.05,-8.3 49.76,-10.51 85.77,-7.1 110.75,35.86 116.22,112.18 177.19,-20.14 160.87,108.16 107.22,228.24 -81.45,182.28 -52.25,130.36 -31.6,328.61 20.17,193.76 -85.13,192.23 -126.2,288.48 -42.46,99.49 -56.2,217.74 -129.81,280.23 -9.71,51.66 -33.15,72.54 -70.17,111 -35.04,36.41 -53.56,58.27 -98.45,85.16 -84.93,50.86 -158.24,72.6 -272.44,83.41l16.19 242.12c171.21,37.23 626.96,-79.47 799.3,-35.53 7.69,-6.28 -1.21,-4.37 29.59,-13.79 20.37,-6.23 2.61,-1.58 22.42,-5.08l429.31 -30.75c198.48,-11.71 1416.54,-106.47 1445.78,-137.81 24.05,-34.43 14.75,-17.57 12.2,-73.44l-94.98 -1220.76 -54.71 -14.18c-39.88,-9.74 -81.25,-18.77 -96.09,-74.63 -11.76,-44.22 -1.55,-74.27 7.32,-111.57 28.16,-118.45 -49.3,-30.54 -0.35,-182.65 33.44,-103.88 -13.9,-155.18 108.45,-233.9 -34.8,-129.5 -41.14,-493.53 -52,-651.52 -12.13,-176.24 -17,-472.62 -54.04,-632.6l-2752.17 239.85 193.84 2474.29z"/>
   <path class="fil3" d="M896.35 3416.38c-30.41,-36.41 -42.92,-99.21 -64.7,-171.21 -9.03,-29.82 -17.33,-58.24 -25.59,-88.1 -21.19,-76.56 -4.76,-59.23 6.79,-71.47l83.51 330.78zm394.27 -2346.07c35.04,-17.32 1913.28,-164.8 2263.87,-191.69 141.06,-10.82 191.27,-47.77 270.41,37.21 -286.49,11.73 -992.02,32.76 -1240.68,89.64l1054.82 -55.23c135.8,-5.83 211.7,-48.69 310.68,23.97 -249.01,32.28 -2367.5,216.9 -2466.51,194.05 73.61,-32.38 529.78,-41.63 620.72,-68.52 51.31,-15.17 10.21,-0.21 32.49,-14.9 -145.28,-5.21 -666.69,83.34 -744.82,30.43 79.5,-35.02 885.67,-46.75 988.43,-94.25 -201.51,-25.24 -993.63,111.62 -1089.42,49.3zm-23.07 3022.13l0.54 -48.12 -14.35 -0.73 -25.43 -10.42c-43.98,-13.93 -35.31,-27.75 -64.97,-65.47 0,0 -12.4,39.78 -56.97,7.52 -37.57,-27.2 -103,-329.2 -116.89,-378.69 -32.14,-114.45 -108.38,-357.56 -119.45,-464.77 30.72,22.6 6.17,-3.33 28.91,32.48 4.59,7.23 12.67,29.97 18.51,40.61l16.13 -3.76c0.09,-0.01 0.32,40.23 7.43,-0.17 0.19,-1.07 2.2,0.43 3.15,-0.02 -2.65,-73.3 6.64,-58.68 21.97,-77.26 -4.18,-2.14 -34.34,-17.37 -51.75,-25.05l-60.31 -27.35 323.22 -145.37 0.4 58.17c-1.55,29.27 -0.93,20.69 -11.53,48.29l18.65 -1.72c17.55,18.22 4.85,-15.7 23.92,37.14 7.31,20.24 5.4,28.56 7.58,49.64 5.28,51 -11.87,76.62 32.83,86.07l-6.22 -91.78 -150.15 -1925.95c22.76,-23.96 -35.04,-38.42 35.22,-14.03 4.86,-22.29 -7.97,-58.73 -4.77,-73.01 -185.5,-201.67 443.28,-188.93 569.51,-201.21 242.02,-23.53 492.41,-35.67 736.2,-60.47 253.44,-25.78 504.62,-37.7 759.57,-62.3 126.64,-12.22 254.05,-15.84 380.4,-25.96 145.23,-11.62 236.23,-45.22 269.84,103.01 -71.85,-28.36 -57.35,-56.8 -128.41,-62.07l-1846.54 141.72c-123.33,9.88 -574.44,38.57 -650.74,66.83 -10.69,78.73 7.14,94.06 62.11,127.87 199.32,122.6 268.29,99.49 476.18,83.32 241.63,-18.8 482.08,-45.66 719.09,-63.05 485.82,-35.64 990.31,-72.67 1469.15,-118.84l51.74 -15.89c11.35,-1.72 30.89,-2.03 42.58,-1.82 91.94,1.75 133.32,25.71 210.38,78.64 37.05,159.98 41.91,456.36 54.04,632.6 10.86,157.99 17.21,522.03 52,651.52l7.72 24.99c39.74,-52.68 -4.42,-27.91 49.6,-58.38 -11.31,-125.05 -82.04,-1199.19 -100.13,-1255.91 -32.56,-102.07 -183.79,-110.53 -219.24,-121.71 -29.24,-9.23 -59.9,-24.64 -90.44,-35.89 -105.81,-38.96 -82.6,-14.73 -114.19,-109.97 -17.88,-53.9 -59.39,-104.83 -101.23,-125.74 -76.73,-38.36 -1139.32,75.95 -1270.21,87.19 -276.7,23.77 -556.28,45.27 -834.01,67.17 -142.16,11.21 -278.19,23.58 -420.98,34.88 -171.2,13.55 -231.89,59.93 -219.01,250.07 30.56,451.39 123.19,1332.01 127.63,1719.3 -112.1,91.41 -310.53,114.1 -417.86,211.39 -11.98,171.82 217.81,767.94 264.69,961.75 232.08,38.64 135.64,98.98 254.87,70.7z"/>
   <path class="fil4" d="M1901.8 3030.51c-4.17,49.54 -6.23,88.8 -3.23,138.78 0.84,13.97 5.84,50.94 5.66,60.26 -1.1,56.54 -1.03,25.69 -12.21,45.35 -54.26,-39 -53.67,-129.61 -54.57,-204.82l-52.14 11.71c-53.53,170.23 15.92,145.66 45.63,257.62 2.94,2.48 6.76,5.83 8.61,7.67l45.89 58.31c72.2,116.57 112.36,111.5 81.4,222.27 -28.4,101.6 -97.58,222.82 -185.4,251.76 -67.37,22.21 -123.95,3.23 -169.17,-32.53 -126.32,-99.92 -150.7,-361.4 -116.53,-506.8 -0.51,-97.88 -27.17,-175.7 -108.56,-190.48 -129.66,40.37 -141.41,286.08 -135.14,432.08 3.4,79.16 23.24,173.56 43.53,243.23 26.09,89.61 59.19,131.23 85.78,198.51 72.36,47.62 172.28,241.48 471.24,151.87 196.54,-58.91 248.72,-195.14 329.37,-327.33 28.58,-72.75 47.37,-171.25 90.51,-224.13 58.53,-71.76 104.2,-71.98 85.3,-224.36 -13.6,-109.6 -31.84,-166.5 9.94,-272.82 34.52,-87.86 82.62,-100.1 59.05,-205.03 -66.42,-27.2 -126.45,37.46 -160.53,89.94 -34.22,52.72 -42.61,155.47 -88.01,182.14 -34.22,-56.43 -0.83,-163.77 39.58,-213.65 -6.3,-6.72 -61.04,11.07 2.35,-70.34 32.43,-41.66 26.01,6.5 27.35,-47.73 -11.55,-3.98 -44.74,-10.96 -45.73,-11.31 -35.88,-13.02 -16.12,-5.47 -34.53,-19.9 -95.02,57.44 -93.74,199.9 -136.89,321.81 -58.8,-21.12 -33.41,-128.63 -15.41,-181 27.29,-79.37 52.84,-98.19 86.24,-154.88 -39.15,-83.94 -123.67,17.3 -140.45,44.64 -37.48,61.14 -52.29,114.26 -58.95,169.17z"/>
   <path class="fil5" d="M1242.94 3111.68c95.05,31.99 41.26,14.73 105.51,-0.52 40.84,-9.7 77.56,-1.71 106.41,19.52 57.94,42.63 78.73,123.88 81.21,212.25 -27.62,116.68 26.94,337.12 80.61,425.77 34.18,-48.14 1.89,-214.82 -6.87,-300.09l-71.77 -930.35c-31.36,-404.9 -73.38,-819.55 -98.54,-1225.27 -131.74,-33.5 -223.02,-73.83 -311.48,-141.29 -70.25,-24.38 -12.46,-9.93 -35.22,14.03l150.15 1925.95z"/>
   <path class="fil4" d="M4391.59 2419.14l-10.71 60.04c-0.08,0.5 3.71,1.86 5.37,3.09 66.91,0 -2.58,-9.39 28.19,30.28 97.37,-16.98 169.78,16.08 196.84,89.01 -78.81,-22.99 -148.87,-75.97 -260.95,-14.9 -41.06,22.36 -8.99,2.95 -33.55,23 -2.5,2.04 -5.44,4.8 -7.91,6.94l-16.22 15.06c-2.38,2.2 -6.49,6.11 -8.44,7.93 -1.99,1.85 -5.55,5.55 -8.56,8.07l8.38 63.23c72.08,-3.64 110.27,-31.77 187.49,-23.84 81.21,8.34 98.76,22.63 119.48,84.07 -203.77,-49 -154.27,-64.39 -305.79,49.45 4.15,63.54 -5.11,61.71 21.6,97.39 100.48,3.47 99.08,-45.11 197.76,-20.8l0.71 17.04c-0.18,1.7 -0.79,6.28 -1.07,8.16 -20.71,136.92 61.01,140.17 118.15,225.96 22.54,33.85 21.41,53.04 46.93,80.82 49.74,255.27 79.04,406.09 -154.74,538.4l13.01 230.83c427.72,-49.03 536.34,-630.3 261.68,-1045.32 -36.58,-55.28 -35.13,-37.14 -33.66,-117.52 7.57,-414.04 -252.28,-486.23 -364,-416.4z"/>
   <path class="fil6" d="M239.23 566.11c-26.39,-102.97 237.15,-255.19 218.46,-14.55 -6.22,80.03 -15.05,94.75 -79.91,101.51l-11.27 -93.27c-81.72,-19.17 -21.34,18.37 -95.19,16.04 -28.75,-0.9 -17.11,-1.34 -32.08,-9.73zm361.6 -111.26c-50.58,-1.67 -76.35,-2.8 -79.49,-58.28 -2.13,-37.42 17.11,-77.51 42.35,-90.53 102.42,-52.83 48.84,121.83 37.14,148.81zm-294.18 -137.42c-19.17,-87.66 92.13,-154.57 126.98,-95.99 29.94,50.33 -54.63,152.46 -126.98,95.99zm115.21 948.71c47.61,-166.04 -91.7,-241.85 -30.84,-411.51 45.44,-126.68 160.29,-174.09 225.86,-253.36 63.59,-76.87 132.56,-204.89 97.35,-352.31 -85.02,-355.92 -662.12,-156.11 -645.25,429.84 4.12,143.31 63.28,261.53 136.69,333.07l120.74 119.01c70.49,63.68 47.28,62.49 95.46,135.26z"/>
   <path class="fil7" d="M3706.04 2272.35c-40.34,-71.41 -48.25,-115.18 0.33,-184.63 161.97,-26.07 193.15,228.12 -0.33,184.63zm-189.23 329.24c56.13,44.25 179.29,15.65 239.39,-30.61 51.11,-39.35 91.02,-118.46 118.33,-205.67 64.61,-206.38 4.01,-387.24 -80.73,-536.25 -77.92,18.43 -18.67,0.95 -86.86,-16.7 -62.41,-16.15 14.59,32.57 -20.37,-5.72 -71.3,-78.1 -86.34,-82.92 -183.97,-36.93 -136.15,64.13 -180.53,266.52 -178.55,402.65 4.5,308.35 176.82,369.3 187.11,382.3 24.54,31 30.54,7.6 5.65,46.93z"/>
   <path class="fil7" d="M2402.85 2666.17c116.31,-47.4 137.56,90.9 254.59,-52.71 8.26,-10.14 18.6,-27.03 28.39,-37.67 1.11,-1.2 3.91,-4.14 5.12,-5.33 35.97,-35.62 86.18,-50.16 87.48,-173.51 -77.21,2.53 -126.37,60.69 -188.04,-38.11 -20.7,-33.17 -28.22,-72.26 -19.7,-117.43 19.47,-103.22 65.28,-63.08 65.32,-63.08 80.28,-27.35 101.02,-18.79 118.37,50.14 54.27,-62.18 2.44,-42.08 47.03,-127.79 -52.78,-147.92 -98.63,-216.6 -213.23,-273.06 -64.53,-31.79 -134.28,-29.62 -191.41,3.8 -47.92,28.03 -92.76,78.52 -117.56,122.06 -64.23,112.77 -87.15,271.2 -60.44,412.76 25.54,135.37 101.76,268.35 184.08,299.92z"/>
   <path class="fil4" d="M2580.15 4632.58l-31.74 16.77c33.89,196.56 30.79,218.31 -76.14,357.73 -51.95,67.73 -159.68,206.07 -159.47,321.72 105.91,104.86 520.41,209.35 675.82,110.47 146.44,-93.16 81.85,-359.83 -310.86,-265.34 -48.66,11.7 -56.43,13.01 -79.24,-3.81 73.9,-59.32 147.76,-118.58 202.8,-214.77 58.17,-101.67 63.93,-224.13 0.76,-325.5l-221.94 2.72z"/>
   <path class="fil4" d="M3495.33 4596.01c40.42,164.17 21.44,232.67 -58.02,361.22 -30.4,49.18 -59.71,95.39 -94.36,145.33 -42.44,61.18 -66.36,80.59 -63.96,169.86 120.43,121.39 469.05,208.43 644.04,115.17 114.76,-61.17 97.54,-187.82 -12.5,-245.77 -120.53,-63.47 -228.88,-20.32 -350.5,-12.8 18.9,-30.78 188.77,-163.42 192.57,-363.81 1.11,-58.34 -16.94,-195 -56.85,-223.89 -43.79,-31.69 -158.63,30.76 -200.42,54.69z"/>
   <path class="fil8" d="M1123.23 1098.69c60.59,50.61 38.79,50.58 126.37,96 190.51,98.78 325.26,70.93 533.51,58.18 566.8,-34.71 1351.11,-118.6 1941.45,-175.45 79.01,-7.61 342.27,-4.08 401.84,-55.55l-186.81 5.67c-478.83,46.17 -983.32,83.2 -1469.15,118.84 -237.01,17.39 -477.46,44.25 -719.09,63.05 -207.89,16.16 -276.86,39.27 -476.18,-83.32 -54.97,-33.81 -72.8,-49.14 -62.11,-127.87 76.31,-28.25 527.41,-56.94 650.74,-66.83l1846.54 -141.72c71.06,5.27 56.56,33.71 128.41,62.07 -33.61,-148.23 -124.62,-114.63 -269.84,-103.01 -126.35,10.12 -253.76,13.74 -380.4,25.96 -254.95,24.6 -506.13,36.51 -759.57,62.3 -243.79,24.79 -494.18,36.94 -736.2,60.47 -126.23,12.27 -755.01,-0.46 -569.51,201.21z"/>
   <path class="fil9" d="M1123.23 1098.69c-3.19,14.28 9.63,50.72 4.77,73.01 88.46,67.45 179.75,107.78 311.48,141.29 25.16,405.72 67.18,820.37 98.54,1225.27l71.77 930.35c8.76,85.27 41.05,251.96 6.87,300.09 21.3,-7.79 14.61,-18.24 21.49,-17.24 19.32,2.82 13.25,17.79 47.82,51.15l-193.84 -2474.29 2752.17 -239.85c-77.07,-52.92 -118.45,-76.89 -210.38,-78.64 -11.69,-0.22 -31.23,0.1 -42.58,1.82l-51.74 15.89 186.81 -5.67c-59.57,51.46 -322.83,47.94 -401.84,55.55 -590.35,56.85 -1374.65,140.73 -1941.45,175.45 -208.25,12.75 -343,40.6 -533.51,-58.18 -87.59,-45.42 -65.78,-45.39 -126.37,-96z"/>
   <path class="fil10" d="M3092.57 3341.82c-590.12,398.28 -490.46,-162.04 -104.88,-67.58 44.82,10.97 82.55,29.02 104.88,67.58zm39.56 27.27c106.6,-41.94 205.12,22.01 324.66,40.6 154.63,24.04 202.39,-76.29 147,-204.65 -141.2,-327.25 -646.79,-181.09 -705.2,-139.5 -111.48,79.38 -251.34,188.11 -246.5,331.43 8.13,240.27 342.95,26.07 480.04,-27.87z"/>
   <path class="fil11" d="M1290.62 1070.31c95.79,62.33 887.91,-74.54 1089.42,-49.3 -102.76,47.5 -908.93,59.23 -988.43,94.25 78.13,52.91 599.54,-35.64 744.82,-30.43 -22.29,14.69 18.82,-0.28 -32.49,14.9 -90.94,26.89 -547.11,36.14 -620.72,68.52 99.01,22.86 2217.5,-161.77 2466.51,-194.05 -98.98,-72.66 -174.89,-29.8 -310.68,-23.97l-1054.82 55.23c248.66,-56.88 954.19,-77.91 1240.68,-89.64 -79.14,-84.98 -129.36,-48.03 -270.41,-37.21 -350.59,26.89 -2228.83,174.37 -2263.87,191.69z"/>
   <path class="fil6" d="M5068.48 544.99c-38.07,-54.46 -10.02,-115.17 64.51,-119.51 12.75,67.58 -1.58,115.82 -64.51,119.51zm205.65 -91.17c-123.22,-95.29 51.4,-248.82 57.57,-85.26 1.7,45.14 -1.11,47.8 -20.39,80.04l-37.18 5.22zm-243.15 -107.39c-5.86,-11.25 -25.22,-5.54 -9.26,-58.96 3.88,-13.01 16,-26.12 25.03,-34.3 21.5,-19.48 51.76,-36.68 74.9,-14.21 43,41.77 -13.28,118.68 -90.67,107.46zm-236.25 651.4c331.23,-32.75 213.68,-226.85 440.1,-330.33 99.13,-45.29 167.71,-70.07 188.69,-191.87 70.08,-407.03 -477.74,-496.31 -532.38,-93.23 -17.35,128.04 38.52,226.61 36.99,352.77 -2.28,188.92 -86.39,174.89 -133.41,262.65z"/>
   <path class="fil12" d="M3560.03 5129.03c121.62,-7.52 229.97,-50.67 350.5,12.8 110.04,57.95 127.27,184.61 12.5,245.77 -174.98,93.27 -523.61,6.22 -644.04,-115.17 -2.4,-89.27 21.52,-108.69 63.96,-169.86 34.64,-49.95 63.95,-96.15 94.36,-145.33 79.46,-128.55 98.44,-197.06 58.02,-361.22 41.8,-23.92 156.63,-86.38 200.42,-54.69 39.91,28.88 57.96,165.55 56.85,223.89 -3.8,200.39 -173.67,333.03 -192.57,363.81zm-343.27 -663.21c137.73,-9.77 185.32,75.33 223.89,187.37 42.42,123.23 -20.63,210.13 -73.37,291.02 -55.06,84.44 -107.08,146.97 -149.5,246.24 -52.78,123.52 65.13,175.61 146.9,216.51 442.58,221.4 853.07,-9.68 658.66,-264.8 -51.22,-67.22 -172.11,-94.77 -289.88,-95.31 51.52,-121.27 94.65,-160.54 84.36,-323.25 -8.16,-128.85 -41.84,-203.83 -106.47,-289.66l40.49 -24.78c-80.14,-24.75 -178.96,2.92 -267.26,13.1l-267.83 43.56z"/>
   <path class="fil13" d="M421.86 1266.14c-48.18,-72.77 -24.96,-71.58 -95.46,-135.26l-120.74 -119.01c-73.41,-71.54 -132.56,-189.76 -136.69,-333.07 -16.87,-585.95 560.24,-785.76 645.25,-429.84 35.21,147.43 -33.76,275.44 -97.35,352.31 -65.57,79.28 -180.42,126.68 -225.86,253.36 -60.86,169.66 78.45,245.47 30.84,411.51zm-28.08 102.86c191.72,-8.2 58.64,-305.81 50.07,-397.69 -16,-171.5 151.45,-239.68 220.05,-323.27 273.66,-333.42 80.17,-670.04 -209.02,-646.91 -375.23,30.01 -631.44,689.51 -305.92,1053.7 34.74,38.87 62.58,39.58 150.92,130.59 65.35,67.33 55.94,122.69 93.9,183.57z"/>
   <path class="fil14" d="M4358.07 2397.58c-20.21,34.79 -49.95,54.19 -60.88,104.56 -9.78,45.1 -15.71,103.15 -21.54,145.53 3.01,-2.52 6.57,-6.22 8.56,-8.07 1.95,-1.82 6.05,-5.74 8.44,-7.93l16.22 -15.06c2.47,-2.14 5.41,-4.9 7.91,-6.94 24.57,-20.05 -7.51,-0.64 33.55,-23 112.08,-61.06 182.14,-8.09 260.95,14.9 -27.07,-72.93 -99.48,-106 -196.84,-89.01l-99.45 13.6c9.74,-67.11 23.18,-80.62 76.6,-107.01 111.72,-69.83 371.57,2.36 364,416.4 -1.47,80.37 -2.92,62.23 33.66,117.52 274.66,415.02 166.03,996.3 -261.68,1045.32l-13.01 -230.83c233.78,-132.31 204.48,-283.13 154.74,-538.4 -15.5,27.78 -41.22,-45.14 -9.39,56.3 -1.67,1.38 -5.45,1.86 -6.14,2.09 -0.64,0.21 -4.98,1.7 -5.71,1.95 -19.87,6.67 -2.43,-26.42 -17.15,7.44 -5.08,85.99 25.77,144.64 -1.73,245.04 -19.81,72.34 -60.91,126.12 -128.5,136.83 4.84,36.65 -21.66,151.14 -10.26,241.37 8.89,70.3 20.83,170.91 47.5,215.79l-2.99 -61.28c121.8,-57.87 283.38,-75.26 399.72,-297.59 140.07,-267.68 60.27,-581.64 -76.09,-836.38 -91.81,-171.49 1.47,-361.59 -180.5,-525.07 -85.85,-77.12 -137.45,-74.59 -270.39,-76.43 -54.02,30.47 -9.86,5.69 -49.6,58.38z"/>
   <path class="fil15" d="M2541.41 4471.15c79.73,24.16 176.53,-1.02 262.36,4.86l127.77 9.03 285.21 -19.22 267.83 -43.56c88.29,-10.18 187.12,-37.85 267.26,-13.1 107.2,22.36 382.28,-13.89 507.47,-23.55 242.37,-18.7 307.1,24.58 278.62,-249.67 -26.66,-44.87 -38.61,-145.49 -47.5,-215.79 -11.4,-90.23 15.1,-204.72 10.26,-241.37l-42.87 -580.76c-29.8,-40.93 -37.51,-95.63 -51.54,-115.81 -34.81,-50.08 -61.59,-4.01 -99.47,-64.25 -26.7,-35.67 -17.44,-33.84 -21.6,-97.39l-1.18 -109.68 -8.38 -63.23c5.83,-42.38 11.75,-100.43 21.54,-145.53 10.93,-50.37 40.67,-69.77 60.88,-104.56l-7.72 -24.99c-122.36,78.72 -75.02,130.01 -108.45,233.9 -48.96,152.11 28.5,64.2 0.35,182.65 -8.87,37.3 -19.08,67.35 -7.32,111.57 14.84,55.86 56.22,64.89 96.09,74.63l54.71 14.18 94.98 1220.76c2.55,55.87 11.85,39.01 -12.2,73.44 -29.25,31.34 -1247.3,126.1 -1445.78,137.81l-429.31 30.75c-19.81,3.5 -2.05,-1.15 -22.42,5.08 -30.8,9.42 -21.9,7.51 -29.59,13.79z"/>
   <path class="fil14" d="M2580.15 4632.58l221.94 -2.72c63.18,101.37 57.41,223.84 -0.76,325.5 -55.03,96.19 -128.89,155.45 -202.8,214.77 22.81,16.83 30.58,15.51 79.24,3.81 392.7,-94.49 457.29,172.18 310.86,265.34 -155.4,98.87 -569.91,-5.62 -675.82,-110.47 -0.21,-115.65 107.51,-253.99 159.47,-321.72 106.93,-139.43 110.03,-161.17 76.14,-357.73l-84.51 -26.22c65.1,211.73 67.68,215.29 -72.6,387.86 -63.16,77.7 -213.74,282.97 -119.81,375.43 82.78,81.5 666.36,280.41 820.4,42.37 61.81,-95.52 36.3,-198.51 -25.52,-259.73 -68.4,-67.75 -150.41,-73.56 -268.47,-83.12 109.07,-172.76 197.42,-343.85 16.35,-586.21l117.28 -14.68 -127.77 -9.03c-9.47,25.43 -18.78,44.06 -28.25,63.63 13.6,13.33 4.12,2.06 21.81,24.36l27.06 37.95c-41.78,-7.51 -306.42,-2.61 -244.24,30.63z"/>
   <path class="fil1" d="M2511.83 3341.89l25.43 -7.29 43.47 3.89c17.68,-98.47 126.21,-254.18 183.29,-294.82 68.71,-48.92 266.35,-99.81 307.87,-138.7 -214.02,-80.44 -160.2,-123.29 -221.59,-240.18 -55.13,11.83 -51.24,28.8 -91.08,64.46 -11.23,10.05 -83.11,57.69 -102.69,66.29 -26.52,11.66 -225.16,49.14 -265.5,-9.4 17.21,31.19 214.62,62.19 109.94,302.32 -24.69,56.64 -54.15,93.44 -60.08,157.53 -10.78,116.29 -6.82,119.53 70.94,95.9z"/>
   <path class="fil13" d="M4794.73 997.83c47.02,-87.76 131.12,-73.73 133.41,-262.65 1.52,-126.16 -54.35,-224.73 -36.99,-352.77 54.63,-403.08 602.46,-313.8 532.38,93.23 -20.97,121.8 -89.56,146.58 -188.69,191.87 -226.42,103.47 -108.87,297.57 -440.1,330.33zm-79.01 41.57c111.58,68.12 272.91,-16.62 335.56,-76.36 96.34,-91.86 70.25,-168.39 218.01,-233.26 110.94,-48.71 193.54,-103.47 217.79,-235.1 87.92,-477.26 -547.94,-621.87 -653.88,-159 -37.05,161.86 30.08,252.4 30.4,399.1 0.42,196.84 -170.45,194.61 -147.89,304.63z"/>
   <path class="fil15" d="M3793.79 1829.06c84.74,149.01 145.34,329.87 80.73,536.25 -27.31,87.21 -67.22,166.33 -118.33,205.67 -60.09,46.26 -183.26,74.85 -239.39,30.61 -181.63,-73.72 -292.33,-381.12 -208.91,-634 31.57,-95.7 110.94,-208.46 192.7,-244.14 157.99,-68.95 233.9,63.3 293.2,105.61zm-283.88 -170.92c-457.5,133.74 -317.61,1128.69 156.89,1023.92 447,-98.69 322.95,-1164.2 -156.89,-1023.92z"/>
   <path class="fil15" d="M2801.41 2100.69c40.64,159.6 39.07,329.82 -38.29,463.39 -33.2,57.33 -71.13,110.51 -145.4,136.8 -76.89,27.21 -166.92,14.78 -214.86,-34.71 -82.32,-31.57 -158.53,-164.54 -184.08,-299.92 -26.71,-141.55 -3.79,-299.99 60.44,-412.76 24.79,-43.54 69.64,-94.03 117.56,-122.06 57.12,-33.41 126.87,-35.59 191.41,-3.8 114.6,56.46 160.45,125.14 213.23,273.06zm-371.19 -339.91c-219.97,63.74 -300.19,332.76 -263.38,601.45 35.16,256.68 225.08,468.21 448.45,406.47 299.27,-82.73 352.42,-652.53 117.91,-902.2 -65.76,-70 -161.04,-146.85 -302.98,-105.72z"/>
   <path class="fil15" d="M1843.44 3421.31l-12.49 -81.88c-29.71,-111.97 -99.16,-87.39 -45.63,-257.62l52.14 -11.71c22.36,-3.65 16.16,-2.38 26.55,-9.2 2.18,-1.43 5.58,-4.56 7.97,-6.26l18.91 -15.54c2.7,-2.12 7.07,-6.01 10.93,-8.57 6.66,-54.91 21.47,-108.03 58.95,-169.17 16.77,-27.34 101.3,-128.58 140.45,-44.64 42.42,-11.85 30.05,-21.73 70.44,-0.76 37.52,-5.17 79,-15.16 119.59,-3.19 26.55,26.69 22.93,38.23 47.41,56.05 49.21,35.79 51.55,4.43 74.86,36.1 25.89,-10.75 10.66,-12.9 13.26,16.73 23.57,104.93 -24.53,117.17 -59.05,205.03 -41.78,106.32 -23.55,163.22 -9.94,272.82 18.91,152.39 -26.77,152.6 -85.3,224.36 -43.14,52.88 -61.93,151.38 -90.51,224.13 32.14,-16.59 38.05,-30.86 15.13,34.24 -18.01,51.18 -32.58,48.24 -30.12,102.78 73.61,-62.48 87.35,-180.73 129.81,-280.23 41.08,-96.24 146.38,-94.71 126.2,-288.48 -20.65,-198.25 -49.85,-146.33 31.6,-328.61 53.65,-120.08 69.97,-248.37 -107.22,-228.24 -5.47,-76.32 -30.45,-119.28 -116.22,-112.18 -26.71,2.21 -38.39,9.02 -49.76,10.51 -3.69,0.48 -7.47,1.56 -11,1.75 -65.88,3.54 -39.88,-41.57 -134.17,-22.63 -128.37,25.78 -149.62,170.48 -197.78,270.18 -89.58,36.35 -144.13,73.25 -126.89,203.85 10.41,78.84 80.83,178.71 131.88,210.37z"/>
   <path class="fil16" d="M966.15 3123.64c1.86,144.58 206.22,725.49 262.18,909.53l25.43 10.42c12.73,-158.15 -60.32,-306.29 -60.49,-490.36 -0.09,-95.69 18.91,-167.5 10.99,-267.98 -6.69,-84.91 -17.76,-169.57 -19.42,-254.64l-18.65 1.72 -200.04 91.32z"/>
   <path class="fil17" d="M2181.96 3847.98c-80.65,132.19 -132.83,268.42 -329.37,327.33 -298.95,89.62 -398.87,-104.25 -471.24,-151.87 -45.18,-29.22 -40.05,-53.68 -79.23,-88.73l-34.03 109.61 -0.54 48.12c15.1,50.85 3.69,123.72 34.32,191.83 26.35,58.61 70.96,110.47 111.55,134.39 65.26,-13.42 26.53,-0.64 54.18,-27.41l-52.99 -50.11c-85.18,-78.51 -85.09,-168.89 -86.77,-282.21 93.63,76.15 139.72,184.21 345.87,205.76l52.22 -0.12c114.2,-10.8 187.51,-32.55 272.44,-83.41 44.9,-26.89 63.41,-48.75 98.45,-85.16 37.01,-38.45 60.45,-59.33 70.17,-111 -2.46,-54.54 12.11,-51.6 30.12,-102.78 22.92,-65.11 17,-50.83 -15.13,-34.24z"/>
   <path class="fil18" d="M3132.13 3369.08c-137.08,53.94 -471.91,268.14 -480.04,27.87 -4.85,-143.32 135.02,-252.05 246.5,-331.43 58.41,-41.59 564,-187.75 705.2,139.5 55.38,128.36 7.62,228.69 -147,204.65 -119.54,-18.58 -218.06,-82.54 -324.66,-40.6zm2.74 -413.36c-125.42,15.54 -228.79,49.71 -317.11,113.95 -277.2,201.61 -248.06,507.31 -29.33,478.38 116.93,-15.47 189.05,-95.71 291.15,-131.31 221.23,-77.15 612.19,198.71 575.77,-159.11 -21.45,-210.74 -285.7,-331.03 -520.48,-301.92z"/>
   <path class="fil19" d="M1830.95 3339.43l12.49 81.88c15.37,106.88 110.12,85.9 53.84,234.14 -33.56,88.42 -85.62,162.05 -188.45,172.87l-22.85 -25.71c-34.57,-33.36 -28.5,-48.33 -47.82,-51.15 -6.88,-1.01 -0.19,9.44 -21.49,17.24 -53.67,-88.65 -108.23,-309.09 -80.61,-425.77l-40.32 -2.83c-34.17,145.4 -9.79,406.89 116.53,506.8 45.22,35.77 101.8,54.74 169.17,32.53 87.82,-28.95 157,-150.17 185.4,-251.76 30.96,-110.76 -9.2,-105.7 -81.4,-222.27l-45.89 -58.31c-1.86,-1.84 -5.68,-5.19 -8.61,-7.67z"/>
   <path class="fil15" d="M1467.6 4391.25c-27.65,26.77 11.08,14 -54.18,27.41 232.16,209.21 489.39,141.19 830.98,118.42l286.81 -59.95c2.59,-1.19 7.25,-3.37 10.2,-5.98 -172.34,-43.94 -628.09,72.76 -799.3,35.53l-16.19 -242.12 -52.22 0.12 19.48 223.16c-100.47,-15.4 -150.82,-60.42 -225.58,-96.59z"/>
   <path class="fil13" d="M4500.69 3678.8c67.58,-10.71 108.68,-64.49 128.5,-136.83 27.5,-100.41 -3.35,-159.05 1.73,-245.04 -33.21,-36.81 -35.5,-85.01 -81.17,-132.65 -23.08,-24.07 -28.64,-23.97 -53.74,-47.71 -48.8,-46.14 -22.19,-60.74 -38.18,-18.53l42.87 580.76z"/>
   <path class="fil20" d="M1467.6 4391.25c74.76,36.17 125.11,81.19 225.58,96.59l-19.48 -223.16c-206.15,-21.54 -252.24,-129.6 -345.87,-205.76 1.69,113.32 1.6,203.69 86.77,282.21l52.99 50.11z"/>
   <path class="fil21" d="M3092.57 3341.82c-22.33,-38.56 -60.06,-56.61 -104.88,-67.58 -385.57,-94.46 -485.23,465.86 104.88,67.58z"/>
   <path class="fil22" d="M1253.75 4043.58l14.35 0.73 34.03 -109.61c39.18,35.04 34.05,59.5 79.23,88.73 -26.59,-67.28 -59.69,-108.9 -85.78,-198.51 -20.29,-69.67 -40.12,-164.07 -43.53,-243.23 -6.27,-146 5.48,-391.7 135.14,-432.08 -4.33,-3.52 -5.92,-58.1 -78.03,3.52 -24.63,21.06 -19.86,33.11 -60,50.32 -44.7,-9.45 -27.55,-35.06 -32.83,-86.07 -2.18,-21.08 -0.28,-29.4 -7.58,-49.64 -19.07,-52.85 -6.37,-18.93 -23.92,-37.14 1.65,85.07 12.73,169.72 19.42,254.64 7.93,100.48 -11.07,172.29 -10.99,267.98 0.16,184.07 73.21,332.21 60.49,490.36z"/>
   <path class="fil23" d="M3213.36 2524.22l17.6 -3.43c38.07,27.28 63.21,46.06 72.91,102.75 4.62,27.01 6.53,55.09 -2.42,81.48 -16.28,48.01 -17.23,29.9 -35.54,43.42l-4.22 8.67c-38.63,70.65 -121.59,82.82 -192.66,56.49 -277.34,-102.75 4.34,-454.08 144.33,-289.38zm-149.34 -73.47c-286.74,90.21 -154.33,483.48 126.26,414.24 107.58,-26.54 191.52,-140.23 150.92,-279.57 -30.96,-106.26 -147.54,-175.46 -277.18,-134.67z"/>
   <path class="fil24" d="M1783.51 1588.77c7.49,155.05 199.18,359.19 55.2,496.31 -151.85,29.18 -194.75,-76.85 -171.08,-221.77 17.21,-105.36 52.07,-219.17 115.89,-274.54zm0 0c-24.33,-20.55 -18.33,-17.08 -55.98,-14.76 -137.76,197.44 -169.23,560.51 51.43,556.94 263.28,-4.25 119.07,-328.4 89.97,-410.66 -22.26,-62.93 -30.51,-113.19 -85.42,-131.51z"/>
   <path class="fil23" d="M2137.09 1717.71c150.1,69.18 512.18,-174.71 426.2,-299.76 -39.2,-57 -95.91,1.21 -115.78,27.52 -67.67,89.62 -61.61,122.31 -205.79,188.51 -60.09,27.59 -89.56,20.46 -104.63,83.73z"/>
   <path class="fil25" d="M2754.38 2228.47l6.78 70.6 -33.36 71.4c-136.73,37.23 -152.75,-120.13 -91.78,-192.13 -0.04,0 -45.85,-40.14 -65.32,63.08 -8.52,45.17 -1,84.26 19.7,117.43 61.66,98.8 110.83,40.64 188.04,38.11 -1.29,123.35 -51.51,137.89 -87.48,173.51 -1.21,1.19 -4.01,4.13 -5.12,5.33 -9.79,10.63 -20.13,27.52 -28.39,37.67 -117.02,143.61 -138.27,5.31 -254.59,52.71 47.94,49.49 137.97,61.92 214.86,34.71 74.27,-26.28 112.21,-79.47 145.4,-136.8 77.36,-133.57 78.93,-303.79 38.29,-463.39 -44.59,85.7 7.24,65.61 -47.03,127.79z"/>
   <path class="fil26" d="M979.1 2546.57c11.98,-31.49 -17.35,-205.6 -22.12,-260.46 -21.24,-244.85 -22.04,-54.87 2.06,-272.11 12.92,-116.41 -58.35,-126.39 -65.56,-250.32 -5.01,-86.24 26.79,-225.9 -1.99,-291.51 -30.41,50.74 -44.36,197.34 -46.41,263.07 -4.86,155.71 67.19,169.48 60.07,266.11 -3.69,50.01 -20.68,82.26 -19.42,142.6 2.05,97.65 29.75,330.64 93.38,402.62z"/>
   <path class="fil27" d="M2244.4 4537.08c134.16,-7.15 129.98,-23.2 208.46,72.91l11.04 13.13 84.51 26.22 31.74 -16.77c-62.18,-33.24 202.46,-38.13 244.24,-30.63l-27.06 -37.95c-17.69,-22.3 -8.21,-11.02 -21.81,-24.36 9.47,-19.57 18.77,-38.2 28.25,-63.63 -85.84,-5.88 -182.64,19.29 -262.36,-4.86 -2.95,2.61 -7.61,4.79 -10.2,5.98l-286.81 59.95z"/>
   <path class="fil25" d="M3516.81 2601.59c24.88,-39.33 18.88,-15.93 -5.65,-46.93 -10.29,-13.01 -182.61,-73.96 -187.11,-382.3 -1.98,-136.12 42.4,-338.52 178.55,-402.65 97.64,-45.99 112.67,-41.18 183.97,36.93 34.97,38.29 -42.04,-10.43 20.37,5.72 68.19,17.65 8.93,35.12 86.86,16.7 -59.31,-42.31 -135.21,-174.56 -293.2,-105.61 -81.75,35.68 -161.13,148.44 -192.7,244.14 -83.41,252.88 27.28,560.28 208.91,634z"/>
   <path class="fil28" d="M3261.69 2757.11l4.22 -8.67c8.44,-202.35 2.18,-80.52 -138.7,-120.19 -23.39,-40.94 -19.52,-54.91 -37.37,-91.54 -145.29,26.83 -87.62,141.72 -87.33,143.08 0.74,3.44 3.4,23.66 4.02,26.61l9.5 32.67c109.24,93.37 129.74,40.27 245.65,18.03z"/>
   <path class="fil29" d="M1704.58 3379.79c-1.42,41.44 -7.04,373.97 35.66,385.71 21.34,5.86 68.18,-35.2 83,-55.53 96.31,-132.15 11.85,-195.34 -25.69,-260.26 -31.44,-54.37 -30.52,-46.36 -92.96,-69.92z"/>
   <path class="fil23" d="M3513.19 1502.81l13.03 10.21c1.72,1.11 5.57,3.73 7.59,4.93 2.16,1.29 6.05,3.43 8.45,4.73 3.3,1.81 24.12,11.52 28.46,13.43 85.43,37.68 146.93,42.53 241.97,34.53l8.34 -69.42c-78.68,-20.96 -140.71,-25.92 -190.07,-67.47l-79.14 -46.48c-50.01,-28.15 -33.51,-46.6 -81.36,-51.09 -85.22,-7.99 0.7,-5.48 -40.07,10.21 -38.95,111.32 31.17,44.35 82.81,156.41z"/>
   <path class="fil30" d="M1163.35 3967.7c-48.3,-110.06 -86.8,-260.11 -123.37,-380.58 -27.82,-91.64 -113.33,-308.17 -122.52,-382.28 -5.84,-10.65 -13.91,-33.38 -18.51,-40.61 -22.74,-35.81 1.81,-9.88 -28.91,-32.48 11.07,107.21 87.31,350.33 119.45,464.77 13.89,49.49 79.32,351.49 116.89,378.69 44.57,32.26 56.97,-7.52 56.97,-7.52z"/>
   <path class="fil31" d="M917.46 3204.84c9.19,74.1 94.7,290.63 122.52,382.28 36.58,120.47 75.07,270.52 123.37,380.58 29.66,37.72 20.99,51.54 64.97,65.47 -55.96,-184.04 -260.32,-764.94 -262.18,-909.53 -15.33,18.58 -24.62,3.96 -21.97,77.26 -0.95,0.45 -2.96,-1.05 -3.15,0.02 -7.12,40.4 -7.35,0.16 -7.43,0.17l-16.13 3.76z"/>
   <path class="fil32" d="M1765.83 1679.14c46.73,100.2 107.3,247.92 63.68,356.97 -101.23,17.66 -132.29,-13.81 -125.72,-131.79 4.03,-72.32 29.01,-173.36 62.04,-225.17zm17.69 -90.37c-63.81,55.38 -98.67,169.18 -115.89,274.54 -23.67,144.92 19.23,250.95 171.08,221.77 143.98,-137.13 -47.7,-341.26 -55.2,-496.31z"/>
   <path class="fil33" d="M3261.69 2757.11c-115.91,22.24 -136.4,75.34 -245.65,-18.03l-9.5 -32.67c-0.62,-2.95 -3.28,-23.17 -4.02,-26.61 -0.29,-1.37 -57.96,-116.25 87.33,-143.08 17.85,36.64 13.97,50.61 37.37,91.54 140.88,39.67 147.13,-82.16 138.7,120.19 18.31,-13.52 19.26,4.59 35.54,-43.42 8.95,-26.39 7.04,-54.48 2.42,-81.48 -9.7,-56.69 -34.84,-75.47 -72.91,-102.75 61.07,146.35 -154.57,108.72 -82.12,-2.37l64.52 5.79c-139.98,-164.69 -421.66,186.64 -144.33,289.38 71.07,26.33 154.02,14.16 192.66,-56.49z"/>
   <path class="fil12" d="M4306.81 2917.97c37.88,60.24 64.66,14.17 99.47,64.25 14.03,20.18 21.74,74.88 51.54,115.81 15.99,-42.22 -10.62,-27.61 38.18,18.53 25.1,23.74 30.66,23.63 53.74,47.71 45.67,47.64 47.96,95.84 81.17,132.65 14.72,-33.86 -2.72,-0.77 17.15,-7.44 0.73,-0.24 5.06,-1.73 5.71,-1.95 0.69,-0.23 4.47,-0.71 6.14,-2.09 -31.83,-101.44 -6.11,-28.51 9.39,-56.3 -25.52,-27.78 -24.39,-46.98 -46.93,-80.82 -57.14,-85.79 -138.85,-89.04 -118.15,-225.96 0.28,-1.88 0.89,-6.46 1.07,-8.16l-0.71 -17.04c-98.68,-24.31 -97.28,24.28 -197.76,20.8z"/>
   <path class="fil34" d="M1765.83 1679.14c-33.03,51.81 -58.01,152.86 -62.04,225.17 -6.57,117.98 24.49,149.46 125.72,131.79 43.62,-109.05 -16.95,-256.77 -63.68,-356.97z"/>
   <path class="fil26" d="M4531.12 1377.58c-24.82,0 -16.18,-5.33 -19.22,23.07 10.21,113.57 -8.33,295.48 13.01,379.12l40.24 369.54c0.7,2.21 2.85,6.23 4.57,9.2 22.48,-69.16 26.03,-323.46 7.75,-402.1 -40.65,-174.89 45.9,-40.58 -46.34,-378.83z"/>
   <path class="fil35" d="M5120.95 3735.77c93.7,-41.77 101.2,-297.25 96.92,-380.35 -5.66,-109.85 -44.16,-305.35 -137.75,-335.25 40.33,103.8 70.88,205.4 84.03,335.32 18.63,183.96 -20.46,229.59 -43.2,380.28z"/>
   <path class="fil26" d="M879.14 4120.95c-51.81,-113.36 -69.56,-53.02 -149.79,-306.7 -24.87,-78.64 -62.91,-311.54 -91.53,-357.9 -76.26,110.11 81.09,611.68 241.31,664.6z"/>
   <path class="fil36" d="M3844.5 1567.54l-31.81 3.12c-95.05,8.01 -156.55,3.16 -241.97,-34.53 -4.34,-1.91 -25.16,-11.62 -28.46,-13.43 -2.4,-1.31 -6.29,-3.44 -8.45,-4.73 -2.02,-1.21 -5.87,-3.83 -7.59,-4.93l-13.03 -10.21c-64.47,-29.16 -160.54,-86.02 -113.02,-176.16 71.57,-47.24 129.51,24.71 151.64,60.63l79.14 46.48c-3.57,-38.93 18.59,-42.65 -5.67,-30.88 7.45,-20.8 -121.08,-144.11 -207.06,-117.93 -174.84,53.24 27.7,295 234.41,317.73 77.16,8.49 164.69,14.63 191.87,-35.16z"/>
   <path class="fil13" d="M239.23 566.11c14.96,8.39 3.33,8.83 32.08,9.73 73.86,2.33 13.48,-35.21 95.19,-16.04l11.27 93.27c64.86,-6.76 73.69,-21.48 79.91,-101.51 18.69,-240.64 -244.85,-88.42 -218.46,14.55z"/>
   <path class="fil12" d="M3706.04 2272.35c193.49,43.49 162.31,-210.69 0.33,-184.63 -48.59,69.44 -40.68,113.22 -0.33,184.63z"/>
   <path class="fil26" d="M791.25 2337.79c-3.88,-87.2 -56.99,-434.34 -54.31,-576.92 -86.51,63.22 -23.72,202.32 -23.46,298.95 0.25,95.45 21.87,225.16 77.77,277.98z"/>
   <path class="fil37" d="M2217.82 2980.05c-40.41,49.88 -73.8,157.22 -39.58,213.65 45.39,-26.67 53.78,-129.42 88.01,-182.14 34.07,-52.48 94.11,-117.14 160.53,-89.94 -2.6,-29.63 12.63,-27.47 -13.26,-16.73 -23.31,-31.67 -25.65,-0.3 -74.86,-36.1 -24.48,-17.81 -20.86,-29.36 -47.41,-56.05l12.58 51.67 -86 115.62z"/>
   <path class="fil26" d="M1516.34 4684.46l-54.65 -39.72c-100.57,-51.66 -154.43,-63.11 -224.16,-140.57 -60.94,-67.69 -61.79,-130.11 -118.35,-165.18 17.74,210.36 183.69,326.21 397.17,345.47z"/>
   <path class="fil38" d="M3109.39 4934.49c32.3,-17.8 69.94,-75.28 95.41,-111.05 46.68,-65.55 40.46,-77.13 10.87,-142.91l-95.94 3.32 -10.34 250.64z"/>
   <path class="fil26" d="M5298.88 3594.86c26.28,-16.66 37.22,-11.16 53.49,-89.65 32.67,-157.55 10.41,-268.5 -58.44,-388.66 -20.65,24.64 -26.11,-13.91 0.28,90.92 27.51,109.27 16.56,279.28 4.68,387.38z"/>
   <path class="fil39" d="M2101.2 2816.7c-33.4,56.69 -58.95,75.51 -86.24,154.88 -18,52.37 -43.39,159.88 15.41,181 43.14,-121.91 41.87,-264.37 136.89,-321.81l4.38 -14.82c-40.39,-20.97 -28.02,-11.09 -70.44,0.76z"/>
   <path class="fil39" d="M4284.04 2710.91l1.18 109.68c151.51,-113.84 102.02,-98.45 305.79,-49.45 -20.72,-61.44 -38.27,-75.73 -119.48,-84.07 -77.22,-7.93 -115.41,20.2 -187.49,23.84z"/>
   <path class="fil26" d="M1438.23 4793.3c-2.36,-2.21 -5.91,-9.08 -7.15,-6.54l-36.72 -18.06c-131.58,-46.42 -180.39,-59.71 -268.79,-167.08 -19.12,-23.22 -11.96,-21.98 -34.55,-44.7 -11.49,15.87 -38.29,-14.45 26.86,94.4 33.75,56.4 28.23,59.81 82.05,87.15 47.37,24.07 178.37,78.82 238.31,54.82z"/>
   <path class="fil40" d="M1242.94 3111.68l6.22 91.78c40.14,-17.2 35.37,-29.26 60,-50.32 72.1,-61.62 73.7,-7.04 78.03,-3.52 81.39,14.78 108.05,92.59 108.56,190.48l40.32 2.83c-2.48,-88.37 -23.27,-169.62 -81.21,-212.25 -28.85,-21.23 -65.57,-29.21 -106.41,-19.52 -64.25,15.25 -10.46,32.52 -105.51,0.52z"/>
   <path class="fil41" d="M2698.93 3629.57l-5.89 -13.33c-127.9,-46.45 -149.02,-127.77 -155.78,-281.64l-25.43 7.29c-16.79,73.62 -32.57,145.33 15.57,209.84 34.67,46.47 85.59,83.26 171.53,77.85z"/>
   <path class="fil41" d="M2988.15 3597.92c45.02,13.48 93.72,-30.96 159.73,-41.63 75.56,-12.2 137.32,2.6 210.28,8.31 -36.32,-53 -119.95,-73.69 -193.83,-63.96 -74.76,9.85 -139.63,71.03 -176.19,97.27z"/>
   <path class="fil42" d="M2044.37 2263.91l0.98 6.98c-9.91,90.68 -2.89,174.7 32.63,250.83 28.71,61.54 73.72,117.46 118.31,135.98 -19.57,-55.99 -97.63,-133.87 -114.01,-280.98 -1.69,-15.13 -1.33,-53.02 -3.94,-64.9 -14.89,-67.67 0.8,-33.84 -33.96,-47.91z"/>
   <path class="fil43" d="M634.78 4013.61c-2.6,-87.53 -66.62,-119.29 -82.76,-275.6 -16.22,-157.1 -3.54,-75.98 -31,-109.07 -15.88,88.19 -20.91,135.7 12.32,225.56 24.05,65.06 57.62,137.49 101.45,159.11z"/>
   <path class="fil42" d="M3973.96 2486.84c49.28,-43.19 77.85,-122.39 87.02,-188.99 11.97,-86.89 0.73,-184.46 -40.42,-241.72 7.6,189.76 -3.06,258.06 -46.6,430.71z"/>
   <path class="fil41" d="M3600.62 3532.32c82.77,-2.51 139.11,-48.38 164.81,-106.36 39.21,-88.43 0.11,-163.95 -25.09,-227.85 -14.06,22.17 -11.69,-0.82 -11.84,39.38 -0.15,40.9 50.5,219.78 -127.89,294.84z"/>
   <path class="fil27" d="M2727.8 2370.47l33.36 -71.4c-18.65,-0.23 -19.51,-58.27 -51.79,-95.68l-56.91 1.46c-23.85,59.97 -18.12,77.59 -2.55,126.77 72.81,30.26 50.9,-12.19 77.88,38.84z"/>
   <path class="fil44" d="M914.4 3098.59c59.85,-37.21 178.48,-108.54 263.32,-114.55l-0.4 -58.17 -323.22 145.37 60.31 27.35z"/>
   <path class="fil45" d="M306.64 317.42c72.34,56.47 156.92,-45.66 126.98,-95.99 -34.85,-58.58 -146.15,8.33 -126.98,95.99z"/>
   <path class="fil46" d="M914.4 3098.59c17.41,7.68 47.57,22.91 51.75,25.05l200.04 -91.32c10.6,-27.6 9.98,-19.02 11.53,-48.29 -84.84,6.01 -203.47,77.34 -263.32,114.55z"/>
   <path class="fil35" d="M2727.8 2370.47c-26.98,-51.04 -5.07,-8.58 -77.88,-38.84 -15.57,-49.18 -21.3,-66.8 2.55,-126.77l56.91 -1.46c32.28,37.41 33.13,95.45 51.79,95.68l-6.78 -70.6c-17.35,-68.93 -38.09,-77.49 -118.37,-50.14 -60.97,72 -44.94,229.37 91.78,192.13z"/>
   <path class="fil47" d="M600.83 454.85c11.69,-26.97 65.27,-201.64 -37.14,-148.81 -25.24,13.02 -44.47,53.11 -42.35,90.53 3.15,55.48 28.91,56.61 79.49,58.28z"/>
   <path class="fil48" d="M5274.13 453.82l37.18 -5.22c19.28,-32.24 22.09,-34.9 20.39,-80.04 -6.17,-163.56 -180.79,-10.03 -57.57,85.26z"/>
   <path class="fil39" d="M1837.45 3070.09c0.9,75.21 0.31,165.82 54.57,204.82 11.18,-19.67 11.11,11.18 12.21,-45.35 0.18,-9.32 -4.82,-46.29 -5.66,-60.26 -3.01,-49.98 -0.94,-89.25 3.23,-138.78 -3.86,2.56 -8.23,6.45 -10.93,8.57l-18.91 15.54c-2.39,1.7 -5.79,4.83 -7.97,6.26 -10.39,6.82 -4.19,5.55 -26.55,9.2z"/>
   <path class="fil49" d="M2171.64 2815.94l-4.38 14.82c18.41,14.43 -1.35,6.88 34.53,19.9 0.99,0.36 34.19,7.33 45.73,11.31 -1.34,54.23 5.08,6.08 -27.35,47.73 -63.39,81.41 -8.65,63.62 -2.35,70.34l86 -115.62 -12.58 -51.67c-40.59,-11.98 -82.07,-1.98 -119.59,3.19z"/>
   <path class="fil13" d="M5030.98 346.43c77.38,11.22 133.67,-65.69 90.67,-107.46 -23.14,-22.47 -53.4,-5.27 -74.9,14.21 -9.03,8.18 -21.14,21.29 -25.03,34.3 -15.95,53.42 3.4,47.71 9.26,58.96z"/>
   <path class="fil50" d="M3230.96 2520.79l-17.6 3.43 -64.52 -5.79c-72.46,111.08 143.18,148.72 82.12,2.37z"/>
   <path class="fil9" d="M3513.19 1502.81c-51.63,-112.06 -121.76,-45.08 -82.81,-156.41 40.78,-15.7 -45.14,-18.2 40.07,-10.21 47.85,4.49 31.34,22.94 81.36,51.09 -22.12,-35.92 -80.07,-107.87 -151.64,-60.63 -47.53,90.14 48.55,147 113.02,176.16z"/>
   <path class="fil13" d="M5068.48 544.99c62.94,-3.69 77.27,-51.93 64.51,-119.51 -74.53,4.34 -102.58,65.05 -64.51,119.51z"/>
   <path class="fil51" d="M896.35 3416.38l-83.51 -330.78c-11.55,12.24 -27.98,-5.09 -6.79,71.47 8.26,29.87 16.56,58.28 25.59,88.1 21.79,72 34.29,134.8 64.7,171.21z"/>
   <path class="fil49" d="M4414.44 2512.56c-30.77,-39.68 38.73,-30.28 -28.19,-30.28 -1.66,-1.23 -5.45,-2.59 -5.37,-3.09l10.71 -60.04c-53.43,26.39 -66.86,39.9 -76.6,107.01l99.45 -13.6z"/>
   <path class="fil42" d="M3812.69 1570.65l31.81 -3.12c20.49,-27.92 11.12,-7.27 16.96,-43.6l-40.43 -22.7 -8.34 69.42z"/>
   <path class="fil52" d="M903.75 4439.33c28.33,-19.82 20.28,-82.67 7.8,-117.25l-79.66 -7.51 80.56 22.66 -8.7 102.1z"/>
   <path class="fil53" d="M4511.9 1400.65c3.04,-28.4 -5.6,-23.07 19.22,-23.07 -18.2,-16.63 28.66,-17.01 -32.18,-12.17l12.95 35.25z"/>
  </g>
 </g>
</svg>
