<?xml version="1.0" encoding="UTF-8"?>
<!DOCTYPE svg PUBLIC "-//W3C//DTD SVG 1.1//EN" "http://www.w3.org/Graphics/SVG/1.1/DTD/svg11.dtd">
<!-- Creator: CorelDRAW 2021 (64 Bit) -->
<svg xmlns="http://www.w3.org/2000/svg" xml:space="preserve" width="97.174mm" height="97.5337mm" version="1.1" style="shape-rendering:geometricPrecision; text-rendering:geometricPrecision; image-rendering:optimizeQuality; fill-rule:evenodd; clip-rule:evenodd"
viewBox="0 0 60096.14 60318.59"
 xmlns:xlink="http://www.w3.org/1999/xlink"
 xmlns:xodm="http://www.corel.com/coreldraw/odm/2003">
 <defs>
  <style type="text/css">
   <![CDATA[
    .fil9 {fill:#010522}
    .fil19 {fill:#10223A}
    .fil20 {fill:#191B45}
    .fil29 {fill:#192448}
    .fil21 {fill:#25162B}
    .fil2 {fill:#271946}
    .fil17 {fill:#281738}
    .fil27 {fill:#37153B}
    .fil12 {fill:#381846}
    .fil13 {fill:#391759}
    .fil6 {fill:#43175B}
    .fil23 {fill:#440B37}
    .fil25 {fill:#46153B}
    .fil4 {fill:#52777D}
    .fil0 {fill:#699196}
    .fil5 {fill:#74899B}
    .fil18 {fill:#778BA4}
    .fil15 {fill:#7893A6}
    .fil16 {fill:#B4DEF1}
    .fil14 {fill:#CA3E95}
    .fil11 {fill:#D24E91}
    .fil26 {fill:#E9AAC6}
    .fil31 {fill:#E9E8F5}
    .fil3 {fill:#EDA2AB}
    .fil30 {fill:#F7EBFB}
    .fil22 {fill:#FAFAFA}
    .fil10 {fill:#FAFAFE}
    .fil28 {fill:#FAFDFE}
    .fil7 {fill:#FBF6C3}
    .fil8 {fill:#FBF6D7}
    .fil24 {fill:#FCF6E8}
    .fil1 {fill:#FCFCFA}
   ]]>
  </style>
 </defs>
 <g id="Camada_x0020_1">
  <metadata id="CorelCorpID_0Corel-Layer"/>
  <g id="_2123523459632">
   <path class="fil0" d="M28918.49 38080.6c182.56,-448.68 969.34,-1070.39 1674.24,-1248.07 558.39,-140.76 1425.81,-126.78 1946.47,159.99 532.48,293.33 294.07,164.63 474.09,555.42 -799.7,-132.96 -1384.07,-453.01 -2269.11,-268.28 -794.69,165.8 -1223.77,610.03 -1825.69,800.94zm-6216.85 -2395.95c712.81,1106.57 224.93,1979.62 2062.24,2470.11 47.19,12.62 187.08,44.22 230.43,61.16 264.14,103.16 228.27,118.86 315.22,186.52 -1449.74,601.06 -3311.24,-1210.9 -2607.89,-2717.79zm13062.9 1687.16c1057.9,-880.72 1485.86,288.75 2427.56,-2815.56 1.3,1.92 316.33,67.16 190.11,967.55 -169.82,1211.34 -1184.43,1994.65 -2617.66,1848.02zm1483.14 -2642.22c-877.69,3335.42 -4809.04,-245.4 -8188.81,1450.3 -980.66,491.97 -2735.48,1659.15 -4046.38,1010.28 -2489.71,-1232.3 -792.84,-6064.41 2026.5,-6259.9 1602.44,-111.13 2872.58,979.73 4517.45,545.09 719.24,-190.05 4143.54,-2448.09 5500.58,869.77 298.4,729.63 385.72,1643.13 190.66,2384.45zm-6902.52 -8902.73c2732.32,-945.53 4230.24,3317.74 1290.99,4105.32 -2863.43,767.23 -3702.28,-3270.92 -1290.99,-4105.32zm8659.07 2510.37c-153.19,691.1 -1844.06,805.64 -2573.76,675.83 -1017.08,-180.89 -1571.76,-457.46 -2014.25,-1109.73 2826.88,796.98 782.63,1097.79 4588.01,433.9zm3607.78 -14474.92c602.61,638.29 2834.06,4745.34 528.02,5081.4 -2521.87,367.54 -529.01,-5079.73 -528.02,-5081.4zm-20344.28 4727.34c-429.13,53.99 -873.42,104.33 -1311.28,19.67 -877.32,-169.82 -1012.69,-789.25 119.11,-996.37 1462.24,-267.41 1194.33,-325.36 2326.63,-741.82 592.59,-1037.12 336.24,-78.54 1217.27,-1446.53 1005.95,-1561.99 2846.12,-427.77 187.39,1954.88 -953.57,854.68 -1235.76,836.31 -2539.12,1210.16zm12401.24 -2519.77c-465.93,-550.22 -536.06,-1177.45 -117.44,-1697.49 1110.34,-133.46 1268.91,1104.41 2199.54,1670.59 1239.85,754.19 2167.19,418.13 3076.67,835.82 -50.4,814.17 -267.54,1049.92 -1752.28,905.08 -1198.6,-116.95 -2288.04,-592.71 -3113.65,-1420.31 -139.89,-140.26 -167.78,-145.95 -292.83,-293.7zm-8574.59 -2201.95c88.75,-48.24 -206.99,-217.88 466.3,-131.97l732.17 596.48c293.08,457.77 312.31,1071.94 28.82,1595.82 -176.38,-183.55 -71.86,80.4 -199.32,-302.85l-144.65 -963.59c-205.88,-580.47 -446.45,-483.74 -883.32,-793.89zm7194.05 1719.14c-318.12,-202.04 -256.59,98.15 -307.67,-584.73 -93.69,-1254.5 487.02,-1466.81 1174.04,-1614.5l-368.34 492.22c-612.38,582.38 -452.26,406.56 -498.03,1707.01zm-6483.77 12553.93l259.99 8.29c-302.97,604.77 -232.53,428.14 -660.68,818.5 -252.08,229.94 -355.73,371.99 -641.38,533.59 -569.27,322.02 -1372.93,391.72 -2088.47,374.65 275.27,140.88 221.83,58.38 420.66,135.07l376.75 174.4c-1125.93,60.98 -1192.53,76.01 -2042.45,-356.65 150.03,369.64 -204.95,333.03 26.59,1134.71 115.77,400.56 155.54,23.69 205.69,560.86 106.68,1142.07 234.94,407.37 -199.88,590.98 335.01,1306.64 304.02,2561.39 -518.62,3405 -1016.96,1043.12 -479.17,1002.86 -1454.38,2955.58 -648.56,1298.6 -1884.2,2758.54 -2996.52,3615.45 -395.24,304.52 -933.41,541.69 -1251.66,865.32l-12.06 7007.03c909.85,212.56 5023.64,-271.62 6245.3,-384.92 445.34,-626.79 904.65,-2506.35 2657.37,-4403.59 1193.34,-1291.73 2591.57,-2981.06 4828.03,-2537.89 1687.35,334.33 2328.98,1960.76 2651.62,2312.22l1982.28 -2063.11c1662.86,-1353.02 6013.82,-1875.85 5828.35,4889.19 1122.47,27.95 4021.46,-86.09 4753.57,-605.39l53.31 -5084.8c-1434.84,-129.75 -3125.84,-784.74 -3952.38,-1913.82 -2839.81,-3879.09 -1695.51,-4877.93 -2528.05,-6279.38 -1199.15,-2018.58 -24,-3084.52 565.38,-4209.9 566.24,-1081.28 223.87,-1602.31 23.07,-2652.92 -672.68,289.12 -481.7,447.56 -1462.92,760.74 -2440.85,778.92 -3601.04,-428.83 -4721.22,-1384.31 -335.32,-286.03 -184.85,-28.32 -477.13,-554.62 -6.31,-11.32 -271.74,-572.67 -328.51,-706.81 -236.18,-558.33 -381.39,-1112.14 -405.7,-1743.38 -189.55,-4919.93 5221.17,-6428.05 7501.35,-4022.57 515.59,543.92 945.78,840.15 1339.41,1897.86 551.34,1481.53 223.07,2174.49 37.42,3601.48 363.52,-409.16 972.62,-796.12 1066.56,-1310.97 149.48,-819.43 -291.22,-1645.48 -32.47,-2199.97 378.98,1072.68 471.56,1359.08 371.56,2638.01 804.46,416.46 696.79,599.21 1434.59,634.02 676.02,31.85 403.53,-73.97 1168.97,547.5l321.46 246.63 -180.27 -15193.55 -28653.37 1569.78 -108.35 14642.58 1175.59 -1080.47c642.68,-421.96 1034.71,-106.31 1636.39,51.21 -504.03,-1511.53 -700.88,-1741.52 38.65,-3281.87 -43.23,1400.89 -110.51,1551.41 128.51,2941.17l865.88 -191.65c-1223.83,-7627.02 9088.45,-8158.56 9113.43,-1326.18 11.13,3052.55 -1695.88,3720.22 -2361.26,4576.88z"/>
   <path class="fil1" d="M47070.96 41676.01c-90.29,3457.32 421.16,3668.39 -1177.63,4398.58 91.96,2370.66 -1210.47,2073.01 -5418.88,2413.58l-565.25 3481.56c5698.54,933.1 5046.09,7341.67 -3038.14,4468.34 -576.01,795.99 -728.15,1636.64 -3080.5,1719.51 -1456.18,51.27 -2880.81,-326.16 -4076.68,-841.76 -3250.7,-1401.57 -1835.9,-1407.44 -1508.19,-7042.22 -2051.42,989.56 -4296.91,2677.71 -5675.66,-29.19 -3475.13,-278.67 -5674.73,1434.1 -8711.2,-538.97 -1017.95,-661.36 -2105.41,-1446.22 -2735.6,-2271.15 -833.47,-1090.93 -347.75,-3176.3 -510.77,-4624.5 -3.71,-6.62 -5786.79,-3706.43 -1234.28,-10637.27 336.68,-512.69 503.16,-641.88 865.07,-1044.67 414.85,-461.6 452.51,-554.92 449.98,-1383.08 -3.9,-1277.14 -4.51,-2552.67 -4.02,-3829.99l85.53 -15425.9c19.91,-3529.18 -60.11,-3847.12 3573.09,-4051.45l29313.8 -1480.73c3600.24,-162.53 3192.69,-59.06 3254.16,4209.96 37.42,2595.77 42.42,5190.43 75.94,7786.57l84.97 11312.79c10.33,2454.58 108.41,1338.67 1021.85,2771.84 2243.26,3519.72 3154.72,8135.13 -987.58,10638.13zm-42128.28 -332.6c-776.33,-194.81 -721.59,-959.01 -831.3,-1610.17 -140.39,-833.59 -560.18,-860.74 -695.06,-1798.48 -156.46,-1087.59 155.66,-1168.42 450.04,-1969.91 318.81,-868.04 -119.48,-1081.96 696.05,-1651.17 -55.84,407.24 -180.15,1575.72 -285.72,1888.28 -883.07,2613.77 222.76,1852.22 292.15,3521.08 47.87,1151.72 109.96,772.86 373.85,1620.37zm47673.32 -573.73c112.06,-666.8 174.89,-1223.77 284.3,-1916.11 81.63,-516.64 511.57,-820.73 648,-1531.5 183.37,-955.8 -80.09,-1054.5 -318.37,-1769.29 -157.83,-473.66 -134.02,-1232.11 -280.89,-1800.83 715.6,227.21 498.83,898.47 771.13,1618.39 288.81,763.65 585.48,897.23 414.91,1951.98 -146.57,905.83 -654.86,974.66 -791.97,1682.52 -151.83,783.87 -53.37,1394.76 -727.1,1764.84zm-45262.15 1707.08c-777.38,-262.59 -1220.49,-1091.67 -1388.09,-2106.09 -186.34,-1127.97 -657.21,-1688.96 -757.9,-2609.38 -127.03,-1161.74 420.48,-1603.36 504.34,-2738.14 62.34,-843.36 260.55,-2114.5 1127.04,-2155.26 -566.92,1267.18 -492.96,930.81 -592.03,2577.71 -52.2,866.99 -626.66,1268.97 -419.24,2434.73 160.11,899.7 478.36,1271.7 615.72,2431.33 140.26,1184.06 550.35,1434.1 910.16,2165.09zm42884.69 -557.77c178.42,-757.46 845.16,-1056.17 923.2,-2188.78 110.27,-1599.84 205.75,-1152.46 520.66,-2391.93 342,-1345.78 -293.88,-1624.33 -416.02,-2613.89 -56.34,-457.15 5.75,-908.42 -88.75,-1396.56 -97.4,-502.73 -258.07,-613.06 -309.22,-1037.31 803.17,290.23 860.8,1223.83 1003.85,2282.1 135.99,1005.33 727.16,1427.11 418.56,2777.72 -109.71,480.28 -364.57,843.55 -480.53,1300.27 -182.81,720.36 28.7,2611.91 -1571.76,3268.39zm-1022.77 1478.13c1120.49,357.95 1714.06,576.32 2562.38,-227.46 1054.62,-999.27 2853.17,-336 3379.83,-3223.49 199.26,-1092.47 630,-1548.76 741.82,-2471.03 169.7,-1399.84 -815.04,-4370.69 -1475.16,-5020.24 -348.06,-342.43 -545.15,-345.77 -1075.46,-557.65 -1309.36,-523.08 13.17,-1256.61 -3246.99,-1567.68 -883.87,-1474.42 -919.62,-835.02 -890.18,-3092.56 17.25,-1323.27 -13.98,-2643.7 -29.62,-3966.66l-108.78 -15425.96c-24.92,-2505.11 -377.68,-4534.27 -2727.25,-5063.34 -1541.64,-347.19 -27305.54,1212.2 -29617.39,1318.26 -7481.56,343.23 -8181.69,430.87 -8211.63,7564.92 -21.77,5190.49 -42.42,10382.28 -89.24,15572.78 -13.17,1459.08 222.76,2405.29 -523.57,3362.88 -548,703.04 -1603.86,104.21 -2632.82,885.23 -569.09,431.98 -231.05,713.86 -1025.87,1016.22 -2172.27,826.42 -1346.46,1016.34 -2353.71,3385.77 -485.04,1140.83 -536.8,2244 37.97,3372.47 507.18,995.81 433.28,1921.24 1032.54,2788.17 987.83,1429.03 1559.52,726.48 2519.46,1449.19 1389.88,1046.4 949.18,849.3 2886.81,597.35 262.84,3253.11 -315.53,3226.89 1632,5314.24 874.66,937.37 2558.67,2258.78 4005.5,2894.35 1976.65,868.23 3935.74,496.98 6150.87,269.95 2905.11,-297.78 1255.68,1645.79 5437.37,1236.51 -99.75,1632.74 -184.42,3112.91 751.84,4079.59 660.68,682.08 2119.39,1265.2 3309.64,1680.48 5549.43,1936.33 7559.98,-485.29 8095.17,-547.75 411.63,-47.93 5437.62,1550.8 7420.4,-1888.71 1578.07,-2737.46 -533.47,-5862.86 -2618.28,-6509.06 511.02,-356.72 2093.85,-280.15 3087.49,-514.23 1668.42,-392.96 1969.23,-1850.06 2441.97,-2695.03 611.08,-1092.29 1194.7,-847.94 1132.92,-4017.5z"/>
   <path class="fil2" d="M33206.19 50302.42c1644.92,-803.48 1577.82,-1213.31 2330.77,-1317.27 -114.16,1029.7 -469.02,3480.51 -870.02,4241.99l-1740.9 -433.28 280.15 -2491.44zm-17544.42 -359c-1444.18,-421.53 -2581.3,-1518.08 -3494.55,-2263.73 -1183.81,-966.5 -1090.99,-2511.05 -966.06,-4546.39 2579.63,339.52 1695.57,642.19 4466.49,-21.71l-5.88 6831.83zm12394.5 -3588.18c-175.95,313.67 -71.43,385.53 -71.37,386.15 71.49,1359.27 787.46,72.85 -936.81,2698.43 -488.01,743.12 -1665.76,2097.56 -3002.58,1508.31 -2487.42,-1096.43 2321.25,-7170.79 4644.53,-7663.57 1557.66,-330.43 2591.32,618.19 3048.72,1428.96 1144.23,2028.29 887.58,5634.84 536.87,8056.83 -518.19,199.32 -774.84,215.4 -1094.82,600.32 3696.41,-708.98 6492.24,2755.64 4289.74,3761.53 -2104.86,961.24 -5960.63,-107.42 -7150.69,-1394.02 -185.35,-2309.19 1499.71,-7513.66 -263.58,-9382.95zm5209.35 3154.41c-265.19,-4183.8 -771.13,-3517.25 759.94,-5137.92 483.12,-511.26 1062.48,-1189.2 1902.81,-1473.92 4682.63,-1586.54 3989.98,5471.2 3467.28,8303.28 -260.49,1410.97 -1209.79,375.02 -1817.59,1412.76 1902.38,-216.33 2558.29,-261.35 4097.34,666.86 2282.84,1376.89 1882.03,4456.78 -3921.89,2755.82 -1336.32,-391.66 -711.39,-151.27 -1240.09,-1266.99 -336.06,-709.16 -593.14,-721.28 -1139.97,-1235.02 53.12,-1684.56 1879.62,-7076.98 175.39,-7912.98 -430.87,929.39 814.98,598.09 -713.31,2349.08 -648.93,743.42 -582.69,1148.5 -1569.91,1539.05zm12458.57 -4071.55c187.08,-3184.9 -424.87,-3293.99 717.2,-3545.63 35.44,695.68 31.11,1397.24 35.44,2094.59 6.25,1007.81 102.1,1145.97 -752.64,1451.04zm-29543.36 -11999.81c541.38,286.4 985.17,904.1 1030.07,1144.42 74.46,398.71 -433.59,1518.33 -992.1,2033.43l-37.97 -3177.85zm28325.04 -2864.05c15.77,365.93 -87.08,110.39 207.24,325.98 620.6,-806.01 492.77,-1026.24 758.08,-1534.16l214.72 -285.35c110.33,86.15 330.43,11.32 273.1,654.56l754.49 610.89c42.92,276.19 236.8,342.8 491.23,652.21 569.33,692.47 1141.33,1723.84 1451.41,2540.05 2215.74,5832.8 -2067.25,9477.07 -5772.32,7079.2 -3110.75,-2013.14 -2933.19,-6029.16 -3448.41,-6843.83 -435.38,-688.57 -703.72,-986.35 -440.64,-2063.48 177.24,-726.17 543.42,-1085.17 848.81,-1650.92 1008.24,-1867.68 -278.11,-2803.75 -64.44,-4355.04l856.6 -162.65c27.71,-21.27 74.71,-40.69 91.9,-50.46 974.78,-554.55 -1.05,-593.64 681.27,-497.84 723.08,-664.2 1444.67,-119.23 1623.22,564.51 921.29,728.33 424.31,2981.99 521.1,3515.39l75.88 184.48c1081.22,-1100.39 185.53,-2971.47 -45.15,-4080.7 2268.25,352.7 1292.97,4123.13 921.91,5397.17zm-16086.7 -5530.45c-423.38,1269.16 -1081.71,2093.48 -2011.1,2602.02 -1420.68,777.32 -2316.55,427.46 -3720.71,67.66 -6.62,-1192.53 -5.19,-1767.06 -1390.19,-1857.05 137.97,532.66 120.16,179.1 14.9,447.81 963.9,-30.92 213.11,-27.95 518.56,166.73 854.37,1614.43 -1250.73,2453.28 -296.79,5084.99 320.47,883.93 673.11,1415.91 452.88,2551.06 -244.59,1260.44 -784.24,1008.12 -1211.34,1864.41 -361.04,723.82 -512.75,1542.82 -926.79,2296.32 -4106.8,7473.71 -11716.5,5027.6 -11550.82,-1189.63 82.25,-3086.07 2792.13,-6998 4942.07,-7437.46 -0.68,-0.62 -197.59,-561.11 -1125.43,-163.45 -477.74,204.7 -311.57,304.4 -862.1,530.81l69.76 -21292.65c1518.08,1377.57 1733.79,2020.62 4398.77,3075.74l-0.8 16915.1c-718.5,618.13 -1316.84,809.91 -1043.18,2183.52 168.59,846.15 944.97,1132.48 1021.47,2072.7 73.72,906.57 -12.43,2148.64 -16.76,3090.58 -7.11,1541.02 177.8,1513.63 -824.75,2229.29 -1950.12,1392.23 -3270.86,-291.59 -2774.75,-2325.14 200,-819.68 695.06,-1570.52 1062.48,-2034.6 441.44,-557.77 1143.25,-1201.25 958.02,-1779.19 -455.23,352.08 -1266.44,1155.06 -1607.38,1569.72 -3515.82,4275.7 1439.91,9013.12 4764.45,2562.13 1298.84,-2520.38 -389,-2576.11 -1093.96,-4138.34l-163.89 -171.93c-556.04,-658.45 -1043.8,-1701.32 -433.15,-2453.28 432.47,273.47 116.39,-181.88 369.58,440.39 154.11,378.86 10.95,585.29 573.66,1530.57 354.98,-255.91 142.36,25.11 192.09,-417.69 24.98,-222.64 -1357.35,-4994.2 1741.21,-5395.69l745.71 7.61c353.44,-71.62 667.17,-236.24 1173.49,-168.96 135.81,-269.76 43.23,-117.07 181.57,-318.99 10.02,-14.53 56.96,-21.95 64.63,-62.15 6.86,-36.18 43.11,-32.16 64.38,-48.61 -401.99,-2703.13 302.66,-4515.96 2256.19,-5384.68 3477.79,-1545.85 6490.76,1803.86 5488.02,5350.36zm7094.17 -6110.79c2691.63,-752.27 5482.77,1637.87 4882.82,5097.85 -219.42,1266.01 -216.14,636.37 -890.37,1141.33 -877.69,657.28 362.78,1381.47 -1991,2117.53 -2516.92,787.02 -4466.36,-1297.42 -4935.45,-3245.63 -617.57,-2564.66 1026.86,-4577.99 2934,-5111.08zm-13051.83 13182.39c-887.71,-2511.17 -595.62,-1599.22 -83.43,-3927.83 807.99,271.93 1442.38,597.6 2443.08,524.13 886.84,-65.18 1409.92,-441.19 1983.52,-570.7 665.38,-856.66 2372.39,-1524.33 2361.26,-4576.88 -24.98,-6832.38 -10337.26,-6300.84 -9113.43,1326.18l-865.88 191.65c-239.03,-1389.75 -171.74,-1540.28 -128.51,-2941.17 -739.53,1540.34 -542.68,1770.34 -38.65,3281.87 -601.68,-157.52 -993.71,-473.17 -1636.39,-51.21l-1175.59 1080.47 108.35 -14642.58 28653.37 -1569.78 180.27 15193.55 -321.46 -246.63c-765.44,-621.47 -492.96,-515.65 -1168.97,-547.5 -737.8,-34.82 -630.13,-217.57 -1434.59,-634.02 100,-1278.93 7.42,-1565.33 -371.56,-2638.01 -258.75,554.49 181.94,1380.54 32.47,2199.97 -93.94,514.85 -703.04,901.81 -1066.56,1310.97 185.66,-1426.98 513.92,-2119.95 -37.42,-3601.48 -393.64,-1057.72 -823.82,-1353.95 -1339.41,-1897.86 -2280.18,-2405.48 -7690.9,-897.35 -7501.35,4022.57 24.3,631.24 169.51,1185.05 405.7,1743.38 56.77,134.14 322.21,695.5 328.51,706.81 292.27,526.29 141.81,268.59 477.13,554.62 1120.18,955.49 2280.37,2163.24 4721.22,1384.31 981.21,-313.18 790.24,-471.62 1462.92,-760.74 200.81,1050.6 543.17,1571.64 -23.07,2652.92 -589.37,1125.37 -1764.53,2191.31 -565.38,4209.9 832.54,1401.44 -311.75,2400.28 2528.05,6279.38 826.54,1129.08 2517.54,1784.07 3952.38,1913.82l-53.31 5084.8c-732.11,519.3 -3631.1,633.34 -4753.57,605.39 185.47,-6765.04 -4165.49,-6242.21 -5828.35,-4889.19l-1982.28 2063.11c-322.64,-351.46 -964.27,-1977.89 -2651.62,-2312.22 -2236.46,-443.17 -3634.69,1246.15 -4828.03,2537.89 -1752.72,1897.25 -2212.03,3776.8 -2657.37,4403.59 -1221.66,113.3 -5335.45,597.47 -6245.3,384.92l12.06 -7007.03c318.25,-323.63 856.41,-560.8 1251.66,-865.32 1112.32,-856.91 2347.96,-2316.86 2996.52,-3615.45 975.22,-1952.72 437.42,-1912.46 1454.38,-2955.58 822.65,-843.61 853.63,-2098.36 518.62,-3405zm21969.78 -24482.25l104.76 1614.31c-32.65,-29.62 -75.82,-65.99 -98.21,-88.5l-546.7 -757.65 540.14 -768.16zm-30283.14 945.9c609.97,-396.54 19394.11,-1071.82 22727.61,-1232.18 594.75,-28.63 6839.43,-497.22 7323.42,-214.72 -561.98,683.31 -1346.4,494.69 -2372.7,522.77 -1726,47.19 -6998.19,131.91 -8046.32,581.89l9397.48 -285.97c461.48,158.07 169.58,-182.07 340.7,334.39 -259.68,442.62 -239.09,288.87 -1549.93,367.48 -4661.05,279.35 -24880.27,1643.87 -26051.23,1025.06 1643.87,-315.65 6438.69,-91.1 7507.1,-575.21 -1806.03,-255.85 -7534.81,492.52 -8505.08,122.08 36.92,-24.92 86.64,-47.25 119.36,-60.05l386.03 -135.93c1319.62,-289 13375.83,-184.79 14672.64,-671.19 -2868.32,-276.57 -15349.7,615.35 -15949.1,221.59zm30031.56 1246.34c-3878.48,12.93 -7926.22,435.81 -11823.18,632.11 -3821.45,192.46 -7668.88,346.88 -11503.95,614.91 -1670.59,116.76 -4316.76,555.36 -5727.54,-141.81 -661.05,-326.66 -1483.2,-809.41 -1919.32,-1164.21 -3893.75,-3168.57 515.1,-2624.41 3097.94,-2807.77 7868.7,-558.45 15570.92,-740.7 23363.18,-1174.72 6544.5,-364.51 6527.06,-1233.6 6601.89,1913.2 63.95,2689.47 312.13,20294.74 164.88,21159.01 -902.67,-823.76 -722.89,-1074.66 -806.2,-2498.24 -56.15,-959.88 -37.91,-2069.73 -37.72,-3042.35l-87.14 -12395.36c10.08,-1060.07 105.57,-618.75 -352.02,-1211.09 -229.63,-297.22 -167.78,441.44 -270.2,-1236.07 -131.42,-2153.22 485.78,-1184 625.06,-2192.3 -1706.02,360.05 -13897.43,890.92 -16194.8,893.27 -4273.97,4.27 -13252.02,898.34 -16353.55,683.68 160.92,712.44 1573.62,1749.5 2356,2146.11 1179.73,598.15 2587.98,470.26 3922.76,375.27l21380.65 -1157.96c1107.13,-55.47 3242.6,-614.85 3563.26,604.34zm2891.26 31850.63c4142.3,-2503.01 3230.85,-7118.41 987.58,-10638.13 -913.43,-1433.17 -1011.52,-317.26 -1021.85,-2771.84l-84.97 -11312.79c-33.52,-2596.14 -38.53,-5190.8 -75.94,-7786.57 -61.47,-4269.02 346.08,-4372.48 -3254.16,-4209.96l-29313.8 1480.73c-3633.2,204.33 -3553.18,522.27 -3573.09,4051.45l-85.53 15425.9c-0.49,1277.32 0.12,2552.85 4.02,3829.99 2.54,828.15 -35.13,921.47 -449.98,1383.08 -361.91,402.79 -528.39,531.98 -865.07,1044.67 -4552.51,6930.84 1230.57,10630.65 1234.28,10637.27 163.02,1448.2 -322.7,3533.57 510.77,4624.5 630.19,824.94 1717.65,1609.8 2735.6,2271.15 3036.47,1973.07 5236.07,260.3 8711.2,538.97 1378.75,2706.91 3624.23,1018.75 5675.66,29.19 -327.71,5634.78 -1742.51,5640.65 1508.19,7042.22 1195.87,515.59 2620.51,893.03 4076.68,841.76 2352.35,-82.87 2504.49,-923.51 3080.5,-1719.51 8084.23,2873.33 8736.68,-3535.24 3038.14,-4468.34l565.25 -3481.56c4208.41,-340.57 5510.84,-42.92 5418.88,-2413.58 1598.79,-730.19 1087.34,-941.26 1177.63,-4398.58z"/>
   <path class="fil3" d="M19190.89 25676.82c-193.39,371.56 -387.02,523.76 -588.63,923.76 -822.89,1632.55 -449.05,2350.25 -683,3310.62 -310.27,-159.37 -114.53,366.98 -353.19,-416.52 -394.63,-1295.26 713.68,-3279.76 879.11,-3825.47 -3098.56,401.49 -1716.23,5173.05 -1741.21,5395.69 -49.72,442.8 162.9,161.78 -192.09,417.69l-362.4 70.56 16.2 583.68c704.96,1562.24 2392.8,1617.96 1093.96,4138.34 -3324.54,6450.99 -8280.27,1713.57 -4764.45,-2562.13 340.95,-414.66 1152.15,-1217.64 1607.38,-1569.72 123.63,-1309.48 -59.56,-1974.06 -862.72,-2502.7 -2149.94,439.46 -4859.81,4351.39 -4942.07,7437.46 -165.68,6217.22 7444.02,8663.33 11550.82,1189.63 414.04,-753.51 565.75,-1572.5 926.79,-2296.32 427.09,-856.29 966.74,-603.97 1211.34,-1864.41 220.23,-1135.14 -132.41,-1667.12 -452.88,-2551.06 -953.94,-2631.7 1151.16,-3470.55 296.79,-5084.99 -1280.66,-34.26 -1853.34,1396.99 -2030.02,2507.4l-265.31 1228.59c-814.05,-1197.98 133.64,-2843.95 886.41,-3852.81 196.17,-262.96 76.19,115.34 246.76,-439.34 -171.12,-274.15 -75.51,-162.22 -304.09,-406.93 -506.32,-67.29 -820.05,97.34 -1173.49,168.96z"/>
   <path class="fil4" d="M13497.23 13434.65c340.08,434.27 690.73,1852.22 876.02,2785.57 612.87,3087.12 -3022.49,2766.83 -2049.01,-320.6 343.6,-1089.75 726.54,-1719.69 1172.99,-2464.97zm-257.39 16205.99c803.17,528.64 986.35,1193.22 862.72,2502.7 185.22,577.93 -516.58,1221.42 -958.02,1779.19 -367.41,464.08 -862.47,1214.92 -1062.48,2034.6 -496.11,2033.55 824.63,3717.37 2774.75,2325.14 1002.55,-715.66 817.64,-688.26 824.75,-2229.29 4.33,-941.94 90.48,-2184.02 16.76,-3090.58 -76.5,-940.21 -852.89,-1226.55 -1021.47,-2072.7 -273.66,-1373.61 324.68,-1565.39 1043.18,-2183.52l0.8 -16915.1c-2664.98,-1055.12 -2880.69,-1698.17 -4398.77,-3075.74l-69.76 21292.65c550.53,-226.41 384.36,-326.1 862.1,-530.81 927.84,-397.66 1124.75,162.83 1125.43,163.45z"/>
   <path class="fil3" d="M43032.12 25557.9l-948.07 -196.04c18.49,686.47 99.69,267.29 -112.18,864.7 85.34,525.12 288.19,1025.49 324.62,1596.44 16.51,259.5 8.29,714.98 -59,959.07 -115.9,420.72 -241.69,440.02 -371.37,547.75 -197.65,-430.25 -69.95,-601.18 -56.09,-1065.07 11.87,-394.81 -40.01,-728.89 -145.89,-1110.04 -249.79,-898.78 -429.13,-1325.31 -1028.4,-1613.01l-856.6 162.65c-213.67,1551.29 1072.68,2487.36 64.44,4355.04 -305.38,565.75 -671.56,924.75 -848.81,1650.92 -263.08,1077.13 5.26,1374.91 440.64,2063.48 515.22,814.67 337.67,4830.68 3448.41,6843.83 3705.06,2397.87 7988.06,-1246.4 5772.32,-7079.2 -310.09,-816.22 -882.08,-1847.58 -1451.41,-2540.05 -254.43,-309.4 -448.31,-376.01 -491.23,-652.21 -389.25,239.58 -820.92,929.88 -903.23,1446.28 -432.29,2713.15 1099.34,3522.32 334.7,5434.71 22.7,13.05 65.68,19.17 75.7,20.9 9.21,1.55 60.42,15.21 71,16.51 9.09,1.11 53.68,7.36 62.52,7.85 7.3,0.37 45.64,-1.86 51.83,-2.04 12.43,-0.25 61.41,-34.82 95.18,-43.23 -456.47,1341.76 -2136.7,965.32 -3101.16,-943.12 -1616.54,-3198.81 -326.84,-2692.62 188.44,-3649.16 64.75,-205.2 85.22,-203.84 150.84,-296.48 17.56,-24.86 48.24,-57.82 67.84,-82.56 508.36,-643.55 602.85,-513.12 556.9,-877.56l-206.43 -762.23c201.3,-201.67 -311.32,-469.21 348.24,-41.81 371.06,-1274.05 1346.34,-5044.48 -921.91,-5397.17 230.68,1109.23 1126.36,2980.32 45.15,4080.7l-75.88 -184.48c-96.79,-533.4 400.19,-2787.05 -521.1,-3515.39z"/>
   <path class="fil3" d="M28056.27 46355.24c1763.29,1869.29 78.23,7073.76 263.58,9382.95 1190.06,1286.6 5045.84,2355.26 7150.69,1394.02 2202.51,-1005.89 -593.33,-4470.51 -4289.74,-3761.53 319.98,-384.92 576.63,-401 1094.82,-600.32 350.72,-2421.99 607.37,-6028.54 -536.87,-8056.83 -457.4,-810.77 -1491.06,-1759.4 -3048.72,-1428.96 -2323.29,492.77 -7131.96,6567.14 -4644.53,7663.57 1336.82,589.25 2514.57,-765.19 3002.58,-1508.31 1724.27,-2625.58 1008.3,-1339.17 936.81,-2698.43 -0.06,-0.62 -104.58,-72.48 71.37,-386.15z"/>
   <path class="fil5" d="M44179.7 9825.38c-320.66,-1219.19 -2456.13,-659.81 -3563.26,-604.34l-21380.65 1157.96c-1334.78,94.99 -2743.02,222.89 -3922.76,-375.27 -782.39,-396.6 -2195.09,-1433.66 -2356,-2146.11 3101.53,214.66 12079.59,-679.42 16353.55,-683.68 2297.38,-2.35 14488.78,-533.22 16194.8,-893.27 -139.27,1008.3 -756.47,39.09 -625.06,2192.3 102.41,1677.51 40.57,938.85 270.2,1236.07 457.58,592.34 362.1,151.02 352.02,1211.09l87.14 12395.36c-0.19,972.62 -18.43,2082.47 37.72,3042.35 83.3,1423.58 -96.48,1674.48 806.2,2498.24 147.25,-864.27 -100.93,-18469.54 -164.88,-21159.01 -74.83,-3146.8 -57.39,-2277.71 -6601.89,-1913.2 -7792.26,434.02 -15494.48,616.27 -23363.18,1174.72 -2582.85,183.37 -6991.69,-360.8 -3097.94,2807.77 436.12,354.8 1258.27,837.55 1919.32,1164.21 1410.78,697.17 4056.96,258.57 5727.54,141.81 3835.06,-268.03 7682.49,-422.46 11503.95,-614.91 3896.97,-196.29 7944.71,-619.18 11823.18,-632.11z"/>
   <path class="fil3" d="M33265.62 49509.65c987.21,-390.54 920.98,-795.62 1569.91,-1539.05 1528.29,-1750.98 282.44,-1419.69 713.31,-2349.08 1704.23,836.01 -122.27,6228.42 -175.39,7912.98 546.82,513.74 803.91,525.86 1139.97,1235.02 528.7,1115.72 -96.23,875.34 1240.09,1266.99 5803.92,1700.95 6204.73,-1378.93 3921.89,-2755.82 -1539.05,-928.21 -2194.96,-883.19 -4097.34,-666.86 607.8,-1037.74 1557.1,-1.79 1817.59,-1412.76 522.7,-2832.08 1215.36,-9889.82 -3467.28,-8303.28 -840.33,284.73 -1419.69,962.66 -1902.81,1473.92 -1531.07,1620.68 -1025.12,954.13 -759.94,5137.92z"/>
   <path class="fil6" d="M24671.3 36198.69c-95.43,-1054.87 867.92,-1632 1764.03,-1908.32 996.3,-307.18 2040.97,-74.77 2943.15,281.39 189.92,-296.05 -153.93,-75.76 7.79,-394.5 222.27,-438.1 2741.23,-585.78 3654.72,981.09 -2028.48,-316.89 -2880.25,-201.24 -4522.08,618.62 -1144.54,571.56 -2808.02,1619.81 -3847.61,421.71zm12576.38 -1469.1c195.06,-741.32 107.73,-1654.82 -190.66,-2384.45 -1357.04,-3317.86 -4781.33,-1059.82 -5500.58,-869.77 -1644.86,434.64 -2915.01,-656.23 -4517.45,-545.09 -2819.34,195.49 -4516.21,5027.6 -2026.5,6259.9 1310.9,648.87 3065.72,-518.31 4046.38,-1010.28 3379.77,-1695.7 7311.12,1885.12 8188.81,-1450.3z"/>
   <path class="fil7" d="M34073.67 22559.03c1644.43,-348.61 1451.6,1210.16 785.23,1501.94 -896.49,392.52 -1527.6,-529.07 -785.23,-1501.94zm1439.66 -3626.03c-1907.14,533.09 -3551.57,2546.42 -2934,5111.08 469.09,1948.2 2418.53,4032.65 4935.45,3245.63 2353.78,-736.07 1113.31,-1460.26 1991,-2117.53 674.22,-504.96 670.94,124.68 890.37,-1141.33 599.95,-3459.98 -2191.19,-5850.12 -4882.82,-5097.85z"/>
   <path class="fil7" d="M26333.6 22972.08c1078.74,-621.78 1568.67,1003.23 676.2,1461.31 -788.51,404.77 -1782.4,-823.7 -676.2,-1461.31zm-3402.46 -3278.65c-1953.52,868.72 -2658.17,2681.55 -2256.19,5384.68 473.11,361.79 393.7,259.13 622.21,778.3 1384.99,89.98 1383.57,664.51 1390.19,1857.05 1404.16,359.81 2300.03,709.66 3720.71,-67.66 929.39,-508.54 1587.72,-1332.86 2011.1,-2602.02 -429.26,-938.6 272.61,-3041.91 -1341.52,-4330.92 -150.9,-120.53 -237.98,-210.45 -389.06,-336.86 -1278.13,-1069.9 -3320.33,-562.16 -3757.45,-682.57z"/>
   <path class="fil8" d="M14148.14 8579.04c599.39,393.76 13080.78,-498.15 15949.1,-221.59 -1296.8,486.4 -13353.01,382.19 -14672.64,671.19l-386.03 135.93c-32.72,12.8 -82.44,35.13 -119.36,60.05 970.27,370.44 6699.05,-377.93 8505.08,-122.08 -1068.41,484.11 -5863.23,259.56 -7507.1,575.21 1170.95,618.81 21390.18,-745.71 26051.23,-1025.06 1310.84,-78.6 1290.25,75.14 1549.93,-367.48 -171.12,-516.46 120.78,-176.32 -340.7,-334.39l-9397.48 285.97c1048.13,-449.98 6320.32,-534.7 8046.32,-581.89 1026.3,-28.08 1810.73,160.55 2372.7,-522.77 -483.99,-282.5 -6728.67,186.09 -7323.42,214.72 -3333.51,160.36 -22117.65,835.63 -22727.61,1232.18z"/>
   <path class="fil9" d="M54266.86 7779.09c-130.86,-556.78 83.98,-927.66 847.82,-1241.52 1403.48,-576.69 2006.89,1329.77 1148.93,2067.5 -647.94,-267.91 -294.69,-666.99 -710.28,-928.03 -333.03,-209.22 -696.55,150.47 -1286.48,102.04zm3612.79 -958.64c-1672.63,-252.32 -225.61,-3124.29 351.52,-1531.13 219.11,604.96 83.37,1187.28 -351.52,1531.13zm-1983.64 -2718.47c324.06,973.61 -878.43,1782.65 -1382.89,1238.36 -372.79,-402.29 397.35,-1631.5 1382.89,-1238.36zm-4503.1 7800.18c2149.82,-1758.78 4163.08,-1168.42 6151.24,-2627.81 1411.9,-1036.26 2903.51,-4502.17 931.24,-6138.81 -2180.18,-1809.12 -4588.44,-100.74 -5296.74,1916.05 -819.49,2333.24 1020.55,3517.55 -831.43,5487.22 -538.47,572.74 -612.75,487.7 -954.31,1363.35z"/>
   <path class="fil9" d="M3180.88 3959.99c379.35,-55.1 563.46,-15.03 601.31,514.66 40.32,564.51 -192.09,631.18 -554.24,708.3 -477.62,-420.97 -463.95,-769.83 -47.06,-1222.96zm1524.82 -350.41c-497.35,25.11 -708.24,40.38 -870.89,-357.15 -295.12,-721.16 93.26,-901.75 108.23,-958.27l657.15 190.85c112.68,353.44 179.22,660.06 105.51,1124.57zm-2899.43 73.84c-205.75,-835.94 -19.23,-1318.7 825.24,-1255.92 259.13,714.91 86.27,1404.54 -825.24,1255.92zm4282.19 6855.51c-167.78,-290.73 -45.15,-97.28 -217.2,-318.12 -37.79,-48.42 -171.12,-202.54 -218.56,-256.59 -1589.94,-1808.07 -439.09,-3483.35 -91.16,-5377.01 470.32,-2559.35 -1589.76,-4964.14 -3659.8,-3354.16 -1571.76,1222.34 -1581.66,4504.15 -104.21,5545.1 1010.78,712.13 1432.43,690.8 1973.19,1991.62 511.02,1229.46 762.66,1609.24 2317.72,1769.17z"/>
   <path class="fil4" d="M15661.77 49943.42l5.88 -6831.83c-2770.91,663.89 -1886.86,361.23 -4466.49,21.71 -124.92,2035.34 -217.75,3579.89 966.06,4546.39 913.25,745.65 2050.37,1842.2 3494.55,2263.73z"/>
   <path class="fil10" d="M51392.92 11902.16c341.56,-875.65 415.84,-790.61 954.31,-1363.35 1851.98,-1969.66 11.94,-3153.97 831.43,-5487.22 708.3,-2016.79 3116.56,-3725.16 5296.74,-1916.05 1972.26,1636.64 480.65,5102.55 -931.24,6138.81 -1988.16,1459.39 -4001.42,869.03 -6151.24,2627.81zm-565.07 1376.46c673.85,-218.49 852.27,-1482.58 3370.18,-2074.43 1965.15,-461.91 2435.35,-237.67 3832.03,-1442.45 845.78,-729.51 1718.89,-1724.45 1986.36,-3305.31 884.92,-5230.57 -5855.19,-6851.49 -7591.95,-1281.59 -615.78,1974.74 669.46,3094.42 -197.71,4502.36 -370.07,600.81 -2359.34,2212.59 -1398.91,3601.41z"/>
   <path class="fil10" d="M6088.46 10538.93c-1555.06,-159.93 -1806.71,-539.71 -2317.72,-1769.17 -540.76,-1300.82 -962.41,-1279.49 -1973.19,-1991.62 -1477.45,-1040.96 -1467.55,-4322.76 104.21,-5545.1 2070.04,-1609.98 4130.12,794.82 3659.8,3354.16 -347.93,1893.66 -1498.79,3568.95 91.16,5377.01 47.43,54.05 180.77,208.17 218.56,256.59 172.05,220.84 49.41,27.4 217.2,318.12zm516.4 538.91c188.69,-1483.14 -1320.8,-1267.98 -1037.12,-3671.98 155.35,-1316.35 852.52,-2345.8 776.2,-3825.23 -149.41,-2894.23 -2836.28,-4689.31 -5049.24,-2808.76 -1786.24,1517.9 -1698.42,5218.94 104.33,6553.28 530.62,392.71 995.69,591.54 1340.09,1008.18 511.02,618.25 1046.03,3306.05 3865.74,2744.51z"/>
   <path class="fil11" d="M29378.49 34571.76c-902.18,-356.16 -1946.84,-588.57 -2943.15,-281.39 -896.12,276.32 -1859.46,853.45 -1764.03,1908.32 1039.6,1198.1 2703.07,149.85 3847.61,-421.71 1641.83,-819.86 2493.61,-935.51 4522.08,-618.62 -913.5,-1566.88 -3432.46,-1419.19 -3654.72,-981.09 -161.72,318.74 182.13,98.46 -7.79,394.5z"/>
   <path class="fil12" d="M45203.58 32261.77l-31.17 4968.47c-948.99,-374.77 -1372.62,-1285.05 -1698.05,-2509.25 -280.03,-1053.2 132.59,-1182.08 1254.19,-2131.76 396.6,-335.87 -120.97,-44.22 475.02,-327.46zm-1615.11 373.1c-515.28,956.54 -1804.97,450.35 -188.44,3649.16 964.45,1908.44 2644.69,2284.88 3101.16,943.12 -33.77,8.41 -82.75,42.98 -95.18,43.23 -6.18,0.19 -44.53,2.41 -51.83,2.04 -8.84,-0.49 -53.43,-6.74 -62.52,-7.85 -10.58,-1.3 -61.78,-14.97 -71,-16.51 -10.02,-1.73 -53,-7.85 -75.7,-20.9 764.64,-1912.4 -766.99,-2721.56 -334.7,-5434.71 82.31,-516.4 513.98,-1206.7 903.23,-1446.28l-754.49 -610.89c-206.68,1100.76 -1701.39,2580.56 -2370.54,2899.61z"/>
   <path class="fil13" d="M39827.75 16878.79c-909.48,-417.69 -1836.82,-81.63 -3076.67,-835.82 -930.63,-566.18 -1089.19,-1804.05 -2199.54,-1670.59 -418.62,520.04 -348.49,1147.27 117.44,1697.49 125.05,147.74 152.94,153.43 292.83,293.7 825.62,827.59 1915.06,1303.36 3113.65,1420.31 1484.75,144.84 1701.88,-90.91 1752.28,-905.08z"/>
   <path class="fil14" d="M31152.97 26664.35c335.87,-340.57 1298.72,161.29 1066.87,640.21 -214.6,443.42 -1195.94,537.61 -1066.87,-640.21zm-613.92 -361.79c-2080.61,680.22 -1143.18,3790.78 1131.87,3089.04 1949.57,-601.37 1112.76,-3822.82 -1131.87,-3089.04z"/>
   <path class="fil1" d="M33206.19 50302.42l-280.15 2491.44 1740.9 433.28c401,-761.48 755.86,-3212.29 870.02,-4241.99 -752.95,103.96 -685.85,513.8 -2330.77,1317.27z"/>
   <path class="fil13" d="M23402.21 16871.13c-211.32,458.14 -906.63,848.87 -1409.11,1084.68l-526.17 181.33c-32.65,11.5 -78.97,27.15 -108.1,38.03 -28.45,10.64 -79.28,36.49 -102.04,45.58 -22.57,9.03 -69.14,27.95 -99.69,48.86 542.87,91.96 623.82,-68.83 1110.65,320.04 1303.36,-373.85 1585.55,-355.48 2539.12,-1210.16 2658.73,-2382.66 818.57,-3516.87 -187.39,-1954.88 -881.03,1367.99 -624.68,409.41 -1217.27,1446.53z"/>
   <path class="fil15" d="M45203.58 32261.77c-595.99,283.24 -78.42,-8.41 -475.02,327.46 -1121.6,949.67 -1534.22,1078.56 -1254.19,2131.76 325.42,1224.2 749.05,2134.48 1698.05,2509.25l31.17 -4968.47z"/>
   <path class="fil2" d="M30539.05 26302.56c2244.62,-733.78 3081.43,2487.67 1131.87,3089.04 -2275.05,701.74 -3212.48,-2408.82 -1131.87,-3089.04zm-193.88 -475.7c-2411.29,834.4 -1572.44,4872.55 1290.99,4105.32 2939.25,-787.58 1441.33,-5050.85 -1290.99,-4105.32z"/>
   <path class="fil16" d="M6406.28 18223.77c-313.36,-685.48 65.37,-4.14 -227.4,-362.03 -553.87,-677.07 -3395.6,-1924.33 -4144.53,-616.34 -1129.95,1973.31 3355.71,938.73 4371.93,978.37z"/>
   <path class="fil16" d="M50669.41 18126.68c511.32,-95.18 741.69,-261.48 1327.42,-298.58 613.55,-38.78 1015.85,111.38 1622.29,33.09 2367.88,-305.82 1447.52,-3101.65 -1340.16,-1372.81 -617.26,382.81 -1350.17,959.82 -1609.55,1638.31z"/>
   <path class="fil17" d="M50238.54 41919c1600.46,-656.47 1388.95,-2548.03 1571.76,-3268.39 115.96,-456.72 370.82,-819.99 480.53,-1300.27 308.6,-1350.61 -282.56,-1772.38 -418.56,-2777.72 -143.04,-1058.27 -200.68,-1991.87 -1003.85,-2282.1 51.14,424.25 211.82,534.58 309.22,1037.31 94.5,488.13 32.41,939.41 88.75,1396.56 122.14,989.56 758.02,1268.11 416.02,2613.89 -314.91,1239.47 -410.4,792.1 -520.66,2391.93 -78.05,1132.61 -744.79,1431.31 -923.2,2188.78z"/>
   <path class="fil17" d="M7353.85 42476.77c-359.81,-730.99 -769.89,-981.03 -910.16,-2165.09 -137.36,-1159.63 -455.6,-1531.62 -615.72,-2431.33 -207.42,-1165.76 367.04,-1567.74 419.24,-2434.73 99.07,-1646.9 25.11,-1310.53 592.03,-2577.71 -866.49,40.76 -1064.7,1311.89 -1127.04,2155.26 -83.86,1134.77 -631.36,1576.4 -504.34,2738.14 100.68,920.42 571.56,1481.41 757.9,2609.38 167.6,1014.42 610.71,1843.5 1388.09,2106.09z"/>
   <path class="fil18" d="M22461.5 32115.39c434.82,-183.61 306.56,551.09 199.88,-590.98 -50.16,-537.18 -89.92,-160.3 -205.69,-560.86 -231.54,-801.68 123.44,-765.07 -26.59,-1134.71 849.92,432.66 916.53,417.63 2042.45,356.65l-376.75 -174.4c-198.83,-76.69 -145.39,5.81 -420.66,-135.07 -587.15,-74.46 -930.63,-130.06 -1284.25,-603.97 2549.2,466.06 2940.24,-22.82 4674.78,-1122.78l-259.99 -8.29c-573.6,129.5 -1096.68,505.51 -1983.52,570.7 -1000.7,73.47 -1635.09,-252.2 -2443.08,-524.13 -512.19,2328.61 -804.28,1416.66 83.43,3927.83z"/>
   <path class="fil19" d="M43436.58 18375.6c-1948.64,995.44 -826.98,-3085.14 -771.01,-3433.14l861.36 1526.74c247.44,734.95 283.49,1348.26 -90.35,1906.4zm-824.56 -4513.3c-0.99,1.67 -1993.85,5448.94 528.02,5081.4 2306.03,-336.06 74.58,-4443.11 -528.02,-5081.4z"/>
   <path class="fil16" d="M2716.99 24233.02c1101.44,289.43 1478.69,-245.33 1955.38,-841.32 893.52,-1116.9 1187.96,-1084.74 1443.44,-1651.73 -1775.6,172.73 -3840.01,586.84 -3398.81,2493.05z"/>
   <path class="fil16" d="M52184.52 21913.93c691.6,480.16 1430.02,1607.07 2784.7,1138.17 366.3,-2020.25 -1898.79,-2072.14 -3713.17,-1857.11l928.46 718.93z"/>
   <path class="fil20" d="M13364.95 17892.35c-1388.58,-523.57 -488.01,-2756.94 107.11,-3525.16 414.54,1171.08 1010.96,2905.61 -107.11,3525.16zm132.28 -4457.7c-446.45,745.28 -829.39,1375.22 -1172.99,2464.97 -973.48,3087.43 2661.88,3407.72 2049.01,320.6 -185.28,-933.35 -535.94,-2351.3 -876.02,-2785.57z"/>
   <path class="fil16" d="M43436.58 18375.6c373.85,-558.14 337.79,-1171.45 90.35,-1906.4l-861.36 -1526.74c-55.97,348 -1177.63,4428.58 771.01,3433.14z"/>
   <path class="fil21" d="M52616 40769.69c673.73,-370.07 575.27,-980.97 727.1,-1764.84 137.11,-707.86 645.4,-776.7 791.97,-1682.52 170.57,-1054.75 -126.1,-1188.33 -414.91,-1951.98 -272.3,-719.92 -55.54,-1391.18 -771.13,-1618.39 146.88,568.72 123.07,1327.17 280.89,1800.83 238.28,714.79 501.74,813.49 318.37,1769.29 -136.43,710.77 -566.37,1014.86 -648,1531.5 -109.4,692.34 -172.24,1249.31 -284.3,1916.11z"/>
   <path class="fil17" d="M4942.68 41343.42c-263.89,-847.51 -325.98,-468.65 -373.85,-1620.37 -69.39,-1668.86 -1175.22,-907.31 -292.15,-3521.08 105.57,-312.56 229.87,-1481.04 285.72,-1888.28 -815.53,569.21 -377.25,783.13 -696.05,1651.17 -294.38,801.5 -606.5,882.33 -450.04,1969.91 134.88,937.74 554.68,964.89 695.06,1798.48 109.71,651.15 54.98,1415.36 831.3,1610.17z"/>
   <path class="fil16" d="M13364.95 17892.35c1118.07,-619.55 521.65,-2354.09 107.11,-3525.16 -595.12,768.22 -1495.69,3001.59 -107.11,3525.16z"/>
   <path class="fil22" d="M54266.86 7779.09c589.93,48.42 953.45,-311.26 1286.48,-102.04 415.59,261.04 62.34,660.12 710.28,928.03 857.96,-737.74 254.55,-2644.2 -1148.93,-2067.5 -763.83,313.86 -978.68,684.74 -847.82,1241.52z"/>
   <path class="fil23" d="M20364.37 25507.87c228.57,244.72 132.96,132.78 304.09,406.93 -170.57,554.68 -50.59,176.38 -246.76,439.34 -752.76,1008.86 -1700.46,2654.83 -886.41,3852.81l265.31 -1228.59c176.69,-1110.41 749.36,-2541.66 2030.02,-2507.4 -305.45,-194.68 445.34,-197.65 -518.56,-166.73 105.26,-268.71 123.07,84.85 -14.9,-447.81 -228.51,-519.18 -149.11,-416.52 -622.21,-778.3 -21.27,16.45 -57.51,12.43 -64.38,48.61 -7.67,40.2 -54.61,47.62 -64.63,62.15 -138.34,201.92 -45.76,49.23 -181.57,318.99z"/>
   <path class="fil24" d="M22931.14 19693.43c437.11,120.41 2479.32,-387.33 3757.45,682.57 151.08,126.41 238.16,216.33 389.06,336.86 1614.12,1289.01 912.26,3392.32 1341.52,4330.92 1002.74,-3546.5 -2010.23,-6896.21 -5488.02,-5350.36z"/>
   <path class="fil18" d="M45724.19 45438.1c854.74,-305.08 758.89,-443.23 752.64,-1451.04 -4.33,-697.35 0,-1398.91 -35.44,-2094.59 -1142.07,251.64 -530.13,360.74 -717.2,3545.63z"/>
   <path class="fil23" d="M40635.74 25541.69c599.27,287.7 778.61,714.23 1028.4,1613.01 105.88,381.14 157.76,715.22 145.89,1110.04 -13.85,463.89 -141.56,634.83 56.09,1065.07 129.69,-107.73 255.48,-127.03 371.37,-547.75 67.29,-244.1 75.51,-699.58 59,-959.07 -36.43,-570.94 -239.27,-1071.32 -324.62,-1596.44 -298.64,-474.47 -486.83,-657.34 -562.96,-1233.17 -682.32,-95.8 293.51,-56.71 -681.27,497.84 -17.19,9.77 -64.19,29.19 -91.9,50.46z"/>
   <path class="fil25" d="M19190.89 25676.82l-745.71 -7.61c-165.43,545.71 -1273.74,2530.22 -879.11,3825.47 238.66,783.5 42.92,257.15 353.19,416.52 233.96,-960.37 -139.89,-1678.07 683,-3310.62 201.61,-400.01 395.24,-552.2 588.63,-923.76z"/>
   <path class="fil26" d="M44505.86 30574.24c-659.56,-427.4 -146.94,-159.87 -348.24,41.81l206.43 762.23c45.95,364.45 -48.55,234.02 -556.9,877.56 -19.6,24.74 -50.28,57.7 -67.84,82.56 -65.62,92.64 -86.09,91.28 -150.84,296.48 669.15,-319.05 2163.85,-1798.85 2370.54,-2899.61 57.33,-643.24 -162.77,-568.41 -273.1,-654.56l-214.72 285.35c-265.31,507.92 -137.48,728.15 -758.08,1534.16 -294.31,-215.59 -191.47,39.95 -207.24,-325.98z"/>
   <path class="fil27" d="M34073.67 22559.03c-742.37,972.87 -111.26,1894.46 785.23,1501.94 666.37,-291.78 859.2,-1850.55 -785.23,-1501.94z"/>
   <path class="fil17" d="M26333.6 22972.08c-1106.2,637.61 -112.31,1866.08 676.2,1461.31 892.47,-458.08 402.54,-2083.09 -676.2,-1461.31z"/>
   <path class="fil18" d="M16218.8 36616.13c558.51,-515.1 1066.56,-1634.72 992.1,-2033.43 -44.9,-240.33 -488.69,-858.02 -1030.07,-1144.42l37.97 3177.85z"/>
   <path class="fil2" d="M22267.74 18589.64c-486.83,-388.87 -567.79,-228.08 -1110.65,-320.04 30.55,-20.9 77.12,-39.83 99.69,-48.86 22.76,-9.09 73.59,-34.94 102.04,-45.58 29.13,-10.88 75.45,-26.53 108.1,-38.03l526.17 -181.33c502.48,-235.81 1197.79,-626.54 1409.11,-1084.68 -1132.3,416.46 -864.39,474.4 -2326.63,741.82 -1131.8,207.12 -996.43,826.54 -119.11,996.37 437.85,84.66 882.14,34.32 1311.28,-19.67z"/>
   <path class="fil28" d="M57879.66 6820.45c434.89,-343.85 570.63,-926.17 351.52,-1531.13 -577.13,-1593.16 -2024.15,1278.81 -351.52,1531.13z"/>
   <path class="fil19" d="M23674.13 29876.02c715.53,17.07 1519.19,-52.63 2088.47,-374.65 285.66,-161.6 389.31,-303.65 641.38,-533.59 428.14,-390.36 357.7,-213.73 660.68,-818.5 -1734.53,1099.95 -2125.57,1588.83 -4674.78,1122.78 353.62,473.91 697.1,529.51 1284.25,603.97z"/>
   <path class="fil29" d="M28918.49 38080.6c601.93,-190.91 1031,-635.14 1825.69,-800.94 885.05,-184.73 1469.41,135.31 2269.11,268.28 -180.03,-390.79 58.38,-262.09 -474.09,-555.42 -520.66,-286.77 -1388.09,-300.75 -1946.47,-159.99 -704.9,177.68 -1491.67,799.39 -1674.24,1248.07z"/>
   <path class="fil29" d="M25309.53 38402.43c-86.95,-67.66 -51.08,-83.37 -315.22,-186.52 -43.35,-16.95 -183.24,-48.55 -230.43,-61.16 -1837.32,-490.48 -1349.43,-1363.53 -2062.24,-2470.11 -703.35,1506.89 1158.15,3318.85 2607.89,2717.79z"/>
   <path class="fil19" d="M39004.23 28337.22c-3805.38,663.89 -1761.13,363.09 -4588.01,-433.9 442.49,652.27 997.17,928.83 2014.25,1109.73 729.7,129.81 2420.57,15.28 2573.76,-675.83z"/>
   <path class="fil10" d="M55896.02 4101.98c-985.54,-393.14 -1755.68,836.07 -1382.89,1238.36 504.46,544.29 1706.95,-264.75 1382.89,-1238.36z"/>
   <path class="fil29" d="M35764.54 37371.8c1433.23,146.63 2447.84,-636.68 2617.66,-1848.02 126.22,-900.38 -188.81,-965.63 -190.11,-967.55 -941.7,3104.31 -1369.66,1934.85 -2427.56,2815.56z"/>
   <path class="fil26" d="M16165.67 32136.85l-16.2 -583.68 362.4 -70.56c-562.72,-945.28 -419.55,-1151.72 -573.66,-1530.57 -253.19,-622.27 62.9,-166.92 -369.58,-440.39 -610.65,751.96 -122.88,1794.83 433.15,2453.28l163.89 171.93z"/>
   <path class="fil26" d="M41408.91 24993.39c76.13,575.83 264.32,758.7 562.96,1233.17 211.88,-597.41 130.68,-178.23 112.18,-864.7l948.07 196.04c-178.54,-683.75 -900.14,-1228.71 -1623.22,-564.51z"/>
   <path class="fil10" d="M1806.27 3683.42c911.52,148.61 1084.37,-541.01 825.24,-1255.92 -844.48,-62.77 -1031,419.98 -825.24,1255.92z"/>
   <path class="fil28" d="M3943.04 2294.16c-14.97,56.53 -403.35,237.11 -108.23,958.27 162.65,397.53 373.54,382.26 870.89,357.15 73.72,-464.51 7.17,-771.13 -105.51,-1124.57l-657.15 -190.85z"/>
   <path class="fil19" d="M26094.39 13867.93c436.86,310.15 677.44,213.42 883.32,793.89l144.65 963.59c127.46,383.25 22.94,119.3 199.32,302.85 283.49,-523.88 264.26,-1138.05 -28.82,-1595.82l-732.17 -596.48c-673.29,-85.9 -377.56,83.74 -466.3,131.97z"/>
   <path class="fil30" d="M31152.97 26664.35c-129.07,1177.82 852.27,1083.63 1066.87,640.21 231.85,-478.92 -730.99,-980.78 -1066.87,-640.21z"/>
   <path class="fil10" d="M3180.88 3959.99c-416.89,453.13 -430.56,801.99 47.06,1222.96 362.16,-77.12 594.57,-143.79 554.24,-708.3 -37.85,-529.69 -221.96,-569.77 -601.31,-514.66z"/>
   <path class="fil29" d="M33288.44 15587.06c45.76,-1300.45 -114.35,-1124.63 498.03,-1707.01l368.34 -492.22c-687.02,147.68 -1267.74,359.99 -1174.04,1614.5 51.08,682.88 -10.45,382.69 307.67,584.73z"/>
   <path class="fil31" d="M43891.13 8401.3l546.7 757.65c22.39,22.51 65.55,58.88 98.21,88.5l-104.76 -1614.31 -540.14 768.16z"/>
  </g>
 </g>
</svg>
