<?xml version="1.0" encoding="UTF-8"?>
<!DOCTYPE svg PUBLIC "-//W3C//DTD SVG 1.1//EN" "http://www.w3.org/Graphics/SVG/1.1/DTD/svg11.dtd">
<!-- Creator: CorelDRAW 2021 (64 Bit) -->
<svg xmlns="http://www.w3.org/2000/svg" xml:space="preserve" width="100.763mm" height="93.044mm" version="1.1" style="shape-rendering:geometricPrecision; text-rendering:geometricPrecision; image-rendering:optimizeQuality; fill-rule:evenodd; clip-rule:evenodd"
viewBox="0 0 6538.45 6037.56"
 xmlns:xlink="http://www.w3.org/1999/xlink"
 xmlns:xodm="http://www.corel.com/coreldraw/odm/2003">
 <defs>
  <style type="text/css">
   <![CDATA[
    .fil27 {fill:#02355A}
    .fil23 {fill:#042649}
    .fil0 {fill:#06BFC5}
    .fil33 {fill:#0B4B72}
    .fil4 {fill:#131464}
    .fil5 {fill:#152438}
    .fil22 {fill:#152953}
    .fil25 {fill:#161728}
    .fil19 {fill:#1BB4C2}
    .fil32 {fill:#281013}
    .fil3 {fill:#36A5BE}
    .fil21 {fill:#37052A}
    .fil18 {fill:#370937}
    .fil12 {fill:#371539}
    .fil13 {fill:#391558}
    .fil8 {fill:#3A1646}
    .fil20 {fill:#451769}
    .fil10 {fill:#5688BA}
    .fil11 {fill:#598AC4}
    .fil17 {fill:#8857BA}
    .fil28 {fill:#AB3AB5}
    .fil24 {fill:#B247B8}
    .fil2 {fill:#BC3BC3}
    .fil26 {fill:#CD37B3}
    .fil30 {fill:#E89CB5}
    .fil31 {fill:#EAA8C6}
    .fil16 {fill:#ECA4BB}
    .fil6 {fill:#EDA3B4}
    .fil15 {fill:#F49EB2}
    .fil34 {fill:#F9EAFB}
    .fil29 {fill:#F9EBE7}
    .fil9 {fill:#FBF4D3}
    .fil7 {fill:#FBF5CC}
    .fil14 {fill:#FBF8CA}
    .fil1 {fill:#FCFBFB}
   ]]>
  </style>
 </defs>
 <g id="Camada_x0020_1">
  <metadata id="CorelCorpID_0Corel-Layer"/>
  <g id="_2123514170048">
   <path class="fil0" d="M3494.8 3167.95c154.47,-7.12 130.44,-128.18 137.37,-161l27.94 -66.46c54.23,90.36 -7.73,105.24 85.93,191.6 54.99,50.71 106.4,53.24 126.08,102.88 -47.73,48.69 -7.71,27.94 -85.89,41.82 -135.4,24.03 31.62,-74.26 -264.64,35.25 -45.37,16.77 -71.07,22.95 -119.84,31.72 11.29,171.65 -18.47,204.72 -229.31,181.84 -52.98,-5.74 -118.34,-15.39 -157.99,-62.41l-37.9 -111.54c-32.44,-150.73 -367.47,-132.52 -302.88,-378.37 108.85,-32.85 115.26,3.35 196.94,57.73 355.18,236.48 418.11,89.68 624.19,136.96zm-1189.57 -733.52c-29.74,-18.05 -13.91,-1.79 -26.14,-31.92 19.19,-163.35 -56.45,-835.61 406.54,-856.55 182.12,-8.24 319.38,135.88 359.9,263.72 77.81,245.48 14.08,354.33 -6.15,565.74 477.88,-12.24 239.32,37.49 460.49,87.22 4.35,-265.34 -28.67,-281.76 73.77,-479.21 62.55,-120.57 137.01,-224.85 245.36,-282.63 194.31,-103.63 416.6,63.79 481.28,264.07 24.41,75.57 17.73,135.61 59.7,192.3 64.6,-327.94 3.24,-542.06 -241.73,-648.4 -319.52,-138.69 -726.56,186.27 -1110.37,-228.86 -65.43,-70.76 -143.89,-253.4 -186.29,-280.78 -107.2,-69.23 -524.68,-46.08 -629.12,-76.79 -51.04,-15.01 -10.43,-20.04 -82.02,-24.86 -249.37,-16.82 -67.91,571.84 -199.13,1020.2 -63.36,216.52 -173.45,1670.73 -190.77,1981.15 -17.14,307.36 -110.36,672 -28.62,953.28 107.26,7.11 186.26,-31.7 313.6,-32.66 72.15,-0.55 262.79,31.01 302.65,15.58 64.01,-24.79 168.47,-246.51 441.45,-169.06 129.73,36.81 75.32,60.24 251.12,74.45 307.1,24.83 637.48,103.04 921.73,13.7 247.46,-77.77 282.16,-260.04 359.84,-405.86l67.8 -180.07c81.91,-369.86 67.6,-541.12 -5.7,-895.4 -45.23,-218.65 -57.15,-352.82 -73.23,-583.1 -468.44,19.74 -350.58,152.37 -547.46,152.11l-211.25 -344.67c24.7,126.44 87.93,196.9 7.99,346.46 -45.11,84.4 -124.67,155.12 -228.22,178.58 -326.91,74.03 -380.09,-196.6 -418.19,-332.46 -1.53,-5.45 -4.49,-13.24 -5.83,-17.66l-14.14 -34.5c-62.23,29.44 -72.81,93.27 -169.68,98.22 -4.52,-5.43 -32.65,-53.03 -55.38,-76.05 -161.5,-163.57 -267.65,-138.53 -323.82,-225.3z"/>
   <path class="fil1" d="M5635.35 2363.15c1.3,72.26 -6.94,-11.73 1.88,43.35l17.03 28.27c58.22,-127.33 164.84,-182.1 295.86,-111.58 39.1,121.26 11.47,133.26 -27.11,240.99 69.73,-35.43 74.45,-72.87 148.27,-98.88 118.16,-41.63 343.1,44.38 15.2,339.9 242.1,-78.25 328.63,144.41 54.54,264.13 -123.08,53.76 -119.46,50.17 -213.39,125.33 -73.16,58.55 -127.27,80.92 -214.25,125.16 -57.26,127.28 -69.5,305.18 -131.95,440.28 -28.27,61.16 -89.35,154.22 -103.67,192.99 -29.32,79.33 -104.03,1075.48 -125.33,1149.73 -42.36,147.56 -124.42,94.01 -398.35,63.06 -74.17,-13.85 -54.29,-10.74 -107.35,23.33 -3,1.93 -66.91,59.24 -68.87,61.61 -47.47,57.87 -38.4,102.64 -75.19,178.28 -60.39,81.88 -139.11,63.55 -265.33,47.67 -234.15,-29.46 -659.91,-109.88 -840.97,-103.06 -131.1,16.67 -311.36,84.93 -402.6,181.02 -645.64,679.96 -861.53,-203.75 -845.87,-332.6l-33.53 -40.39c-1.71,-7.81 -8.4,-8.03 -12.29,-15.69l-153.39 30.7c-367.22,151.69 -247.86,117.53 -545.15,316.46 -474.62,317.57 -787.04,-533.74 -608.73,-885.08 42.94,-84.61 145.99,-153.92 289.44,-142.63 128.4,10.11 209.89,94.58 257.82,173.62l65.02 -708.94c-126.7,41.41 -318.5,36.21 -401.42,-19.84 -283.78,-108.06 -384.76,-475.68 -410.54,-861.17 -127.5,-45.56 -145.07,-63.69 -219.87,-139.42 -66.93,-67.76 -108.27,-83.01 -205.61,-132.22 -213.25,-107.82 -196.32,-315.72 103.57,-240.83 -100.94,-86.2 -219.69,-221.5 -97.88,-352.76 158.78,-23.22 189.9,65.69 268.04,123.22 -35.4,-127.05 -62.6,-170.33 2.96,-275.68 276.84,-54.44 279.89,263.66 404.84,431.37l64.21 -72.1c94.06,-91.34 159.36,-72.54 261.73,-31.54 43.31,174.76 -34.27,172.65 -91.42,287.26 -144.33,289.43 -79.43,759.12 126.16,874.86 116.53,6.23 134.48,0.8 238.38,-28.67 0.03,-464.69 191.1,-2060.01 256.09,-2714.22 15.61,-157.07 56.99,-242.26 150.56,-332.73 333.69,-322.65 726.54,-228.31 1158.33,-155.99l1730.58 238.03c144.94,19.23 286.84,36.12 431.47,56.78 85.06,12.14 364.82,30.03 404.53,89.34 39.72,85.94 -121.91,1447.25 -146.49,1669.26zm267.48 -307.06c32.06,-345.15 66.79,-690.51 104.55,-1030.25 52.96,-476.52 39.97,-576.12 -442.82,-629.3 -644.13,-70.97 -1312.56,-179.56 -1951.57,-272.71 -542.45,-79.08 -1008.08,-223.83 -1428.45,-18.87 -567.52,276.7 -502.3,671.8 -546.04,1130.27 -26.25,275.04 -48.28,750.54 -105.12,997.06 -81.01,-96.68 -233.04,-116.9 -403.51,-97.2 -55.38,-124.23 -175.21,-290.02 -335.59,-319.27 -253.2,-46.2 -222.54,90.31 -477.73,178.77 -197.98,68.63 -190.66,200.44 -240.53,411.93 -45.14,191.42 -161.66,281.55 32.61,480.76l386.97 271.4c118.21,78.52 82.55,47.77 110.29,209.26 138.62,806.87 667.17,778.3 751,869.56 -34.1,28.07 -28.63,26.32 -114.33,32.42 -107.09,7.61 -172.55,-0.95 -288.02,83.61 -557.87,408.47 -72.07,1605.56 552.49,1444.5 273.22,-70.45 422.15,-296.15 650.99,-352.47 60.37,258.76 253.04,530.96 499.54,580.42 171.65,34.44 314.22,-11.29 427.69,-91.68 370.8,-262.68 343.65,-378.16 725.16,-316.82 208.15,33.47 742.48,139.6 914.96,69.43 203.34,-82.71 156,-113.95 249.8,-283.05 268.73,-6.07 382.81,94.97 543.49,-112.69 118.33,-152.92 110.99,-884.31 178.73,-1221.55 17.72,-88.22 75.99,-153.47 111.1,-250.6 35.87,-99.22 48.47,-167.71 73.75,-264.7 30.68,-117.72 282.79,-248.08 398.79,-302.49 413.34,-193.84 206.26,-536.76 200.32,-568.38 -16.51,-87.91 36.01,-257.12 -128.58,-378.56 -50.61,-37.34 -73.61,-41.73 -129.71,-61.26 -190.99,-66.46 -89.1,-145.59 -320.25,-187.52z"/>
   <path class="fil2" d="M3030.01 1204.45c159.95,21.36 34.52,70.08 235.57,142.3 305.54,109.75 645.82,-66.58 935.24,81.43 349.36,178.68 337.66,593.61 231.88,1017.96 -156.95,629.62 361.91,1544.67 -195.89,2218.79 -47.47,57.36 -41.28,55.11 -119.82,71.63 -156.76,98.35 -262,159.37 -541.97,149.66 -224.5,-7.79 -397.51,-66.2 -653.42,-61.92 32.4,79.61 80.19,176.38 115.52,266.22 128.61,-35.44 243.81,-110.84 408.56,-100.58 142.06,8.83 262.25,98.57 319.42,183.4 133.91,198.7 18.91,145.56 316.83,189.04 147.31,21.5 319.53,66.37 469.03,47.87 41.97,-118.97 58.47,-534.43 75.93,-692.35l57.41 -523.42c-5.59,-148.03 -40.15,-26.9 -41.03,-165.22 -23.28,-103.99 -33.7,-179.61 37.66,-255.96 42.96,-84.15 40.65,-3.85 58.53,-130.38l103.52 -1114.88c50.78,-412.11 93.99,-841.26 134.57,-1266.4 -699.33,-87.1 -1374.42,-227.42 -2072.99,-293.16 44.68,100.86 43.38,165.82 125.43,235.97z"/>
   <path class="fil3" d="M3118.81 2433.28c332.27,-140.49 568.56,371.69 205.32,533.12 -179.57,79.79 -336.95,-44.74 -380.63,-177.12 -24.84,-75.26 -15.94,-168.56 15.29,-231.1 38.82,-77.74 77.84,-90.14 160.03,-124.89zm626.15 384.79c-1.32,-3.75 -0.64,-9.88 -0.79,-11.9 -4.93,-63.77 0.47,-61.98 -36.1,-101.73 -285.06,-309.94 -127.22,-779.74 82.75,-926.46 169.01,-118.11 382.53,-32.21 462.63,186.28 71.61,195.32 41.58,437.31 -61.82,588.22 -9.85,42.52 46.45,71.46 60.59,94.08 -283.41,20.26 -319.5,39.44 -507.27,171.52zm-1465.87 -415.57l84.71 0.43c-55.33,-217.42 -51,-466.09 56.36,-638.58 242,-388.82 732.67,-107.31 586.88,501.57 -59.46,248.35 -199.68,293.58 -266.55,369.4l-40.72 57.42c-94.81,-155.49 -198.58,-223.26 -394.54,-258.32 56.17,86.77 162.31,61.72 323.82,225.3 22.72,23.02 50.86,70.62 55.38,76.05 96.87,-4.95 107.45,-68.78 169.68,-98.22l14.14 34.5c1.34,4.42 4.3,12.21 5.83,17.66 38.1,135.86 91.28,406.49 418.19,332.46 103.55,-23.45 183.11,-94.17 228.22,-178.58 79.94,-149.56 16.72,-220.02 -7.99,-346.46l211.25 344.67c196.87,0.25 79.02,-132.37 547.46,-152.11 16.08,230.27 27.99,364.44 73.23,583.1 73.31,354.28 87.61,525.54 5.7,895.4l-67.8 180.07c-77.69,145.81 -112.39,328.09 -359.84,405.86 -284.25,89.34 -614.63,11.13 -921.73,-13.7 -175.8,-14.21 -121.39,-37.64 -251.12,-74.45 -272.98,-77.45 -377.44,144.26 -441.45,169.06 -39.86,15.43 -230.5,-16.13 -302.65,-15.58 -127.35,0.96 -206.34,39.76 -313.6,32.66 -81.74,-281.28 11.47,-645.91 28.62,-953.28 17.32,-310.42 127.4,-1764.63 190.77,-1981.15 131.22,-448.36 -50.24,-1037.02 199.13,-1020.2 71.59,4.82 30.98,9.85 82.02,24.86 104.45,30.71 521.92,7.56 629.12,76.79 42.41,27.38 120.86,210.02 186.29,280.78 383.81,415.14 790.84,90.17 1110.37,228.86 244.97,106.34 306.34,320.46 241.73,648.4 -41.98,-56.69 -35.29,-116.73 -59.7,-192.3 -64.68,-200.27 -286.97,-367.7 -481.28,-264.07 -108.35,57.78 -182.81,162.06 -245.36,282.63 -102.44,197.46 -69.41,213.88 -73.77,479.21 -221.17,-49.73 17.39,-99.46 -460.49,-87.22 20.23,-211.41 83.95,-320.26 6.15,-565.74 -40.52,-127.84 -177.78,-271.96 -359.9,-263.72 -463,20.93 -387.35,693.2 -406.54,856.55zm67.68 2502.35c106.68,-271.69 387.31,-226.68 574.83,-80.56 255.9,-4.28 428.91,54.13 653.42,61.92 279.97,9.71 385.22,-51.31 541.97,-149.66 39,-84.71 83.06,-94.51 159.69,-223.59 409.43,-689.62 -38.21,-1408.56 84.72,-2092.4 70.29,-390.98 196.13,-824.37 -249.03,-971.41 -264.03,-87.21 -901.36,162.61 -1082.37,-244.71 -82.05,-70.15 -80.75,-135.11 -125.43,-235.97 -174.33,-62.37 -726.92,-129.11 -937.38,-152.74 -144.24,1119.99 -257.27,2515.64 -343.93,3671.39 -18.1,241.37 -21.71,256.27 49.34,465.5 200.98,-137.44 417.01,-92.49 674.17,-47.77z"/>
   <path class="fil4" d="M1650.27 3512.69c11.79,130.76 -7.87,328.11 -43.17,437.51l-65.02 708.94 -0.29 90.62c12.17,72.29 42.43,111.02 61.66,187.78 15.48,61.77 18.83,150.88 41.64,209.49 3.08,-4.3 5.01,-17.62 5.77,-14.78 0.78,2.88 4.37,-11.74 5.42,-15.26 2.24,-7.51 12.99,-48.86 13.45,-50.17 16.9,-48.48 -0.73,-33.01 40.68,-64.76 6.96,-5.33 108.29,-49.63 131.79,-60.75 25.13,-21.5 9.9,-16.93 52.14,-32.59 132.85,-49.29 316.23,59.53 452.43,-3.85 -257.16,-44.72 -473.19,-89.68 -674.17,47.77 -71.05,-209.22 -67.45,-224.13 -49.34,-465.5 86.66,-1155.75 199.68,-2551.4 343.93,-3671.39 210.47,23.63 763.05,90.36 937.38,152.74 698.57,65.74 1373.66,206.06 2072.99,293.16 -40.58,425.14 -83.79,854.29 -134.57,1266.4l-103.52 1114.88c-17.88,126.53 -15.57,46.23 -58.53,130.38l82.23 10.34c28.95,-20.85 7.01,-14.49 58.68,-26.87 67.36,-16.13 39.52,-3.61 47.38,2.54l1.2 -147.29c-29.92,99.61 7.92,95.72 -64.94,117.86 -56.84,-127.01 179.56,-1805.34 199.03,-2220.75 11.02,-235.03 12.37,-255.72 88.26,-291.57l-13.07 173.73 31.85 -169.69c-38.1,-41.05 10.36,-8.5 -60.13,-29.47 -102.98,55.56 -1294.87,-163.01 -1520.88,-199 -517.19,-82.37 -1058.12,-134.52 -1556.25,-228.15 -2.99,-284.97 448.55,-476.52 687.35,-468.78 279.17,9.05 740.85,90.1 1021.9,136.84l1771.15 243.03c41.89,5.24 91.16,9.69 132.15,16.81l116.78 40.26c-199.15,60.32 -2475.74,-338.55 -3019.71,-376.42 -220.27,-15.33 -505.01,139.06 -567.79,277.17 -50.22,110.51 47.3,103.95 143.96,113.65l-31.41 -59.01c-82.84,-0.43 -37.41,8.01 -69.97,-19.43 45.6,-106.52 168.73,-174.09 293.6,-232.36 159.95,-74.64 273.81,-36.9 450.2,-8.18 582.11,94.79 1297.23,169.11 1903.02,256.09l716.12 95.21c179.28,28.28 94.8,28.17 216.72,-35.12l-163.36 1636.7c11.56,141.31 -2.83,36.73 36.47,78.79 -0.23,-24.3 -3.87,-29.25 1.23,-47.16 22.87,-80.27 -0.16,-14.15 22.64,-49.91 24.57,-222.01 186.21,-1583.32 146.49,-1669.26 -39.71,-59.31 -319.47,-77.2 -404.53,-89.34 -144.63,-20.65 -286.53,-37.55 -431.47,-56.78l-1730.58 -238.03c-431.79,-72.33 -824.65,-166.66 -1158.33,155.99 -93.57,90.47 -134.95,175.66 -150.56,332.73 -64.99,654.21 -256.06,2249.54 -256.09,2714.22z"/>
   <path class="fil5" d="M2540.28 526.06c199.35,-74.01 1180.24,125.37 1464.5,163.78 206.87,27.95 1392.21,157.61 1478.33,210.93 -208.56,96.76 -937.42,-158.57 -1117.7,-83 84.35,37.76 566.62,100.93 722.41,124.15l251.37 50.57c-55.84,24.86 -72.01,35.33 -134.83,76.19 -77,50.09 -60.35,50.94 -173.16,34.7l-1165.73 -172.44c-528.89,-78.63 -1044.37,-159.37 -1575.56,-230.6 57.73,-99.57 120.16,-144.88 276.29,-122.81 286.82,40.55 1000.53,152.13 1207.79,155.48l-1233.72 -206.96zm-311.59 162.46l31.41 59.01c470.03,87.39 939.79,129.16 1412.15,207.07l1330.72 199.41c52.05,16.9 35.37,-4.31 48.46,38.11 70.48,20.97 22.02,-11.58 60.13,29.47l-31.85 169.69 -209.27 2220.74 -1.2 147.29 38.97 -129.98c80.25,-495.08 159.81,-1599.35 222.2,-2217.19 28.74,-284.66 -18.93,-196.41 78.09,-273.71 1.82,4.5 3.07,7.17 3.33,14.17 7.09,193.2 -56.1,601.75 -72.31,831.04 -19.97,282.71 -81.64,612.07 -70.1,887.36 48.47,-556.75 190.31,-1210.93 198.07,-1786.89 71.9,-21.04 83.78,-39.51 148.4,-75.63l-126.37 1377.26c122.76,-198.24 97.42,-1327.32 215.92,-1442.99 33.72,61.72 -40.51,705.98 -47.3,767.11 -19.47,175.29 -91.7,655.94 -64.13,793.3l31.56 53.99c29.95,-167.62 164.44,-1591.83 150.84,-1703.43l-1747.7 -244.6c-290.02,-38.19 -580.51,-81.48 -877.76,-123.82 -159.01,-22.65 -287.49,-65.2 -435.63,-6.81 -117.73,46.41 -272.22,121.22 -286.64,210.01z"/>
   <path class="fil6" d="M4763.18 3783.64l-82.23 -10.34c-71.37,76.35 -60.94,151.97 -37.66,255.96 72.87,51.41 103.45,57.78 208.39,83.75 479.05,108.01 685.54,-298.08 766.31,-675.27l20.54 -174.84c46.79,-25.09 96.74,-17.36 169.22,-60.73 55.43,-33.16 99.77,-78.96 143.6,-110.95 110.16,-80.42 271.37,-83.32 296.23,-213.13 -100.23,-62.01 -236.05,35.14 -317.9,64.39 -87.78,-122.26 -100.34,-163.86 -238.21,-234.32l150.46 -130.58c41.71,-68.29 85,-138.54 42.7,-204.73 -1.62,-1.82 -20.36,-84.38 -122.36,17.03l-233.19 403.24c45.58,43.71 149.67,132.86 82.44,232.25 -51.71,-87.98 -4.72,-93.37 -106.42,-168.21 -54.57,-40.17 -18.29,6.79 -55.19,-49.72 -71.13,-108.89 -33.26,-230.08 -214.66,-176.46 -23.7,91.59 -0.21,104.12 44.4,176.1 60.59,97.74 32.06,99.81 52.29,209.88 35.81,194.83 85.27,-7.34 -12.96,377.73 -89.64,351.38 -160.5,447.74 -555.78,388.93z"/>
   <path class="fil7" d="M4908.21 3629.32l-8.99 120.95c341.32,-6.48 251.04,-176.16 301.59,-439.8l1.91 204.15c149.84,-171.52 62.74,-484.02 56.18,-552.52 -9.1,-95.02 -280.92,-492.75 121.23,-395.77l13.89 -63.17c-27.56,-137.36 44.66,-618.02 64.13,-793.3 6.79,-61.13 81.01,-705.4 47.3,-767.11 -118.49,115.67 -93.16,1244.75 -215.92,1442.99l126.37 -1377.26c-64.62,36.12 -76.5,54.59 -148.4,75.63 -7.76,575.96 -149.61,1230.14 -198.07,1786.89 -11.54,-275.29 50.13,-604.65 70.1,-887.36 16.21,-229.29 79.4,-637.84 72.31,-831.04 -0.26,-7 -1.51,-9.67 -3.33,-14.17 -97.02,77.3 -49.35,-10.95 -78.09,273.71 -62.39,617.84 -141.95,1722.11 -222.2,2217.19z"/>
   <path class="fil6" d="M1213.98 3864.4c107.87,42.06 177.08,66.02 299.7,33.22l45.71 -283.06c-73.35,-2.79 -92.89,12.65 -134.41,-24.92 -227.09,-9.14 -245.38,-326.88 -277,-560.45 -49.48,-365.56 318.78,-597.57 110.88,-620.96 -125.71,-14.15 -90.58,68.26 -172.9,164.91 -53.7,63.04 -79.38,36.07 -120.06,92.46 -28.93,40.11 -13.13,33.94 -31.58,73.88l-34.73 55.64c-13.14,-139.62 40.83,-154.66 114.26,-235.64 -35.3,-109.97 -165.61,-442.14 -323.23,-454.11 -42.26,91.78 16.03,274.14 159.58,360.62 -153.75,126.68 -132.83,29.76 -243.69,238.3 -91.97,-36.36 -152.21,-120.1 -268.32,-93.54l-32.21 15.76c-24.54,87.56 174.07,139.13 262.98,203.19 129.47,93.28 69.7,143.04 313.61,193.97 -60.04,312.77 100.43,741.83 331.42,840.73z"/>
   <path class="fil8" d="M5078.3 4807.6c5.37,-75.98 12.86,-153.29 21.26,-229.42 37.4,-338.66 -13,-388.16 108.69,-423.3 -15.06,153.48 -25.53,311.78 -43.94,465.3l-32.84 341.6c-22.67,106.2 17.54,41.2 -50.24,77.56l-2.94 -231.73zm-18.04 315.45c175.51,-86.3 103.77,42.59 156.77,-563.36 9.45,-108.07 20.46,-212.47 32.87,-323.54 15.3,-136.87 43.57,-125.6 150.63,-187.69l-123.56 1096.43 -216.71 -21.84zm786.34 -2393.64c97,-93.79 219.57,-234.97 322.6,-198.51 2.36,5.18 4.85,12.53 5.42,16.2 23.35,151.06 21.15,-48.52 4.16,47.86 -7.61,43.16 -61.93,92.53 -93.24,120.58l-155.87 125.87 -83.07 -112zm-211.25 -366.25c-22.8,35.76 0.23,-30.36 -22.64,49.91 -5.1,17.9 -1.45,22.85 -1.23,47.16 -39.3,-42.05 -24.91,62.52 -36.47,-78.79 -10.71,128.31 18.88,251.28 -90.77,331.69 -46.93,-60.01 -58.84,-73.43 -58.66,-155.97l-31.56 -53.99 -13.89 63.17c-402.14,-96.98 -130.33,300.74 -121.23,395.77 6.56,68.5 93.65,381 -56.18,552.52l-1.91 -204.15c-50.55,263.64 39.73,433.32 -301.59,439.8l8.99 -120.95 -38.97 129.98c-7.85,-6.15 19.98,-18.67 -47.38,-2.54 -51.67,12.38 -29.73,6.02 -58.68,26.87 395.28,58.81 466.15,-37.55 555.78,-388.93 98.23,-385.07 48.77,-182.9 12.96,-377.73 -20.23,-110.07 8.3,-112.14 -52.29,-209.88 -44.62,-71.98 -68.11,-84.51 -44.4,-176.1 181.4,-53.62 143.53,67.57 214.66,176.46 36.91,56.51 0.62,9.55 55.19,49.72 101.7,74.84 54.71,80.22 106.42,168.21 67.24,-99.38 -36.86,-188.54 -82.44,-232.25l233.19 -403.24c102,-101.42 120.75,-18.85 122.36,-17.03 42.3,66.19 -0.99,136.44 -42.7,204.73l-150.46 130.58c137.86,70.45 150.43,112.05 238.21,234.32 81.84,-29.25 217.66,-126.4 317.9,-64.39 -24.85,129.81 -186.06,132.71 -296.23,213.13 -43.83,31.99 -88.17,77.78 -143.6,110.95 -72.48,43.37 -122.44,35.64 -169.22,60.73l-20.54 174.84c-80.77,377.2 -287.26,783.28 -766.31,675.27 2.3,34.99 16.86,1.7 0.45,39.63 -19.29,44.58 -3.29,15.72 -25.31,30.61l13.8 9.88 256.85 -9.25c-16.7,200.62 -49.54,751.22 -97.21,891.53 35.1,54.29 1.27,-7.22 10.32,58.95 -112.08,-14.34 -15.46,-2.04 -56.5,31.52 273.93,30.95 355.99,84.5 398.35,-63.06 21.3,-74.25 96.01,-1070.39 125.33,-1149.73 14.33,-38.78 75.41,-131.84 103.67,-192.99 62.45,-135.1 74.68,-313 131.95,-440.28 86.98,-44.24 141.09,-66.62 214.25,-125.16 93.93,-75.16 90.31,-71.57 213.39,-125.33 274.09,-119.72 187.56,-342.38 -54.54,-264.13 327.9,-295.52 102.95,-381.53 -15.2,-339.9 -73.82,26.01 -78.54,63.45 -148.27,98.88 38.58,-107.73 66.21,-119.73 27.11,-240.99 -131.01,-70.52 -237.64,-15.74 -295.86,111.58l-17.03 -28.27c-8.81,-55.08 -0.58,28.91 -1.88,-43.35z"/>
   <path class="fil9" d="M4426.19 943.12c-192.44,-2.87 -1032.53,-122.17 -1167.91,-185.75 169.28,-7.28 1042.44,128.99 1167.91,185.75zm-421.41 -253.28c-284.26,-38.41 -1265.15,-237.79 -1464.5,-163.78l1233.72 206.96c-207.26,-3.35 -920.97,-114.93 -1207.79,-155.48 -156.13,-22.07 -218.56,23.24 -276.29,122.81 531.18,71.23 1046.66,151.97 1575.56,230.6l1165.73 172.44c112.81,16.24 96.15,15.39 173.16,-34.7 62.81,-40.86 78.98,-51.33 134.83,-76.19l-251.37 -50.57c-155.79,-23.22 -638.06,-86.39 -722.41,-124.15 180.28,-75.57 909.14,179.76 1117.7,83 -86.12,-53.32 -1271.47,-182.97 -1478.33,-210.93z"/>
   <path class="fil10" d="M2228.69 688.51c14.42,-88.79 168.91,-163.6 286.64,-210.01 148.14,-58.39 276.62,-15.84 435.63,6.81 297.26,42.34 587.74,85.62 877.76,123.82l1747.7 244.6c13.6,111.6 -120.88,1535.81 -150.84,1703.43 -0.18,82.54 11.73,95.96 58.66,155.97 109.65,-80.41 80.06,-203.39 90.77,-331.69l163.36 -1636.7c-121.91,63.29 -37.44,63.4 -216.72,35.12l-716.12 -95.21c-605.79,-86.98 -1320.91,-161.3 -1903.02,-256.09 -176.38,-28.73 -290.24,-66.46 -450.2,8.18 -124.87,58.28 -247.99,125.84 -293.6,232.36 32.56,27.44 -12.87,19 69.97,19.43z"/>
   <path class="fil11" d="M5051.43 1192.12c-13.09,-42.42 3.59,-21.21 -48.46,-38.11l-1330.72 -199.41c-472.37,-77.92 -942.12,-119.68 -1412.15,-207.07 -96.66,-9.69 -194.19,-3.13 -143.96,-113.65 62.78,-138.11 347.51,-292.5 567.79,-277.17 543.97,37.86 2820.56,436.74 3019.71,376.42l-116.78 -40.26c-40.99,-7.12 -90.26,-11.57 -132.15,-16.81l-1771.15 -243.03c-281.05,-46.74 -742.74,-127.79 -1021.9,-136.84 -238.79,-7.74 -690.34,183.81 -687.35,468.78 498.12,93.64 1039.06,145.78 1556.25,228.15 226.01,35.99 1417.9,254.57 1520.88,199z"/>
   <path class="fil12" d="M714.52 2505.07l-108.75 87.93 -152.5 -135.74c-120.27,-135.17 -92.95,-284.27 117.97,-117.85l143.28 165.66zm491.16 1425.28l8.3 -65.95c-230.99,-98.9 -391.46,-527.96 -331.42,-840.73 -243.91,-50.94 -184.14,-100.7 -313.61,-193.97 -88.91,-64.06 -287.52,-115.63 -262.98,-203.19l32.21 -15.76c116.11,-26.57 176.35,57.18 268.32,93.54 110.85,-208.53 89.94,-111.62 243.69,-238.3 -143.55,-86.48 -201.84,-268.84 -159.58,-360.62 157.62,11.98 287.93,344.15 323.23,454.11 -73.43,80.98 -127.4,96.02 -114.26,235.64l34.73 -55.64c18.45,-39.93 2.65,-33.77 31.58,-73.88 40.69,-56.4 66.37,-29.42 120.06,-92.46 82.33,-96.65 47.19,-179.06 172.9,-164.91 207.9,23.39 -160.37,255.4 -110.88,620.96 31.62,233.57 49.91,551.31 277,560.45l144.64 -10.56c-18.12,-2.01 -59.49,0.73 -74.32,-2.65 -86.54,-19.72 -33.96,1.29 -83.41,-35.09 -205.6,-115.74 -270.49,-585.44 -126.16,-874.86 57.15,-114.61 134.73,-112.51 91.42,-287.26 -102.37,-41 -167.67,-59.8 -261.73,31.54l-64.21 72.1c-124.96,-167.71 -128.01,-485.81 -404.84,-431.37 -65.56,105.35 -38.36,148.62 -2.96,275.68 -78.15,-57.54 -109.27,-146.44 -268.04,-123.22 -121.81,131.26 -3.06,266.57 97.88,352.76 -299.89,-74.89 -316.82,133.01 -103.57,240.83 97.35,49.21 138.69,64.46 205.61,132.22 74.8,75.73 92.37,93.86 219.87,139.42 25.77,385.49 126.75,753.11 410.54,861.17z"/>
   <path class="fil13" d="M2921.6 4824.3c-187.52,-146.12 -468.14,-191.13 -574.83,80.56 -136.2,63.38 -319.57,-45.44 -452.43,3.85 -42.24,15.66 -27.01,11.1 -52.14,32.59 83.8,-2.65 97.18,9.25 157.97,28.89 7.05,2.35 61.05,63.03 75.09,86.6 37.45,62.91 17.82,43.57 31.69,75.36 22.22,50.91 1.28,33.97 41.74,64.62l153.39 -30.7c3.89,7.66 10.58,7.88 12.29,15.69l33.53 40.39 8.09 -52.18 25.49 23.22c-5.85,-96.52 -9.6,-148.53 18.34,-243.45 28.83,-97.94 37.87,-117.85 145.32,-116.76l55.55 -16.37 -41.66 -44.33c397.7,-89.72 403.75,420.44 485.97,534.55l17.21 -71.05c0.33,-3.39 -2.42,-56.27 -2.5,-64.78 125.13,-45.2 510.7,-302.2 718.14,141.12 -90.09,8.62 -236.72,-14.86 -297.06,39.94 4.3,-0.86 46.38,-9.56 55.5,-8.42l60.09 30.06c181.05,-6.83 606.81,73.6 840.97,103.06 126.22,15.88 204.94,34.2 265.33,-47.67 -10.28,-17.99 -7.62,3.76 -14.16,-43.83 -0.58,-4.2 3.96,-47.58 4.13,-49.93 -60.38,55.75 -14.18,47.42 -74.57,67.21 -2.42,-170.92 45.12,-447.65 62.11,-634.13l82.89 -613.94c56.62,22.98 47.24,-29.34 41.92,74.75l21.82 -45.99c22.02,-14.89 6.02,13.97 25.31,-30.61 16.41,-37.93 1.86,-4.64 -0.45,-39.63 -104.94,-25.97 -135.51,-32.34 -208.39,-83.75 0.88,138.32 35.44,17.19 41.03,165.22l-57.41 523.42c-17.46,157.91 -33.96,573.38 -75.93,692.35 -149.5,18.5 -321.72,-26.36 -469.03,-47.87 -297.92,-43.48 -182.92,9.66 -316.83,-189.04 -57.17,-84.83 -177.37,-174.57 -319.42,-183.4 -164.75,-10.25 -279.95,65.14 -408.56,100.58 -35.33,-89.84 -83.12,-186.62 -115.52,-266.22z"/>
   <path class="fil6" d="M2600.69 4816.62c173.28,60.93 369.86,528.61 264.27,909.27 85.68,-29.48 85.95,-36 148.17,-97.08 46.67,-45.82 84.27,-66.58 138.73,-116.04 76.22,-69.24 189.66,-158.25 328.93,-160.69 60.35,-54.8 206.98,-31.32 297.06,-39.94 -207.43,-443.32 -593,-186.32 -718.14,-141.12 0.08,8.51 2.83,61.39 2.5,64.78l-17.21 71.05c-82.22,-114.11 -88.27,-624.27 -485.97,-534.55l41.66 44.33z"/>
   <path class="fil14" d="M3647.17 2075.68c37.27,-7.85 31.46,-67.46 191.91,-47.49 112.72,160.91 38.45,121.71 -36.2,233.93 75.53,30.67 65.04,-4.39 137.74,21.24 4.11,108.45 -40.06,246.36 -140.76,290.37 -73.22,32 -74.79,2.42 -121.98,49.37 41.86,19.89 69.05,52.71 109.49,85.12 78.31,-19.41 120.43,-58.63 192.81,-82.99 112.24,-37.77 118.94,3.24 172.27,-103.71 70.44,-141.26 104.3,-305.45 64.23,-478.49 -93.84,-405.35 -460.85,-304.25 -569.52,32.66z"/>
   <path class="fil15" d="M2381.49 5193.19c42.87,135.9 51.14,228.25 122.83,350.23 305.8,520.28 505.42,-73.47 199,-559.15 -58.11,-92.11 -71.66,-105.39 -158.17,-151.28 -107.45,-1.1 -116.49,18.82 -145.32,116.76 -27.93,94.92 -24.18,146.92 -18.34,243.45z"/>
   <path class="fil15" d="M1011.59 5023.37c77.5,415.49 549.49,826.94 418.97,108.62 -30.11,-165.68 -103.13,-387.16 -209.02,-472.02 -207.46,-166.25 -240.95,197.23 -209.95,363.41z"/>
   <path class="fil16" d="M2000.17 4970.19c-60.79,-19.64 -74.17,-31.54 -157.97,-28.89 -23.5,11.12 -124.83,55.42 -131.79,60.75 -41.41,31.75 -23.78,16.28 -40.68,64.76 -0.46,1.3 -11.21,42.65 -13.45,50.17 -1.06,3.52 -4.65,18.14 -5.42,15.26 -0.76,-2.84 -2.69,10.48 -5.77,14.78 -22.81,-58.61 -26.16,-147.72 -41.64,-209.49 -19.23,-76.76 -49.48,-115.48 -61.66,-187.78 -119.88,-105.83 -100.75,-247 -383.68,-188.87 83.82,88.18 86.06,32.06 169.41,164.19 45.02,71.37 77.07,131.8 108.42,210.62 84.22,211.75 73.47,364.3 29.16,584.85 84.35,-29.14 99.8,-64.89 166.32,-107.42l448.2 -262.3c-25.57,-89.13 -56.87,-124.53 -79.45,-180.63z"/>
   <path class="fil14" d="M2403.85 1938.61c5.59,-1.03 13.66,-9.9 16.25,-5.18 2.58,4.69 12.51,-4.06 16.05,-5.43 152.77,-59.39 159.5,-68.17 240.8,58l-80.88 129.39c-3.12,4.11 -8.23,10.98 -10.8,14.36 -2.6,3.43 -7.55,9.51 -10.94,14.54l147.43 11.63c-11.63,140.89 -31.86,230.07 -125.21,295.13 -4.01,2.79 -10.09,6.49 -13.81,8.99 -3.8,2.54 -10.99,7.06 -14.13,9.11 -3.18,2.08 -9.99,5.55 -14.35,9.19 97.96,26.14 54.58,58.41 156.42,96.08 345.39,-218.45 320.79,-708.61 131.31,-873.9 -157.61,-137.49 -350.92,-14.68 -438.15,238.1z"/>
   <path class="fil17" d="M4116.99 4736.56c78.54,-16.52 72.35,-14.27 119.82,-71.63 557.8,-674.12 38.93,-1589.17 195.89,-2218.79 105.78,-424.36 117.48,-839.28 -231.88,-1017.96 -289.43,-148.01 -629.7,28.32 -935.24,-81.43 -201.05,-72.22 -75.62,-120.94 -235.57,-142.3 181.02,407.32 818.34,157.5 1082.37,244.71 445.15,147.04 319.32,580.43 249.03,971.41 -122.93,683.84 324.71,1402.78 -84.72,2092.4 -76.63,129.08 -120.69,138.88 -159.69,223.59z"/>
   <path class="fil18" d="M1011.59 5023.37c-31,-166.18 2.49,-529.65 209.95,-363.41 105.89,84.87 178.91,306.35 209.02,472.02 130.52,718.32 -341.47,306.87 -418.97,-108.62zm1137.11 173.39c-40.46,-30.65 -19.52,-13.7 -41.74,-64.62 -13.87,-31.78 5.76,-12.45 -31.69,-75.36 -14.04,-23.57 -68.04,-84.25 -75.09,-86.6 22.58,56.1 53.88,91.51 79.45,180.63l-448.2 262.3c-66.52,42.53 -81.97,78.29 -166.32,107.42 44.31,-220.55 55.06,-373.1 -29.16,-584.85 -31.35,-78.83 -63.4,-139.25 -108.42,-210.62 -83.34,-132.13 -85.58,-76.01 -169.41,-164.19 282.93,-58.13 263.8,83.04 383.68,188.87l0.29 -90.62c-47.93,-79.05 -129.42,-163.51 -257.82,-173.62 -143.44,-11.29 -246.5,58.02 -289.44,142.63 -178.3,351.34 134.11,1202.65 608.73,885.08 297.29,-198.93 177.93,-164.77 545.15,-316.46z"/>
   <path class="fil7" d="M5000.25 5075.41c47.67,-140.32 80.51,-690.91 97.21,-891.53l-256.85 9.25c23.43,158.07 -74.31,765.55 -88.72,982.15 117.8,-48.04 73.06,-22.05 111.9,-364.69 15.46,-136.33 12.69,-328.42 65.58,-430.94l-51.83 712.54 122.7 -16.77z"/>
   <path class="fil19" d="M3030.58 3375.04c53.24,9.63 101.36,36.27 167.57,43.38 72.25,7.77 126.8,-15.86 176.43,6.77 -85.97,75.99 -232.88,54.91 -298.86,17.38 -71.29,-40.56 -26.44,-7.03 -45.14,-67.53zm841.54 -140.08c-109.57,0.77 -154.63,-43.16 -212.01,-79.22 -245.63,244.91 -856.86,121.95 -951.03,-147.61 133.61,37.05 221.88,234.72 568.83,228.25 89.44,-1.67 159.88,-15 216.89,-68.43 -206.08,-47.27 -269.01,99.52 -624.19,-136.96 -81.68,-54.37 -88.09,-90.58 -196.94,-57.73 -64.59,245.85 270.43,227.64 302.88,378.37l37.9 111.54c39.65,47.03 105.01,56.67 157.99,62.41 210.84,22.88 240.6,-10.19 229.31,-181.84 48.77,-8.77 74.47,-14.95 119.84,-31.72 296.27,-109.51 129.24,-11.22 264.64,-35.25 78.19,-13.88 38.17,6.87 85.89,-41.82z"/>
   <path class="fil10" d="M4870.44 3612.02l209.27 -2220.74 13.07 -173.73c-75.88,35.85 -77.23,56.54 -88.26,291.57 -19.47,415.41 -255.87,2093.74 -199.03,2220.75 72.86,-22.14 35.02,-18.25 64.94,-117.86z"/>
   <path class="fil20" d="M2403.85 1938.61c-30.22,15.45 -38.59,-22.02 -39.87,152.49 -1.69,229.3 -9.69,288.6 115.52,348.2l59.66 30.4c3.52,1.89 10.08,5.76 15.11,8.63 4.36,-3.64 11.17,-7.11 14.35,-9.19 3.13,-2.05 10.33,-6.57 14.13,-9.11 3.72,-2.5 9.8,-6.2 13.81,-8.99 93.35,-65.06 113.58,-154.24 125.21,-295.13l-147.43 -11.63c3.39,-5.03 8.34,-11.11 10.94,-14.54 2.57,-3.38 7.68,-10.25 10.8,-14.36l80.88 -129.39c-81.3,-126.17 -88.03,-117.4 -240.8,-58 -3.54,1.38 -13.48,10.12 -16.05,5.43 -2.59,-4.72 -10.65,4.15 -16.25,5.18z"/>
   <path class="fil20" d="M3647.17 2075.68c-106.39,105.11 -55.35,433.95 30.72,547.42 47.19,-46.95 48.76,-17.38 121.98,-49.37 100.7,-44.01 144.87,-181.92 140.76,-290.37 -72.7,-25.62 -62.21,9.43 -137.74,-21.24 74.64,-112.22 148.91,-73.03 36.2,-233.93 -160.45,-19.97 -154.64,39.65 -191.91,47.49z"/>
   <path class="fil21" d="M2381.49 5193.19l-25.49 -23.22 -8.09 52.18c-15.66,128.84 200.24,1012.55 845.87,332.6 91.24,-96.09 271.5,-164.35 402.6,-181.02l-60.09 -30.06c-9.12,-1.14 -51.2,7.55 -55.5,8.42 -139.27,2.44 -252.71,91.45 -328.93,160.69 -54.46,49.47 -92.05,70.22 -138.73,116.04 -62.22,61.08 -62.49,67.6 -148.17,97.08 105.59,-380.65 -90.99,-848.34 -264.27,-909.27l-55.55 16.37c86.51,45.89 100.07,59.17 158.17,151.28 306.42,485.68 106.79,1079.43 -199,559.15 -71.69,-121.97 -79.96,-214.33 -122.83,-350.23z"/>
   <path class="fil22" d="M2554.27 2478.33c-5.04,-2.87 -11.6,-6.74 -15.11,-8.63l-59.66 -30.4c-125.2,-59.6 -117.2,-118.9 -115.52,-348.2 1.28,-174.51 9.65,-137.04 39.87,-152.49 87.23,-252.79 280.54,-375.6 438.15,-238.1 189.48,165.29 214.08,655.45 -131.31,873.9 -101.84,-37.66 -58.46,-69.94 -156.42,-96.08zm-275.18 -75.82c12.23,30.13 -3.6,13.87 26.14,31.92 195.96,35.07 299.73,102.83 394.54,258.32l40.72 -57.42c66.86,-75.82 207.09,-121.05 266.55,-369.4 145.79,-608.88 -344.88,-890.39 -586.88,-501.57 -107.36,172.49 -111.69,421.16 -56.36,638.58l-84.71 -0.43z"/>
   <path class="fil23" d="M3677.89 2623.1c-86.07,-113.47 -137.11,-442.3 -30.72,-547.42 108.67,-336.91 475.68,-438.01 569.52,-32.66 40.06,173.03 6.2,337.23 -64.23,478.49 -53.33,106.96 -60.03,65.94 -172.27,103.71 -72.38,24.37 -114.5,63.58 -192.81,82.99 -40.44,-32.41 -67.63,-65.23 -109.49,-85.12zm67.07 194.98c187.77,-132.08 223.86,-151.26 507.27,-171.52 -14.15,-22.62 -70.44,-51.56 -60.59,-94.08 103.4,-150.91 133.43,-392.9 61.82,-588.22 -80.11,-218.49 -293.62,-304.39 -462.63,-186.28 -209.97,146.73 -367.81,616.53 -82.75,926.46 36.58,39.76 31.18,37.96 36.1,101.73 0.16,2.02 -0.53,8.15 0.79,11.9z"/>
   <path class="fil24" d="M5060.26 5123.05l216.71 21.84 123.56 -1096.43c-107.06,62.09 -135.33,50.81 -150.63,187.69 -12.41,111.08 -23.42,215.47 -32.87,323.54 -53,605.94 18.73,477.05 -156.77,563.36z"/>
   <path class="fil25" d="M4804.99 4229.23l-112.34 1106.12c-0.17,2.35 -4.71,45.73 -4.13,49.93 6.53,47.59 3.88,25.85 14.16,43.83 36.79,-75.65 27.73,-120.41 75.19,-178.28 1.95,-2.37 65.87,-59.68 68.87,-61.61 53.06,-34.07 33.17,-37.19 107.35,-23.33 41.04,-33.56 -55.58,-45.86 56.5,-31.52 -9.06,-66.17 24.77,-4.67 -10.32,-58.95l-122.7 16.77 51.83 -712.54c-52.9,102.51 -50.13,294.6 -65.58,430.94 -38.84,342.64 5.9,316.65 -111.9,364.69 14.41,-216.59 112.14,-824.07 88.72,-982.15l-13.8 -9.88 -21.82 45.99z"/>
   <path class="fil4" d="M3094.39 2867.15l-7.07 8.61c-69.2,-24.05 -104.62,-40.01 -112.73,-146.25 -19.87,-260.35 296.06,-314.65 405.27,-208.07 268.35,261.88 -219.77,564.65 -285.48,345.71zm24.42 -433.87c-82.19,34.75 -121.21,47.16 -160.03,124.89 -31.23,62.54 -40.13,155.84 -15.29,231.1 43.68,132.38 201.06,256.92 380.63,177.12 363.24,-161.43 126.95,-673.61 -205.32,-533.12z"/>
   <path class="fil26" d="M3087.32 2875.76l7.07 -8.61c112.52,-0.45 214.84,41.62 276.29,-68.11 43.7,-78.05 43.59,-205.63 -71.15,-273.4 -4.74,4 -10.33,9.71 -13.2,13.1 -2.81,3.32 -9.16,9.15 -12.41,13.3l-81.87 129.49 -174.46 -26.69c-7.43,150.72 12.52,138.8 69.74,220.93z"/>
   <path class="fil10" d="M4692.65 5335.34l112.34 -1106.12c5.32,-104.08 14.7,-51.76 -41.92,-74.75l-82.89 613.94c-16.99,186.49 -64.53,463.21 -62.11,634.13 60.39,-19.79 14.19,-11.47 74.57,-67.21z"/>
   <path class="fil27" d="M3494.8 3167.95c-57.01,53.42 -127.44,66.76 -216.89,68.43 -346.96,6.48 -435.23,-191.2 -568.83,-228.25 94.17,269.56 705.4,392.52 951.03,147.61 57.38,36.07 102.44,80 212.01,79.22 -19.68,-49.63 -71.09,-52.16 -126.08,-102.88 -93.65,-86.35 -31.7,-101.23 -85.93,-191.6l-27.94 66.46c-6.93,32.82 17.1,153.88 -137.37,161z"/>
   <path class="fil28" d="M3067.33 2601.96c5.78,-109.84 148.23,-113.64 158.87,-41.22 9.93,67.56 -75.23,121.24 -158.87,41.22zm19.99 273.8c-57.22,-82.13 -77.17,-70.2 -69.74,-220.93l174.46 26.69 81.87 -129.49c3.25,-4.15 9.6,-9.98 12.41,-13.3 2.87,-3.39 8.46,-9.1 13.2,-13.1 114.74,67.78 114.85,195.36 71.15,273.4 -61.46,109.73 -163.77,67.66 -276.29,68.11 65.71,218.94 553.83,-83.83 285.48,-345.71 -109.21,-106.57 -425.14,-52.27 -405.27,208.07 8.1,106.24 43.53,122.2 112.73,146.25z"/>
   <path class="fil8" d="M1411.89 3541.35c49.45,36.38 -3.13,15.37 83.41,35.09 14.83,3.37 56.2,0.64 74.32,2.65l-144.64 10.56c41.52,37.57 61.06,22.13 134.41,24.92l-45.71 283.06c-122.63,32.8 -191.83,8.84 -299.7,-33.22l-8.3 65.95c82.92,56.06 274.72,61.26 401.42,19.84 35.3,-109.4 54.96,-306.75 43.17,-437.51 -103.9,29.47 -121.86,34.9 -238.38,28.67z"/>
   <path class="fil29" d="M5081.24 5039.33c67.78,-36.36 27.56,28.64 50.24,-77.56l32.84 -341.6c18.4,-153.52 28.88,-311.83 43.94,-465.3 -121.69,35.14 -71.29,84.64 -108.69,423.3 -8.4,76.13 -15.89,153.44 -21.26,229.42l2.94 231.73z"/>
   <path class="fil30" d="M571.25 2339.41c-210.92,-166.42 -238.24,-17.32 -117.97,117.85l152.5 135.74 108.75 -87.93 -143.28 -165.66z"/>
   <path class="fil31" d="M5846.6 2729.41l83.07 112 155.87 -125.87c31.31,-28.05 85.63,-77.41 93.24,-120.58 16.99,-96.38 19.19,103.21 -4.16,-47.86 -0.57,-3.67 -3.06,-11.02 -5.42,-16.2 -103.03,-36.46 -225.61,104.72 -322.6,198.51z"/>
   <path class="fil32" d="M4426.19 943.12c-125.47,-56.77 -998.63,-193.03 -1167.91,-185.75 135.38,63.59 975.47,182.88 1167.91,185.75z"/>
   <path class="fil33" d="M3030.58 3375.04c18.7,60.5 -26.15,26.97 45.14,67.53 65.98,37.53 212.9,58.61 298.86,-17.38 -49.63,-22.63 -104.18,1 -176.43,-6.77 -66.21,-7.12 -114.33,-33.76 -167.57,-43.38z"/>
   <path class="fil34" d="M3067.33 2601.96c83.65,80.02 168.8,26.35 158.87,-41.22 -10.65,-72.42 -153.1,-68.62 -158.87,41.22z"/>
  </g>
 </g>
</svg>
