<?xml version="1.0" encoding="UTF-8"?>
<!DOCTYPE svg PUBLIC "-//W3C//DTD SVG 1.1//EN" "http://www.w3.org/Graphics/SVG/1.1/DTD/svg11.dtd">
<!-- Creator: CorelDRAW 2021 (64 Bit) -->
<svg xmlns="http://www.w3.org/2000/svg" xml:space="preserve" width="89.1573mm" height="79.5375mm" version="1.1" style="shape-rendering:geometricPrecision; text-rendering:geometricPrecision; image-rendering:optimizeQuality; fill-rule:evenodd; clip-rule:evenodd"
viewBox="0 0 113827.42 101545.79"
 xmlns:xlink="http://www.w3.org/1999/xlink"
 xmlns:xodm="http://www.corel.com/coreldraw/odm/2003">
 <defs>
  <style type="text/css">
   <![CDATA[
    .fil50 {fill:#013558}
    .fil24 {fill:#022549}
    .fil15 {fill:#022857}
    .fil48 {fill:#034767}
    .fil29 {fill:#041C54}
    .fil32 {fill:#051739}
    .fil55 {fill:#051947}
    .fil0 {fill:#05C2C4}
    .fil54 {fill:#080A28}
    .fil26 {fill:#080B35}
    .fil30 {fill:#0D2238}
    .fil13 {fill:#132C4F}
    .fil58 {fill:#166C89}
    .fil7 {fill:#171748}
    .fil18 {fill:#171A57}
    .fil4 {fill:#25B3BD}
    .fil39 {fill:#261848}
    .fil20 {fill:#262657}
    .fil21 {fill:#270529}
    .fil19 {fill:#27ABB9}
    .fil16 {fill:#27B7C4}
    .fil5 {fill:#290836}
    .fil33 {fill:#291537}
    .fil53 {fill:#2B306A}
    .fil59 {fill:#2B4C75}
    .fil36 {fill:#3092AB}
    .fil44 {fill:#30B2C4}
    .fil38 {fill:#311052}
    .fil17 {fill:#350935}
    .fil22 {fill:#350E65}
    .fil49 {fill:#360428}
    .fil9 {fill:#36153A}
    .fil41 {fill:#381646}
    .fil43 {fill:#461846}
    .fil37 {fill:#46A4BB}
    .fil2 {fill:#4A93C5}
    .fil46 {fill:#4B0E51}
    .fil52 {fill:#50463C}
    .fil10 {fill:#53A2AE}
    .fil60 {fill:#554D6B}
    .fil12 {fill:#569AAA}
    .fil28 {fill:#6487BB}
    .fil62 {fill:#8C5273}
    .fil64 {fill:#928B94}
    .fil57 {fill:#98A6CD}
    .fil61 {fill:#AD7092}
    .fil40 {fill:#AE3A93}
    .fil63 {fill:#AE92AD}
    .fil51 {fill:#B2ABB3}
    .fil31 {fill:#D3319C}
    .fil45 {fill:#DC55A6}
    .fil56 {fill:#E0A8D2}
    .fil47 {fill:#EAA8C6}
    .fil25 {fill:#EBA4BB}
    .fil34 {fill:#EBAFD0}
    .fil8 {fill:#F3A5BB}
    .fil3 {fill:#F49EB2}
    .fil11 {fill:#F5A3B3}
    .fil35 {fill:#F6B3C9}
    .fil42 {fill:#F7EBF9}
    .fil6 {fill:#F8EAE9}
    .fil27 {fill:#F9F2D4}
    .fil14 {fill:#FAA4B3}
    .fil1 {fill:#FBFCFC}
    .fil23 {fill:#FCF7E8}
   ]]>
  </style>
 </defs>
 <g id="Camada_x0020_1">
  <metadata id="CorelCorpID_0Corel-Layer"/>
  <g id="_2076704358928">
   <path class="fil0" d="M45107.33 33875.15l88.09 1721c622.9,1719.72 229.3,4082.26 305.9,5800.7l162.52 912.33c130.86,3559.19 -3605.28,7264.44 -7775.51,6485.65l382.88 -469.19 410.08 -1357.9 -3000.76 -778.53c-3019.02,457.19 -5698.44,-2848.96 -6736.01,-5114.86 -1741.42,-3802.41 -1058,-5691.03 -544.26,-9654.81l-858.71 -213.46c-133.29,-39.58 -789.77,192.53 -765.13,-597.62 -696.82,-344.33 -486.04,314.2 -601.07,-874.29 -189.59,-1961.02 -95.63,-277.3 382.76,-990.08l403.95 -669.63c-865.99,-1026.34 -1244.02,1541.87 -342.54,-1873.43l2705.33 -2882.41c1499.49,-1097.45 2911.9,-1762.49 5432.12,-1347.43 1581.45,2231.29 1436.42,2708.65 -435.48,4304.28l-750.83 682.91c3832.41,256.36 12241.93,1462.34 11536.67,6916.8zm9337.94 24033.3c-1278.75,76.22 -2614.18,346.24 -4346.92,400.63 -207.97,-22.85 -2001.36,735.13 -2295.38,-2652.73 -382.63,-4408.58 2500.3,-6774.7 4294.83,-8630.77l-920.38 -583.07c-3350.96,-1847.65 -4154.26,-1327.13 -4154.26,-5829.94l782.24 -424.25c73.79,-216.78 210.53,295.56 344.71,415.69l-18.77 -1114.56c80.82,-2331.39 1181.46,-2305.6 3354.79,-3200.82 -594.18,-1778.96 -2102.73,-1521.19 -1679.89,-3779.17 -47.88,-1646.69 -1137.67,-3203.38 -1025.58,-5677.37 114.78,-2538.09 1207.25,-3167.5 1728.02,-4709.63 209.89,-1563.32 198.02,-1321 1551.83,-2128.52 688.27,-410.46 1206.36,-596.6 1725.98,-384.54 -1467.44,1.66 -2308.66,-2.68 -3398.58,355.69 -675.63,222.27 -435.36,576.05 -1690.36,461.15 -2674.44,-245 -1035.53,502.89 -1501.66,-986.76l32.81 -382.37c-340.75,-232.62 -1784.32,1421.86 -616.52,-2096.6 218.06,-657.12 597.24,-859.35 1055.83,-1162.82 2729.72,-1805.9 7861.56,-1410.76 10873.55,768.19l112.22 3176.57c4453.27,1460.93 8722.56,7001.31 7850.45,11948.92 -212.57,1206.23 -606.18,1460.17 -270.92,2962.21l234.02 633.37c33.32,99.84 94.09,204.91 126.27,299.39 720.06,2112.05 -1296.62,3570.94 -3349.3,4511.23 -1685.38,772.02 -3661.07,341.52 -5506.04,282.66l-808.15 4102.3 1017.66 216.15c1700.06,223.04 -1122.61,-95.5 782.49,65.88 777.64,65.88 1136.9,4.85 1985.15,182.57 805.73,168.65 2061.88,805.98 2815.13,1305.43 1545.32,1024.68 3251.64,3153.71 2098.01,5804.66 -927.52,2131.07 -3168.27,2211.12 -5493.91,3034.34 -4421.73,1565.11 -3197.5,3336.41 -5689.37,2816.92zm1281.55 18052.71c1553.75,-38.56 4672.73,-1265.72 5923.14,-2072.09 607.97,-1560.26 1410.12,-1471.78 3157.8,-2126.86l18115.14 -7086.09c2157.88,-762.06 5254.14,-1672.23 6771.38,-2752.06 37.54,-2040.55 -2869.01,-7000.8 -4187.46,-7460.42 -3258.15,-1135.63 -3704.99,3040.09 -8396.37,2443.87 -2399.18,-627.24 -905.44,379.95 -1367.6,-1153.63 -638.22,-26.81 -260.06,68.05 -932.63,-250.23 -110.43,-52.34 -428.08,-261.98 -534.17,-332.33l-3970.68 -5247.12c-1690.48,-4425.95 2555.19,-6546.55 3083.24,-7147.5l2747.85 -4253.46c-1989.36,-6250.48 -8536.04,-13150.17 -8309.42,-16600.33 -1493.23,-341.01 -188.06,295.3 -1100.52,-675.63l-1711.29 -2898.37c-1948.25,-3023.36 -5329.34,-9960.58 -6710.61,-11194.01 -2622.09,176.31 -8465.95,3311.13 -11657.07,4347.3l-33535.8 12813.51c242.45,2184.82 11480.37,20204.6 13590.76,24042.88l5615.96 10305.8c432.8,713.55 673.84,1083.41 1198.82,1725.85 2890.07,3537.49 870.71,2268.57 2710.19,4753.29 396.29,535.32 5325.9,10301.85 7183.24,12505.05 410.08,486.3 293.64,385.05 684.95,764.62 4218.23,183.21 9057.95,-2945.61 11631.15,-2452.04z"/>
   <path class="fil1" d="M4753.55 31515.04c425.27,-1743.59 2313.9,-5876.54 3316.49,-7271.08 1709.51,-2378.63 18214.85,-7690.09 21553.31,-8984.42 4586.17,-1777.94 26816.13,-10918.62 29934.99,-10602 1923.61,1886.07 3612.43,5255.42 5063.79,7919.65l13743.07 24843.11c1214.78,1269.04 1503.96,2027.92 2030.98,3608.09l4238.78 1303.39c1661.63,396.42 1563.45,99.97 2467.74,1370.29 1193.08,231.85 12.26,-494.21 1531.41,827.56 531.87,462.68 839.18,756.32 1273,1271.6 3883.22,4614.13 802.54,9502.5 555.75,11680.94 277.81,302.07 2353.09,3652.27 2529.28,4079.07 704.1,1706.06 -821.81,2475.14 -2276.36,3155.63 -210.78,2068 -1151.46,2412.59 -716.61,4908.16l6100.6 1687.8c171.46,-3389.65 1854.16,-7919.01 4745,-8008.76 490.13,-436.76 -652.91,-290.32 1325.86,-711.38 1101.03,-234.4 2407.86,167.76 3370.24,566.98 1610.56,667.84 1863.35,1399.01 2535.92,3195.08 2745.55,4305.68 825.64,15627.49 -3166.73,17160.94 -2929.52,1125.16 -6774.7,-1330.07 -8813.85,-2537.96 -2568.09,-1521.19 -5402.11,-2574.6 -8730.1,-3162.01l-2337.52 95.63 -1261.38 196.1c1263.43,5410.03 2006.85,6402.67 471.87,12236.44 -1600.99,6084.77 -5925.56,9278.82 -11750.14,3791.04 -1080.98,-1018.43 -2777.72,-2312.75 -3947.57,-3165.2 -2824.71,-2058.43 -5845.51,-4665.84 -10272.87,-4478.8 -2141.8,2010.3 -7669.8,3253.81 -10632,4480.72 -10817.38,4479.57 -9492.93,4776.02 -19141.36,-13049.7 -917.31,-1694.82 -1750.23,-3527.79 -2642.9,-4712.06 -1485.44,1823.77 -2837.22,5162.35 -2788.58,7942.12 67.15,3853.6 3715.46,4186.57 2521.49,8239.46 -1015.87,1513.4 -2997.57,859.48 -4366.45,27.83 -1381.39,-839.05 -73.16,-247.04 -1504.85,-830.37 -391.95,1187.46 -942.97,2580.73 -1218.49,4110.09 -899.57,4994.46 -2019.49,4035.28 -4773.59,3344.96 -1573.92,-394.63 -2692.95,1091.96 -5341.85,-3889.48 -1884.03,-3543.36 1313.09,-8071.45 3123.33,-9743.93 4706.95,-4348.96 4649.63,-13364.53 9528.29,-17063.78l-295.3 -1330.84c-1003.11,-856.16 -6926.12,-11809 -8002.89,-13783.67 -1174.95,-2154.95 -2837.09,-5132.48 -4121.71,-7167.28 -1044.98,-1654.99 -3300.79,-5552.26 -3822.45,-7464.76 -818.49,-655.33 -270.02,-3015.7 -35.62,-4085.2zm18028.71 63419.22c2961.06,-497.15 4343.98,-469.83 6212.06,-2965.91l1463.23 -2118.05c5580.09,12505.31 10883.64,8669.45 24845.92,2922.88 6437.65,-2649.67 4865.01,-2650.95 14215.96,4740.78 2216.61,1752.28 5952.5,5480.12 11514.84,3435.1 5899.65,-2169.12 8840.92,-9710.73 8452.93,-17914.19 4710.14,1228.19 9657.62,5632.82 14367.13,5337.9 12029.99,-753.51 13801.29,-26851.24 1875.6,-29964.99 -4410.5,-1151.46 -5270.36,341.26 -8559.79,1199.21 -1113.8,-1246.96 -1584.39,-1721.63 -1588.35,-3097.54 -1.02,-372.03 3272.19,-11771.2 -5748.1,-16917.72 -1219.25,-695.55 -6110.69,-2308.92 -6843.26,-3187.29l-14034.42 -25259.19c-7644.52,-13097.83 -5973.57,-13687.28 -23476.79,-6754.78 -9491.14,3759 -18933.13,7123.37 -28473.17,10803.97 -4730.95,1825.43 -10469.09,3122.43 -12668.98,6558.55 -2509.62,3919.61 -5459.06,9415.94 -3904.8,15314.06 626.48,2377.35 12597.36,22789.67 14035.05,25248.34 2477.44,4236.23 -726.44,3733.97 -3891.26,13310.02 -1545.07,4674.9 -11727.67,10786.36 -5416.54,19802.56 1233.68,1762.49 2677.63,4158.73 5254.66,4774.36 2333.18,557.28 5792.53,1279.26 7985.91,382.5 2623.11,-1072.43 3062.17,-2768.15 4382.16,-5650.56z"/>
   <path class="fil2" d="M5512.42 32744.12l2.3 2349.9c1076.26,1018.04 1127.07,1963.57 1901.14,3310.75 700.14,1218.61 1098.6,2059.19 1808.58,3238.1 1433.1,2379.26 2103.5,3581.92 3482.59,6114.52l5557.74 9497.91c497.4,834.33 787.85,1821.47 1577.49,2581.62 1460.68,764.87 1256.28,989.83 2039.92,2137.84l2206.65 -156.14 2562.85 -813.9 284.45 801c1987.19,719.68 2338.03,1802.32 2191.84,4318.07 887.18,1958.46 -2805.68,3564.81 -2325,6019.27 40.47,207.08 9632.98,17778.35 10500.12,18228.26l1263.3 494.21c301.81,-1846.88 78.64,-3341.77 1325.98,-4538.3 677.16,-1321.9 2074,-4154.65 2237.04,-5521.36l-31848.9 -56357.13c-1887.48,465.74 -3147.97,4300.19 -3707.55,6158.82l-1060.56 2136.56z"/>
   <path class="fil3" d="M23162.46 64183.58c-529.19,1457.48 -1491.96,2063.92 -2337.64,3299.51 -2282.36,3334.11 -3532,6094.98 -4846.24,10201.11 -2076.94,6489.48 -8154.56,7719.97 -6411.99,14006.33l1768.23 -4834.11 895.86 -259.04c871.61,2463.27 175.93,273.98 -163.42,1232.66 -1263.81,1611.07 -1510.6,4801.55 -566.6,6699.5 2403.52,-66.9 1168.95,-1767.98 2462.51,-5472.21 641.03,-1835.13 247.81,-1095.03 1424.29,-1664.95 -315.09,2581.62 -1958.72,5485.61 -474.42,7819.3l1416.63 -31.41c596.09,-1157.2 839.43,-2953.4 1307.98,-4558.98 544.9,-1867.05 1208.78,-2456.25 1864.37,-3908.12l1889.14 1044.6c1996.51,-14.94 1633.8,838.03 2656.18,-789.26 -1422.5,-4052 -3363.09,-3015.96 -1729.68,-9228.91 804.96,-3062.17 2339.56,-6888.45 4423.14,-8257.08 222.78,-1290.87 -70.6,-48 582.82,-1336.33 404.08,-796.15 360.29,-428.59 651.12,-1409.99 839.82,-2491.61 -128.56,-3756.06 -1872.16,-4305.55 -1084.43,262.62 -820.41,179.5 -1643.12,757.6 -155.12,108.9 -556,459.49 -665.8,544.9 -714.7,556.13 -185.5,191.63 -631.2,450.42z"/>
   <path class="fil4" d="M11454.84 23429.29c253.68,2243.04 6286.74,11946.75 7755.46,14482.92l22285.88 39552.52c655.84,1224.1 1286.79,2801.09 2235.51,3405.48l10677.96 -4002.21c1570.22,-779.3 493.32,-28.6 1317.17,-906.84 -2573.2,-493.57 -7412.92,2635.24 -11631.15,2452.04 -391.31,-379.56 -274.87,-278.32 -684.95,-764.62 -1857.35,-2203.21 -6786.95,-11969.73 -7183.24,-12505.05 -1839.47,-2484.72 179.89,-1215.8 -2710.19,-4753.29 -524.98,-642.44 -766.02,-1012.3 -1198.82,-1725.85l-5615.96 -10305.8c-2110.39,-3838.28 -13348.32,-21858.05 -13590.76,-24042.88l33535.8 -12813.51c3191.12,-1036.17 9034.97,-4170.99 11657.07,-4347.3 1381.27,1233.42 4762.36,8170.65 6710.61,11194.01l1711.29 2898.37c912.46,970.93 -392.71,334.62 1100.52,675.63 45.07,-1989.61 -2901.18,-6084.26 -4076,-8069.53 -1509.06,-2550.09 -3189.72,-5591.96 -4564.47,-7942.63 -2144.61,2.68 -20378.74,7317.68 -23992.57,8655.79l-23739.15 8862.75z"/>
   <path class="fil5" d="M76378.14 85202.71c-190.87,-2528.13 2043.49,-6354.15 3834.45,-6897.65 2603.58,-790.28 2122.9,1255.13 2123.41,1258.7 590.09,486.81 276.66,-295.81 948.34,1262.66 123.07,285.6 437.02,1686.78 488.34,2023.83 241.55,1585.41 231.85,2894.29 -109.67,4468.84 -2465.57,11365.47 -9915.13,10766.69 -8006.72,-231.98 131.5,-757.47 17.36,-350.71 251.77,-982.3 449.78,-1212.87 187.55,-435.99 470.08,-902.12zm-7205.84 -4324.96c-312.79,-891.78 1844.07,-1194.1 2923.27,-1692.65 429.48,452.46 298.11,-152.82 415.82,781.21l-779.81 2162.48c-815.94,-75.45 -116.56,384.67 -1468.72,-322.62 -1403.35,-733.98 -447.87,-300.41 -1090.56,-928.42zm11302.02 -6651.88l-560.73 1083.54c-1720.1,689.55 -2814.24,112.22 -5073.11,1465.66 -2424.2,1452.51 -6292.1,3495.23 -8918.41,2665.25 -2255.42,-712.78 -3400.24,-909.27 -5882.92,-341.39 -4391.22,1004.13 -4718.31,2829.3 -6062.43,4017.4 -736.4,650.86 -102.26,261.98 -1087.62,587.28 -18.64,6.13 -880.67,185.63 -995.32,215.89 -3120.39,823.09 -6079.66,2613.03 -9186.9,3435.74l-705.25 484 367.31 -995.96c2638.44,-1804.36 9129.96,-3056.04 11197.84,-4730.95 -2386.16,47.24 -8394.96,2841.56 -10885.43,3705.38l580.52 -1369.77c-532.64,-850.28 -1874.46,2996.04 -1743.08,3957.01 2255.04,-11.87 9225.46,-3706.4 12194.56,-4503.57 -328.88,1605.71 -78.13,1164.1 -2072.34,1857.22l-8705.46 3267.08 1796.32 219.98c1821.86,-252.53 3470.21,-1202.4 5508.85,-1937.4 872.24,-314.58 1993.44,-622.27 2818.07,-940.16 1316.79,-508.26 1328.92,-779.56 2845.64,-1237.64 2889.82,333.73 2250.44,-34.22 2056.39,581.54l307.69 778.92c4427.35,-187.04 7448.16,2420.37 10272.87,4478.8 1169.84,852.45 2866.58,2146.78 3947.57,3165.2 5824.58,5487.78 10149.15,2293.73 11750.14,-3791.04 1534.98,-5833.77 791.56,-6826.41 -471.87,-12236.44l1261.38 -196.1c-706.66,-432.42 -34.6,-247.17 -1193.59,-465.23 -127.16,-23.87 -1119.29,-44.68 -1273.89,-43.92 -2053.58,11.23 -689.8,-342.28 -2614.18,399.1 -1692.65,-221 -2355.9,1204.95 -3206.19,2657.59 -1529.49,2955.06 -2733.29,7374.37 -2000.85,11136.3l629.16 3249.21c-1830.03,-812.24 -1479.32,-1070.52 -2769.17,-2512.3 -1180.44,-559.2 -2108.86,-1431.44 -3144.01,-2287.34 -1311.05,-1083.79 -1864.24,-1539.07 -3434.84,-2402.37 -2066.09,-1135.5 -5408.24,-3235.04 -8018.08,-3034.47 -1645.03,123.71 -2004.42,-67.54 -2919.95,-954.46 910.54,-1289.6 176.57,-663.89 1342.96,-1220.66 895.35,-1873.43 4427.35,-2929.65 7552.08,-2381.18 3793.09,665.8 4951.31,2522.38 7414.33,3499.57 -28.34,1942.5 -417.61,2098.52 447.1,3722.23 852.97,-1860.8 461.4,-4422.76 1890.16,-6341.64 871.09,-2994 3000,-3646.65 6348.15,-4134.35l1230.49 22.73 -1185.67 -552.17c1040.39,-741.25 950.51,-295.17 1154.4,-1831.81l1264.32 392.59c-194.95,-2591.71 -590.48,-29.24 0,-2455.74 -1509.32,915.65 -588.3,661.46 -2066.98,1852.88z"/>
   <path class="fil6" d="M64589.57 78743.23c991.1,-1467.32 8998.84,-4629.07 11121.49,-5001.23l-11121.49 5001.23zm20014.37 -10526.8l1580.3 -1013.32c811.47,-369.48 1059.28,-465.1 1863.09,-722.23 -501.49,661.97 -266.83,684.31 -1406.8,1243.64 -836.24,410.2 -1168.95,403.82 -2036.6,491.91zm-40069.59 13609.66l-918.46 1795.3c6056.94,-2658.86 13837.93,-5518.17 20269.96,-7796.57 3856.67,-1366.07 18157.91,-7540.72 20718.09,-7608.39 -1080.47,916.93 -3471.48,1691.89 -4817.38,2263.98l-36524.69 13967.52 -580.52 1369.77c2490.47,-863.82 8499.27,-3658.14 10885.43,-3705.38 -2067.88,1674.91 -8559.4,2926.59 -11197.84,4730.95 -101.11,613.58 -247.43,468.42 337.94,511.96 3107.24,-822.71 6066.51,-2612.65 9186.9,-3435.74 114.65,-30.26 976.68,-209.76 995.32,-215.89 985.36,-325.3 351.22,63.58 1087.62,-587.28 1344.11,-1188.1 1671.2,-3013.28 6062.43,-4017.4 2482.68,-567.88 3627.5,-371.39 5882.92,341.39 2626.31,829.98 6494.21,-1212.74 8918.41,-2665.25 2258.87,-1353.43 3353.01,-776.11 5073.11,-1465.66 263.13,-1851.22 228.4,-600.31 -426.8,-967.61 -2012.34,1069.88 -11654,4431.69 -13551.82,4551.83 3614.22,-1315.52 7412.79,-3040.34 11181.88,-4443.06 3577.71,-1331.35 2115.5,-237.21 3937.74,-2313.9 1558.22,-1775.77 4411.01,-2446.16 7136.9,-2525.32 666.82,-1536.64 245.25,-2963.23 1138.05,-3928.42 -745.08,-911.31 52.47,-581.92 -1292.02,-385.56l-10000.93 3834.45c-3826.79,1400.8 -7271.46,2872.33 -11154.43,4301.98 -3479.02,1281.04 -20500.28,8351.17 -22347.8,8392.28z"/>
   <path class="fil4" d="M47228.7 19057.1c178.74,-2412.97 1713.85,-3143.12 4459.27,-3324.28 2467.48,-162.78 4857.86,50.69 5986.08,2004.55 -8493.65,298.24 -8249.67,2109.24 -10478.16,1702.1 466.12,1489.66 -1172.78,741.76 1501.66,986.76 1255,114.9 1014.72,-238.87 1690.36,-461.15 1089.92,-358.37 1931.14,-354.03 3398.58,-355.69 -519.62,-212.06 -1037.7,-25.92 -1725.98,384.54 -1353.82,807.51 -1341.94,565.2 -1551.83,2128.52 3455.53,-1318.96 5110.64,-3058.98 9387.73,-632.22 2745.55,1557.71 4555.66,3664.52 5416.92,7419.94 755.81,3246.4 -848.11,5152.14 -1997.15,6889.47l-96.39 1539.7 1004 -101.11c750.32,-253.55 934.04,-383.65 1699.42,-745.34 -657.37,1321.9 -1539.58,1985.78 -2843.86,2628.48 -2320.15,1143.29 -3095.11,206.19 -4760.95,653.42 -1412.16,-332.58 -1344.62,-476.59 -2691.42,-943.61 2152.14,2279.3 324.28,5481.14 -2112.18,6159.33 -3335.9,928.67 -5919.69,-1279 -5364.71,-4386.5 -134.18,-120.14 -270.92,-632.48 -344.71,-415.69l-782.24 424.25c0,4502.8 803.3,3982.29 4154.26,5829.94l920.38 583.07c-1794.53,1856.07 -4677.46,4222.19 -4294.83,8630.77 294.02,3387.86 2087.41,2629.88 2295.38,2652.73 -387.48,-791.05 -149.5,-448.89 -330.28,-1096.43 -2389.86,-1818.03 -376.88,-5689.5 1086.86,-7347.94 1546.22,-1751.89 3530.34,-3446.21 6613.32,-3750.7 3430.88,-338.71 6434.71,548.85 7270.31,3130.86 1267,3914.24 -2848.71,4132.31 -5426.37,4737.72 -823.98,1037.96 -3012.25,1479.95 -4866.92,3925.86 2491.87,519.49 1267.64,-1251.81 5689.37,-2816.92 2325.64,-823.22 4566.38,-903.27 5493.91,-3034.34 1153.63,-2650.95 -552.68,-4779.98 -2098.01,-5804.66 -753.25,-499.45 -2009.4,-1136.78 -2815.13,-1305.43 -848.24,-177.72 -1207.51,-116.69 -1985.15,-182.57 -1905.1,-161.38 917.57,157.16 -782.49,-65.88l-1017.66 -216.15 808.15 -4102.3c1844.96,58.86 3820.66,489.36 5506.04,-282.66 2052.68,-940.29 4069.36,-2399.18 3349.3,-4511.23 -32.17,-94.48 -92.94,-199.55 -126.27,-299.39l-234.02 -633.37c-335.26,-1502.04 58.35,-1755.98 270.92,-2962.21 872.12,-4947.61 -3397.18,-10487.99 -7850.45,-11948.92l-112.22 -3176.57c-3012,-2178.95 -8143.84,-2574.09 -10873.55,-768.19 -458.59,303.47 -837.77,505.7 -1055.83,1162.82 -1167.8,3518.47 275.77,1863.99 616.52,2096.6z"/>
   <path class="fil7" d="M4753.55 31515.04c935.57,592.65 523.83,-107.24 758.87,1229.08l1060.56 -2136.56c559.58,-1858.62 1820.07,-5693.08 3707.55,-6158.82 498.17,-505.83 839.56,-756.96 1174.31,-1019.45l23739.15 -8862.75c3613.84,-1338.11 21847.97,-8653.11 23992.57,-8655.79 1374.75,2350.67 3055.41,5392.54 4564.47,7942.63 1174.82,1985.27 4121.07,6079.92 4076,8069.53 1068.22,468.42 1414.97,1683.84 2617.11,3647.54l6579.36 11825.72c58.09,76.09 153.59,177.84 209.63,244.87l472.76 467.4 277.94 -879.52 381.35 191.38 -13743.07 -24843.11c-1451.36,-2664.22 -3140.18,-6033.57 -5063.79,-7919.65 -3118.86,-316.62 -25348.82,8824.06 -29934.99,10602 -3338.45,1294.32 -19843.8,6605.79 -21553.31,8984.42 -1002.6,1394.54 -2891.22,5527.49 -3316.49,7271.08z"/>
   <path class="fil8" d="M56425.95 82432.78l-88.35 1106.65c488.72,256.23 355.18,107.75 836.88,427.31 720.57,477.87 478.25,344.58 828.45,641.16 2609.84,-200.57 5951.99,1898.97 8018.08,3034.47 1570.6,863.31 2123.8,1318.58 3434.84,2402.37 1035.15,855.9 1963.57,1728.15 3144.01,2287.34 573.88,-1339.64 -454.89,-212.32 798.32,-578.98 290.58,-85.03 1059.28,-120.01 1341.69,-157.93 -732.44,-3761.93 471.36,-8181.24 2000.85,-11136.3 -137.5,-22.09 -451.57,-54.52 -535.96,-54l-455.27 23.24c-773.81,108.9 478.38,-218.19 -399.1,98.18 -34.6,12.64 -146.31,50.05 -178.23,66.52 -847.6,437.91 -153.84,264.15 -1029.02,1251.3l-413.52 -912.33c-1428.76,1918.89 -1037.19,4480.85 -1890.16,6341.64 -864.71,-1623.71 -475.44,-1779.72 -447.1,-3722.23 -2463.02,-977.19 -3621.24,-2833.77 -7414.33,-3499.57 -3124.73,-548.47 -6656.73,507.74 -7552.08,2381.18z"/>
   <path class="fil8" d="M89319.82 71139.57c-490.89,1318.07 -4806.02,-980 -4573.92,3320.71 1261.13,781.85 1716.4,957.66 3274.23,1298.28l-949.61 418.63 -104.69 273.47c7203.54,857.69 9336.79,4133.45 14740.82,5815.64 -1129.37,-2299.47 -1933.06,-6554.21 -1729.17,-9494.2 148.35,-2138.73 851.69,-6061.28 2480.38,-7644.13 734.23,-713.29 -36.77,-335.52 911.95,-565.96 -453.36,-879.65 -81.71,-690.57 -1661.63,-510.81 -4408.2,1636.22 -4049.7,6074.43 -4577.24,11124.81 -1767.85,-1773.09 458.97,-1899.22 -2749.25,-2937.18 -1464.25,-473.91 -3291.34,-944.89 -5061.87,-1099.24z"/>
   <path class="fil9" d="M25852.22 73209.87c-115.67,-2321.17 615.37,-1392.24 888.59,-3727.34 -2083.58,1368.63 -3618.18,5194.91 -4423.14,8257.08 -1633.41,6212.95 307.17,5176.9 1729.68,9228.91 828.84,1094.26 474.42,229.3 571.07,1856.45 -567.11,73.67 -997.11,216.91 -1663.8,63.45 -990.34,-228.15 -1296.62,-818.37 -1563.45,-1130.65l-1889.14 -1044.6c-655.59,1451.87 -1319.47,2041.07 -1864.37,3908.12 -468.55,1605.58 -711.89,3401.78 -1307.98,4558.98l-1416.63 31.41 -796.15 427.31c-624.18,-842.24 -1128.35,-200.7 -2075.54,-516.17 -1283.47,-427.7 -131.25,175.67 -833.56,-602.6l292.88 9.32c-943.99,-1897.95 -697.21,-5088.43 566.6,-6699.5 109.29,-1234.32 426.16,-973.61 -732.44,-973.61l-1768.23 4834.11c-1742.57,-6286.36 4335.05,-7516.85 6411.99,-14006.33 1314.24,-4106.13 2563.88,-6867 4846.24,-10201.11 845.69,-1235.59 1808.45,-1842.03 2337.64,-3299.51 -1398.37,134.05 -879.78,417.35 -2426.25,-167.63l295.3 1330.84c-4878.67,3699.25 -4821.34,12714.82 -9528.29,17063.78 -1810.24,1672.48 -5007.36,6200.57 -3123.33,9743.93 2648.9,4981.44 3767.93,3494.85 5341.85,3889.48 2754.1,690.31 3874.03,1649.5 4773.59,-3344.96 275.51,-1529.36 826.54,-2922.63 1218.49,-4110.09 1431.7,583.33 123.46,-8.68 1504.85,830.37 1368.88,831.64 3350.58,1485.57 4366.45,-27.83 1193.97,-4052.89 -2454.33,-4385.86 -2521.49,-8239.46 -48.64,-2779.77 1303.13,-6118.35 2788.58,-7942.12z"/>
   <path class="fil10" d="M30956.48 40138.28c2147.29,620.99 4751.25,-1065.28 6544.25,-1940.46 2707.89,-1321.64 3565.19,-1807.56 5408.5,-3523.06l260.7 -1152.48c-1000.81,-1842.92 -1749.85,-2565.02 -3899.69,-3551.28 -6532.64,-2997.06 -11698.56,3767.42 -8313.76,10167.28z"/>
   <path class="fil11" d="M103937.06 64872.62c-1836.41,2012.08 -2971.53,4536.25 -3086.05,8316.19 -103.41,3411.73 402.29,7612.73 2587.75,9097.66 4922.84,-675.25 5175.24,-10353.68 3607.33,-15107.49 -862.8,-1621.03 -259.04,-1360.33 -1812.41,-2631.03l-1296.62 324.67z"/>
   <path class="fil12" d="M55029.23 30554.19c1424.03,-640.91 4630.09,-2063.92 5791.89,-2446.04l2327.05 -1363.77c-969.15,-700.53 -649.08,290.71 -557.03,-856.8 207.72,-2590.81 -4737.59,-4589.62 -7191.29,-4464.63 -4958.84,252.28 -6614.47,5338.92 -4580.81,9967.99l4210.18 -836.75z"/>
   <path class="fil13" d="M82630.54 52483.74l3634.77 -51.58 1231.51 -296.71 -944.25 915.65c636.18,1471.4 1839.6,3286.23 2682.23,4706.82 800.88,1349.99 1734.4,3136.99 2256.7,4584 -1575.45,1101.41 -27192.25,10910.58 -29841.54,11547.14 -1250.4,806.37 -4369.39,2033.53 -5923.14,2072.09 -823.86,878.24 253.04,127.54 -1317.17,906.84l-10677.96 4002.21 -499.96 218.44 1302.62 737.42c1847.52,-41.11 18868.78,-7111.24 22347.8,-8392.28 3882.97,-1429.65 7327.64,-2901.18 11154.43,-4301.98l10000.93 -3834.45c1344.5,-196.36 546.94,-525.75 1292.02,385.56 865.86,-927.65 751.34,1290.24 722.74,-1355.6 867.26,-270.92 178.36,-113.75 663.5,389.52 1454.55,-680.48 2980.46,-1449.57 2276.36,-3155.63 -176.19,-426.8 -2251.47,-3777 -2529.28,-4079.07l-1285.38 -1274.02c342.54,-824.5 -294.41,-479.66 500.98,-909.4l-1280.53 -1778.45c-484.76,-859.99 -156.91,-564.05 -782.24,-1209.29l-459.87 -1093.11c-1423.52,863.18 -466.89,466.51 -2124.43,681.12 -1651.67,213.85 -1229.98,-361.31 -2400.84,584.73z"/>
   <path class="fil3" d="M77112.63 46008.69l1635.97 -194.44c-259.81,710.61 -217.42,581.28 -688.91,1276.32 1252.57,176.82 577.07,-367.31 284.07,918.72 71.24,5.36 1226.27,65.24 1277.47,75.07 1939.31,372.93 -961.74,-917.57 1295.22,462.55l-443.14 867.9c-1169.59,644.86 -1220.91,814.66 -2078.6,1692.27 770.36,1076.01 33.45,-472.76 429.36,803.17 1.02,3.32 189.72,1006.43 265.04,1335.69l1500.76 -189.46c85.67,-21.7 211.55,-172.61 247.04,-96.01 63.71,137.5 390.03,-145.03 526.51,-184.74 1225.76,-355.82 -630.69,-161.5 1267.13,-291.98 1170.86,-946.04 749.17,-370.88 2400.84,-584.73 1657.54,-214.61 700.91,182.06 2124.43,-681.12l459.87 1093.11c102.77,-109.29 245.77,-425.65 300.03,-335.26 334.75,556.26 -18.51,-305.26 1314.11,-1308.62l577.84 1677.08c-168.91,-902.12 262.49,-1671.84 683.42,-2160.57 -773.04,-2401.35 -1935.61,-4243.51 -3405.48,-5341.47l-1696.74 -872.63c-1575.83,693.12 -3647.16,123.33 -4857.73,284.32 -4.98,0.64 -2123.03,603.75 -2169.63,620.73 -981.27,356.71 -1019.83,185.63 -1248.87,1134.1z"/>
   <path class="fil14" d="M76378.14 85202.71c910.8,3922.93 -1938.8,7425.31 2125.71,9040.59 1803.47,-1257.17 3159.59,-2652.86 3633.88,-5442.97 601.33,-3535.7 -246.4,-7114.43 198.27,-9236.57 -0.51,-3.57 480.17,-2048.98 -2123.41,-1258.7 -1790.96,543.49 -4025.32,4369.52 -3834.45,6897.65z"/>
   <path class="fil15" d="M10280.53 24448.74l31848.9 56357.13c960.72,887.18 589.58,-1221.29 710.36,760.28l391.95 -477.49 499.96 -218.44c-948.72,-604.39 -1579.67,-2181.38 -2235.51,-3405.48l-22285.88 -39552.52c-1468.72,-2536.17 -7501.78,-12239.88 -7755.46,-14482.92 -334.75,262.49 -676.14,513.62 -1174.31,1019.45z"/>
   <path class="fil16" d="M26962.06 28074.45c1147.12,-3407.9 6163.29,-7136.13 7958.46,-4176.73 -998.51,2890.97 -5123.92,584.6 -7392.75,5967.82l-751.34 742.91c-24.64,790.15 631.84,558.05 765.13,597.62l858.71 213.46c-513.75,3963.78 -1197.16,5852.41 544.26,9654.81 1037.58,2265.89 3716.99,5572.04 6736.01,5114.86l58.98 -473.15 -2483.57 -1217.21c-8570.51,-5253 -3877.48,-19866.01 6383.64,-15735.88 4004.64,1611.84 3546.43,3500.47 5467.74,5112.18 705.25,-5454.46 -7704.27,-6660.43 -11536.67,-6916.8l750.83 -682.91c1871.9,-1595.62 2016.94,-2072.98 435.48,-4304.28 -2520.21,-415.06 -3932.63,249.98 -5432.12,1347.43l-2705.33 2882.41c-901.48,3415.31 -523.45,847.09 342.54,1873.43z"/>
   <path class="fil17" d="M86965.84 76450.65c-57.58,22.09 -677.93,222.15 -776.49,268.11 -674.23,314.07 -722.49,395.65 -1054.3,630.56 1707.08,-25.02 1292.53,-391.69 2231.04,466.38 3327.98,587.41 6162.01,1640.82 8730.1,3162.01 2039.15,1207.89 5884.33,3663.12 8813.85,2537.96 3992.38,-1533.45 5912.29,-12855.25 3166.73,-17160.94l-1030.68 824.24c1567.92,4753.8 1315.52,14432.24 -3607.33,15107.49 -2185.46,-1484.93 -2691.16,-5685.93 -2587.75,-9097.66 114.52,-3779.94 1249.64,-6304.11 3086.05,-8316.19l-567.24 -310.62c-948.72,230.44 -177.72,-147.33 -911.95,565.96 -1628.69,1582.86 -2332.03,5505.4 -2480.38,7644.13 -203.89,2939.99 599.8,7194.73 1729.17,9494.2 -5404.03,-1682.18 -7537.27,-4957.95 -14740.82,-5815.64z"/>
   <path class="fil18" d="M27974.74 66736.22c-290.83,981.4 -247.04,613.84 -651.12,1409.99 -653.42,1288.32 -360.03,45.45 -582.82,1336.33 -273.21,2335.09 -1004.25,1406.16 -888.59,3727.34 892.67,1184.27 1725.59,3017.23 2642.9,4712.06 9648.43,17825.71 8323.98,17529.26 19141.36,13049.7 2962.21,-1226.91 8490.2,-2470.42 10632,-4480.72l-307.69 -778.92c194.06,-615.75 833.43,-247.81 -2056.39,-581.54l969.53 1074.98 -14790.48 5485.74c-2914.2,1133.07 -3759.51,993.53 -4780.36,-1319.86 -867.14,-449.91 -10459.65,-18021.18 -10500.12,-18228.26 -480.68,-2454.46 3212.19,-4060.81 2325,-6019.27l-1153.25 612.43z"/>
   <path class="fil19" d="M75742.85 55753.89c462.17,1533.58 -1031.58,526.38 1367.6,1153.63 4691.37,596.22 5138.22,-3579.49 8396.37,-2443.87 1318.45,459.61 4224.99,5419.86 4187.46,7460.42 -1517.23,1079.84 -4613.5,1990 -6771.38,2752.06l-18115.14 7086.09c-1747.68,655.08 -2549.83,566.6 -3157.8,2126.86 2649.29,-636.56 28266.08,-10445.73 29841.54,-11547.14 -522.3,-1447.02 -1455.82,-3234.02 -2256.7,-4584 -842.62,-1420.59 -2046.04,-3235.42 -2682.23,-4706.82 -3756.19,504.04 -2731.51,-760.79 -5490.72,1543.41 -1937.01,1617.58 -2931.06,1072.18 -5319,1159.37z"/>
   <path class="fil20" d="M44534.35 81826.09l-1302.62 -737.42 -391.95 477.49c-120.78,-1981.57 250.36,126.9 -710.36,-760.28 -163.04,1366.71 -1559.88,4199.46 -2237.04,5521.36 -1266.75,6718.91 731.55,4715.76 2253.51,4183.25 1351.65,-472.89 1769.89,-335.26 2585.96,-1264.83l-1796.32 -219.98 -848.24 404.59c-765.26,-363.09 -676.01,720.95 -568.52,-1025.32 -131.37,-960.97 1210.44,-4807.3 1743.08,-3957.01l36524.69 -13967.52c1345.9,-572.09 3736.91,-1347.05 4817.38,-2263.98 -2560.17,67.67 -16861.42,6242.31 -20718.09,7608.39 -6432.03,2278.4 -14213.03,5137.71 -20269.96,7796.57l918.46 -1795.3z"/>
   <path class="fil21" d="M90715.77 64716.86c-485.15,-503.28 203.76,-660.44 -663.5,-389.52 28.6,2645.84 143.12,427.95 -722.74,1355.6 -892.8,965.19 -471.23,2391.78 -1138.05,3928.42 -2725.89,79.16 -5578.68,749.55 -7136.9,2525.32 -1822.24,2076.69 -360.03,982.55 -3937.74,2313.9 -3769.08,1402.71 -7567.66,3127.54 -11181.88,4443.06 1897.82,-120.14 11539.48,-3481.95 13551.82,-4551.83l987.53 -115.92c1478.68,-1191.42 557.66,-937.23 2066.98,-1852.88 -590.48,2426.5 -194.95,-135.97 0,2455.74 15.96,-138.27 48.51,-386.2 73.79,-447.74 334.24,-816.96 147.2,-353.65 365.14,-706.66 880.16,-2658.35 2922.63,-2956.21 6339.6,-2534.77 1770.53,154.35 3597.62,625.33 5061.87,1099.24 3208.23,1037.96 981.4,1164.1 2749.25,2937.18 527.53,-5050.38 169.04,-9488.59 4577.24,-11124.81l-863.43 -747.13c-2890.84,89.75 -4573.53,4619.11 -4745,8008.76l-6100.6 -1687.8c-434.85,-2495.57 505.83,-2840.15 716.61,-4908.16z"/>
   <path class="fil22" d="M50605.2 52159.71c1214.91,-356.33 2239.34,-491.91 3618.69,-736.02 633.12,-111.97 1365.43,-307.05 2017.83,-190.48 2284.15,408.55 1144.82,315.86 1622.05,1134.99 -96.39,453.74 1329.69,894.46 1429.4,944.25 737.42,-971.06 89.5,251 682.91,-1109.07 1599.96,-101.5 2617.11,-127.54 3851.56,-663.25l161.25 -2503.49c-3768.7,-2735.21 -6125.37,-3291.6 -11333.42,150.78 -1608.9,1063.37 -1365.69,1360.84 -2050.26,2972.29z"/>
   <path class="fil23" d="M61177.07 28753.91c9.19,1956.55 -419.91,3168.39 -1627.03,3896.24 -1284.49,774.58 -2961.44,568.13 -4327.26,-358.63l-467.27 -743.3 -2999.61 1124.9c1087.24,1976.72 1710.14,1492.85 2634.6,3136.35 2481.15,106.09 5154.69,1659.46 7492.84,-391.69 2186.74,-1918.5 1999.57,-3520.25 2431.99,-7099.87 -1032.85,-902.37 -868.67,-604.9 -3138.26,435.99z"/>
   <path class="fil7" d="M4789.17 35600.23c521.66,1912.5 2777.47,5809.77 3822.45,7464.76 1284.62,2034.81 2946.76,5012.34 4121.71,7167.28 1076.77,1974.68 6999.78,12927.51 8002.89,13783.67 1546.47,584.99 1027.87,301.68 2426.25,167.63 445.7,-258.79 -83.5,105.71 631.2,-450.42 109.8,-85.41 510.68,-435.99 665.8,-544.9 822.71,-578.09 558.69,-494.98 1643.12,-757.6l833.56 -624.95 -284.45 -801 -2562.85 813.9c-340.37,487.06 -133.03,386.2 -813.77,999.4 -599.54,540.05 -669.38,534.68 -1485.96,978.34 -419.14,-1457.23 -1251.94,-2145.88 -1946.84,-3959.44 -789.64,-760.15 -1080.09,-1747.3 -1577.49,-2581.62l-5557.74 -9497.91c-1379.09,-2532.6 -2049.49,-3735.25 -3482.59,-6114.52 -709.97,-1178.91 -1108.43,-2019.49 -1808.58,-3238.1 -774.07,-1347.18 -824.88,-2292.7 -1901.14,-3310.75l-725.55 506.21z"/>
   <path class="fil24" d="M50508.68 22122.46c-520.77,1542.13 -1613.24,2171.54 -1728.02,4709.63 -112.09,2474 977.7,4030.68 1025.58,5677.37l3386.58 3390.92 1766.32 632.61c0,-1007.83 215.12,-681.12 -928.42,-681.12l359.77 -42.39c-924.46,-1643.5 -1547.36,-1159.63 -2634.6,-3136.35l2999.61 -1124.9 273.73 -994.04 -4210.18 836.75c-2033.66,-4629.07 -378.03,-9715.71 4580.81,-9967.99 2453.7,-124.99 7399.01,1873.82 7191.29,4464.63 -92.05,1147.5 -412.12,156.27 557.03,856.8l-2327.05 1363.77 -28.22 613.46 384.16 32.3c2269.6,-1040.9 2105.41,-1338.37 3138.26,-435.99l353.9 -1089.67c-204.02,2807.47 -43.41,937.1 644.1,1681.93 -861.26,-3755.42 -2671.37,-5862.24 -5416.92,-7419.94 -4277.08,-2426.76 -5932.2,-686.74 -9387.73,632.22z"/>
   <path class="fil19" d="M75742.85 55753.89c-433.44,-1835.77 -983.83,-1719.59 -2328.07,-2689.5 -1099.11,-792.71 -2940.76,-5078.47 -1528.72,-7230.23 568.64,-866.75 1795.56,-1842.54 2858.41,-2355.9l850.16 -639.37c-380.33,-278.83 -1161.16,631.33 -341.39,-1510.72 131.88,-344.45 988.68,-1192.31 1139.71,-1363.9l1440.38 -81.96 -127.41 -1773.85 -472.76 -467.4c-56.05,-67.03 -151.54,-168.78 -209.63,-244.87l-6579.36 -11825.72c-1202.14,-1963.7 -1548.9,-3179.12 -2617.11,-3647.54 -226.61,3450.16 6320.06,10349.85 8309.42,16600.33l-2747.85 4253.46c-528.04,600.94 -4773.72,2721.55 -3083.24,7147.5l3970.68 5247.12c106.09,70.35 423.74,279.98 534.17,332.33 672.57,318.28 294.41,223.42 932.63,250.23z"/>
   <path class="fil15" d="M33255.95 44498.86l-127.54 -836.11c-1234.57,-132.9 -737.04,52.86 -1423.01,-1109.58 -651.5,-1103.84 -475.57,-1053.54 -748.91,-2414.88 -3384.8,-6399.86 1781.13,-13164.34 8313.76,-10167.28 2149.84,986.25 2898.88,1708.36 3899.69,3551.28 89.88,69.32 241.3,43.28 274.49,201.46 32.68,156.4 206.57,167.5 247.04,228.53 422.59,635.8 157.16,60.64 472,954.46l-57.45 316.49 552.81 1071.03c414.03,-1246.06 337.94,-458.34 688.53,-834.84l-151.93 136.73 -88.09 -1721c-1921.31,-1611.71 -1463.1,-3500.34 -5467.74,-5112.18 -10261.12,-4130.14 -14954.15,10482.88 -6383.64,15735.88z"/>
   <path class="fil25" d="M76378.14 85202.71c-282.53,466.12 -20.3,-310.75 -470.08,902.12 -234.4,631.59 -120.27,224.83 -251.77,982.3 -1908.42,10998.67 5541.15,11597.45 8006.72,231.98 341.52,-1574.56 351.22,-2883.43 109.67,-4468.84 -51.32,-337.05 -365.26,-1738.23 -488.34,-2023.83 -671.67,-1558.47 -358.24,-775.85 -948.34,-1262.66 -444.68,2122.14 403.06,5700.86 -198.27,9236.57 -474.3,2790.11 -1830.41,4185.8 -3633.88,5442.97 -4064.51,-1615.29 -1214.91,-5117.67 -2125.71,-9040.59z"/>
   <path class="fil26" d="M75742.85 55753.89c2387.95,-87.2 3381.99,458.21 5319,-1159.37 2759.21,-2304.19 1734.53,-1039.36 5490.72,-1543.41l-287.26 -618.95 -3634.77 51.58c-1897.82,130.48 -41.37,-63.84 -1267.13,291.98 -136.48,39.71 -462.8,322.24 -526.51,184.74 -35.49,-76.6 -161.38,74.3 -247.04,96.01l-1194.74 1162.44c-987.02,627.88 -3162.14,1246.83 -3041.23,-893.18l-761.43 -595.84c-455.78,-309.98 212.83,45.71 -441.36,-182.7 -1799.13,-543.88 -1501.53,-333.99 -1784.58,-2205.63 -148.61,-1073.96 -172.1,-1126.95 -493.7,-1916.08l-428.33 -1126.82c1060.3,-1998.93 2014.13,-1761.85 2996.42,-2963.48 -47.24,-130.86 -195.97,-330.28 -249.85,-399.23 -23.75,-30.64 -183.72,-90.26 -204.14,-213.72 -24,-143.5 -163.04,-161.12 -242.45,-243.98 -1062.86,513.36 -2289.77,1489.15 -2858.41,2355.9 -1412.03,2151.76 429.61,6437.52 1528.72,7230.23 1344.24,969.91 1894.63,853.73 2328.07,2689.5z"/>
   <path class="fil27" d="M33506.06 43373.06c2204.74,1152.1 5550.34,2462.25 7494.76,358.12l445.44 -1894.63c-2016.55,-280.75 -2271.64,-571.07 -2815.26,27.58 3319.17,0 533.15,152.18 1701.33,-804.83 -3292.75,342.92 -2295.64,-636.82 -4582.73,-869.31l-3643.71 1348.58 1015.11 1220.27c34.98,44.43 123.2,170.57 150.4,206.57 25.53,33.7 106.35,260.45 123.71,204.91 16.98,-53.62 78.64,132.78 110.95,202.74z"/>
   <path class="fil18" d="M49768.07 57212.65c-280.11,-789.77 -664.14,-1469.49 -618.82,-2441.57 1.53,-32.3 276.02,-1213.63 292.88,-1248.62 487.7,-1010.26 -286.75,-207.34 759.26,-789.39l403.82 -573.37c684.57,-1611.45 441.36,-1908.93 2050.26,-2972.29 5208.06,-3442.38 7564.72,-2885.99 11333.42,-150.78l-161.25 2503.49c-1234.44,535.7 -2251.59,561.75 -3851.56,663.25 -593.41,1360.07 54.52,138.01 -682.91,1109.07l-253.68 334.75 272.7 335.39c2577.66,-605.41 6693.37,-823.47 5426.37,-4737.72 -835.6,-2582 -3839.43,-3469.57 -7270.31,-3130.86 -3082.98,304.49 -5067.11,1998.81 -6613.32,3750.7 -1463.74,1658.44 -3476.72,5529.91 -1086.86,7347.94z"/>
   <path class="fil28" d="M44731.85 89245.65c-816.07,929.57 -1234.32,791.94 -2585.96,1264.83 -1521.96,532.51 -3520.25,2535.66 -2253.51,-4183.25 -1247.34,1196.53 -1024.17,2691.42 -1325.98,4538.3l-1263.3 -494.21c1020.85,2313.39 1866.16,2452.93 4780.36,1319.86l14790.48 -5485.74 -969.53 -1074.98c-1516.72,458.08 -1528.85,729.38 -2845.64,1237.64 -824.62,317.9 -1945.82,625.58 -2818.07,940.16 -2038.64,735 -3686.99,1684.87 -5508.85,1937.4z"/>
   <path class="fil29" d="M47228.7 19057.1l-32.81 382.37c2228.49,407.14 1984.51,-1403.86 10478.16,-1702.1 -1128.22,-1953.87 -3518.59,-2167.33 -5986.08,-2004.55 -2745.42,181.16 -4280.53,911.31 -4459.27,3324.28z"/>
   <path class="fil30" d="M44658.83 36294.25c-281.77,1765.43 51.2,3387.09 -748.4,4962.67 -282.66,556.64 -1005.4,1392.24 -1282.07,1651.29 -1311.68,1229.08 -416.46,617.54 -1627.54,822.96 -1944.42,2104.13 -5290.02,793.98 -7494.76,-358.12l-377.65 289.68 127.54 836.11 2483.57 1217.21c3241.68,434.21 5812.7,292.62 7968.03,-2148.69l1793.77 -2170.52c-76.6,-1718.44 317.01,-4080.98 -305.9,-5800.7l151.93 -136.73c-350.58,376.5 -274.49,-411.23 -688.53,834.84z"/>
   <path class="fil31" d="M50590.39 38840.38c-1095.28,2282.23 -1204.06,1491.44 -556.64,4151.97l3726.57 315.6c1408.08,-2388.33 811.34,-2758.7 -50.69,-5073.87 -1431.31,-324.67 -2373.01,-92.82 -3119.24,606.31z"/>
   <path class="fil29" d="M26962.06 28074.45l-403.95 669.63 103.67 1419.69 865.99 -298.24c2268.83,-5383.22 6394.24,-3076.86 7392.75,-5967.82 -1795.17,-2959.4 -6811.34,768.83 -7958.46,4176.73z"/>
   <path class="fil32" d="M64315.33 28317.92c-432.42,3579.62 -245.25,5181.37 -2431.99,7099.87 -2338.15,2051.15 -5011.7,497.79 -7492.84,391.69l-359.77 42.39c1143.54,0 928.42,-326.71 928.42,681.12 523.58,604.14 2594.13,1414.33 4191.03,1266.75 2002.64,-185.25 2821.51,-1283.73 4166.01,-2000.08 1149.03,-1737.34 2752.96,-3643.07 1997.15,-6889.47 -687.5,-744.83 -848.11,1125.54 -644.1,-1681.93l-353.9 1089.67z"/>
   <path class="fil33" d="M87085.59 44842.16c1469.87,1097.96 2632.43,2940.12 3405.48,5341.47 139.54,2062.13 143.12,3537.74 -812.62,5115.11 -795.39,429.74 -158.44,84.9 -500.98,909.4l1285.38 1274.02c246.79,-2178.44 3327.47,-7066.81 -555.75,-11680.94 -433.82,-515.28 -741.13,-808.92 -1273,-1271.6 -1519.15,-1321.77 -338.33,-595.71 -1531.41,-827.56l-568.26 552.43 551.15 587.67z"/>
   <path class="fil34" d="M75440.91 44335.18c-982.3,1201.63 -1936.12,964.55 -2996.42,2963.48l428.33 1126.82c1618.48,-424.38 584.6,-371.9 1969.31,-1314.62 935.44,-636.82 1335.05,-595.2 2270.49,-1102.18 229.04,-948.46 267.6,-777.38 1248.87,-1134.1 46.6,-16.98 2164.65,-620.09 2169.63,-620.73 1210.57,-160.99 3281.89,408.8 4857.73,-284.32l-1535.36 -1010.51c-4487.74,345.73 -4364.03,319.3 -8412.58,1376.16z"/>
   <path class="fil18" d="M50590.39 38840.38c746.23,-699.12 1687.93,-930.97 3119.24,-606.31 3698.99,1499.23 1887.99,5771.72 -873.78,6140.3 -3151.29,420.42 -4442.29,-1567.54 -3833.43,-3868.67 410.84,-1553.36 532.13,-1320.49 1587.96,-1665.33zm-2459.06 649.08l18.77 1114.56c-554.98,3107.5 2028.81,5315.17 5364.71,4386.5 2436.46,-678.18 4264.32,-3880.03 2112.18,-6159.33 -973.49,-832.67 -1565.11,-1516.47 -3417.35,-1565.11 -2757.68,506.98 -2512.68,992.89 -4078.3,2223.38z"/>
   <path class="fil23" d="M42455.11 38006.18c-905.05,3019.53 -823.47,1439.23 -2122.77,3053.11 -1168.18,957.02 1617.84,804.83 -1701.33,804.83 543.62,-598.65 798.71,-308.32 2815.26,-27.58l-445.44 1894.63c1211.08,-205.42 315.86,406.12 1627.54,-822.96 276.66,-259.04 999.4,-1094.65 1282.07,-1651.29 799.6,-1575.58 466.64,-3197.25 748.4,-4962.67l-552.81 -1071.03 -1379.35 604.65 -271.55 2178.31z"/>
   <path class="fil35" d="M73366.52 50341.56c283.05,1871.65 -14.55,1661.76 1784.58,2205.63 1079.07,-1556.68 2075.79,-2896.46 4453.65,-3564.68l1311.68 -435.61c-2256.96,-1380.12 644.1,-89.62 -1295.22,-462.55 -51.2,-9.83 -1206.23,-69.71 -1277.47,-75.07 293,-1286.02 968.51,-741.89 -284.07,-918.72 -2507.45,319.94 -3391.43,1680.65 -4693.16,3251z"/>
   <path class="fil36" d="M52209.63 37266.08c1852.24,48.64 2443.87,732.44 3417.35,1565.11 1346.79,467.02 1279.26,611.03 2691.42,943.61 -689.16,-2248.02 3336.66,650.23 5905.39,-2536.55l-1004 101.11 96.39 -1539.7c-1344.5,716.36 -2163.37,1814.83 -4166.01,2000.08 -1596.9,147.59 -3667.46,-662.61 -4191.03,-1266.75l-1766.32 -632.61c-440.97,1982.08 746.74,-859.35 -376.5,841.22 -44.17,66.9 -239.25,343.31 -276.66,265.68 -40.98,-84.65 -220.36,172.1 -330.03,258.79z"/>
   <path class="fil7" d="M30956.48 40138.28c273.34,1361.35 97.41,1311.05 748.91,2414.88 685.97,1162.44 188.44,976.68 1423.01,1109.58l377.65 -289.68c-32.3,-69.96 -93.97,-256.36 -110.95,-202.74 -17.36,55.54 -98.18,-171.21 -123.71,-204.91 -27.19,-36 -115.41,-162.14 -150.4,-206.57l-1015.11 -1220.27 3643.71 -1348.58 5838.62 -3369.48 866.88 1185.67 271.55 -2178.31 1379.35 -604.65 57.45 -316.49c-748.28,-373.95 -339.6,-312.28 -1254.23,-231.98 -1843.3,1715.51 -2700.61,2201.42 -5408.5,3523.06 -1793,875.18 -4396.97,2561.45 -6544.25,1940.46z"/>
   <path class="fil37" d="M35739.52 45716.06l-58.98 473.15 3000.76 778.53 -410.08 1357.9c4196.27,-929.82 5981.87,-2500.04 7392.62,-6016.46l-162.52 -912.33 -1793.77 2170.52c-2155.33,2441.31 -4726.36,2582.9 -7968.03,2148.69z"/>
   <path class="fil38" d="M35749.61 40189.98c2287.09,232.49 1289.98,1212.23 4582.73,869.31 1299.3,-1613.88 1217.72,-33.58 2122.77,-3053.11l-866.88 -1185.67 -5838.62 3369.48z"/>
   <path class="fil39" d="M49768.07 57212.65c180.78,647.54 -57.2,305.39 330.28,1096.43 1732.74,-54.39 3068.17,-324.41 4346.92,-400.63 1854.67,-2445.91 4042.94,-2887.9 4866.92,-3925.86l-272.7 -335.39c-1455.82,11.87 -613.46,-56.3 -1960.38,795.26l-1214.27 567.88c-640.52,460.76 -768.06,562.13 -1334.67,811.34 -422.84,727.08 -321.47,1166.78 -1752.91,1403.35 -981.91,162.27 -1727.63,-109.41 -2492.38,-328.88l-112.22 -2784.36 28.73 -1378.71c-1046,582.05 -271.55,-220.87 -759.26,789.39 -16.85,34.98 -291.34,1216.32 -292.88,1248.62 -45.32,972.08 338.71,1651.8 618.82,2441.57z"/>
   <path class="fil40" d="M50590.39 38840.38c-1055.83,344.84 -1177.12,111.97 -1587.96,1665.33 -608.86,2301.13 682.14,4289.08 3833.43,3868.67 2761.76,-368.58 4572.77,-4641.07 873.78,-6140.3 862.03,2315.17 1458.76,2685.55 50.69,5073.87l-3726.57 -315.6c-647.42,-2660.52 -538.64,-1869.73 556.64,-4151.97z"/>
   <path class="fil22" d="M82541.3 74828.73l-1264.32 -392.59c-203.89,1536.64 -114.01,1090.56 -1154.4,1831.81l1185.67 552.17 -1230.49 -22.73 -130.86 1003.87c1924.37,-741.38 560.6,-387.86 2614.18,-399.1 154.61,-0.77 1146.73,20.04 1273.89,43.92 1158.99,218.06 486.93,32.81 1193.59,465.23l2337.52 -95.63c-938.5,-858.07 -523.96,-491.4 -2231.04,-466.38 331.82,-234.91 380.07,-316.49 1054.3,-630.56 98.56,-45.96 718.91,-246.02 776.49,-268.11l104.69 -273.47 -3800.75 -832.54 -289.56 -1670.31c-217.93,353.01 -30.9,-110.31 -365.14,706.66 -25.28,61.54 -57.83,309.47 -73.79,447.74z"/>
   <path class="fil5" d="M78884.82 42483.45l-2192.23 -122.18c-563.79,-514.51 -511.45,699.12 -435.23,-884.76l-662.74 1362.37 -850.16 639.37c79.41,82.86 218.44,100.48 242.45,243.98 20.43,123.46 180.4,183.08 204.14,213.72 53.88,68.94 202.61,268.36 249.85,399.23 4048.55,-1056.86 3924.84,-1030.43 8412.58,-1376.16 472,-771.89 -683.93,-391.69 781.47,-627.24l-4238.78 -1303.39c-1498.47,448.76 -1156.69,1544.94 -1313.47,1147.5 -30.64,-77.75 -128.05,207.59 -197.89,307.56z"/>
   <path class="fil38" d="M55029.23 30554.19l-273.73 994.04 467.27 743.3c6295.42,-1021.75 3259.55,-42 5570.13,-3569.92l28.22 -613.46c-1161.8,382.12 -4367.86,1805.13 -5791.89,2446.04z"/>
   <path class="fil41" d="M101708.19 64051.18c1579.92,-179.76 1208.27,-368.84 1661.63,510.81l567.24 310.62 1296.62 -324.67c1553.36,1270.7 949.61,1010 1812.41,2631.03l1030.68 -824.24c-672.57,-1796.07 -925.35,-2527.23 -2535.92,-3195.08 -962.38,-399.23 -2269.21,-801.39 -3370.24,-566.98 -1978.76,421.06 -835.73,274.62 -1325.86,711.38l863.43 747.13z"/>
   <path class="fil42" d="M41518.78 88404.94c-107.5,1746.27 -196.74,662.23 568.52,1025.32l848.24 -404.59 8705.46 -3267.08c1994.21,-693.12 1743.47,-251.51 2072.34,-1857.22 -2969.1,797.17 -9939.52,4491.7 -12194.56,4503.57z"/>
   <path class="fil34" d="M82980.23 73674.34l289.56 1670.31 3800.75 832.54 949.61 -418.63c-1557.83,-340.62 -2013.11,-516.43 -3274.23,-1298.28 -232.1,-4300.7 4083.02,-2002.64 4573.92,-3320.71 -3416.97,-421.44 -5459.44,-123.58 -6339.6,2534.77z"/>
   <path class="fil34" d="M73729.62 80931.76l413.52 912.33c875.18,-987.15 181.42,-813.39 1029.02,-1251.3 31.92,-16.47 143.63,-53.88 178.23,-66.52 877.48,-316.37 -374.71,10.72 399.1,-98.18l455.27 -23.24c84.39,-0.51 398.46,31.92 535.96,54 850.28,-1452.63 1513.53,-2878.58 3206.19,-2657.59l130.86 -1003.87c-3348.15,487.7 -5477.06,1140.35 -6348.15,4134.35z"/>
   <path class="fil43" d="M11500.67 94529.54l-292.88 -9.32c702.31,778.28 -449.91,174.91 833.56,602.6 947.19,315.47 1451.36,-326.07 2075.54,516.17l796.15 -427.31c-1484.3,-2333.69 159.33,-5237.68 474.42,-7819.3 -1176.48,569.92 -783.26,-170.18 -1424.29,1664.95 -1293.56,3704.23 -58.98,5405.31 -2462.51,5472.21z"/>
   <path class="fil44" d="M48131.33 39489.46c1565.62,-1230.49 1320.62,-1716.4 4078.3,-2223.38 109.67,-86.69 289.05,-343.43 330.03,-258.79 37.41,77.62 232.49,-198.78 276.66,-265.68 1123.24,-1700.57 -64.47,1140.86 376.5,-841.22l-3386.58 -3390.92c-422.84,2257.98 1085.71,2000.21 1679.89,3779.17 -2173.33,895.22 -3273.98,869.43 -3354.79,3200.82z"/>
   <path class="fil45" d="M55864.84 55010.34l1214.27 -567.88c-362.33,-931.61 226.1,-202.23 -558.17,-1220.4l-2617.5 -211.29 -2326.15 448.63c-654.44,2354.24 -295.17,580.39 217.29,1270.96 1537.79,533.28 2259.13,578.22 4070.26,279.98z"/>
   <path class="fil46" d="M50605.2 52159.71l-403.82 573.37 -28.73 1378.71 902.76 -191.63c-157.16,-742.91 -188.31,-265.43 501.87,-460.76l2326.15 -448.63c1659.33,-1092.09 1604.56,-1007.96 3960.33,-642.56 -477.23,-819.13 662.1,-726.44 -1622.05,-1134.99 -652.4,-116.56 -1384.71,78.52 -2017.83,190.48 -1379.35,244.11 -2403.78,379.69 -3618.69,736.02z"/>
   <path class="fil39" d="M77705.91 38108.45l127.41 1773.85c-469.7,246.79 -88.22,-129.84 -602.6,389.01 -740.23,746.74 -183.46,206.83 -638.73,797.43l1608.77 95.63 684.06 1319.09c69.84,-99.97 167.25,-385.31 197.89,-307.56 156.78,397.44 -184.99,-698.74 1313.47,-1147.5 -527.02,-1580.18 -816.2,-2339.05 -2030.98,-3608.09l-381.35 -191.38 -277.94 879.52z"/>
   <path class="fil47" d="M76353.88 53325.73c-120.9,2140.01 2054.22,1521.06 3041.23,893.18l1194.74 -1162.44 -1500.76 189.46c-75.33,-329.26 -264.02,-1332.37 -265.04,-1335.69 -395.91,-1275.94 341.01,272.83 -429.36,-803.17 -1561.92,567.11 -1314.24,593.92 -2040.81,2218.66z"/>
   <path class="fil48" d="M38271.22 48325.65l-382.88 469.19c4170.22,778.79 7906.37,-2926.46 7775.51,-6485.65 -1410.76,3516.42 -3196.35,5086.64 -7392.62,6016.46z"/>
   <path class="fil35" d="M87615.68 52311c625.33,645.25 297.47,349.31 782.24,1209.29l1280.53 1778.45c955.74,-1577.37 952.17,-3052.98 812.62,-5115.11 -420.93,488.72 -852.33,1258.45 -683.42,2160.57l-577.84 -1677.08c-1332.62,1003.36 -979.36,1864.88 -1314.11,1308.62 -54.26,-90.39 -197.25,225.98 -300.03,335.26z"/>
   <path class="fil5" d="M55222.78 32291.53c1365.82,926.76 3042.77,1133.2 4327.26,358.63 1207.12,-727.85 1636.22,-1939.7 1627.03,-3896.24l-384.16 -32.3c-2310.58,3527.91 725.3,2548.17 -5570.13,3569.92z"/>
   <path class="fil49" d="M77112.63 46008.69c-935.44,506.98 -1335.05,465.36 -2270.49,1102.18 -1384.71,942.72 -350.84,890.25 -1969.31,1314.62 321.6,789.13 345.09,842.11 493.7,1916.08 1301.73,-1570.35 2185.72,-2931.06 4693.16,-3251 471.49,-695.04 429.1,-565.71 688.91,-1276.32l-1635.97 194.44z"/>
   <path class="fil49" d="M75151.1 52547.19c654.18,228.4 -14.43,-127.29 441.36,182.7l761.43 595.84c726.57,-1624.73 478.89,-1651.54 2040.81,-2218.66 857.69,-877.61 909.01,-1047.41 2078.6,-1692.27 -377.01,-629.54 677.67,-494.47 -868.54,-432.29 -2377.86,668.23 -3374.58,2008 -4453.65,3564.68z"/>
   <path class="fil31" d="M51075.41 53920.16c-533.02,1624.86 -415.82,986.25 -291.22,2569.49 2485.74,605.16 2256.7,-357.35 3745.98,-667.97 566.6,-249.21 694.14,-350.58 1334.67,-811.34 -1811.13,298.24 -2532.47,253.3 -4070.26,-279.98 -512.47,-690.57 -871.73,1083.28 -217.29,-1270.96 -690.19,195.34 -659.03,-282.15 -501.87,460.76z"/>
   <path class="fil50" d="M64223.79 37238.24c-2568.73,3186.78 -6594.56,288.53 -5905.39,2536.55 1665.84,-447.23 2440.8,489.87 4760.95,-653.42 1304.28,-642.69 2186.48,-1306.58 2843.86,-2628.48 -765.38,361.69 -949.1,491.79 -1699.42,745.34z"/>
   <path class="fil40" d="M53903.44 53010.76l2617.5 211.29c784.28,1018.17 195.85,288.79 558.17,1220.4 1346.92,-851.56 504.55,-783.39 1960.38,-795.26l253.68 -334.75c-99.71,-49.79 -1525.79,-490.51 -1429.4,-944.25 -2355.77,-365.39 -2301,-449.53 -3960.33,642.56z"/>
   <path class="fil51" d="M27974.74 66736.22l1153.25 -612.43c146.18,-2515.74 -204.66,-3598.39 -2191.84,-4318.07l-833.56 624.95c1743.59,549.49 2711.97,1813.94 1872.16,4305.55z"/>
   <path class="fil52" d="M75711.06 73742c-2122.65,372.16 -10130.39,3533.91 -11121.49,5001.23l11121.49 -5001.23z"/>
   <path class="fil34" d="M74739.87 91595.16c-282.41,37.92 -1051.11,72.9 -1341.69,157.93 -1253.21,366.67 -224.44,-760.66 -798.32,578.98 1289.85,1441.78 939.14,1700.06 2769.17,2512.3l-629.16 -3249.21z"/>
   <path class="fil28" d="M24088.84 61818.61l-2206.65 156.14c-783.64,-1148.01 -579.24,-1372.97 -2039.92,-2137.84 694.91,1813.56 1527.7,2502.21 1946.84,3959.44 816.58,-443.65 886.42,-438.29 1485.96,-978.34 680.74,-613.2 473.4,-512.34 813.77,-999.4z"/>
   <path class="fil53" d="M69172.3 80877.75c642.69,628.01 -312.79,194.44 1090.56,928.42 1352.16,707.29 652.78,247.17 1468.72,322.62l779.81 -2162.48 -3339.09 911.44z"/>
   <path class="fil40" d="M54530.17 55821.68c-1489.27,310.62 -1260.23,1273.13 -3745.98,667.97 -124.61,-1583.24 -241.81,-944.63 291.22,-2569.49l-902.76 191.63 112.22 2784.36c764.75,219.47 1510.47,491.15 2492.38,328.88 1431.44,-236.57 1330.07,-676.27 1752.91,-1403.35z"/>
   <path class="fil43" d="M83853.49 42959.02l1535.36 1010.51 1696.74 872.63 -551.15 -587.67 568.26 -552.43c-904.29,-1270.32 -806.11,-973.87 -2467.74,-1370.29 -1465.4,235.55 -309.47,-144.65 -781.47,627.24z"/>
   <path class="fil54" d="M4789.17 35600.23l725.55 -506.21 -2.3 -2349.9c-235.04,-1336.33 176.7,-636.44 -758.87,-1229.08 -234.4,1069.49 -782.87,3429.86 35.62,4085.2z"/>
   <path class="fil34" d="M21391.16 87757.78c266.83,312.28 573.11,902.5 1563.45,1130.65 666.69,153.46 1096.69,10.21 1663.8,-63.45 -96.65,-1627.16 257.77,-762.19 -571.07,-1856.45 -1022.38,1627.29 -659.67,774.32 -2656.18,789.26z"/>
   <path class="fil55" d="M75594.63 42838.89l662.74 -1362.37 334.62 -407.78c455.27,-590.6 -101.5,-50.69 638.73,-797.43 514.38,-518.85 132.9,-142.22 602.6,-389.01l-1440.38 81.96c-151.03,171.59 -1007.83,1019.45 -1139.71,1363.9 -819.77,2142.05 -38.94,1231.89 341.39,1510.72z"/>
   <path class="fil56" d="M76257.36 41476.52c-76.22,1583.88 -128.56,370.24 435.23,884.76l2192.23 122.18 -684.06 -1319.09 -1608.77 -95.63 -334.62 407.78z"/>
   <path class="fil41" d="M58002.93 84607.9c-350.2,-296.58 -107.88,-163.29 -828.45,-641.16 -481.7,-319.56 -348.16,-171.08 -836.88,-427.31l88.35 -1106.65c-1166.4,556.77 -432.42,-68.94 -1342.96,1220.66 915.52,886.93 1274.92,1078.18 2919.95,954.46z"/>
   <path class="fil57" d="M69172.3 80877.75l3339.09 -911.44c-117.71,-934.04 13.66,-328.75 -415.82,-781.21 -1079.2,498.55 -3236.06,800.88 -2923.27,1692.65z"/>
   <path class="fil52" d="M84603.94 68216.43c867.65,-88.09 1200.36,-81.71 2036.6,-491.91 1139.97,-559.32 905.31,-581.67 1406.8,-1243.64 -803.81,257.13 -1051.62,352.75 -1863.09,722.23l-1580.3 1013.32z"/>
   <path class="fil58" d="M26776.43 30608.45l751.34 -742.91 -865.99 298.24 -103.67 -1419.69c-478.38,712.78 -572.35,-970.93 -382.76,990.08 115.03,1188.48 -95.75,529.96 601.07,874.29z"/>
   <path class="fil59" d="M42909.23 34674.75c914.63,-80.3 505.96,-141.97 1254.23,231.98 -314.84,-893.82 -49.41,-318.67 -472,-954.46 -40.47,-61.03 -214.36,-72.13 -247.04,-228.53 -33.19,-158.18 -184.61,-132.14 -274.49,-201.46l-260.7 1152.48z"/>
   <polygon class="fil60" points="86552.57,53051.11 87496.82,52135.46 86265.31,52432.16 "/>
   <path class="fil61" d="M12067.27 87830.04c339.35,-958.68 1035.02,1230.61 163.42,-1232.66l-895.86 259.04c1158.61,0 841.73,-260.7 732.44,973.61z"/>
   <path class="fil62" d="M80473.29 49414.8l443.14 -867.9 -1311.68 435.61c1546.22,-62.18 491.53,-197.25 868.54,432.29z"/>
   <path class="fil63" d="M79913.58 75309.41l560.73 -1083.54 -987.53 115.92c655.2,367.31 689.93,-883.61 426.8,967.61z"/>
   <path class="fil64" d="M42706.88 87355.23c-585.37,-43.54 -439.06,101.63 -337.94,-511.96l-367.31 995.96 705.25 -484z"/>
  </g>
 </g>
</svg>
