<?xml version="1.0" encoding="UTF-8"?>
<!DOCTYPE svg PUBLIC "-//W3C//DTD SVG 1.1//EN" "http://www.w3.org/Graphics/SVG/1.1/DTD/svg11.dtd">
<!-- Creator: CorelDRAW 2021 (64 Bit) -->
<svg xmlns="http://www.w3.org/2000/svg" xml:space="preserve" width="83.9966mm" height="88.8729mm" version="1.1" style="shape-rendering:geometricPrecision; text-rendering:geometricPrecision; image-rendering:optimizeQuality; fill-rule:evenodd; clip-rule:evenodd"
viewBox="0 0 2021.56 2138.92"
 xmlns:xlink="http://www.w3.org/1999/xlink"
 xmlns:xodm="http://www.corel.com/coreldraw/odm/2003">
 <defs>
  <style type="text/css">
   <![CDATA[
    .fil10 {fill:#280A29}
    .fil8 {fill:#370757}
    .fil2 {fill:#370838}
    .fil9 {fill:#380748}
    .fil14 {fill:#55023A}
    .fil19 {fill:#56052E}
    .fil7 {fill:#560646}
    .fil3 {fill:#852365}
    .fil6 {fill:#993874}
    .fil0 {fill:#BA3162}
    .fil13 {fill:#C83DAF}
    .fil20 {fill:#F3D2F1}
    .fil4 {fill:#F5A3B3}
    .fil5 {fill:#F6EAD1}
    .fil16 {fill:#FBFBF6}
    .fil1 {fill:#FBFCFB}
    .fil18 {fill:#FCF3FD}
    .fil11 {fill:#FCF8C7}
    .fil12 {fill:#FDF7D6}
    .fil15 {fill:#FEF8E7}
    .fil17 {fill:#FEFAFE}
   ]]>
  </style>
 </defs>
 <g id="Camada_x0020_1">
  <metadata id="CorelCorpID_0Corel-Layer"/>
  <g id="_2077069722752">
   <path class="fil0" d="M837.14 1302.84c-31.52,-34.3 -37.39,-57.8 -1.79,-87.39l1.81 57.23 44.04 28.7c0.96,-1.68 3.53,2.96 5.12,6.29l-49.19 -4.83zm28.27 -40.77c13.04,-46.68 56.06,-67.76 95.58,-94.24 125.78,-84.3 340.9,-96.67 354.09,26.2 -27.79,-10.79 -35.27,-49.31 -101.72,-59.81 -181.68,-28.72 -275.43,105.51 -347.94,127.85zm4.14 -288.73c-41.15,-19.46 -77.66,-12.16 -124.57,-17.9 21.13,-29.02 14.16,2.43 26.61,-28.82 -35.48,-55.52 -28.83,-151.51 -2.3,-201.07 16.69,-31.18 18.62,-14.57 37.45,-44.27l-75.54 -11.38c7.65,-50.1 92.27,-95.05 183.71,-17.59 26.11,22.12 48.86,43.5 76.38,65.07 9.76,7.65 31.86,21.32 44.47,25.89l57.71 18.18c-9.63,45.79 -10.24,25.38 -39.22,55.05 8.56,54.08 -10,96.68 -34.65,135.49 -21.61,34.01 -18.03,19.9 -45.59,41.47 -39.86,31.21 -8.37,12.3 -18.85,41.42 -35.35,-16.87 -45.82,-42.74 -85.6,-61.55zm518.48 -43.11l-28.2 21.01c-17.3,18.21 -38.8,48.93 -62.69,51.23 5.3,-39.86 -16.29,-18.73 -43.77,-50.4 -10.55,11.25 -1.88,-6.88 -11.19,34.19 -2.79,12.33 -5.29,23.62 -11.7,34.1 -34.83,56.97 -144.54,58.98 -176.57,-12.01 -19.27,-42.72 11.23,-99.63 38.88,-117.27 56.75,-36.2 106.77,4.55 126.25,17.38 -4.81,-25.26 -11.29,-71.82 -17.1,-97.24 -9.36,-40.95 -26.86,-10.04 -26.06,-74.63 51.68,11.62 58.81,0.12 93.36,-30.81 61.06,-54.68 200.34,-189.27 257.89,-57.22l-74.02 21.34c14.15,36.46 74.71,97.56 19.56,225.28l29.02 23.6c-2.81,1.21 -100.42,10.43 -113.66,11.47zm-467.84 702.26c82.22,-3.56 603.41,-36.35 640.95,-51.6 13.68,-13.17 11.27,-6.03 17.41,-30.11 2.83,-11.1 2.8,-22.96 3.91,-34.46 2.83,-29.25 7.17,-50.66 10.45,-78.72 6.19,-53.13 14.59,-105.18 20.61,-150.4l96.89 -925.01c-171.02,-8.28 -375.82,15.77 -550.77,22.93 -83.49,3.42 -479.09,22.49 -534.19,33.27l-103.35 1240.81 398.08 -26.72z"/>
   <path class="fil1" d="M976.31 1647.66c-78.08,11.22 -66.02,-3.32 -94.33,42.53 13.13,60.62 -15.35,102.76 -8.13,159.31 61.87,7.53 100.82,24.98 128.73,60.2 156.09,196.93 -289.19,169.36 -326.37,81.23 -11.19,-42.56 30.87,-242.31 41.57,-302.02 -1.6,-27.21 14.5,-11.75 -22.22,-15.32 -48.86,7.7 -121.3,11.29 -173.36,13.27 -71.56,2.72 -91.73,-30.13 -134.96,-59.29 -47.63,-32.14 -74.28,23.73 -144.1,-20.17 -70.62,-44.4 -20,-77.05 -20.27,-148.99 -184.36,-89.53 -217.44,-313.01 117.31,-407.88 17.13,-164.07 24.7,-339.72 35.18,-505.48 23.73,-375.39 0.8,-372.15 157.64,-386.61 101.25,-9.33 978.15,-86.35 1003.8,-71.56 34.97,41.17 15.93,61.17 17.87,124.8 16.32,15.42 51.61,41.14 72.59,59.01 88.52,75.37 128.27,-55.92 88.22,275.86l-47.5 445.52c3.02,50.64 127.56,35.01 214.09,116.98 65.99,62.52 90.98,204.23 -53.1,290.38 -60.55,36.2 -19.67,57.59 -24.83,108.27 -3.84,37.76 -42.97,61.28 -86.3,63.49 -47.33,2.41 -79.5,-17.53 -107.03,-35.4 -26.65,109.86 -19.3,68.8 -349.15,96.76l-17.7 159.24 81.74 22.24c113.25,43.63 99.52,145.97 49.41,170.25 -68.99,33.42 -270.34,0.9 -317.89,-43.05 -23.21,-53.44 32.06,-227.3 31.98,-296.98 -37.63,4.68 -76.52,10.26 -112.87,3.43zm784.99 -695.9c5.09,-140.48 63.29,-510.72 57.1,-605.72 -8.61,-132.05 -123.87,-112.26 -164.69,-164.85 -40.42,-52.08 26.88,-165.71 -141.18,-180.91 -54.48,-4.93 -796.12,56.32 -922.1,64.75 -118.21,7.91 -188.57,1.68 -244.12,80.09 -48.47,68.41 -41.09,190.32 -47.73,280.95l-34.83 461.02c-4.7,73.65 9.18,89.96 -48.61,117.92 -82.07,39.71 -136.78,79.33 -176.76,145.68 -120.44,199.91 80.95,342.96 81.13,343.23 12.64,19.19 -8.51,72.93 22.56,127.57 67.42,118.56 178.56,71.35 219.97,94.3 127.22,70.51 93.69,58.54 258.74,49.3 -7,56.85 -35.13,184.53 -29.47,231.27 9.11,75.17 63.09,97.62 129.21,116.65 65.55,18.87 146.94,29.88 219.14,24.58 95.01,-6.98 114.86,-34.03 164.96,-80.15 128.01,21.6 303.14,53.01 366.29,-49.15 36.19,-58.54 24.41,-138.04 -9.49,-187.72 -57.76,-84.65 -100.33,-68.7 -130.01,-99.58 40.71,-19.96 132.02,-16.76 182.15,-20.98 28.09,-2.37 68.08,-3.53 92.89,-12.19 35.47,-12.38 36.14,-31.96 65.75,-35.51 70.88,-8.48 220.43,14.11 216.13,-193.66 37.49,-13.92 90.34,-71.97 110.52,-117.93 79.85,-181.87 -63.33,-347.06 -237.56,-388.95z"/>
   <path class="fil2" d="M1182.6 1829.87c92.01,-10.45 226.16,2.03 199.65,122.74 -73.59,31.18 -196.29,19.39 -270.63,-9.8 -67.4,-26.47 -23.72,-96.27 0.38,-244.61l117.17 -25.76c-12.99,205.17 -12.11,107.97 -46.57,157.43zm-917.68 -557.18c14.16,-20.65 27.82,-33.38 60.97,-39.95l-7.37 91.5c-29.54,-10.24 -43.04,-24.51 -53.6,-51.56zm1368.46 19.09l15.05 -119.28c44.06,11.1 92.23,24.75 108.47,60.86 -24.44,58.44 -50.11,43.73 -123.52,58.42zm18.11 -152.8l11.92 -97.36c253.02,37.79 319.99,234.13 161.08,329.08 -42.3,25.27 -39.78,7.15 -52.04,59.65 -10.9,46.67 -16.32,41.04 -52.18,58.27 29.88,21.74 24.49,2.32 58.14,-3.14 -3.08,74.68 -108.16,93.47 -131.39,4.51l-4.86 13.32c-9.84,19.78 0.03,37.21 -19.96,8.35 -21.51,-31.05 8.57,-180.21 14.59,-186.79 51.7,-31.23 140.79,-12.48 150.7,-86.05 7.85,-58.29 -94.24,-69.67 -136.01,-99.83zm-489.52 -907.93c155.57,12.81 345.77,-39.16 381.53,11.48 -43.85,-4.88 -151.28,4.77 -202.94,9.85l-67.84 13.68c96.24,1.69 262.73,-27.21 301.59,-5.2 -46.81,25.82 -401.14,16.56 -476.83,37.24l-20.79 8.14c90.74,2.97 194.79,-9.99 287.18,-14.05l194.76 -17.13c46.45,-6.18 22.06,-0.05 61.55,12.6 -34.16,25.95 -458.44,32.62 -500.08,35.6 -77.87,5.58 -464.76,35.64 -509.87,20.64 25.15,-19.33 31.99,-6.92 69.22,-15.34l-98.78 -3.1c21.67,-22.89 41,-15.71 83.07,-20.39 31.04,-3.45 53.96,-4.32 86.69,-6.04 47.34,-2.5 135.58,0.56 172.42,-17.13 -76.12,-7.44 -336.6,32.01 -374,6.11 55.08,-35.21 369.92,-8.1 448.06,-45.52l-426.99 25.7c-3.62,0.45 -23.6,2.88 -26.44,2.55 -36.76,-4.26 -13.56,-1.37 -23.87,-12.64 20.98,-10.43 0.1,-3.29 26.63,-8.16l87.19 -6.94c42.33,-3.53 82.91,-3.3 125.08,-6.77l501.82 -35.8c52.08,-4.4 209.75,-33.93 245.03,-5.25 -9.22,9.79 15.41,8.47 -32.66,14.12l-131.73 5c-60.26,2.1 -119.73,11.47 -179,16.75zm-466.42 1442.54c2.61,-1.34 6.05,-6.08 7.79,-4.06 1.74,2.01 5.5,-2.83 7.79,-4.03l23.09 -12.22c-63.01,-6.38 -154.85,17.79 -188.64,16.23 -40.79,-1.89 -22.82,-10.53 -50.77,-14.6 -29.93,-2.14 -56.56,-25.06 -104.09,-52.4 47.97,-49.82 80.65,-83.92 73.54,-157.22 -6.62,-68.25 -63.55,-102.76 -123.05,-110.23l8.71 -115.35c24.99,-10.88 57.28,-19.91 90.97,-21.81l-11.72 -16.86c-0.98,-1.26 -4.67,-5.48 -6.21,-7.6 -65.06,4.45 -157.64,46.13 -182.47,82.02 -0.82,43.6 25.34,68.63 49.83,84.43 35.97,23.2 151.41,28.7 156.94,121.61 3.75,62.92 -51.88,94.05 -52.12,94.93l-10.68 -0.78c-18.63,3.67 -24.34,34.16 -67.31,41.02 -55.59,8.88 -89.56,-11.81 -84.34,-65.48 43.8,5.42 16.57,22.54 68.69,26.53 -21.15,-52.68 -48.9,-5.83 -55.81,-111.99 -69.82,-40.86 -187.47,-133.2 -113.1,-240.77 55.21,-79.85 165.07,-125.84 261.77,-137.64 3.35,-3.21 6.26,-10.92 10.3,-13.3l-39.8 -7.74c-0.57,-128.77 56.73,-519.36 36.73,-614.32 -11.82,-51.12 9.98,-169.97 28.19,-214.12 6.53,-10.51 32.18,-31.48 40.81,-34.78l1056.07 -71.39c8.59,23.01 3.96,48.99 -0.94,78.74 -24.61,-38.77 -66.26,-24.41 -122.43,-19.27 -171.53,15.72 -866.56,48.94 -940.57,65.84 10.44,38.64 51.81,73.41 78.1,96.99 41.55,37.27 81.98,36.03 147.06,31.33 110.89,-8.02 222.17,-6.55 333.97,-16.08 106.88,-9.11 228.72,-15.06 336.81,-18.46 57.81,-1.82 113.27,-4.59 170.67,-8.23 53.27,-3.38 116.39,4.53 164.53,-1.46 10.92,19.84 16.21,-8.54 2.1,16.84 -7.6,13.66 -12.52,7.87 -16.91,8.05 61.46,7.61 7.74,-2.01 31.37,16.25l-96.89 925.01c-6.02,45.21 -14.42,97.27 -20.61,150.4 -3.27,28.05 -7.61,49.47 -10.45,78.72 -1.11,11.5 -1.08,23.36 -3.91,34.46 -6.14,24.08 -3.73,16.94 -17.41,30.11 -37.55,15.26 -558.73,48.04 -640.95,51.6 -2.26,1.2 -5.11,0.96 -6.27,4.41l-19.25 14.97c37.05,-9.19 44.73,-15.14 81.64,-4.21 36.35,6.83 75.25,1.25 112.87,-3.43 0.08,69.68 -55.18,243.54 -31.98,296.98 47.55,43.95 248.9,76.47 317.89,43.05 50.11,-24.27 63.84,-126.62 -49.41,-170.25l-81.74 -22.24 17.7 -159.24c329.85,-27.97 322.5,13.09 349.15,-96.76 27.53,17.87 59.7,37.81 107.03,35.4 43.33,-2.21 82.46,-25.73 86.3,-63.49 5.16,-50.69 -35.71,-72.07 24.83,-108.27 144.08,-86.15 119.1,-227.86 53.1,-290.38 -86.53,-81.98 -211.07,-66.34 -214.09,-116.98l47.5 -445.52c40.05,-331.78 0.3,-200.49 -88.22,-275.86 -20.98,-17.87 -56.27,-43.59 -72.59,-59.01 -1.93,-63.62 17.1,-83.63 -17.87,-124.8 -25.66,-14.8 -902.55,62.22 -1003.8,71.56 -156.84,14.46 -133.91,11.22 -157.64,386.61 -10.48,165.77 -18.04,341.42 -35.18,505.48 -334.75,94.88 -301.67,318.36 -117.31,407.88 0.27,71.94 -50.35,104.59 20.27,148.99 69.82,43.9 96.47,-11.97 144.1,20.17 43.23,29.16 63.4,62.01 134.96,59.29 52.06,-1.98 124.5,-5.57 173.36,-13.27z"/>
   <path class="fil3" d="M401.6 431.94c20,94.95 -37.3,485.54 -36.73,614.32l39.8 7.74c-4.04,2.38 -6.94,10.09 -10.3,13.3 45.87,-0.81 62.88,-7.85 68.93,44.04 4.98,42.76 -18.61,39.89 -40.33,62.09 1.54,2.12 5.23,6.34 6.21,7.6l11.72 16.86c-33.69,1.9 -65.98,10.93 -90.97,21.81l-8.71 115.35c59.5,7.47 116.43,41.97 123.05,110.23 7.11,73.3 -25.57,107.4 -73.54,157.22 47.52,27.34 74.16,50.26 104.09,52.4 8.15,-106.4 18.39,-205.6 26.28,-313.87 7.36,-101.02 23.84,-201.54 29.88,-296.67 7.16,-112.71 49.65,-576.94 46.01,-632.27 -36.67,-10.12 -71.17,-28.64 -100.57,-49.33 -30.89,-21.74 -45.21,-50.98 -68.39,-78.86 -28.54,37.03 -1.09,110.72 -26.42,148.04z"/>
   <path class="fil4" d="M422.97 1173.43c21.72,-22.2 45.32,-19.33 40.33,-62.09 -6.05,-51.89 -23.06,-44.85 -68.93,-44.04 -96.7,11.8 -206.56,57.79 -261.77,137.64 -74.38,107.57 43.28,199.91 113.1,240.77 6.91,106.16 34.66,59.31 55.81,111.99 -52.12,-3.99 -24.89,-21.11 -68.69,-26.53 -5.22,53.67 28.75,74.37 84.34,65.48 42.98,-6.87 48.69,-37.36 67.31,-41.02l10.68 0.78c0.25,-0.87 55.87,-32.01 52.12,-94.93 -5.54,-92.91 -120.97,-98.42 -156.94,-121.61 -24.5,-15.8 -50.65,-40.83 -49.83,-84.43 24.83,-35.89 117.41,-77.57 182.47,-82.02z"/>
   <path class="fil5" d="M1161.98 231.05c59.26,-5.28 118.74,-14.65 179,-16.75l131.73 -5c48.08,-5.64 23.44,-4.32 32.66,-14.12 -35.28,-28.68 -192.95,0.85 -245.03,5.25l-501.82 35.8c-42.17,3.47 -82.76,3.24 -125.08,6.77l-87.19 6.94c-26.52,4.87 -5.64,-2.26 -26.63,8.16 10.31,11.27 -12.89,8.39 23.87,12.64 2.84,0.33 22.81,-2.11 26.44,-2.55l426.99 -25.7c-78.14,37.43 -392.98,10.32 -448.06,45.52 37.4,25.9 297.88,-13.55 374,-6.11 -36.84,17.69 -125.08,14.63 -172.42,17.13 -32.73,1.73 -55.65,2.59 -86.69,6.04 -42.08,4.68 -61.4,-2.5 -83.07,20.39l98.78 3.1c-37.23,8.42 -44.07,-3.99 -69.22,15.34 45.12,15 432,-15.06 509.87,-20.64 41.63,-2.98 465.92,-9.66 500.08,-35.6 -39.49,-12.66 -15.1,-18.79 -61.55,-12.6l-194.76 17.13c-92.39,4.06 -196.44,17.02 -287.18,14.05l20.79 -8.14c75.69,-20.69 430.02,-11.42 476.83,-37.24 -38.85,-22 -205.34,6.89 -301.59,5.2l67.84 -13.68c51.66,-5.08 159.09,-14.72 202.94,-9.85 -35.77,-50.64 -225.96,1.33 -381.53,-11.48z"/>
   <path class="fil6" d="M429.79 217.82c8.03,80.25 100.25,174.12 194.35,170.68 118.81,-4.35 238.71,-10.03 357.31,-15.58l540.09 -28.21c29.87,-2.29 58.08,-3.6 87.92,-4.32 48.18,-1.17 70.41,2.21 84.42,-19.32 -48.14,5.99 -111.26,-1.92 -164.53,1.46 -57.4,3.64 -112.86,6.41 -170.67,8.23 -108.09,3.4 -229.93,9.36 -336.81,18.46 -111.8,9.53 -223.08,8.06 -333.97,16.08 -65.08,4.71 -105.51,5.95 -147.06,-31.33 -26.29,-23.58 -67.66,-58.35 -78.1,-96.99 74.01,-16.9 769.04,-50.12 940.57,-65.84 56.17,-5.15 97.82,-19.51 122.43,19.27 4.9,-29.75 9.53,-55.73 0.94,-78.74l-1056.07 71.39c-8.63,3.29 -34.28,24.27 -40.81,34.78z"/>
   <path class="fil4" d="M1778.42 1485.47c-33.65,5.46 -28.26,24.89 -58.14,3.14 35.86,-17.22 41.28,-11.6 52.18,-58.27 12.25,-52.5 9.74,-34.37 52.04,-59.65 158.91,-94.95 91.94,-291.29 -161.08,-329.08l-11.92 97.36c41.77,30.15 143.85,41.54 136.01,99.83 -9.91,73.58 -99,54.83 -150.7,86.05 -6.02,6.58 -36.11,155.74 -14.59,186.79 20,28.87 10.13,11.43 19.96,-8.35l4.86 -13.32c23.22,88.96 128.31,70.17 131.39,-4.51z"/>
   <path class="fil7" d="M401.6 431.94c25.33,-37.32 -2.12,-111.01 26.42,-148.04 23.18,27.89 37.5,57.12 68.39,78.86 29.39,20.69 63.9,39.21 100.57,49.33 3.64,55.33 -38.85,519.55 -46.01,632.27 -6.04,95.13 -22.52,195.65 -29.88,296.67 -7.89,108.27 -18.13,207.47 -26.28,313.87 27.95,4.07 9.98,12.71 50.77,14.6 33.79,1.56 125.63,-22.6 188.64,-16.23l-23.09 12.22c-2.29,1.2 -6.05,6.04 -7.79,4.03 -1.74,-2.02 -5.18,2.72 -7.79,4.06 36.72,3.57 20.62,-11.89 22.22,15.32 1.56,1.53 3.48,2.21 4.15,5.09 0.8,3.45 6.59,7.74 7.94,8.89 13.73,11.66 13.18,5.54 29.98,10.5 52.84,15.59 -38.63,-16.5 11.27,4.06l11.52 6.28c13.27,-3.51 27.58,-9.88 39.07,-12.52 69.61,-15.98 28.28,-6.5 43.87,9.75l16.4 -30.76c28.31,-45.86 16.24,-31.31 94.33,-42.53 -36.91,-10.94 -44.59,-4.99 -81.64,4.21l19.25 -14.97c1.16,-3.44 4.01,-3.21 6.27,-4.41l-398.08 26.72 103.35 -1240.81c55.1,-10.78 450.7,-29.85 534.19,-33.27 174.95,-7.16 379.75,-31.21 550.77,-22.93 -23.63,-18.26 30.09,-8.64 -31.37,-16.25 4.39,-0.18 9.32,5.61 16.91,-8.05 14.12,-25.38 8.82,3.01 -2.1,-16.84 -14.01,21.53 -36.24,18.15 -84.42,19.32 -29.83,0.72 -58.05,2.03 -87.92,4.32l-540.09 28.21c-118.59,5.55 -238.49,11.23 -357.31,15.58 -94.1,3.44 -186.32,-90.43 -194.35,-170.68 -18.21,44.15 -40.01,163 -28.19,214.12z"/>
   <path class="fil8" d="M907.91 847.67c-21.38,6.26 -14.28,-15.59 -18.48,23.86 -6.15,26.94 10.85,66.61 33.93,87.17 3.82,3.41 12.83,9.7 13.27,10.08 19.37,16.72 1.28,-9.4 11.12,11.15 -43.05,4.1 -53.38,-26.67 -96.37,-38 -56.51,-14.9 -51.71,4 -71.92,-59.93 -24.78,-78.4 14.45,-149.8 49.21,-190.74 50.74,11.08 83.11,60.36 129.41,76.33l-10.13 7.96c-1.4,1.14 -8.04,6.32 -9.88,7.9 -13.96,12 -3.94,-1.03 -18.19,17.34 5.57,27.09 9.42,29.21 28.05,47.19 -13.55,8.68 21.15,6.68 -22.53,5.19 -13.93,-0.47 -11.33,-2.14 -17.49,-5.5zm-176.71 -177.76l75.54 11.38c-18.83,29.7 -20.76,13.09 -37.45,44.27 -26.53,49.56 -33.18,145.55 2.3,201.07 -12.45,31.25 -5.48,-0.2 -26.61,28.82 46.91,5.74 83.42,-1.56 124.57,17.9 39.78,18.82 50.25,44.68 85.6,61.55 10.48,-29.12 -21.02,-10.21 18.85,-41.42 27.56,-21.57 23.98,-7.47 45.59,-41.47 24.66,-38.81 43.21,-81.41 34.65,-135.49 28.98,-29.67 29.59,-9.26 39.22,-55.05l-57.71 -18.18c-12.6,-4.57 -34.71,-18.24 -44.47,-25.89 -27.52,-21.57 -50.27,-42.96 -76.38,-65.07 -91.44,-77.46 -176.06,-32.5 -183.71,17.59z"/>
   <path class="fil4" d="M782.65 1723.72l-46.98 14.58c-13.44,58.42 -36.45,192.78 -36.03,251.9 82.7,17.86 228.34,76.54 303.27,13.93 14.93,-59.29 -17.4,-89.92 -57.72,-107.75 -70.06,-30.99 -68.94,-19.96 -145.45,-21.58l45.52 -18.3 20.33 -135.55c-15.59,-16.24 25.73,-25.73 -43.87,-9.75 -11.49,2.64 -25.8,9.01 -39.07,12.52z"/>
   <path class="fil4" d="M1182.6 1829.87c34.46,-49.46 33.58,47.74 46.57,-157.43l-117.17 25.76c-24.1,148.34 -67.77,218.14 -0.38,244.61 74.33,29.19 197.04,40.98 270.63,9.8 26.51,-120.72 -107.64,-133.19 -199.65,-122.74z"/>
   <path class="fil9" d="M1219.04 908.45c13.61,17.63 23.46,29.69 34.32,43.61 27.48,31.68 49.07,10.55 43.77,50.4 23.89,-2.31 45.39,-33.02 62.69,-51.23l-19.16 -7.77c-0.41,1.65 -2.07,3.73 -2.51,4.43l-11 15.07c-85.57,-5.49 -107.36,-106.13 -101.16,-160.34 32.04,-19.82 14.44,3.86 76.22,-40.21 22.63,-16.14 4.23,-7.35 26.02,-12.19 17.36,-23.68 77.29,-71.32 102.87,-76.31 41.78,62.52 78.82,212.68 -31.19,234.25 -13.43,15.12 -6.78,8.41 -11.89,22.07 13.24,-1.04 110.86,-10.26 113.66,-11.47l-29.02 -23.6c55.15,-127.71 -5.41,-188.82 -19.56,-225.28l74.02 -21.34c-57.55,-132.05 -196.83,2.54 -257.89,57.22 -34.54,30.94 -41.67,42.44 -93.36,30.81 -0.8,64.59 16.7,33.67 26.06,74.63 5.81,25.42 12.29,71.98 17.1,97.24z"/>
   <path class="fil10" d="M865.59 1720.95l-20.33 135.55 -45.52 18.3c76.51,1.62 75.4,-9.41 145.45,21.58 40.32,17.83 72.65,48.47 57.72,107.75 -74.93,62.61 -220.57,3.93 -303.27,-13.93 -0.42,-59.11 22.59,-193.48 36.03,-251.9l46.98 -14.58 -11.52 -6.28c-49.89,-20.57 41.57,11.52 -11.27,-4.06 -16.8,-4.96 -16.26,1.16 -29.98,-10.5 -1.35,-1.15 -7.14,-5.44 -7.94,-8.89 -0.67,-2.88 -2.59,-3.56 -4.15,-5.09 -10.69,59.71 -52.76,259.46 -41.57,302.02 37.18,88.13 482.46,115.71 326.37,-81.23 -27.92,-35.22 -66.86,-52.67 -128.73,-60.2 -7.22,-56.55 21.27,-98.68 8.13,-159.31l-16.4 30.76z"/>
   <path class="fil11" d="M889.43 871.53c4.2,-39.45 -2.9,-17.61 18.48,-23.86 -2.54,-26.75 24.14,-115.5 -82.48,-127.21 -38.18,48.52 -53.23,75.53 -31.54,152.85 15.67,55.82 59.9,67.04 85.42,30.44l5.92 -11.88c0.71,-1.6 1.43,-4.03 1.96,-5.51 4.39,-12.39 6.19,-4.35 2.23,-14.82z"/>
   <path class="fil8" d="M1327.16 962.96l11 -15.07c0.44,-0.7 2.1,-2.78 2.51,-4.43l19.16 7.77 28.2 -21.01c5.11,-13.66 -1.54,-6.96 11.89,-22.07 17.46,-30.18 18.15,-69.86 7.21,-102.72 -11.65,-34.97 -30.13,-45.57 -73.4,-45.05 -9.86,12.5 -21.24,19.01 -29.93,25.93 11.69,31.52 13.67,29.3 34.27,56.44l-58.97 -2.98c9.27,112.55 20.2,58.56 48.05,123.19z"/>
   <path class="fil12" d="M1328.24 750.22l15.92 -5.51 -10.43 15.68c43.27,-0.53 61.75,10.07 73.4,45.05 10.95,32.86 10.26,72.54 -7.21,102.72 110.01,-21.57 72.98,-171.73 31.19,-234.25 -25.59,4.99 -85.52,52.64 -102.87,76.31z"/>
   <path class="fil13" d="M1206.63 943.8l-6.06 16.99c-28.8,9.28 -31.23,7.44 -51.76,-10.57 7.49,-31.76 -6.75,-15.68 24.64,-29.78 -80.65,-49.38 -136.92,50.37 -80.32,104.4 51.14,48.82 162.62,-6.78 113.5,-81.04z"/>
   <path class="fil14" d="M865.41 1262.08c72.52,-22.35 166.27,-156.57 347.94,-127.85 66.46,10.5 73.93,49.03 101.72,59.81 -13.19,-122.87 -228.31,-110.51 -354.09,-26.2 -39.51,26.49 -82.54,47.56 -95.58,94.24z"/>
   <path class="fil7" d="M1173.46 920.44l26.64 5.51 6.54 17.85c49.13,74.26 -62.36,129.85 -113.5,81.04 -56.6,-54.03 -0.34,-153.78 80.32,-104.4zm79.91 31.63c-10.87,-13.92 -20.72,-25.99 -34.32,-43.61 -19.48,-12.83 -69.51,-53.58 -126.25,-17.38 -27.66,17.64 -58.15,74.56 -38.88,117.27 32.02,71 141.74,68.98 176.57,12.01 6.41,-10.48 8.91,-21.77 11.7,-34.1 9.31,-41.08 0.64,-22.94 11.19,-34.19z"/>
   <path class="fil15" d="M889.43 871.53c3.95,10.47 2.16,2.43 -2.23,14.82 -0.52,1.48 -1.25,3.91 -1.96,5.51l-5.92 11.88c-25.52,36.61 -69.75,25.39 -85.42,-30.44 -21.7,-77.32 -6.65,-104.33 31.54,-152.85 106.62,11.71 79.94,100.46 82.48,127.21 6.17,3.36 3.57,5.03 17.49,5.5 43.68,1.48 8.97,3.49 22.53,-5.19 -18.63,-17.99 -22.48,-20.1 -28.05,-47.19 14.25,-18.37 4.24,-5.35 18.19,-17.34 1.84,-1.59 8.48,-6.76 9.88,-7.9l10.13 -7.96c-46.3,-15.97 -78.67,-65.25 -129.41,-76.33 -34.76,40.94 -74,112.34 -49.21,190.74 20.21,63.94 15.41,45.03 71.92,59.93 42.99,11.34 53.32,42.1 96.37,38 -9.85,-20.55 8.25,5.58 -11.12,-11.15 -0.44,-0.38 -9.45,-6.67 -13.27,-10.08 -23.08,-20.56 -40.07,-60.22 -33.93,-87.17z"/>
   <path class="fil16" d="M1327.16 962.96c-27.86,-64.63 -38.79,-10.64 -48.05,-123.19l58.97 2.98c-20.6,-27.14 -22.58,-24.92 -34.27,-56.44 8.69,-6.92 20.07,-13.43 29.93,-25.93l10.43 -15.68 -15.92 5.51c-21.8,4.85 -3.4,-3.94 -26.02,12.19 -61.78,44.06 -44.18,20.38 -76.22,40.21 -6.19,54.2 15.59,154.85 101.16,160.34z"/>
   <path class="fil17" d="M1633.39 1291.78c73.41,-14.68 99.08,0.02 123.52,-58.42 -16.25,-36.11 -64.41,-49.76 -108.47,-60.86l-15.05 119.28z"/>
   <path class="fil18" d="M264.93 1272.68c10.56,27.05 24.06,41.32 53.6,51.56l7.37 -91.5c-33.15,6.57 -46.82,19.29 -60.97,39.95z"/>
   <path class="fil19" d="M837.14 1302.84l49.19 4.83c-1.59,-3.33 -4.17,-7.97 -5.12,-6.29l-44.04 -28.7 -1.81 -57.23c-35.6,29.58 -29.73,53.09 1.79,87.39z"/>
   <path class="fil20" d="M1206.63 943.8l-6.54 -17.85 -26.64 -5.51c-31.39,14.1 -17.15,-1.98 -24.64,29.78 20.53,18.01 22.96,19.85 51.76,10.57l6.06 -16.99z"/>
  </g>
 </g>
</svg>
