<?xml version="1.0" encoding="UTF-8"?>
<!DOCTYPE svg PUBLIC "-//W3C//DTD SVG 1.1//EN" "http://www.w3.org/Graphics/SVG/1.1/DTD/svg11.dtd">
<!-- Creator: CorelDRAW 2021 (64 Bit) -->
<svg xmlns="http://www.w3.org/2000/svg" xml:space="preserve" width="76.7065mm" height="89.5996mm" version="1.1" style="shape-rendering:geometricPrecision; text-rendering:geometricPrecision; image-rendering:optimizeQuality; fill-rule:evenodd; clip-rule:evenodd"
viewBox="0 0 3629.74 4239.84"
 xmlns:xlink="http://www.w3.org/1999/xlink"
 xmlns:xodm="http://www.corel.com/coreldraw/odm/2003">
 <defs>
  <style type="text/css">
   <![CDATA[
    .fil2 {fill:#151948}
    .fil9 {fill:#2A0536}
    .fil10 {fill:#3B0867}
    .fil3 {fill:#470248}
    .fil4 {fill:#578BC4}
    .fil15 {fill:#64055A}
    .fil13 {fill:#D43BC3}
    .fil14 {fill:#D93B93}
    .fil0 {fill:#DD39C1}
    .fil12 {fill:#E53C51}
    .fil6 {fill:#EA9BB6}
    .fil16 {fill:#ECA3B9}
    .fil18 {fill:#ECD5EE}
    .fil5 {fill:#F4A4B3}
    .fil8 {fill:#F4EAD0}
    .fil7 {fill:#FCF4D7}
    .fil17 {fill:#FDF8E7}
    .fil11 {fill:#FDFBD4}
    .fil1 {fill:#FDFDFE}
   ]]>
  </style>
 </defs>
 <g id="Camada_x0020_1">
  <metadata id="CorelCorpID_0Corel-Layer"/>
  <g id="_2118458534768">
   <path class="fil0" d="M2130.43 1973.2c95.14,-41.13 286.89,-20.51 356.83,27.12 117.38,79.93 67.74,175.02 -30.8,221.32 -227.28,106.78 -596.26,-131.58 -326.02,-248.43zm-604.46 -251.91c228.67,-126.79 394.58,227.19 182.32,313.26 -216.59,87.83 -401.05,-191.99 -182.32,-313.26zm-752.64 86.23c81.43,-62.75 182.83,-98.62 310.19,-41.76 310.88,138.78 124.72,367.12 -152.15,261.44 -147.2,-56.19 -172.22,-100.67 -158.03,-219.67zm1664.08 86.71c-256.72,-29.88 -328.52,-30.96 -480.04,118.39l34.56 -103.33c-151.42,-98.05 -165.76,-438.26 -35.34,-617.97 11.25,-15.49 61.49,-69.91 62.2,-71.63 21.18,-50.84 -35.86,-30.87 16.84,-95.02 68,48.18 103.74,125.82 185.63,182.77 83.08,57.78 178.77,61.48 246.52,108.6 -31.96,84.87 -25.02,-25.04 -30.47,92.27 -9.82,211.27 22.91,96.85 -67.86,310.06 24.38,31.88 -5.26,-5.57 26.37,25.33l41.58 50.53zm-1446.58 -672.92c94.02,-32.93 174.36,-3.31 270.25,-55.15 57.81,-31.25 135.32,-124.7 197.87,-119 -10.05,67.58 -32.35,36.89 -16.5,96.28 5.72,21.45 32.28,60.09 44.04,95.91 68.45,208.47 20.98,478.15 -174.17,584.03 1.88,58.12 21.91,56.92 -3.39,99.49 -72.39,-90.75 -45.54,-111.74 -147.34,-173.89 -99.58,-60.79 -165.52,-38.3 -238.73,-76.12l90.48 -24.71c-9.76,-70.52 -24.43,-154.63 -16.97,-231.81 3.71,-38.39 17.27,-73.62 18.75,-110.02 4.65,-113.53 -1.31,-14.8 -24.28,-85.01zm1700.04 1557.73l182.61 -1907.44 -2053.72 -303.04c-24.16,341.11 -222.44,1917.79 -194.09,2103.98 90.21,36.8 137.27,29.76 224.18,-29.38 266.79,-181.57 131.95,-189.96 253.01,-350.14 226.74,-300.01 53.67,-97.07 339.47,-155.37 99.51,-20.3 118.85,28.6 160.33,86.17l267.98 12.78c32.07,-57.39 18.5,-97.88 86.16,-121.99 -58.5,185.63 30.09,143.37 63.73,242.19 -86.97,-9.48 -71.52,-55.23 -128.6,-67.89 -6.5,-1.44 -173.69,-5.46 -196.44,-5.62 -71.94,138.33 56.85,145.41 -14.77,230.57 -22.51,26.77 -68.47,47.11 -112.41,60.27 -151.67,45.44 -59.91,44.67 -192.13,131.76 -52.22,34.4 -67.91,21.45 -122.41,46.81l-162.87 163.12c47.52,16.11 110.51,56.45 154.4,57.82 51.73,1.62 112.22,-22.73 184.11,-18.93 205.42,10.86 392.66,177.08 511.95,319.56 233.01,278.32 -22.68,242.74 395.1,302.62 38.5,5.52 83.88,10.76 121.2,15.65 109.17,14.31 68.33,3.79 132.8,-2.08l26.55 -248.8c-145.87,-8.25 -254.72,-61.22 -340.61,-139.12 -119.64,-108.51 -160.23,1.21 -260.84,-218.76 -99.54,-13.4 -140.64,23.23 -188.13,-61.78 -34.74,-81.09 56.98,-222.23 108.28,-290.3 102.15,-135.56 192,-28 299.44,-26.13 117.09,2.03 118.71,-10.92 179.42,210.91 36.76,134.32 84.87,178.7 241.66,161.64 6.5,-41.45 8.17,-65.52 12.21,-108.25l22.45 -90.84z"/>
   <path class="fil1" d="M2655.84 3649.76c-69.55,34.34 -446.54,-41.83 -551.14,-60.36l-411.9 -65.54c-148.7,-30.63 -108.61,-11.6 -115.65,12.06 28.89,5.66 -1.24,-9.12 29.42,26.31 9.1,10.52 17.13,21.2 27.78,34.4 207.34,256.69 -11.7,348.87 -287.75,441.74 -397.11,133.6 -422.13,-150.93 -256.42,-303.8 68.64,-63.32 87.47,-48.53 154.57,-90.22 -19.67,-42.83 -84.48,-122.9 -117.78,-147.99 -295.61,235 -187.44,583.54 -743.05,299.85 -443.96,-226.68 -170.86,-587.19 302.49,-342.98 26.9,-38.27 73.14,-84.28 107.74,-127.12l-267.92 -59.06c-25.72,-80.46 0.65,-172.74 -1.41,-257.15 -96.15,-53.67 -163.64,-93.67 -200.42,-207.64 -35.99,-111.48 -30.89,-224.98 11.69,-330.9 174.91,-435.08 272.62,-197.1 295.57,-493.72 18.73,-242.06 108.56,-1246.06 141.04,-1427.31 9.85,-137.68 67.8,-205.87 170.52,-274.44 81.37,-54.32 184.27,-104.8 305.13,-110.98 158.11,-8.08 1545.4,207.6 1861.21,253.67 66.61,9.72 307.2,17.92 347.87,76.4 30.51,43.87 -224.66,2353.23 -267.49,2711.35 -25.08,209.66 3.9,300.68 -228.82,255.12 -92.54,-18.12 -153.93,-8.56 -200.17,42.6 -72.78,80.54 5.39,78.15 -105.1,145.71zm-2306.16 -547.01l-3.88 104.65c-134.09,30.06 -255.75,57.6 -316.34,192.58 -71.07,158.31 -1.57,301.37 81.53,390.9 183.77,197.98 451.62,293.22 734.82,259.58 114.39,212.33 351.44,234.08 623.04,124.95 204.51,-82.18 453.14,-181.42 408.55,-455.86 328.66,28.16 708.8,169.46 866.78,76.98 115.32,-67.51 85.26,-108.43 161.27,-175.94 218.45,55.5 384.71,0.25 427.9,-207.82 47.42,-228.46 230.57,-2106.5 272.75,-2528.94 76.41,-765.15 45.19,-526.44 -1322.86,-752.69 -202.76,-33.54 -405.11,-58.26 -608.23,-86.83 -258.38,-36.34 -562.73,-113.74 -835.87,96.9 -58.27,44.93 -138.48,116.4 -175.17,180.15 -93.04,161.62 -165,1266.15 -200.05,1566.17 -20.8,177.99 -22.19,138.11 -107.75,246.22 -253.89,320.83 -328.9,686.96 -6.49,968.98z"/>
   <path class="fil2" d="M2821.3 3407.94c-4.46,-44.54 -9.82,-97.49 18,-135.36l69.4 -54.98c2.8,-2.3 6.62,-5.74 9.18,-7.87l6.36 140.74c-4.13,2.95 -8.88,3.24 -10.6,8.89l-92.34 48.58zm-1491.83 -3056.6c119.32,0.19 362.07,42.46 483.57,61.62l950.01 136.55c82.8,10.93 163.6,18.86 246.54,30.8 41.17,5.93 80.71,11.74 122.02,16.81 47.15,5.78 79.73,6.21 116.35,34.94 -87.44,33.8 -662.2,-56.07 -784.55,-77.28 116.2,66.65 597.94,78.39 682.66,131.31 -94.96,47.51 -96.93,92.23 -223.18,76.34 -89.96,-11.32 -178.87,-27.46 -268.68,-41.99 -183.3,-29.65 -368.07,-53.66 -552.33,-80.65 -172.1,-25.21 -1005.57,-130.59 -1090.6,-167.68 89.96,-96.5 149.37,-84.32 226.55,-70.6l825.45 107.84c-100.87,-38.89 -501.38,-88.94 -660.33,-114.47 -60.66,-9.75 -217.08,-19.28 -180.86,-43.61 -7.03,-4.47 0.59,-19.42 -66.65,-4.33 -109.22,24.51 -120.06,86.61 -200.31,112.19 28.83,-51.05 77.51,-95.82 136.33,-126.87 123.37,-65.11 168.96,-25.78 217.62,-61.36 -128.03,-36.18 -375,65.53 -405.04,216.68 33.87,18.74 1860.87,296.81 2040.31,312.27 -19.11,21.7 -8.04,49.22 -132.24,28.1 -43.75,-7.44 -88.96,-14.27 -132.72,-20.67 -93.73,-13.71 -178.21,-27.84 -271,-43.7l-1579.54 -232.05c4.98,-208.34 289.36,-325.56 472.9,-313.84 229.91,14.68 488.97,53.06 712.93,87.47 134.1,20.59 1373.55,193.27 1393.98,212.18 7.36,12.93 7.45,3.76 11.21,29.5 3.29,22.57 2.73,8.9 1.14,36.03 -1.72,29.12 -10.62,73.46 -14.48,104.96l-53.54 543.73c-31.95,320.94 -213.25,2127.4 -255.47,2190.36l-114.13 -0.54 56.02 -55.58c-9.37,-170.05 50.51,-506.6 71.71,-691.08 26.18,-227.84 57.35,-457.36 73.15,-686.28 31.62,-458.45 117.16,-940.33 134.94,-1396.23 -278.72,-75.11 -725.74,-105.55 -1036.05,-153.64 -188.43,-29.2 -937.86,-155.23 -1065.11,-130.28l111.42 43.04zm-556.77 198.98l47.05 18.24 2053.72 303.04 -182.61 1907.44 -2.22 184.37 35.99 5.28c52.52,-36.36 61.94,-136.42 37.72,-196.05l-42.5 141.88c27.84,-505.49 112.43,-1047.08 156.24,-1560.39 7.99,-93.64 12.39,-164.25 23.24,-256.19 6.42,-54.36 -0.4,-206.15 48.55,-236.7l-149.72 1684.61c-0.32,3.97 -3.27,51.11 -3.17,52.16 0.34,3.3 1.06,7.88 1.63,10.87l53.85 -68.02c32,-295.26 44.71,-597.58 79.85,-892.73l72.2 -776.69c8.94,-77.16 -6.64,-50.65 38.13,-87.64 2.27,2.97 4.15,4.75 4.57,10.23 13.99,185.32 -28.01,382.26 -45.93,569.3 -17.86,186.54 -48.73,413.11 -46.94,597.99 54.11,-116.13 121.55,-999.28 135.36,-1201.75 21.43,-11.84 86.31,-51.63 98.37,-61.27 18.21,270.73 -101.43,664.49 -75.23,943.46l91.22 -775.16c3.97,-43.03 8.5,-89.17 13.57,-131.91 9.5,-80.07 7.09,-70.72 64.53,-92.78 -84.23,678.81 -143.98,1384.57 -213.25,2070.08 -12.22,120.95 -28.1,218.67 -37.83,337.81l-26.25 248.07c-11.52,80.25 7.23,47.32 -39.5,70.36l-5.68 -22.53c-7.12,-63.4 17.1,-174.25 29.13,-234.89 95.6,-481.84 17.65,-249.16 49.09,-567.72 9,-91.21 20.85,-198.97 15.98,-288.27l-57.71 375.46 -39.24 -68.67c10.65,167.87 84.22,243.98 9.5,462.86 -46.16,135.19 -137.28,237.1 -289.04,263.05 21.59,19.98 -25.92,13.79 41.44,15.82 25.07,0.76 62.92,-9.53 91.84,-14.86 0,24.45 2.36,71.66 -0.26,95.21l-19.98 66.04c-74.01,-15.53 -33.76,16.38 -55.64,-51.55 -2.54,-7.88 -1.27,-77.05 -1.34,-77.64l-80.81 14.8c-7.34,50.52 -16.65,143.25 -18.87,171.89 -3.15,40.61 -1.7,41.92 3.97,80.07l20.13 62.42c110.48,-67.56 32.31,-65.17 105.1,-145.71 46.24,-51.17 107.63,-60.72 200.17,-42.6 232.72,45.56 203.75,-45.46 228.82,-255.12 42.83,-358.12 298,-2667.48 267.49,-2711.35 -40.67,-58.49 -281.26,-66.68 -347.87,-76.4 -315.81,-46.08 -1703.1,-261.75 -1861.21,-253.67 -120.86,6.18 -223.76,56.66 -305.13,110.98 -102.72,68.57 -160.67,136.76 -170.52,274.44z"/>
   <path class="fil3" d="M580.82 3242.09l-3.69 -215.63c145.93,7.27 192.03,-2.25 320.24,-19.03 -0.87,188.78 93.47,339.26 -316.55,234.65zm372.23 -77.39c-48.33,-199.3 76.89,-258.81 216.23,-154.81 -37.19,35.37 -72,46.02 -109.11,75.87 -33.91,27.27 -63.14,60.15 -107.12,78.94zm238.83 -826.63c4.78,-1.87 11.26,-10.78 13.61,-7.22l66.92 -54.63c58.77,-49.27 192.32,-145.25 261.64,-75.88 -6.77,29.22 14.75,3.66 -38.75,35.79 -14.34,8.61 -44.04,24.89 -60,33.71 -65.98,36.39 -96.41,28.26 -99.67,105.17 78.03,-27.87 210.49,-173.74 315.7,-61.46 -24.1,56.04 33.79,10.3 -124.2,64.09 -46.83,15.94 -89.98,45.32 -119.6,75.18 79.41,35.06 121.56,-88.77 254.34,0.15 -38.13,100.95 -140.3,57.45 -214.92,122.09 -182.56,158.1 -80.17,63.73 -222.88,133.39 -52.06,25.41 -31.38,39.63 -86.37,83.71 -104.69,83.93 -202.95,162.17 -356.71,185.31 -496.39,74.71 -553.91,-483.91 -191.33,-767.31 -7.4,66.71 -46.3,399.37 -35.61,439.99 55.12,209.52 460.28,35.47 524.95,-210.24 24.75,-94.02 33.65,-87.37 84.45,-147.75 43.83,-52.11 32.89,-135.6 100.37,-122.64 4.4,9.17 52.31,-7.37 -24.59,71.62 -40.35,41.44 -33.4,17.16 -47.35,96.93zm-397.74 988.03c86.33,-21.4 39.85,2.31 54.33,12.53 100.24,-64.71 345.84,-411.18 667.53,-319.64 203.76,57.99 460.98,294.13 504.26,506.21 -87.28,-3.35 -228.67,-16.53 -283.5,-61.66 -55.02,-45.29 -110.56,-134.1 -186.23,-159.2 -32.21,28.82 3.41,6.22 -54.26,19.58 -24.14,5.6 -41.84,6.7 -63.9,13.22l6.67 79.02c46.99,47.49 49.92,94.86 112.65,125.82 21.79,6.09 9.55,10.97 25.45,-6.08 7.05,-23.66 -33.05,-42.7 115.65,-12.06l411.9 65.54c104.6,18.53 481.59,94.71 551.14,60.36l-20.13 -62.42c-5.66,-38.15 -7.11,-39.46 -3.97,-80.07 2.22,-28.64 11.53,-121.37 18.87,-171.89l80.81 -14.8c0.08,0.6 -1.19,69.76 1.34,77.64 21.88,67.93 -18.37,36.02 55.64,51.55l19.98 -66.04c2.62,-23.55 0.26,-70.76 0.26,-95.21 -28.92,5.34 -66.76,15.62 -91.84,14.86 -67.36,-2.03 -19.85,4.16 -41.44,-15.82 -129.77,7.72 -217.73,-7.62 -303.92,-71.8 -271.21,-201.99 -141.98,-80.63 -245.66,-141.32 -55.88,-32.71 -36.36,-73.05 -69.79,-116.54 -61.36,-79.83 -94.26,10.87 -165.93,-36.17 -38.3,-25.13 -21.79,-77.16 43.56,-90.61 50.72,-10.44 110.64,11.3 154.55,-6.92 -48.67,-55.26 -100.17,-32.89 -158.49,-46.7 -43.05,-10.19 -8.4,7.9 -38.99,-15.19 57.19,-135.6 183.99,-25.19 282.88,-11.68 -30.28,-97.29 -108.81,-63.35 -194.47,-110.44 64.91,-58.97 173.76,-14.66 235.11,20.57 86.36,49.59 74.05,79.43 115.48,107.02l33.03 10c22.78,149.63 56.81,250.14 242.5,254 85.36,1.77 101.36,-2.9 119.38,-63.09l-35.99 -5.28 2.22 -184.37 -22.45 90.84c-4.04,42.73 -5.71,66.8 -12.21,108.25 -156.79,17.07 -204.9,-27.31 -241.66,-161.64 -60.71,-221.84 -62.33,-208.88 -179.42,-210.91 -107.44,-1.86 -197.28,-109.42 -299.44,26.13 -51.3,68.07 -143.02,209.21 -108.28,290.3 47.49,85.01 88.59,48.38 188.13,61.78 100.61,219.97 141.19,110.25 260.84,218.76 85.89,77.9 194.74,130.87 340.61,139.12l-26.55 248.8c-64.47,5.87 -23.64,16.4 -132.8,2.08 -37.31,-4.9 -82.69,-10.14 -121.2,-15.65 -417.78,-59.88 -162.09,-24.3 -395.1,-302.62 -119.29,-142.48 -306.54,-308.7 -511.95,-319.56 -71.89,-3.8 -132.37,20.56 -184.11,18.93 -43.88,-1.37 -106.87,-41.71 -154.4,-57.82l162.87 -163.12c54.5,-25.36 70.19,-12.41 122.41,-46.81 132.22,-87.1 40.46,-86.33 192.13,-131.76 43.95,-13.16 89.9,-33.49 112.41,-60.27 71.62,-85.16 -57.17,-92.24 14.77,-230.57 22.75,0.16 189.94,4.17 196.44,5.62 57.07,12.66 41.62,58.41 128.6,67.89 -33.64,-98.82 -122.22,-56.56 -63.73,-242.19 -67.65,24.11 -54.09,64.6 -86.16,121.99l-267.98 -12.78c-41.48,-57.56 -60.82,-106.47 -160.33,-86.17 -285.8,58.3 -112.73,-144.64 -339.47,155.37 -121.06,160.19 13.79,168.58 -253.01,350.14 -86.91,59.15 -133.97,66.18 -224.18,29.38 -28.34,-186.19 169.94,-1762.87 194.09,-2103.98l-47.05 -18.24c-32.49,181.25 -122.31,1185.25 -141.04,1427.31 -22.95,296.62 -120.66,58.63 -295.57,493.72 -42.58,105.92 -47.68,219.42 -11.69,330.9 36.79,113.97 104.27,153.97 200.42,207.64 2.06,84.4 -24.32,176.69 1.41,257.15l267.92 59.06z"/>
   <path class="fil4" d="M1222.08 351.27l107.39 0.07 -111.42 -43.04c127.25,-24.96 876.69,101.08 1065.11,130.28 310.31,48.1 757.34,78.53 1036.05,153.64 -17.78,455.89 -103.32,937.78 -134.94,1396.23 -15.8,228.92 -46.96,458.44 -73.15,686.28 -21.2,184.48 -81.08,521.03 -71.71,691.08l-56.02 55.58 114.13 0.54c42.21,-62.95 223.52,-1869.42 255.47,-2190.36l53.54 -543.73c3.86,-31.5 12.76,-75.85 14.48,-104.96 1.59,-27.13 2.15,-13.46 -1.14,-36.03 -3.76,-25.74 -3.84,-16.57 -11.21,-29.5 -20.43,-18.91 -1259.88,-191.59 -1393.98,-212.18 -223.97,-34.4 -483.02,-72.79 -712.93,-87.47 -183.54,-11.72 -467.92,105.5 -472.9,313.84l1579.54 232.05c92.78,15.85 177.27,29.98 271,43.7 43.76,6.4 88.97,13.24 132.72,20.67 124.2,21.12 113.13,-6.4 132.24,-28.1 -179.44,-15.46 -2006.44,-293.53 -2040.31,-312.27 30.04,-151.15 277.02,-252.86 405.04,-216.68 -48.66,35.58 -94.25,-3.75 -217.62,61.36 -58.82,31.05 -107.51,75.82 -136.33,126.87 80.24,-25.58 91.08,-87.68 200.31,-112.19 67.23,-15.09 59.62,-0.14 66.65,4.33z"/>
   <path class="fil5" d="M848.48 3338.63c-29.6,45.45 -101.72,98.14 -137.63,182.35l-4.94 13.61c-111.53,-77.63 -361.86,-190.82 -487.44,-35.45 -63.63,141.59 303.37,350.88 503.2,346.45 167.81,-3.72 138.78,-230.64 436.64,-444.66 74.08,-53.23 270.09,-227.76 392.23,-96.59 75.67,25.11 131.21,113.92 186.23,159.2 54.83,45.13 196.22,58.31 283.5,61.66 -43.28,-212.08 -300.5,-448.23 -504.26,-506.21 -321.69,-91.55 -567.29,254.93 -667.53,319.64z"/>
   <path class="fil6" d="M2724.63 2968.69c-18.02,60.19 -34.02,64.87 -119.38,63.09 -185.69,-3.86 -219.73,-104.37 -242.5,-254l-33.03 -10c-41.43,-27.59 -29.12,-57.43 -115.48,-107.02 -61.35,-35.22 -170.2,-79.54 -235.11,-20.57 85.66,47.08 164.18,13.14 194.47,110.44 -98.89,-13.51 -225.69,-123.93 -282.88,11.68 30.59,23.1 -4.06,5 38.99,15.19 58.32,13.81 109.82,-8.56 158.49,46.7 -43.91,18.21 -103.83,-3.53 -154.55,6.92 -65.35,13.46 -81.85,65.48 -43.56,90.61 71.67,47.04 104.56,-43.67 165.93,36.17 33.43,43.49 13.91,83.83 69.79,116.54 103.68,60.69 -25.55,-60.68 245.66,141.32 86.18,64.18 174.15,79.52 303.92,71.8 151.76,-25.95 242.88,-127.86 289.04,-263.05 74.72,-218.89 1.15,-295 -9.5,-462.86l-104.44 -20.76 -53.85 68.02c-0.58,-2.99 -1.3,-7.57 -1.63,-10.87 -0.11,-1.06 2.85,-48.19 3.17,-52.16l149.72 -1684.61c-48.96,30.54 -42.13,182.34 -48.55,236.7 -10.86,91.94 -15.26,162.56 -23.24,256.19 -43.81,513.31 -128.4,1054.9 -156.24,1560.39l42.5 -141.88c24.21,59.63 14.8,159.69 -37.72,196.05z"/>
   <path class="fil5" d="M1191.88 2338.07c13.95,-79.77 7,-55.49 47.35,-96.93 76.9,-78.99 28.98,-62.45 24.59,-71.62 -67.49,-12.96 -56.54,70.53 -100.37,122.64 -50.79,60.38 -59.7,53.73 -84.45,147.75 -64.67,245.71 -469.83,419.76 -524.95,210.24 -10.69,-40.62 28.22,-373.28 35.61,-439.99 -362.58,283.4 -305.06,842.02 191.33,767.31 153.76,-23.14 252.02,-101.38 356.71,-185.31 54.99,-44.09 34.31,-58.3 86.37,-83.71 142.71,-69.66 40.32,24.72 222.88,-133.39 74.62,-64.63 176.8,-21.14 214.92,-122.09 -132.78,-88.92 -174.93,34.91 -254.34,-0.15 29.62,-29.86 72.77,-59.24 119.6,-75.18 157.98,-53.78 100.1,-8.04 124.2,-64.09 -105.21,-112.28 -237.67,33.6 -315.7,61.46 3.26,-76.91 33.69,-68.78 99.67,-105.17 15.97,-8.81 45.66,-25.09 60,-33.71 53.5,-32.13 31.97,-6.57 38.75,-35.79 -69.32,-69.37 -202.87,26.61 -261.64,75.88l-66.92 54.63c-2.35,-3.56 -8.83,5.35 -13.61,7.22z"/>
   <path class="fil7" d="M2850.49 2540.88l104.44 20.76 39.24 68.67 57.71 -375.46c4.87,89.3 -6.97,197.05 -15.98,288.27 -31.44,318.55 46.51,85.87 -49.09,567.72 -12.03,60.64 -36.25,171.48 -29.13,234.89l5.68 22.53c46.73,-23.04 27.98,9.89 39.5,-70.36l26.25 -248.07c9.73,-119.15 25.61,-216.86 37.83,-337.81 69.27,-685.51 129.02,-1391.27 213.25,-2070.08 -57.44,22.05 -55.03,12.7 -64.53,92.78 -5.06,42.74 -9.6,88.88 -13.57,131.91l-91.22 775.16c-26.2,-278.97 93.44,-672.73 75.23,-943.46 -12.06,9.64 -76.95,49.44 -98.37,61.27 -13.82,202.47 -81.25,1085.62 -135.36,1201.75 -1.78,-184.88 29.08,-411.45 46.94,-597.99 17.92,-187.04 59.92,-383.98 45.93,-569.3 -0.42,-5.48 -2.3,-7.26 -4.57,-10.23 -44.77,36.99 -29.19,10.48 -38.13,87.64l-72.2 776.69c-35.14,295.15 -47.85,597.48 -79.85,892.73z"/>
   <path class="fil8" d="M1329.47 351.34l-107.39 -0.07c-36.22,24.33 120.2,33.86 180.86,43.61 158.95,25.53 559.46,75.58 660.33,114.47l-825.45 -107.84c-77.18,-13.73 -136.59,-25.9 -226.55,70.6 85.03,37.08 918.5,142.47 1090.6,167.68 184.26,26.99 369.02,51 552.33,80.65 89.81,14.53 178.72,30.67 268.68,41.99 126.25,15.89 128.22,-28.83 223.18,-76.34 -84.72,-52.92 -566.46,-64.65 -682.66,-131.31 122.36,21.21 697.12,111.08 784.55,77.28 -36.61,-28.73 -69.2,-29.16 -116.35,-34.94 -41.31,-5.06 -80.85,-10.88 -122.02,-16.81 -82.94,-11.94 -163.74,-19.87 -246.54,-30.8l-950.01 -136.55c-121.49,-19.16 -364.25,-61.43 -483.57,-61.62z"/>
   <path class="fil5" d="M1551.7 3541.99c-62.73,-30.96 -65.66,-78.33 -112.65,-125.82l-60.73 -84.99c-92.04,32.49 -134.15,71.45 -191.82,127.46 16.39,45.65 53.31,97.54 90.65,140.11 55.12,62.85 64.97,35.96 152.15,61.05 -6.3,5.72 15.18,14.97 -76.18,24.86 -185.64,20.09 -350.38,105.06 -283.11,320.92 157.65,42.41 362.94,-33.72 490.33,-109.57 241.62,-143.88 28.14,-200.28 -8.65,-354.03z"/>
   <path class="fil9" d="M848.48 3338.63c-14.48,-10.22 32,-33.93 -54.33,-12.53 -34.6,42.84 -80.85,88.85 -107.74,127.12 -473.36,-244.21 -746.45,116.3 -302.49,342.98 555.61,283.69 447.44,-64.85 743.05,-299.85 33.29,25.08 98.11,105.15 117.78,147.99 -67.09,41.69 -85.93,26.9 -154.57,90.22 -165.71,152.87 -140.7,437.4 256.42,303.8 276.05,-92.87 495.09,-185.05 287.75,-441.74 -10.65,-13.19 -18.67,-23.87 -27.78,-34.4 -30.66,-35.43 -0.53,-20.65 -29.42,-26.31 -15.89,17.04 -3.66,12.17 -25.45,6.08 36.79,153.75 250.27,210.15 8.65,354.03 -127.39,75.86 -332.68,151.98 -490.33,109.57 -67.27,-215.86 97.46,-300.84 283.11,-320.92 91.37,-9.89 69.88,-19.14 76.18,-24.86 -87.19,-25.09 -97.03,1.79 -152.15,-61.05 -37.34,-42.57 -74.26,-94.46 -90.65,-140.11 57.67,-56.01 99.78,-94.97 191.82,-127.46l60.73 84.99 -6.67 -79.02c22.07,-6.52 39.76,-7.62 63.9,-13.22 57.67,-13.36 22.06,9.24 54.26,-19.58 -122.14,-131.16 -318.15,43.36 -392.23,96.59 -297.86,214.02 -268.83,440.94 -436.64,444.66 -199.83,4.42 -566.83,-204.86 -503.2,-346.45 125.58,-155.37 375.91,-42.19 487.44,35.45l4.94 -13.61c35.91,-84.22 108.03,-136.9 137.63,-182.35z"/>
   <path class="fil10" d="M1920.53 1515.64c-7.32,-101.84 78.07,-214.73 130.57,-256.77 72.46,34.38 89.28,67.22 154.58,111.24 24.24,16.34 47.94,31.02 80.37,44.05l56.88 19.99c95.69,45.13 49.59,217.26 20.13,294.65 -46.98,123.43 -56.83,97 -200,101.6 30.38,-65.62 54.67,-123.33 27.19,-202.39l-120.74 2.3c14.41,-22.76 18.51,-27.56 37.2,-49.34l46.76 -56.62c-55.01,-153.15 -206.39,-103.71 -232.96,-8.72zm71.41 393.65l-34.56 103.33c151.51,-149.35 223.32,-148.27 480.04,-118.39l-41.58 -50.53c-31.63,-30.9 -1.99,6.56 -26.37,-25.33 90.77,-213.21 58.04,-98.79 67.86,-310.06 5.45,-117.32 -1.49,-7.4 30.47,-92.27 -67.75,-47.12 -163.44,-50.82 -246.52,-108.6 -81.89,-56.95 -117.63,-134.59 -185.63,-182.77 -52.7,64.15 4.34,44.18 -16.84,95.02 -0.71,1.72 -50.95,56.14 -62.2,71.63 -130.42,179.71 -116.09,519.92 35.34,617.97z"/>
   <path class="fil10" d="M1034.47 1450.35c4.82,-233.1 90.38,-167.55 223.51,-223.43 59.74,-25.07 95.28,-48.22 140.48,-70.38 87.26,146.7 109.96,298.81 30.71,472.91 -13.65,29.98 -12.18,31.12 -32.28,59.53 -33.45,47.29 -36.59,42.87 -66.1,56.94 14.39,-90.44 28.28,-129.7 5.83,-221.23l-119.71 5c26.62,-46.55 61.87,-54 72.53,-89.1 19,-62.53 -111.59,-226.48 -254.97,9.77zm-43.64 -229.04c22.97,70.21 28.93,-28.51 24.28,85.01 -1.49,36.41 -15.05,71.64 -18.75,110.02 -7.45,77.18 7.21,161.29 16.97,231.81l-90.48 24.71c73.21,37.82 139.15,15.33 238.73,76.12 101.8,62.15 74.95,83.14 147.34,173.89 25.3,-42.57 5.28,-41.36 3.39,-99.49 195.15,-105.87 242.62,-375.56 174.17,-584.03 -11.76,-35.82 -38.32,-74.45 -44.04,-95.91 -15.85,-59.39 6.45,-28.7 16.5,-96.28 -62.55,-5.7 -140.07,87.75 -197.87,119 -95.88,51.83 -176.22,22.22 -270.25,55.15z"/>
   <path class="fil11" d="M1920.53 1515.64c26.57,-94.99 177.95,-144.43 232.96,8.72l-46.76 56.62c-18.69,21.78 -22.79,26.58 -37.2,49.34l120.74 -2.3c27.48,79.07 3.19,136.77 -27.19,202.39 143.17,-4.6 153.01,21.83 200,-101.6 29.46,-77.4 75.56,-249.52 -20.13,-294.65l-56.88 -19.99c-32.42,-13.03 -56.13,-27.71 -80.37,-44.05 -65.3,-44.02 -82.13,-76.87 -154.58,-111.24 -52.51,42.04 -137.89,154.93 -130.57,256.77z"/>
   <path class="fil12" d="M2130.43 1973.2c-270.23,116.86 98.75,355.21 326.02,248.43 98.54,-46.3 148.18,-141.39 30.8,-221.32 -69.94,-47.63 -261.69,-68.25 -356.83,-27.12z"/>
   <path class="fil12" d="M773.33 1807.52c-14.19,119 10.83,163.49 158.03,219.67 276.87,105.68 463.03,-122.66 152.15,-261.44 -127.36,-56.86 -228.76,-20.99 -310.19,41.76z"/>
   <path class="fil11" d="M1034.47 1450.35c143.38,-236.25 273.98,-72.3 254.97,-9.77 -10.67,35.1 -45.91,42.55 -72.53,89.1l119.71 -5c22.45,91.53 8.56,130.79 -5.83,221.23 29.51,-14.07 32.65,-9.64 66.1,-56.94 20.11,-28.42 18.63,-29.56 32.28,-59.53 79.25,-174.1 56.56,-326.2 -30.71,-472.91 -45.2,22.16 -80.74,45.3 -140.48,70.38 -133.13,55.88 -218.69,-9.67 -223.51,223.43z"/>
   <path class="fil13" d="M580.82 3242.09c410.02,104.6 315.68,-45.88 316.55,-234.65 -128.21,16.78 -174.31,26.3 -320.24,19.03l3.69 215.63z"/>
   <path class="fil14" d="M1517.98 1842.78c1.74,-65.38 44.52,-73.53 97.99,-53.92 5.33,83.02 -44.79,87.21 -97.99,53.92zm44.35 -83.47c-190.89,78.19 -38.16,314.09 136.94,232.2 147.01,-68.75 49.22,-308.45 -136.94,-232.2z"/>
   <path class="fil15" d="M1562.33 1759.32c186.16,-76.24 283.95,163.45 136.94,232.2 -175.1,81.89 -327.83,-154.02 -136.94,-232.2zm-36.37 -38.03c-218.73,121.27 -34.26,401.09 182.32,313.26 212.26,-86.07 46.35,-440.05 -182.32,-313.26z"/>
   <path class="fil16" d="M953.05 3164.7c43.97,-18.79 73.21,-51.67 107.12,-78.94 37.12,-29.84 71.92,-40.5 109.11,-75.87 -139.34,-104 -264.56,-44.49 -216.23,154.81z"/>
   <path class="fil17" d="M2913.64 3359.35c1.72,-5.65 6.48,-5.94 10.6,-8.89l-6.36 -140.74c-2.56,2.13 -6.38,5.57 -9.18,7.87l-69.4 54.98c-27.82,37.87 -22.46,90.82 -18,135.36l92.34 -48.58z"/>
   <path class="fil18" d="M1517.98 1842.78c53.2,33.28 103.32,29.1 97.99,-53.92 -53.47,-19.6 -96.24,-11.46 -97.99,53.92z"/>
  </g>
 </g>
</svg>
