<?xml version="1.0" encoding="UTF-8"?>
<svg id="Camada_2" data-name="Camada 2" xmlns="http://www.w3.org/2000/svg" viewBox="0 0 116.16 82.68">
  <defs>
    <style>
      .cls-1 {
        fill: #fff;
        stroke-width: 0px;
      }
    </style>
  </defs>
  <g id="Camada_1-2" data-name="Camada 1">
    <g>
      <g>
        <g>
          <path class="cls-1" d="m13.68,74.79c11.34,0,21.77,3.92,29.4,7.88-16.96-11.13-33.11-9.14-33.31-9.11l-1.35.18,1.19-7.02c-1.25-.37-2.44-.52-3.19-.58l-2.17,9.6c3.18-.66,6.34-.95,9.42-.95h0Z"/>
          <path class="cls-1" d="m7.22,55.61l-.96-.29L22.49,3.55c-2.02-.8-3.33-1.23-4.09-1.46L0,60.88c21.66.5,38.65,12.87,47.97,21.58C32.67,63.55,7.51,55.69,7.22,55.6h0Z"/>
          <path class="cls-1" d="m14.4,48.8c4.6,1.4,23.53,8.25,35.49,28.59-10.52-27.43-28.69-32.12-28.9-32.17l-1.05-.25.33-1.03L31.83,8.11l.79.07c4.93.42,7.93,3.46,9.42,5.53l1.75-5.02c-3.89-3.73-9.07-6.92-14.13-8.69l-15.26,48.79h0Z"/>
        </g>
        <g>
          <path class="cls-1" d="m111.9,75.74l-2.17-9.6c-.75.06-1.95.21-3.19.58l1.19,7.02-1.35-.18c-.05,0-1.25-.15-3.29-.15-5.6,0-17.59,1.11-30.02,9.27,9.71-5.03,23.94-10.01,38.83-6.93h0Z"/>
          <path class="cls-1" d="m93.67,3.56l16.23,51.77-.96.29c-.29.09-25.45,7.95-40.75,26.86,9.32-8.71,26.31-21.08,47.97-21.58L97.76,2.11c-.76.22-2.06.65-4.09,1.46h0Z"/>
          <path class="cls-1" d="m101.76,48.8L86.5,0c-5.06,1.77-10.24,4.95-14.13,8.68l1.75,5.02c1.49-2.07,4.49-5.12,9.42-5.53l.79-.07,11.89,36.86-1.05.25c-.21.05-18.38,4.74-28.9,32.17,11.96-20.35,30.89-27.18,35.49-28.59h0Z"/>
        </g>
      </g>
      <polygon class="cls-1" points="70.56 38.73 62.13 36.16 58 26.17 53.82 36.11 45.6 38.57 53.86 42.36 58.16 51.14 62.17 42.42 70.56 38.73"/>
    </g>
  </g>
</svg>