<?xml version="1.0" encoding="UTF-8"?>
<svg id="Camada_2" data-name="Camada 2" xmlns="http://www.w3.org/2000/svg" viewBox="0 0 235.44 235.44">
  <defs>
    <style>
      .cls-1 {
        fill: #fff;
      }

      .cls-1, .cls-2 {
        stroke-width: 0px;
      }

      .cls-2 {
        fill: #09092d;
      }
    </style>
  </defs>
  <g id="Camada_1-2" data-name="Camada 1">
    <circle class="cls-1" cx="117.72" cy="117.72" r="117.72"/>
    <g>
      <g>
        <g>
          <path class="cls-2" d="m73.32,151.17c11.34,0,21.77,3.92,29.4,7.88-16.96-11.13-33.11-9.14-33.31-9.11l-1.35.18,1.19-7.02c-1.25-.37-2.44-.52-3.19-.58l-2.17,9.6c3.18-.66,6.34-.95,9.42-.95h0Z"/>
          <path class="cls-2" d="m66.86,131.99l-.96-.29,16.23-51.77c-2.02-.8-3.33-1.23-4.09-1.46l-18.4,58.79c21.66.5,38.65,12.87,47.97,21.58-15.3-18.91-40.46-26.77-40.75-26.86h0Z"/>
          <path class="cls-2" d="m74.04,125.18c4.6,1.4,23.53,8.25,35.49,28.59-10.52-27.43-28.69-32.12-28.9-32.17l-1.05-.25.33-1.03,11.56-35.83.79.07c4.93.42,7.93,3.46,9.42,5.53l1.75-5.02c-3.89-3.73-9.07-6.92-14.13-8.69l-15.26,48.79h0Z"/>
        </g>
        <g>
          <path class="cls-2" d="m171.54,152.12l-2.17-9.6c-.75.06-1.95.21-3.19.58l1.19,7.02-1.35-.18c-.05,0-1.25-.15-3.29-.15-5.6,0-17.59,1.11-30.02,9.27,9.71-5.03,23.94-10.01,38.83-6.93h0Z"/>
          <path class="cls-2" d="m153.31,79.94l16.23,51.77-.96.29c-.29.09-25.45,7.95-40.75,26.86,9.32-8.71,26.31-21.08,47.97-21.58l-18.4-58.79c-.76.22-2.06.65-4.09,1.46h0Z"/>
          <path class="cls-2" d="m161.4,125.18l-15.26-48.79c-5.06,1.77-10.24,4.95-14.13,8.68l1.75,5.02c1.49-2.07,4.49-5.12,9.42-5.53l.79-.07,11.89,36.86-1.05.25c-.21.05-18.38,4.74-28.9,32.17,11.96-20.35,30.89-27.18,35.49-28.59h0Z"/>
        </g>
      </g>
      <polygon class="cls-2" points="130.2 115.11 121.77 112.54 117.64 102.55 113.46 112.49 105.24 114.95 113.5 118.74 117.8 127.52 121.81 118.8 130.2 115.11"/>
    </g>
  </g>
</svg>